<?xml version="1.0" encoding="utf-8"?>
<!-- Generator: Adobe Illustrator 24.1.0, SVG Export Plug-In . SVG Version: 6.00 Build 0)  -->
<svg version="1.1" id="Warstwa_1" xmlns="http://www.w3.org/2000/svg" xmlns:xlink="http://www.w3.org/1999/xlink" x="0px" y="0px"
	 viewBox="0 0 600 600" style="enable-background:new 0 0 600 600;" xml:space="preserve">
<style type="text/css">
	.st0{fill:#1EA2C1;}
	.st1{fill:url(#SVGID_1_);}
	.st2{fill:#FFFFFF;}
	.st3{fill:url(#SVGID_2_);}
</style>
<rect x="-9.5" y="611.3" width="618.5" height="618.5"/>
<rect x="-9.5" y="1855.4" width="618.5" height="618.5"/>
<g>
	<path d="M-474.4,392.6v22c0,0.9-0.7,1.6-1.6,1.6c-0.9,0-1.6-0.7-1.6-1.6V405h-13.9v9.6c0,0.9-0.7,1.6-1.6,1.6
		c-0.9,0-1.6-0.7-1.6-1.6v-22c0-0.9,0.7-1.6,1.6-1.6c0.9,0,1.6,0.7,1.6,1.6v9.2h13.9v-9.2c0-0.9,0.7-1.6,1.6-1.6
		C-475.1,391-474.4,391.7-474.4,392.6z"/>
	<path d="M-458.6,416.7c-2.3,0-4.4-0.5-6-1.4c-1.4-0.8-2.5-1.9-3.3-3.4c-1.3-2.4-1.3-5-1.3-5.8v-13.4c0-0.9,0.7-1.6,1.6-1.6
		c0.9,0,1.6,0.7,1.6,1.6v13.4c0,0.6,0,2.6,0.9,4.3c0.5,0.9,1.2,1.6,2.1,2.2c1.1,0.6,2.6,1,4.4,1c1.8,0,3.3-0.4,4.4-1
		c0.9-0.5,1.6-1.2,2.1-2.1c0.9-1.7,0.9-3.7,0.9-4.3v-13.4c0-0.9,0.7-1.6,1.6-1.6c0.9,0,1.6,0.7,1.6,1.6v13.4c0,0.8,0,3.4-1.3,5.8
		C-450.5,414.1-453.1,416.7-458.6,416.7z"/>
	<path d="M-419.6,416.2c-0.9,0-1.6-0.7-1.6-1.6v-17.1l-7.9,10.8c-0.3,0.4-0.8,0.6-1.3,0.6s-1-0.2-1.3-0.6l-7.9-10.8v17.1
		c0,0.9-0.7,1.6-1.6,1.6c-0.9,0-1.6-0.7-1.6-1.6v-22c0-0.7,0.4-1.3,1.1-1.5c0.6-0.2,1.4,0,1.8,0.6l9.5,13l9.5-13
		c0.4-0.5,1.1-0.8,1.8-0.6c0.6,0.2,1.1,0.8,1.1,1.5v22C-418,415.5-418.7,416.2-419.6,416.2z"/>
	<path d="M-411.5,416.3c-0.3,0-0.7-0.1-1-0.3c-0.6-0.5-0.8-1.3-0.5-2l10.7-22c0.3-0.5,0.8-0.9,1.4-0.9c0.6,0,1.2,0.4,1.4,0.9
		l10.8,22c0.4,0.8,0.1,1.7-0.7,2.1c-0.8,0.4-1.8,0.1-2.2-0.7l-2.5-5.2c-1.7-0.5-3.4-0.5-5.3-0.2c-1.8,0.3-3.6,1-5.5,2
		c-3.3,1.7-5.6,3.9-5.6,3.9C-410.7,416.2-411.1,416.3-411.5,416.3z M-400.8,396.4l-6.5,13.3c0.3-0.2,0.6-0.3,0.9-0.5
		c2.2-1.2,4.3-1.9,6.4-2.3c1.4-0.3,2.8-0.4,4.2-0.2L-400.8,396.4z"/>
	<path d="M-364.7,416.4c-0.5,0-0.9-0.2-1.3-0.6l-15.5-18.7v17.6c0,0.9-0.7,1.6-1.6,1.6c-0.9,0-1.6-0.7-1.6-1.6v-22
		c0-0.7,0.4-1.3,1.1-1.5c0.6-0.2,1.3,0,1.8,0.5l15.6,18.6v-17.6c0-0.9,0.7-1.6,1.6-1.6c0.9,0,1.6,0.7,1.6,1.6v22
		c0,0.7-0.4,1.3-1.1,1.5C-364.4,416.4-364.5,416.4-364.7,416.4z"/>
	<path d="M-330.3,416.8c-1.8,0-3.5-0.4-5.2-1.1c-1.5-0.7-3-1.6-4.2-2.8c-1.2-1.2-2.2-2.6-2.8-4.2c-0.7-1.6-1-3.3-1-5
		c0-1.8,0.4-3.5,1-5.1c0.7-1.5,1.6-3,2.9-4.1c1.2-1.2,2.7-2.2,4.2-2.8c1.6-0.7,3.4-1,5.1-1c2.9,0,5.6,0.9,7.8,2.6
		c0.7,0.5,0.8,1.5,0.3,2.2c-0.5,0.7-1.6,0.8-2.2,0.3c-1.7-1.3-3.7-2-5.9-2c-1.4,0-2.7,0.3-3.9,0.8c-1.2,0.5-2.3,1.2-3.2,2.2
		c-0.9,0.9-1.6,2-2.2,3.1c-0.5,1.2-0.8,2.5-0.8,3.8s0.3,2.6,0.8,3.8c0.5,1.2,1.2,2.2,2.2,3.1c1.9,1.9,4.4,3,7.1,3
		c1.2,0,2.3-0.2,3.4-0.6c1.1-0.4,2-1,2.9-1.7c0.7-0.6,1.7-0.5,2.2,0.2s0.5,1.7-0.2,2.2c-1.2,1-2.4,1.7-3.8,2.2
		C-327.2,416.5-328.8,416.8-330.3,416.8z"/>
	<path d="M-303.2,416.9c-1.8,0-3.5-0.4-5.1-1.1c-1.6-0.7-3-1.6-4.2-2.8c-1.2-1.2-2.2-2.6-2.8-4.2c-0.7-1.6-1-3.3-1-5
		c0-1.8,0.4-3.5,1.1-5.1c0.7-1.5,1.6-3,2.9-4.1c1.2-1.2,2.6-2.2,4.2-2.8c1.6-0.7,3.4-1,5.2-1c3.5,0,6.8,1.4,9.2,3.9
		c1.2,1.2,2.1,2.6,2.7,4.1c0.7,1.6,1,3.3,1,5c0,1.8-0.3,3.5-1,5c-0.6,1.6-1.6,3-2.8,4.2C-296.4,415.5-299.7,416.9-303.2,416.9z
		 M-303.1,393.9c-1.3,0-2.7,0.3-3.9,0.8c-1.2,0.5-2.3,1.2-3.2,2.2c-0.9,0.9-1.7,2-2.2,3.1c-0.5,1.2-0.8,2.5-0.8,3.8
		c0,1.3,0.3,2.6,0.8,3.8c0.5,1.2,1.2,2.2,2.2,3.1c1.9,1.9,4.4,3,7.1,3c2.7,0,5.1-1.1,7-2.9c0.9-0.9,1.6-2,2.1-3.1
		c0.5-1.2,0.7-2.5,0.7-3.8c0-2.6-1-5.1-2.8-6.9C-298,394.9-300.5,393.9-303.1,393.9z"/>
	<path d="M-269.5,416.3h-14c-0.9,0-1.6-0.7-1.6-1.6v-22c0-0.9,0.7-1.6,1.6-1.6c0.9,0,1.6,0.7,1.6,1.6v20.4h12.4
		c0.9,0,1.6,0.7,1.6,1.6C-267.9,415.6-268.6,416.3-269.5,416.3z"/>
	<path d="M-249.8,416.9c-1.8,0-3.5-0.4-5.1-1.1c-1.6-0.7-3-1.6-4.2-2.8c-1.2-1.2-2.2-2.6-2.8-4.2c-0.7-1.6-1-3.3-1-5
		c0-1.8,0.4-3.5,1.1-5.1c0.7-1.5,1.6-3,2.9-4.1c1.2-1.2,2.6-2.2,4.2-2.8c1.6-0.7,3.4-1,5.2-1c3.5,0,6.8,1.4,9.2,3.9
		c1.2,1.2,2.1,2.6,2.7,4.1c0.7,1.6,1,3.3,1,5c0,1.8-0.3,3.5-1,5c-0.6,1.6-1.6,3-2.8,4.2C-242.9,415.5-246.2,416.9-249.8,416.9z
		 M-249.7,393.9c-1.3,0-2.7,0.3-3.9,0.8c-1.2,0.5-2.3,1.2-3.2,2.2c-0.9,0.9-1.7,2-2.2,3.1c-0.5,1.2-0.8,2.5-0.8,3.8
		c0,1.3,0.3,2.6,0.8,3.8c0.5,1.2,1.2,2.2,2.2,3.1c1.9,1.9,4.4,3,7.1,3c2.7,0,5.1-1.1,7-2.9c0.9-0.9,1.6-2,2.1-3.1
		c0.5-1.2,0.7-2.5,0.7-3.8c0-2.6-1-5.1-2.8-6.9C-244.6,394.9-247,393.9-249.7,393.9z"/>
	<path d="M-222.4,416.7c-7,0-8.9-3.3-9.2-3.7c-0.4-0.8-0.1-1.8,0.6-2.2c0.8-0.4,1.7-0.1,2.2,0.6c0.1,0.1,0.4,0.5,1.2,1
		c1.6,0.9,3.7,1.1,5.1,1.1c2.1,0,3.7-0.4,4.6-1.3c0.7-0.6,0.9-1.4,0.9-2c0-1.2-0.4-2.1-1.1-2.8c-1-1-2.7-1.7-5.2-2.2
		c-1.8-0.4-3.3-1-4.5-1.8c-1-0.7-1.8-1.6-2.4-2.6c-0.9-1.6-0.9-3.1-0.9-3.4c0-1.7,0.8-3.4,2.2-4.6c0.7-0.6,1.5-1.1,2.4-1.4
		c1-0.4,2-0.5,3.1-0.5c6.3,0,8.1,3,8.3,3.3c0.4,0.8,0.2,1.8-0.6,2.2c-0.8,0.4-1.7,0.2-2.2-0.6c-0.1-0.1-0.4-0.4-1.1-0.8
		c-0.8-0.4-2.2-0.9-4.5-0.9c-1.8,0-2.8,0.6-3.4,1.2c-0.7,0.6-1.1,1.4-1.1,2.3v0.1c0,0.1,0,0.9,0.6,1.9c0.4,0.6,0.8,1.1,1.5,1.5
		c0.8,0.5,1.9,1,3.2,1.3c3.1,0.6,5.3,1.6,6.8,3.1c1.4,1.3,2.1,3.1,2.1,5.1c0,1.7-0.7,3.2-1.9,4.4
		C-217.1,416-219.4,416.7-222.4,416.7z"/>
	<path d="M-199.2,416.7c-7,0-8.9-3.3-9.2-3.7c-0.4-0.8-0.1-1.8,0.6-2.2c0.8-0.4,1.7-0.1,2.2,0.6c0.1,0.1,0.4,0.5,1.2,1
		c1.6,0.9,3.7,1.1,5.1,1.1c2.1,0,3.7-0.4,4.6-1.3c0.7-0.6,0.9-1.4,0.9-2c0-1.2-0.4-2.1-1.1-2.8c-1-1-2.7-1.7-5.2-2.2
		c-1.8-0.4-3.3-1-4.5-1.8c-1-0.7-1.8-1.6-2.4-2.6c-0.9-1.6-0.9-3.1-0.9-3.4c0-1.7,0.8-3.4,2.2-4.6c0.7-0.6,1.5-1.1,2.4-1.4
		c1-0.4,2-0.5,3.1-0.5c6.3,0,8.1,3,8.3,3.3c0.4,0.8,0.2,1.8-0.6,2.2c-0.8,0.4-1.7,0.2-2.2-0.6c-0.1-0.1-0.4-0.4-1.1-0.8
		c-0.8-0.4-2.2-0.9-4.5-0.9c-1.8,0-2.8,0.6-3.4,1.2c-0.7,0.6-1.1,1.4-1.1,2.3v0.1c0,0.1,0,0.9,0.6,1.9c0.4,0.6,0.8,1.1,1.5,1.5
		c0.8,0.5,1.9,1,3.2,1.3c3.1,0.6,5.3,1.6,6.8,3.1c1.4,1.3,2.1,3.1,2.1,5.1c0,1.7-0.7,3.2-1.9,4.4
		C-193.9,416-196.2,416.7-199.2,416.7z"/>
	<path d="M-174.7,416.7c-2.3,0-4.4-0.5-6-1.4c-1.4-0.8-2.5-1.9-3.3-3.4c-1.3-2.4-1.3-5-1.3-5.8v-13.4c0-0.9,0.7-1.6,1.6-1.6
		c0.9,0,1.6,0.7,1.6,1.6v13.4c0,0.6,0,2.6,0.9,4.3c0.5,0.9,1.2,1.6,2.1,2.2c1.1,0.6,2.6,1,4.4,1c1.8,0,3.3-0.4,4.4-1
		c0.9-0.5,1.6-1.2,2.1-2.1c0.9-1.7,0.9-3.7,0.9-4.3v-13.4c0-0.9,0.7-1.6,1.6-1.6c0.9,0,1.6,0.7,1.6,1.6v13.4c0,0.8,0,3.4-1.3,5.8
		C-166.6,414.1-169.2,416.7-174.7,416.7z"/>
	<path d="M-149.6,416.7c-7,0-8.9-3.3-9.2-3.7c-0.4-0.8-0.1-1.8,0.6-2.2c0.8-0.4,1.7-0.1,2.2,0.6c0.1,0.1,0.4,0.5,1.2,1
		c1.6,0.9,3.7,1.1,5.1,1.1c2.1,0,3.7-0.4,4.6-1.3c0.7-0.6,0.9-1.4,0.9-2c0-1.2-0.4-2.1-1.1-2.8c-1-1-2.7-1.7-5.2-2.2
		c-1.8-0.4-3.3-1-4.5-1.8c-1-0.7-1.8-1.6-2.4-2.6c-0.9-1.6-0.9-3.1-0.9-3.4c0-1.7,0.8-3.4,2.2-4.6c0.7-0.6,1.5-1.1,2.4-1.4
		c1-0.4,2-0.5,3.1-0.5c6.3,0,8.1,3,8.3,3.3c0.4,0.8,0.2,1.8-0.6,2.2c-0.8,0.4-1.7,0.2-2.2-0.6c-0.1-0.1-0.4-0.4-1.1-0.8
		c-0.8-0.4-2.2-0.9-4.5-0.9c-1.8,0-2.8,0.6-3.4,1.2c-0.7,0.6-1.1,1.4-1.1,2.3v0.1c0,0.1,0,0.9,0.6,1.9c0.4,0.6,0.8,1.1,1.5,1.5
		c0.8,0.5,1.9,1,3.2,1.3c3.1,0.6,5.3,1.6,6.8,3.1c1.4,1.3,2.1,3.1,2.1,5.1c0,1.7-0.7,3.2-1.9,4.4
		C-144.3,416-146.6,416.7-149.6,416.7z"/>
	<path d="M-389.1,434.3c0,0.5-0.4,1-1,1h-8.1v4.8h6.9c0.5,0,1,0.4,1,1c0,0.5-0.4,1-1,1h-6.9v5.5c0,0.5-0.4,1-1,1s-1-0.4-1-1v-13.2
		c0-0.5,0.4-1,1-1h9.1C-389.5,433.3-389.1,433.8-389.1,434.3z"/>
	<path d="M-376.3,448.8c-1.1,0-2.1-0.2-3.1-0.6c-0.9-0.4-1.8-1-2.5-1.7c-0.7-0.7-1.3-1.6-1.7-2.5c-0.4-1-0.6-2-0.6-3
		c0-1.1,0.2-2.1,0.6-3c0.4-0.9,1-1.8,1.7-2.5c0.7-0.7,1.6-1.3,2.5-1.7c1-0.4,2-0.6,3.1-0.6c2.1,0,4.1,0.8,5.5,2.3
		c0.7,0.7,1.3,1.6,1.6,2.5c0.4,1,0.6,2,0.6,3c0,1.1-0.2,2.1-0.6,3c-0.4,0.9-0.9,1.8-1.7,2.5C-372.2,448-374.1,448.8-376.3,448.8z
		 M-376.2,435c-0.8,0-1.6,0.2-2.4,0.5c-0.7,0.3-1.4,0.7-1.9,1.3c-0.6,0.5-1,1.2-1.3,1.9c-0.3,0.7-0.5,1.5-0.5,2.3s0.2,1.5,0.5,2.3
		c0.3,0.7,0.7,1.3,1.3,1.9c1.1,1.1,2.6,1.8,4.2,1.8s3.1-0.6,4.2-1.8c0.5-0.5,0.9-1.2,1.3-1.9c0.3-0.7,0.4-1.5,0.4-2.3
		c0-1.6-0.6-3.1-1.7-4.2C-373.1,435.6-374.6,435-376.2,435z"/>
	<path d="M-357.1,448.7c-1.4,0-2.6-0.3-3.6-0.9c-0.8-0.5-1.5-1.2-2-2c-0.8-1.5-0.8-3-0.8-3.5v-8c0-0.5,0.4-1,1-1c0.5,0,1,0.4,1,1v8
		c0,0.4,0,1.5,0.6,2.6c0.3,0.6,0.7,1,1.3,1.3c0.7,0.4,1.6,0.6,2.6,0.6c1.1,0,2-0.2,2.6-0.6c0.5-0.3,0.9-0.7,1.2-1.3
		c0.6-1,0.6-2.2,0.6-2.6v-8c0-0.5,0.4-1,1-1c0.5,0,1,0.4,1,1v8c0,0.5,0,2-0.8,3.5C-352.3,447.1-353.8,448.7-357.1,448.7z"/>
	<path d="M-333.8,448.5c-0.3,0-0.6-0.1-0.8-0.3l-9.3-11.2v10.6c0,0.5-0.4,1-1,1s-1-0.4-1-1v-13.2c0-0.4,0.3-0.8,0.6-0.9
		c0.4-0.1,0.8,0,1.1,0.3l9.3,11.2v-10.5c0-0.5,0.4-1,1-1c0.5,0,1,0.4,1,1v13.2c0,0.4-0.3,0.8-0.6,0.9
		C-333.6,448.5-333.7,448.5-333.8,448.5z"/>
	<path d="M-322.1,448.5L-322.1,448.5h-4.7c-0.5,0-1-0.4-1-1v-13.2c0-0.2,0.1-0.5,0.3-0.7c0.2-0.2,0.4-0.3,0.7-0.3h4.8
		c1.1,0,2.1,0.2,3,0.6c0.9,0.4,1.8,0.9,2.5,1.6c0.7,0.7,1.3,1.5,1.7,2.4c0.4,0.9,0.6,1.9,0.6,2.9c0,1-0.2,2-0.6,2.9
		c-0.4,0.9-1,1.7-1.7,2.4c-0.7,0.7-1.6,1.2-2.5,1.6C-320,448.3-321.1,448.5-322.1,448.5z M-325.9,446.5h3.8c0.8,0,1.5-0.2,2.3-0.5
		s1.3-0.7,1.9-1.2s1-1.1,1.3-1.8c0.3-0.7,0.5-1.4,0.5-2.1c0-0.8-0.2-1.5-0.5-2.2c-0.3-0.7-0.7-1.3-1.3-1.8c-1.1-1.1-2.6-1.7-4.2-1.7
		h-3.8V446.5z"/>
	<path d="M-309.3,448.5c-0.2,0-0.4-0.1-0.6-0.2c-0.4-0.3-0.5-0.8-0.3-1.2l6.4-13.2c0.2-0.3,0.5-0.5,0.9-0.5s0.7,0.2,0.9,0.5
		l6.5,13.2c0.2,0.5,0,1-0.4,1.3c-0.5,0.2-1.1,0-1.3-0.4l-1.5-3.1c-1-0.3-2.1-0.3-3.2-0.1c-1.1,0.2-2.2,0.6-3.3,1.2
		c-2,1-3.3,2.3-3.4,2.3C-308.9,448.4-309.1,448.5-309.3,448.5z M-302.9,436.5l-3.9,8c0.2-0.1,0.3-0.2,0.5-0.3
		c1.3-0.7,2.6-1.2,3.9-1.4c0.9-0.2,1.7-0.2,2.5-0.1L-302.9,436.5z"/>
	<path d="M-281,434.3c0,0.5-0.4,1-1,1h-4.2v12.3c0,0.5-0.4,1-1,1c-0.5,0-1-0.4-1-1v-12.3h-4.2c-0.5,0-1-0.4-1-1c0-0.5,0.4-1,1-1
		h10.4C-281.4,433.3-281,433.7-281,434.3z"/>
	<path d="M-275,448.5c-0.5,0-1-0.4-1-1v-13.2c0-0.5,0.4-1,1-1c0.5,0,1,0.4,1,1v13.2C-274,448-274.4,448.5-275,448.5z"/>
	<path d="M-261.2,448.8c-1.1,0-2.1-0.2-3.1-0.6c-0.9-0.4-1.8-1-2.5-1.7c-0.7-0.7-1.3-1.6-1.7-2.5c-0.4-1-0.6-2-0.6-3
		c0-1.1,0.2-2.1,0.6-3c0.4-0.9,1-1.8,1.7-2.5c0.7-0.7,1.6-1.3,2.5-1.7c1-0.4,2-0.6,3.1-0.6c2.1,0,4.1,0.8,5.5,2.3
		c0.7,0.7,1.3,1.6,1.6,2.5c0.4,1,0.6,2,0.6,3c0,1.1-0.2,2.1-0.6,3c-0.4,0.9-0.9,1.8-1.7,2.5C-257.1,448-259.1,448.8-261.2,448.8z
		 M-261.1,435c-0.8,0-1.6,0.2-2.4,0.5c-0.7,0.3-1.4,0.7-1.9,1.3c-0.6,0.5-1,1.2-1.3,1.9c-0.3,0.7-0.5,1.5-0.5,2.3s0.2,1.5,0.5,2.3
		c0.3,0.7,0.7,1.3,1.3,1.9c1.1,1.1,2.6,1.8,4.2,1.8s3.1-0.6,4.2-1.8c0.5-0.5,0.9-1.2,1.3-1.9c0.3-0.7,0.4-1.5,0.4-2.3
		c0-1.6-0.6-3.1-1.7-4.2C-258.1,435.6-259.5,435-261.1,435z"/>
	<path d="M-236.5,448.5c-0.3,0-0.6-0.1-0.8-0.3l-9.3-11.2v10.6c0,0.5-0.4,1-1,1s-1-0.4-1-1v-13.2c0-0.4,0.3-0.8,0.6-0.9
		c0.4-0.1,0.8,0,1.1,0.3l9.3,11.2v-10.5c0-0.5,0.4-1,1-1c0.5,0,1,0.4,1,1v13.2c0,0.4-0.3,0.8-0.6,0.9
		C-236.2,448.5-236.4,448.5-236.5,448.5z"/>
</g>
<g>
	<path d="M142.6,392.6v22c0,0.9-0.7,1.6-1.6,1.6c-0.9,0-1.6-0.7-1.6-1.6V405h-13.9v9.6c0,0.9-0.7,1.6-1.6,1.6
		c-0.9,0-1.6-0.7-1.6-1.6v-22c0-0.9,0.7-1.6,1.6-1.6c0.9,0,1.6,0.7,1.6,1.6v9.2h13.9v-9.2c0-0.9,0.7-1.6,1.6-1.6
		C141.9,391,142.6,391.7,142.6,392.6z"/>
	<path d="M158.4,416.7c-2.3,0-4.4-0.5-6-1.4c-1.4-0.8-2.5-1.9-3.3-3.4c-1.3-2.4-1.3-5-1.3-5.8v-13.4c0-0.9,0.7-1.6,1.6-1.6
		c0.9,0,1.6,0.7,1.6,1.6v13.4c0,0.6,0,2.6,0.9,4.3c0.5,0.9,1.2,1.6,2.1,2.2c1.1,0.6,2.6,1,4.4,1c1.8,0,3.3-0.4,4.4-1
		c0.9-0.5,1.6-1.2,2.1-2.1c0.9-1.7,0.9-3.7,0.9-4.3v-13.4c0-0.9,0.7-1.6,1.6-1.6c0.9,0,1.6,0.7,1.6,1.6v13.4c0,0.8,0,3.4-1.3,5.8
		C166.5,414.1,163.9,416.7,158.4,416.7z"/>
	<path d="M197.4,416.2c-0.9,0-1.6-0.7-1.6-1.6v-17.1l-7.9,10.8c-0.3,0.4-0.8,0.6-1.3,0.6c-0.5,0-1-0.2-1.3-0.6l-7.9-10.8v17.1
		c0,0.9-0.7,1.6-1.6,1.6c-0.9,0-1.6-0.7-1.6-1.6v-22c0-0.7,0.5-1.3,1.1-1.5c0.6-0.2,1.4,0,1.8,0.6l9.5,13l9.5-13
		c0.4-0.5,1.1-0.8,1.8-0.6c0.6,0.2,1.1,0.8,1.1,1.5v22C199,415.5,198.3,416.2,197.4,416.2z"/>
	<path d="M205.6,416.3c-0.3,0-0.7-0.1-1-0.3c-0.6-0.5-0.8-1.3-0.5-2l10.7-22c0.3-0.5,0.8-0.9,1.4-0.9s1.2,0.4,1.4,0.9l10.8,22
		c0.4,0.8,0.1,1.7-0.7,2.1c-0.8,0.4-1.8,0.1-2.2-0.7l-2.5-5.2c-1.7-0.5-3.4-0.5-5.3-0.2c-1.8,0.3-3.6,1-5.5,2
		c-3.3,1.7-5.6,3.9-5.6,3.9C206.4,416.2,206,416.3,205.6,416.3z M216.3,396.4l-6.5,13.3c0.3-0.2,0.6-0.3,0.9-0.5
		c2.2-1.2,4.3-1.9,6.4-2.3c1.4-0.3,2.8-0.4,4.2-0.2L216.3,396.4z"/>
	<path d="M252.3,416.4c-0.5,0-0.9-0.2-1.3-0.6l-15.5-18.7v17.6c0,0.9-0.7,1.6-1.6,1.6c-0.9,0-1.6-0.7-1.6-1.6v-22
		c0-0.7,0.4-1.3,1.1-1.5c0.6-0.2,1.3,0,1.8,0.5l15.6,18.6v-17.6c0-0.9,0.7-1.6,1.6-1.6c0.9,0,1.6,0.7,1.6,1.6v22
		c0,0.7-0.5,1.3-1.1,1.5C252.7,416.4,252.5,416.4,252.3,416.4z"/>
	<path d="M286.7,416.8c-1.8,0-3.5-0.4-5.2-1.1c-1.5-0.7-3-1.6-4.2-2.8c-1.2-1.2-2.2-2.6-2.8-4.2c-0.7-1.6-1-3.3-1-5
		c0-1.8,0.4-3.5,1-5.1c0.7-1.5,1.6-3,2.9-4.1c1.2-1.2,2.7-2.2,4.2-2.8c1.6-0.7,3.4-1,5.1-1c2.9,0,5.6,0.9,7.8,2.6
		c0.7,0.5,0.8,1.5,0.3,2.2c-0.5,0.7-1.6,0.8-2.2,0.3c-1.7-1.3-3.7-2-5.9-2c-1.3,0-2.7,0.3-3.9,0.8c-1.2,0.5-2.3,1.2-3.2,2.2
		c-0.9,0.9-1.6,2-2.2,3.1c-0.5,1.2-0.8,2.5-0.8,3.8s0.3,2.6,0.8,3.8c0.5,1.2,1.2,2.2,2.2,3.1c1.9,1.9,4.4,3,7.1,3
		c1.2,0,2.3-0.2,3.4-0.6c1.1-0.4,2-1,2.9-1.7c0.7-0.6,1.7-0.5,2.2,0.2s0.5,1.7-0.2,2.2c-1.2,1-2.4,1.7-3.8,2.2
		C289.8,416.5,288.3,416.8,286.7,416.8z"/>
	<path d="M313.8,416.9c-1.8,0-3.5-0.4-5.1-1.1c-1.6-0.7-3-1.6-4.2-2.8c-1.2-1.2-2.2-2.6-2.8-4.2c-0.7-1.6-1-3.3-1-5
		c0-1.8,0.4-3.5,1.1-5.1c0.7-1.5,1.6-3,2.9-4.1c1.2-1.2,2.6-2.2,4.2-2.8c1.6-0.7,3.4-1,5.2-1c3.5,0,6.8,1.4,9.2,3.9
		c1.2,1.2,2.1,2.6,2.7,4.1c0.7,1.6,1,3.3,1,5c0,1.8-0.3,3.5-1,5c-0.6,1.6-1.6,3-2.8,4.2C320.7,415.5,317.4,416.9,313.8,416.9z
		 M313.9,393.9c-1.3,0-2.7,0.3-3.9,0.8c-1.2,0.5-2.3,1.2-3.2,2.2c-0.9,0.9-1.7,2-2.2,3.1c-0.5,1.2-0.8,2.5-0.8,3.8
		c0,1.3,0.3,2.6,0.8,3.8c0.5,1.2,1.2,2.2,2.2,3.1c1.9,1.9,4.4,3,7.1,3c2.7,0,5.1-1.1,7-2.9c0.9-0.9,1.6-2,2.1-3.1
		c0.5-1.2,0.7-2.5,0.7-3.8c0-2.6-1-5.1-2.8-6.9C319,394.9,316.6,393.9,313.9,393.9z"/>
	<path d="M347.5,416.3h-14c-0.9,0-1.6-0.7-1.6-1.6v-22c0-0.9,0.7-1.6,1.6-1.6c0.9,0,1.6,0.7,1.6,1.6v20.4h12.4
		c0.9,0,1.6,0.7,1.6,1.6C349.1,415.6,348.4,416.3,347.5,416.3z"/>
	<path d="M367.3,416.9c-1.8,0-3.5-0.4-5.1-1.1c-1.6-0.7-3-1.6-4.2-2.8c-1.2-1.2-2.2-2.6-2.8-4.2c-0.7-1.6-1-3.3-1-5
		c0-1.8,0.4-3.5,1.1-5.1c0.7-1.5,1.6-3,2.9-4.1c1.2-1.2,2.6-2.2,4.2-2.8c1.6-0.7,3.4-1,5.2-1c3.5,0,6.8,1.4,9.2,3.9
		c1.2,1.2,2.1,2.6,2.7,4.1c0.7,1.6,1,3.3,1,5c0,1.8-0.3,3.5-1,5c-0.6,1.6-1.6,3-2.8,4.2C374.1,415.5,370.8,416.9,367.3,416.9z
		 M367.4,393.9c-1.3,0-2.7,0.3-3.9,0.8c-1.2,0.5-2.3,1.2-3.2,2.2c-0.9,0.9-1.7,2-2.2,3.1c-0.5,1.2-0.8,2.5-0.8,3.8
		c0,1.3,0.3,2.6,0.8,3.8c0.5,1.2,1.2,2.2,2.2,3.1c1.9,1.9,4.4,3,7.1,3c2.7,0,5.1-1.1,7-2.9c0.9-0.9,1.6-2,2.1-3.1
		c0.5-1.2,0.7-2.5,0.7-3.8c0-2.6-1-5.1-2.8-6.9C372.5,394.9,370,393.9,367.4,393.9z"/>
	<path d="M394.6,416.7c-7,0-8.9-3.3-9.2-3.7c-0.4-0.8-0.1-1.8,0.6-2.2s1.7-0.1,2.2,0.6c0.1,0.1,0.4,0.5,1.2,1
		c1.6,0.9,3.7,1.1,5.1,1.1c2.1,0,3.7-0.4,4.6-1.3c0.7-0.6,0.9-1.4,0.9-2c0-1.2-0.4-2.1-1.1-2.8c-1-1-2.7-1.7-5.2-2.2
		c-1.8-0.4-3.3-1-4.5-1.8c-1-0.7-1.8-1.6-2.4-2.6c-0.9-1.6-0.9-3.1-0.9-3.4c0-1.7,0.8-3.4,2.2-4.6c0.7-0.6,1.5-1.1,2.4-1.4
		c1-0.4,2-0.5,3.1-0.5c6.3,0,8.1,3,8.3,3.3c0.4,0.8,0.2,1.8-0.6,2.2c-0.8,0.4-1.7,0.2-2.2-0.6c-0.1-0.1-0.4-0.4-1.1-0.8
		c-0.8-0.4-2.2-0.9-4.5-0.9c-1.8,0-2.8,0.6-3.4,1.2c-0.7,0.6-1.1,1.4-1.1,2.3v0.1c0,0.1,0,0.9,0.6,1.9c0.4,0.6,0.8,1.1,1.5,1.5
		c0.8,0.5,1.9,1,3.2,1.3c3.1,0.6,5.3,1.6,6.8,3.1c1.4,1.3,2.1,3.1,2.1,5.1c0,1.7-0.7,3.2-1.9,4.4C399.9,416,397.6,416.7,394.6,416.7
		z"/>
	<path d="M417.8,416.7c-7,0-8.9-3.3-9.2-3.7c-0.4-0.8-0.1-1.8,0.6-2.2s1.7-0.1,2.2,0.6c0.1,0.1,0.4,0.5,1.2,1
		c1.6,0.9,3.7,1.1,5.1,1.1c2.1,0,3.7-0.4,4.6-1.3c0.7-0.6,0.9-1.4,0.9-2c0-1.2-0.4-2.1-1.1-2.8c-1-1-2.7-1.7-5.2-2.2
		c-1.8-0.4-3.3-1-4.5-1.8c-1-0.7-1.8-1.6-2.4-2.6c-0.9-1.6-0.9-3.1-0.9-3.4c0-1.7,0.8-3.4,2.2-4.6c0.7-0.6,1.5-1.1,2.4-1.4
		c1-0.4,2-0.5,3.1-0.5c6.3,0,8.1,3,8.3,3.3c0.4,0.8,0.2,1.8-0.6,2.2c-0.8,0.4-1.7,0.2-2.2-0.6c-0.1-0.1-0.4-0.4-1.1-0.8
		c-0.8-0.4-2.2-0.9-4.5-0.9c-1.8,0-2.8,0.6-3.4,1.2c-0.7,0.6-1.1,1.4-1.1,2.3v0.1c0,0.1,0,0.9,0.6,1.9c0.4,0.6,0.8,1.1,1.5,1.5
		c0.8,0.5,1.9,1,3.2,1.3c3.1,0.6,5.3,1.6,6.8,3.1c1.4,1.3,2.1,3.1,2.1,5.1c0,1.7-0.7,3.2-1.9,4.4C423.1,416,420.8,416.7,417.8,416.7
		z"/>
	<path d="M442.3,416.7c-2.3,0-4.4-0.5-6-1.4c-1.4-0.8-2.5-1.9-3.3-3.4c-1.3-2.4-1.3-5-1.3-5.8v-13.4c0-0.9,0.7-1.6,1.6-1.6
		c0.9,0,1.6,0.7,1.6,1.6v13.4c0,0.6,0,2.6,0.9,4.3c0.5,0.9,1.2,1.6,2.1,2.2c1.1,0.6,2.6,1,4.4,1c1.8,0,3.3-0.4,4.4-1
		c0.9-0.5,1.6-1.2,2.1-2.1c0.9-1.7,0.9-3.7,0.9-4.3v-13.4c0-0.9,0.7-1.6,1.6-1.6c0.9,0,1.6,0.7,1.6,1.6v13.4c0,0.8,0,3.4-1.3,5.8
		C450.4,414.1,447.8,416.7,442.3,416.7z"/>
	<path d="M467.4,416.7c-7,0-8.9-3.3-9.2-3.7c-0.4-0.8-0.1-1.8,0.6-2.2s1.7-0.1,2.2,0.6c0.1,0.1,0.4,0.5,1.2,1
		c1.6,0.9,3.7,1.1,5.1,1.1c2.1,0,3.7-0.4,4.6-1.3c0.7-0.6,0.9-1.4,0.9-2c0-1.2-0.4-2.1-1.1-2.8c-1-1-2.7-1.7-5.2-2.2
		c-1.8-0.4-3.3-1-4.5-1.8c-1-0.7-1.8-1.6-2.4-2.6c-0.9-1.6-0.9-3.1-0.9-3.4c0-1.7,0.8-3.4,2.2-4.6c0.7-0.6,1.5-1.1,2.4-1.4
		c1-0.4,2-0.5,3.1-0.5c6.3,0,8.1,3,8.3,3.3c0.4,0.8,0.2,1.8-0.6,2.2c-0.8,0.4-1.7,0.2-2.2-0.6c-0.1-0.1-0.4-0.4-1.1-0.8
		c-0.8-0.4-2.2-0.9-4.5-0.9c-1.8,0-2.8,0.6-3.4,1.2c-0.7,0.6-1.1,1.4-1.1,2.3v0.1c0,0.1,0,0.9,0.6,1.9c0.4,0.6,0.8,1.1,1.5,1.5
		c0.8,0.5,1.9,1,3.2,1.3c3.1,0.6,5.3,1.6,6.8,3.1c1.4,1.3,2.1,3.1,2.1,5.1c0,1.7-0.7,3.2-1.9,4.4C472.7,416,470.4,416.7,467.4,416.7
		z"/>
	<path d="M227.9,434.3c0,0.5-0.4,1-1,1h-8.1v4.8h6.9c0.5,0,1,0.4,1,1c0,0.5-0.4,1-1,1h-6.9v5.5c0,0.5-0.4,1-1,1c-0.5,0-1-0.4-1-1
		v-13.2c0-0.5,0.4-1,1-1h9.1C227.5,433.3,227.9,433.8,227.9,434.3z"/>
	<path d="M240.8,448.8c-1.1,0-2.1-0.2-3.1-0.6c-0.9-0.4-1.8-1-2.5-1.7c-0.7-0.7-1.3-1.6-1.7-2.5c-0.4-1-0.6-2-0.6-3
		c0-1.1,0.2-2.1,0.6-3c0.4-0.9,1-1.8,1.7-2.5c0.7-0.7,1.6-1.3,2.5-1.7c1-0.4,2-0.6,3.1-0.6c2.1,0,4.1,0.8,5.5,2.3
		c0.7,0.7,1.3,1.6,1.6,2.5c0.4,1,0.6,2,0.6,3c0,1.1-0.2,2.1-0.6,3c-0.4,0.9-0.9,1.8-1.7,2.5C244.8,448,242.9,448.8,240.8,448.8z
		 M240.8,435c-0.8,0-1.6,0.2-2.4,0.5c-0.7,0.3-1.4,0.7-1.9,1.3c-0.6,0.5-1,1.2-1.3,1.9c-0.3,0.7-0.5,1.5-0.5,2.3s0.2,1.5,0.5,2.3
		c0.3,0.7,0.7,1.3,1.3,1.9c1.1,1.1,2.6,1.8,4.2,1.8s3.1-0.6,4.2-1.8c0.5-0.5,0.9-1.2,1.3-1.9c0.3-0.7,0.4-1.5,0.4-2.3
		c0-1.6-0.6-3.1-1.7-4.2C243.9,435.6,242.4,435,240.8,435z"/>
	<path d="M259.9,448.7c-1.4,0-2.6-0.3-3.6-0.9c-0.8-0.5-1.5-1.2-2-2c-0.8-1.5-0.8-3-0.8-3.5v-8c0-0.5,0.4-1,1-1c0.5,0,1,0.4,1,1v8
		c0,0.4,0,1.5,0.6,2.6c0.3,0.6,0.7,1,1.3,1.3c0.7,0.4,1.6,0.6,2.6,0.6s2-0.2,2.6-0.6c0.5-0.3,0.9-0.7,1.2-1.3c0.6-1,0.6-2.2,0.6-2.6
		v-8c0-0.5,0.4-1,1-1c0.5,0,1,0.4,1,1v8c0,0.5,0,2-0.8,3.5C264.7,447.1,263.2,448.7,259.9,448.7z"/>
	<path d="M283.2,448.5c-0.3,0-0.6-0.1-0.8-0.3l-9.3-11.2v10.6c0,0.5-0.4,1-1,1c-0.5,0-1-0.4-1-1v-13.2c0-0.4,0.2-0.8,0.6-0.9
		c0.4-0.1,0.8,0,1.1,0.3l9.3,11.2v-10.5c0-0.5,0.4-1,1-1c0.5,0,1,0.4,1,1v13.2c0,0.4-0.3,0.8-0.6,0.9
		C283.5,448.5,283.3,448.5,283.2,448.5z"/>
	<path d="M294.9,448.5L294.9,448.5h-4.7c-0.5,0-1-0.4-1-1v-13.2c0-0.2,0.1-0.5,0.3-0.7c0.2-0.2,0.4-0.3,0.7-0.3h4.8
		c1.1,0,2.1,0.2,3,0.6c0.9,0.4,1.8,0.9,2.5,1.6c0.7,0.7,1.3,1.5,1.7,2.4c0.4,0.9,0.6,1.9,0.6,2.9c0,1-0.2,2-0.6,2.9
		c-0.4,0.9-1,1.7-1.7,2.4c-0.7,0.7-1.6,1.2-2.5,1.6C297,448.3,296,448.5,294.9,448.5z M291.1,446.5h3.8c0.8,0,1.5-0.2,2.3-0.5
		c0.7-0.3,1.3-0.7,1.9-1.2c0.5-0.5,1-1.1,1.3-1.8c0.3-0.7,0.5-1.4,0.5-2.1c0-0.8-0.2-1.5-0.5-2.2c-0.3-0.7-0.7-1.3-1.3-1.8
		c-1.1-1.1-2.6-1.7-4.2-1.7h-3.8V446.5z"/>
	<path d="M307.7,448.5c-0.2,0-0.4-0.1-0.6-0.2c-0.4-0.3-0.5-0.8-0.3-1.2l6.4-13.2c0.2-0.3,0.5-0.5,0.9-0.5s0.7,0.2,0.9,0.5l6.5,13.2
		c0.2,0.5,0,1-0.4,1.3c-0.5,0.2-1.1,0-1.3-0.4l-1.5-3.1c-1-0.3-2.1-0.3-3.2-0.1c-1.1,0.2-2.2,0.6-3.3,1.2c-2,1-3.3,2.3-3.4,2.3
		C308.2,448.4,307.9,448.5,307.7,448.5z M314.1,436.5l-3.9,8c0.2-0.1,0.3-0.2,0.5-0.3c1.3-0.7,2.6-1.2,3.9-1.4
		c0.9-0.2,1.7-0.2,2.5-0.1L314.1,436.5z"/>
	<path d="M336.1,434.3c0,0.5-0.4,1-1,1h-4.2v12.3c0,0.5-0.4,1-1,1c-0.5,0-1-0.4-1-1v-12.3h-4.2c-0.5,0-1-0.4-1-1c0-0.5,0.4-1,1-1
		h10.4C335.6,433.3,336.1,433.7,336.1,434.3z"/>
	<path d="M342,448.5c-0.5,0-1-0.4-1-1v-13.2c0-0.5,0.4-1,1-1c0.5,0,1,0.4,1,1v13.2C343,448,342.6,448.5,342,448.5z"/>
	<path d="M355.8,448.8c-1.1,0-2.1-0.2-3.1-0.6c-0.9-0.4-1.8-1-2.5-1.7c-0.7-0.7-1.3-1.6-1.7-2.5c-0.4-1-0.6-2-0.6-3
		c0-1.1,0.2-2.1,0.6-3c0.4-0.9,1-1.8,1.7-2.5c0.7-0.7,1.6-1.3,2.5-1.7c1-0.4,2-0.6,3.1-0.6c2.1,0,4.1,0.8,5.5,2.3
		c0.7,0.7,1.3,1.6,1.6,2.5c0.4,1,0.6,2,0.6,3c0,1.1-0.2,2.1-0.6,3c-0.4,0.9-0.9,1.8-1.7,2.5C359.9,448,358,448.8,355.8,448.8z
		 M355.9,435c-0.8,0-1.6,0.2-2.4,0.5c-0.7,0.3-1.4,0.7-1.9,1.3c-0.6,0.5-1,1.2-1.3,1.9c-0.3,0.7-0.5,1.5-0.5,2.3s0.2,1.5,0.5,2.3
		c0.3,0.7,0.7,1.3,1.3,1.9c1.1,1.1,2.6,1.8,4.2,1.8s3.1-0.6,4.2-1.8c0.5-0.5,0.9-1.2,1.3-1.9c0.3-0.7,0.4-1.5,0.4-2.3
		c0-1.6-0.6-3.1-1.7-4.2C359,435.6,357.5,435,355.9,435z"/>
	<path d="M380.6,448.5c-0.3,0-0.6-0.1-0.8-0.3l-9.3-11.2v10.6c0,0.5-0.4,1-1,1c-0.5,0-1-0.4-1-1v-13.2c0-0.4,0.2-0.8,0.6-0.9
		c0.4-0.1,0.8,0,1.1,0.3l9.3,11.2v-10.5c0-0.5,0.4-1,1-1c0.5,0,1,0.4,1,1v13.2c0,0.4-0.3,0.8-0.6,0.9
		C380.8,448.5,380.7,448.5,380.6,448.5z"/>
</g>
<g>
	<path class="st0" d="M-303.7,160.8l-10.2-5.9l-10.2-5.9l-10.3,5.9l-10.2,5.9l-63.9,36.9v97.4l9.2,5.3l10.2,5.9l65,37.5l65-37.5
		l10.2-5.9l9.2-5.3v-97.4L-303.7,160.8z M-252.3,287.9l-5.7,3.3c-4.6-4.2-9.6-7.9-14.9-11.1c-4-2.5-8.2-4.7-12.6-6.5
		c-11.8-5.1-24.9-7.9-38.6-7.9c-13.7,0-26.7,2.8-38.6,7.9c-4.4,1.9-8.6,4-12.6,6.5l11.6,6.7l39.6,22.8l39.6-22.8
		c5.7,2.9,11.1,6.5,16,10.5l-55.6,32.1l-55.6-32.1l-10.6-6.1l-5.7-3.3v-5.6c6-2,11.7-4.5,17.1-7.6c4.2-2.4,8.2-5,12-7.9
		c20.5-15.9,34.7-39.7,37.8-66.8c0.4-3.7,0.6-7.5,0.6-11.3c0-1,0-1.9-0.1-2.9l-11.6,6.7l-38.7,22.4v46.3c-5.3,3.6-11.1,6.5-17.1,8.9
		v-65.1l54.6-31.5l10.6-6.1l6.7-3.8l6.7,3.9c-0.9,4.5-1.6,9.1-1.9,13.8c-0.1,1.6-0.2,3.2-0.2,4.8c-0.1,4.8,0.2,9.6,0.8,14.2
		c2.5,19.3,10.6,37.5,23.8,52.4c4.1,4.7,8.6,9,13.5,12.7c3.8,3,7.8,5.7,12,8v-58.6l-38.3-22.1c-0.2-3.6-0.2-7.2,0-10.8
		c0.2-2.8,0.5-5.7,0.9-8.4l54.5,31.4V287.9z M-298.6,281l-25.6,14.7l-25.6-14.8c8.1-2.5,16.7-3.8,25.6-3.8
		C-315.2,277.2-306.7,278.5-298.6,281z M-366.9,251.5v-29.8l24.8-14.3C-345.8,224.5-354.6,239.8-366.9,251.5z M-305.5,207.8l24.2,14
		v28.3c-1.7-1.6-3.3-3.3-4.8-5C-295.7,234.2-302.3,221.4-305.5,207.8z"/>
</g>
<g>
	
		<radialGradient id="SVGID_1_" cx="299.7005" cy="246.4105" r="91.1293" gradientTransform="matrix(6.123234e-17 -1 1 6.123234e-17 53.29 546.111)" gradientUnits="userSpaceOnUse">
		<stop  offset="6.385220e-03" style="stop-color:#00E7D6"/>
		<stop  offset="0.3649" style="stop-color:#07C9BE"/>
		<stop  offset="0.5239" style="stop-color:#05B0B4"/>
		<stop  offset="1" style="stop-color:#016A97"/>
	</radialGradient>
	<path class="st1" d="M320.1,160.8l-10.2-5.9l-10.2-5.9l-10.3,5.9l-10.2,5.9l-63.9,36.9v97.4l9.2,5.3l10.2,5.9l65,37.5l65-37.5
		l10.2-5.9l9.2-5.3v-97.4L320.1,160.8z M371.5,287.9l-5.7,3.3c-4.6-4.2-9.6-7.9-14.9-11.1c-4-2.5-8.2-4.7-12.6-6.5
		c-11.8-5.1-24.9-7.9-38.6-7.9c-13.7,0-26.7,2.8-38.6,7.9c-4.4,1.9-8.6,4-12.6,6.5l11.6,6.7l39.6,22.8l39.6-22.8
		c5.7,2.9,11.1,6.5,16,10.5l-55.6,32.1l-55.6-32.1l-10.6-6.1l-5.7-3.3v-5.6c6-2,11.7-4.5,17.1-7.6c4.2-2.4,8.2-5,12-7.9
		c20.5-15.9,34.7-39.7,37.8-66.8c0.4-3.7,0.6-7.5,0.6-11.3c0-1,0-1.9-0.1-2.9l-11.6,6.7L245,214.8v46.3c-5.3,3.6-11.1,6.5-17.1,8.9
		v-65.1l54.6-31.5l10.6-6.1l6.7-3.8l6.7,3.9c-0.9,4.5-1.6,9.1-1.9,13.8c-0.1,1.6-0.2,3.2-0.2,4.8c-0.1,4.8,0.2,9.6,0.8,14.2
		c2.5,19.3,10.6,37.5,23.8,52.4c4.1,4.7,8.6,9,13.5,12.7c3.8,3,7.8,5.7,12,8v-58.6l-38.3-22.1c-0.2-3.6-0.2-7.2,0-10.8
		c0.2-2.8,0.5-5.7,0.9-8.4l54.5,31.4V287.9z M325.3,281l-25.6,14.7L274.2,281c8.1-2.5,16.7-3.8,25.6-3.8
		C308.6,277.2,317.2,278.5,325.3,281z M257,251.5v-29.8l24.8-14.3C278,224.5,269.2,239.8,257,251.5z M318.3,207.8l24.2,14v28.3
		c-1.7-1.6-3.3-3.3-4.8-5C328.1,234.2,321.5,221.4,318.3,207.8z"/>
</g>
<g>
	<path d="M-474.4,1012.6v22c0,0.9-0.7,1.6-1.6,1.6c-0.9,0-1.6-0.7-1.6-1.6v-9.6h-13.9v9.6c0,0.9-0.7,1.6-1.6,1.6
		c-0.9,0-1.6-0.7-1.6-1.6v-22c0-0.9,0.7-1.6,1.6-1.6c0.9,0,1.6,0.7,1.6,1.6v9.2h13.9v-9.2c0-0.9,0.7-1.6,1.6-1.6
		C-475.1,1011-474.4,1011.7-474.4,1012.6z"/>
	<path d="M-458.6,1036.7c-2.3,0-4.4-0.5-6-1.4c-1.4-0.8-2.5-1.9-3.3-3.4c-1.3-2.4-1.3-5-1.3-5.8v-13.4c0-0.9,0.7-1.6,1.6-1.6
		c0.9,0,1.6,0.7,1.6,1.6v13.4c0,0.6,0,2.6,0.9,4.3c0.5,0.9,1.2,1.6,2.1,2.2c1.1,0.6,2.6,1,4.4,1c1.8,0,3.3-0.4,4.4-1
		c0.9-0.5,1.6-1.2,2.1-2.1c0.9-1.7,0.9-3.7,0.9-4.3v-13.4c0-0.9,0.7-1.6,1.6-1.6c0.9,0,1.6,0.7,1.6,1.6v13.4c0,0.8,0,3.4-1.3,5.8
		C-450.5,1034.1-453.1,1036.7-458.6,1036.7z"/>
	<path d="M-419.6,1036.2c-0.9,0-1.6-0.7-1.6-1.6v-17.1l-7.9,10.8c-0.3,0.4-0.8,0.6-1.3,0.6s-1-0.2-1.3-0.6l-7.9-10.8v17.1
		c0,0.9-0.7,1.6-1.6,1.6c-0.9,0-1.6-0.7-1.6-1.6v-22c0-0.7,0.4-1.3,1.1-1.5c0.6-0.2,1.4,0,1.8,0.6l9.5,13l9.5-13
		c0.4-0.5,1.1-0.8,1.8-0.6c0.6,0.2,1.1,0.8,1.1,1.5v22C-418,1035.5-418.7,1036.2-419.6,1036.2z"/>
	<path d="M-411.5,1036.3c-0.3,0-0.7-0.1-1-0.3c-0.6-0.5-0.8-1.3-0.5-2l10.7-22c0.3-0.5,0.8-0.9,1.4-0.9c0.6,0,1.2,0.4,1.4,0.9
		l10.8,22c0.4,0.8,0.1,1.7-0.7,2.1c-0.8,0.4-1.8,0.1-2.2-0.7l-2.5-5.2c-1.7-0.5-3.4-0.5-5.3-0.2c-1.8,0.3-3.6,1-5.5,2
		c-3.3,1.7-5.6,3.9-5.6,3.9C-410.7,1036.2-411.1,1036.3-411.5,1036.3z M-400.8,1016.4l-6.5,13.3c0.3-0.2,0.6-0.3,0.9-0.5
		c2.2-1.2,4.3-1.9,6.4-2.3c1.4-0.3,2.8-0.4,4.2-0.2L-400.8,1016.4z"/>
	<path d="M-364.7,1036.4c-0.5,0-0.9-0.2-1.3-0.6l-15.5-18.7v17.6c0,0.9-0.7,1.6-1.6,1.6c-0.9,0-1.6-0.7-1.6-1.6v-22
		c0-0.7,0.4-1.3,1.1-1.5c0.6-0.2,1.3,0,1.8,0.5l15.6,18.6v-17.6c0-0.9,0.7-1.6,1.6-1.6c0.9,0,1.6,0.7,1.6,1.6v22
		c0,0.7-0.4,1.3-1.1,1.5C-364.4,1036.4-364.5,1036.4-364.7,1036.4z"/>
	<path d="M-330.3,1036.8c-1.8,0-3.5-0.4-5.2-1.1c-1.5-0.7-3-1.6-4.2-2.8c-1.2-1.2-2.2-2.6-2.8-4.2c-0.7-1.6-1-3.3-1-5
		c0-1.8,0.4-3.5,1-5.1c0.7-1.5,1.6-3,2.9-4.1c1.2-1.2,2.7-2.2,4.2-2.8c1.6-0.7,3.4-1,5.1-1c2.9,0,5.6,0.9,7.8,2.6
		c0.7,0.5,0.8,1.5,0.3,2.2c-0.5,0.7-1.6,0.8-2.2,0.3c-1.7-1.3-3.7-2-5.9-2c-1.4,0-2.7,0.3-3.9,0.8c-1.2,0.5-2.3,1.2-3.2,2.2
		c-0.9,0.9-1.6,2-2.2,3.1c-0.5,1.2-0.8,2.5-0.8,3.8s0.3,2.6,0.8,3.8c0.5,1.2,1.2,2.2,2.2,3.1c1.9,1.9,4.4,3,7.1,3
		c1.2,0,2.3-0.2,3.4-0.6c1.1-0.4,2-1,2.9-1.7c0.7-0.6,1.7-0.5,2.2,0.2s0.5,1.7-0.2,2.2c-1.2,1-2.4,1.7-3.8,2.2
		C-327.2,1036.5-328.8,1036.8-330.3,1036.8z"/>
	<path d="M-303.2,1036.9c-1.8,0-3.5-0.4-5.1-1.1c-1.6-0.7-3-1.6-4.2-2.8c-1.2-1.2-2.2-2.6-2.8-4.2c-0.7-1.6-1-3.3-1-5
		c0-1.8,0.4-3.5,1.1-5.1c0.7-1.5,1.6-3,2.9-4.1c1.2-1.2,2.6-2.2,4.2-2.8c1.6-0.7,3.4-1,5.2-1c3.5,0,6.8,1.4,9.2,3.9
		c1.2,1.2,2.1,2.6,2.7,4.1c0.7,1.6,1,3.3,1,5c0,1.8-0.3,3.5-1,5c-0.6,1.6-1.6,3-2.8,4.2C-296.4,1035.5-299.7,1036.9-303.2,1036.9z
		 M-303.1,1013.9c-1.3,0-2.7,0.3-3.9,0.8c-1.2,0.5-2.3,1.2-3.2,2.2c-0.9,0.9-1.7,2-2.2,3.1c-0.5,1.2-0.8,2.5-0.8,3.8
		c0,1.3,0.3,2.6,0.8,3.8c0.5,1.2,1.2,2.2,2.2,3.1c1.9,1.9,4.4,3,7.1,3c2.7,0,5.1-1.1,7-2.9c0.9-0.9,1.6-2,2.1-3.1
		c0.5-1.2,0.7-2.5,0.7-3.8c0-2.6-1-5.1-2.8-6.9C-298,1014.9-300.5,1013.9-303.1,1013.9z"/>
	<path d="M-269.5,1036.3h-14c-0.9,0-1.6-0.7-1.6-1.6v-22c0-0.9,0.7-1.6,1.6-1.6c0.9,0,1.6,0.7,1.6,1.6v20.4h12.4
		c0.9,0,1.6,0.7,1.6,1.6C-267.9,1035.6-268.6,1036.3-269.5,1036.3z"/>
	<path d="M-249.8,1036.9c-1.8,0-3.5-0.4-5.1-1.1c-1.6-0.7-3-1.6-4.2-2.8c-1.2-1.2-2.2-2.6-2.8-4.2c-0.7-1.6-1-3.3-1-5
		c0-1.8,0.4-3.5,1.1-5.1c0.7-1.5,1.6-3,2.9-4.1c1.2-1.2,2.6-2.2,4.2-2.8c1.6-0.7,3.4-1,5.2-1c3.5,0,6.8,1.4,9.2,3.9
		c1.2,1.2,2.1,2.6,2.7,4.1c0.7,1.6,1,3.3,1,5c0,1.8-0.3,3.5-1,5c-0.6,1.6-1.6,3-2.8,4.2C-242.9,1035.5-246.2,1036.9-249.8,1036.9z
		 M-249.7,1013.9c-1.3,0-2.7,0.3-3.9,0.8c-1.2,0.5-2.3,1.2-3.2,2.2c-0.9,0.9-1.7,2-2.2,3.1c-0.5,1.2-0.8,2.5-0.8,3.8
		c0,1.3,0.3,2.6,0.8,3.8c0.5,1.2,1.2,2.2,2.2,3.1c1.9,1.9,4.4,3,7.1,3c2.7,0,5.1-1.1,7-2.9c0.9-0.9,1.6-2,2.1-3.1
		c0.5-1.2,0.7-2.5,0.7-3.8c0-2.6-1-5.1-2.8-6.9C-244.6,1014.9-247,1013.9-249.7,1013.9z"/>
	<path d="M-222.4,1036.7c-7,0-8.9-3.3-9.2-3.7c-0.4-0.8-0.1-1.8,0.6-2.2c0.8-0.4,1.7-0.1,2.2,0.6c0.1,0.1,0.4,0.5,1.2,1
		c1.6,0.9,3.7,1.1,5.1,1.1c2.1,0,3.7-0.4,4.6-1.3c0.7-0.6,0.9-1.4,0.9-2c0-1.2-0.4-2.1-1.1-2.8c-1-1-2.7-1.7-5.2-2.2
		c-1.8-0.4-3.3-1-4.5-1.8c-1-0.7-1.8-1.6-2.4-2.6c-0.9-1.6-0.9-3.1-0.9-3.4c0-1.7,0.8-3.4,2.2-4.6c0.7-0.6,1.5-1.1,2.4-1.4
		c1-0.4,2-0.5,3.1-0.5c6.3,0,8.1,3,8.3,3.3c0.4,0.8,0.2,1.8-0.6,2.2c-0.8,0.4-1.7,0.2-2.2-0.6c-0.1-0.1-0.4-0.4-1.1-0.8
		c-0.8-0.4-2.2-0.9-4.5-0.9c-1.8,0-2.8,0.6-3.4,1.2c-0.7,0.6-1.1,1.4-1.1,2.3v0.1c0,0.1,0,0.9,0.6,1.9c0.4,0.6,0.8,1.1,1.5,1.5
		c0.8,0.5,1.9,1,3.2,1.3c3.1,0.6,5.3,1.6,6.8,3.1c1.4,1.3,2.1,3.1,2.1,5.1c0,1.7-0.7,3.2-1.9,4.4
		C-217.1,1036-219.4,1036.7-222.4,1036.7z"/>
	<path d="M-199.2,1036.7c-7,0-8.9-3.3-9.2-3.7c-0.4-0.8-0.1-1.8,0.6-2.2c0.8-0.4,1.7-0.1,2.2,0.6c0.1,0.1,0.4,0.5,1.2,1
		c1.6,0.9,3.7,1.1,5.1,1.1c2.1,0,3.7-0.4,4.6-1.3c0.7-0.6,0.9-1.4,0.9-2c0-1.2-0.4-2.1-1.1-2.8c-1-1-2.7-1.7-5.2-2.2
		c-1.8-0.4-3.3-1-4.5-1.8c-1-0.7-1.8-1.6-2.4-2.6c-0.9-1.6-0.9-3.1-0.9-3.4c0-1.7,0.8-3.4,2.2-4.6c0.7-0.6,1.5-1.1,2.4-1.4
		c1-0.4,2-0.5,3.1-0.5c6.3,0,8.1,3,8.3,3.3c0.4,0.8,0.2,1.8-0.6,2.2c-0.8,0.4-1.7,0.2-2.2-0.6c-0.1-0.1-0.4-0.4-1.1-0.8
		c-0.8-0.4-2.2-0.9-4.5-0.9c-1.8,0-2.8,0.6-3.4,1.2c-0.7,0.6-1.1,1.4-1.1,2.3v0.1c0,0.1,0,0.9,0.6,1.9c0.4,0.6,0.8,1.1,1.5,1.5
		c0.8,0.5,1.9,1,3.2,1.3c3.1,0.6,5.3,1.6,6.8,3.1c1.4,1.3,2.1,3.1,2.1,5.1c0,1.7-0.7,3.2-1.9,4.4
		C-193.9,1036-196.2,1036.7-199.2,1036.7z"/>
	<path d="M-174.7,1036.7c-2.3,0-4.4-0.5-6-1.4c-1.4-0.8-2.5-1.9-3.3-3.4c-1.3-2.4-1.3-5-1.3-5.8v-13.4c0-0.9,0.7-1.6,1.6-1.6
		c0.9,0,1.6,0.7,1.6,1.6v13.4c0,0.6,0,2.6,0.9,4.3c0.5,0.9,1.2,1.6,2.1,2.2c1.1,0.6,2.6,1,4.4,1c1.8,0,3.3-0.4,4.4-1
		c0.9-0.5,1.6-1.2,2.1-2.1c0.9-1.7,0.9-3.7,0.9-4.3v-13.4c0-0.9,0.7-1.6,1.6-1.6c0.9,0,1.6,0.7,1.6,1.6v13.4c0,0.8,0,3.4-1.3,5.8
		C-166.6,1034.1-169.2,1036.7-174.7,1036.7z"/>
	<path d="M-149.6,1036.7c-7,0-8.9-3.3-9.2-3.7c-0.4-0.8-0.1-1.8,0.6-2.2c0.8-0.4,1.7-0.1,2.2,0.6c0.1,0.1,0.4,0.5,1.2,1
		c1.6,0.9,3.7,1.1,5.1,1.1c2.1,0,3.7-0.4,4.6-1.3c0.7-0.6,0.9-1.4,0.9-2c0-1.2-0.4-2.1-1.1-2.8c-1-1-2.7-1.7-5.2-2.2
		c-1.8-0.4-3.3-1-4.5-1.8c-1-0.7-1.8-1.6-2.4-2.6c-0.9-1.6-0.9-3.1-0.9-3.4c0-1.7,0.8-3.4,2.2-4.6c0.7-0.6,1.5-1.1,2.4-1.4
		c1-0.4,2-0.5,3.1-0.5c6.3,0,8.1,3,8.3,3.3c0.4,0.8,0.2,1.8-0.6,2.2c-0.8,0.4-1.7,0.2-2.2-0.6c-0.1-0.1-0.4-0.4-1.1-0.8
		c-0.8-0.4-2.2-0.9-4.5-0.9c-1.8,0-2.8,0.6-3.4,1.2c-0.7,0.6-1.1,1.4-1.1,2.3v0.1c0,0.1,0,0.9,0.6,1.9c0.4,0.6,0.8,1.1,1.5,1.5
		c0.8,0.5,1.9,1,3.2,1.3c3.1,0.6,5.3,1.6,6.8,3.1c1.4,1.3,2.1,3.1,2.1,5.1c0,1.7-0.7,3.2-1.9,4.4
		C-144.3,1036-146.6,1036.7-149.6,1036.7z"/>
	<path d="M-389.1,1054.3c0,0.5-0.4,1-1,1h-8.1v4.8h6.9c0.5,0,1,0.4,1,1c0,0.5-0.4,1-1,1h-6.9v5.5c0,0.5-0.4,1-1,1s-1-0.4-1-1v-13.2
		c0-0.5,0.4-1,1-1h9.1C-389.5,1053.3-389.1,1053.8-389.1,1054.3z"/>
	<path d="M-376.3,1068.8c-1.1,0-2.1-0.2-3.1-0.6c-0.9-0.4-1.8-1-2.5-1.7c-0.7-0.7-1.3-1.6-1.7-2.5c-0.4-1-0.6-2-0.6-3
		c0-1.1,0.2-2.1,0.6-3c0.4-0.9,1-1.8,1.7-2.5c0.7-0.7,1.6-1.3,2.5-1.7c1-0.4,2-0.6,3.1-0.6c2.1,0,4.1,0.8,5.5,2.3
		c0.7,0.7,1.3,1.6,1.6,2.5c0.4,1,0.6,2,0.6,3c0,1.1-0.2,2.1-0.6,3c-0.4,0.9-0.9,1.8-1.7,2.5C-372.2,1068-374.1,1068.8-376.3,1068.8z
		 M-376.2,1055c-0.8,0-1.6,0.2-2.4,0.5c-0.7,0.3-1.4,0.7-1.9,1.3c-0.6,0.5-1,1.2-1.3,1.9c-0.3,0.7-0.5,1.5-0.5,2.3s0.2,1.5,0.5,2.3
		c0.3,0.7,0.7,1.3,1.3,1.9c1.1,1.1,2.6,1.8,4.2,1.8s3.1-0.6,4.2-1.8c0.5-0.5,0.9-1.2,1.3-1.9c0.3-0.7,0.4-1.5,0.4-2.3
		c0-1.6-0.6-3.1-1.7-4.2C-373.1,1055.6-374.6,1055-376.2,1055z"/>
	<path d="M-357.1,1068.7c-1.4,0-2.6-0.3-3.6-0.9c-0.8-0.5-1.5-1.2-2-2c-0.8-1.5-0.8-3-0.8-3.5v-8c0-0.5,0.4-1,1-1c0.5,0,1,0.4,1,1v8
		c0,0.4,0,1.5,0.6,2.6c0.3,0.6,0.7,1,1.3,1.3c0.7,0.4,1.6,0.6,2.6,0.6c1.1,0,2-0.2,2.6-0.6c0.5-0.3,0.9-0.7,1.2-1.3
		c0.6-1,0.6-2.2,0.6-2.6v-8c0-0.5,0.4-1,1-1c0.5,0,1,0.4,1,1v8c0,0.5,0,2-0.8,3.5C-352.3,1067.1-353.8,1068.7-357.1,1068.7z"/>
	<path d="M-333.8,1068.5c-0.3,0-0.6-0.1-0.8-0.3l-9.3-11.2v10.6c0,0.5-0.4,1-1,1s-1-0.4-1-1v-13.2c0-0.4,0.3-0.8,0.6-0.9
		c0.4-0.1,0.8,0,1.1,0.3l9.3,11.2v-10.5c0-0.5,0.4-1,1-1c0.5,0,1,0.4,1,1v13.2c0,0.4-0.3,0.8-0.6,0.9
		C-333.6,1068.5-333.7,1068.5-333.8,1068.5z"/>
	<path d="M-322.1,1068.5L-322.1,1068.5h-4.7c-0.5,0-1-0.4-1-1v-13.2c0-0.2,0.1-0.5,0.3-0.7c0.2-0.2,0.4-0.3,0.7-0.3h4.8
		c1.1,0,2.1,0.2,3,0.6c0.9,0.4,1.8,0.9,2.5,1.6c0.7,0.7,1.3,1.5,1.7,2.4c0.4,0.9,0.6,1.9,0.6,2.9c0,1-0.2,2-0.6,2.9
		c-0.4,0.9-1,1.7-1.7,2.4c-0.7,0.7-1.6,1.2-2.5,1.6C-320,1068.3-321.1,1068.5-322.1,1068.5z M-325.9,1066.5h3.8
		c0.8,0,1.5-0.2,2.3-0.5s1.3-0.7,1.9-1.2s1-1.1,1.3-1.8c0.3-0.7,0.5-1.4,0.5-2.1c0-0.8-0.2-1.5-0.5-2.2c-0.3-0.7-0.7-1.3-1.3-1.8
		c-1.1-1.1-2.6-1.7-4.2-1.7h-3.8V1066.5z"/>
	<path d="M-309.3,1068.5c-0.2,0-0.4-0.1-0.6-0.2c-0.4-0.3-0.5-0.8-0.3-1.2l6.4-13.2c0.2-0.3,0.5-0.5,0.9-0.5s0.7,0.2,0.9,0.5
		l6.5,13.2c0.2,0.5,0,1-0.4,1.3c-0.5,0.2-1.1,0-1.3-0.4l-1.5-3.1c-1-0.3-2.1-0.3-3.2-0.1c-1.1,0.2-2.2,0.6-3.3,1.2
		c-2,1-3.3,2.3-3.4,2.3C-308.9,1068.4-309.1,1068.5-309.3,1068.5z M-302.9,1056.5l-3.9,8c0.2-0.1,0.3-0.2,0.5-0.3
		c1.3-0.7,2.6-1.2,3.9-1.4c0.9-0.2,1.7-0.2,2.5-0.1L-302.9,1056.5z"/>
	<path d="M-281,1054.3c0,0.5-0.4,1-1,1h-4.2v12.3c0,0.5-0.4,1-1,1c-0.5,0-1-0.4-1-1v-12.3h-4.2c-0.5,0-1-0.4-1-1c0-0.5,0.4-1,1-1
		h10.4C-281.4,1053.3-281,1053.7-281,1054.3z"/>
	<path d="M-275,1068.5c-0.5,0-1-0.4-1-1v-13.2c0-0.5,0.4-1,1-1c0.5,0,1,0.4,1,1v13.2C-274,1068-274.4,1068.5-275,1068.5z"/>
	<path d="M-261.2,1068.8c-1.1,0-2.1-0.2-3.1-0.6c-0.9-0.4-1.8-1-2.5-1.7c-0.7-0.7-1.3-1.6-1.7-2.5c-0.4-1-0.6-2-0.6-3
		c0-1.1,0.2-2.1,0.6-3c0.4-0.9,1-1.8,1.7-2.5c0.7-0.7,1.6-1.3,2.5-1.7c1-0.4,2-0.6,3.1-0.6c2.1,0,4.1,0.8,5.5,2.3
		c0.7,0.7,1.3,1.6,1.6,2.5c0.4,1,0.6,2,0.6,3c0,1.1-0.2,2.1-0.6,3c-0.4,0.9-0.9,1.8-1.7,2.5C-257.1,1068-259.1,1068.8-261.2,1068.8z
		 M-261.1,1055c-0.8,0-1.6,0.2-2.4,0.5c-0.7,0.3-1.4,0.7-1.9,1.3c-0.6,0.5-1,1.2-1.3,1.9c-0.3,0.7-0.5,1.5-0.5,2.3s0.2,1.5,0.5,2.3
		c0.3,0.7,0.7,1.3,1.3,1.9c1.1,1.1,2.6,1.8,4.2,1.8s3.1-0.6,4.2-1.8c0.5-0.5,0.9-1.2,1.3-1.9c0.3-0.7,0.4-1.5,0.4-2.3
		c0-1.6-0.6-3.1-1.7-4.2C-258.1,1055.6-259.5,1055-261.1,1055z"/>
	<path d="M-236.5,1068.5c-0.3,0-0.6-0.1-0.8-0.3l-9.3-11.2v10.6c0,0.5-0.4,1-1,1s-1-0.4-1-1v-13.2c0-0.4,0.3-0.8,0.6-0.9
		c0.4-0.1,0.8,0,1.1,0.3l9.3,11.2v-10.5c0-0.5,0.4-1,1-1c0.5,0,1,0.4,1,1v13.2c0,0.4-0.3,0.8-0.6,0.9
		C-236.2,1068.5-236.4,1068.5-236.5,1068.5z"/>
</g>
<g>
	<path d="M-303.7,780.8l-10.2-5.9l-10.2-5.9l-10.3,5.9l-10.2,5.9l-63.9,36.9v97.4l9.2,5.3l10.2,5.9l65,37.5l65-37.5l10.2-5.9
		l9.2-5.3v-97.4L-303.7,780.8z M-252.3,907.9l-5.7,3.3c-4.6-4.2-9.6-7.9-14.9-11.1c-4-2.5-8.2-4.7-12.6-6.5
		c-11.8-5.1-24.9-7.9-38.6-7.9c-13.7,0-26.7,2.8-38.6,7.9c-4.4,1.9-8.6,4-12.6,6.5l11.6,6.7l39.6,22.8l39.6-22.8
		c5.7,2.9,11.1,6.5,16,10.5l-55.6,32.1l-55.6-32.1l-10.6-6.1l-5.7-3.3v-5.6c6-2,11.7-4.5,17.1-7.6c4.2-2.4,8.2-5,12-7.9
		c20.5-15.9,34.7-39.7,37.8-66.8c0.4-3.7,0.6-7.5,0.6-11.3c0-1,0-1.9-0.1-2.9l-11.6,6.7l-38.7,22.4v46.3c-5.3,3.6-11.1,6.5-17.1,8.9
		v-65.1l54.6-31.5l10.6-6.1l6.7-3.8l6.7,3.9c-0.9,4.5-1.6,9.1-1.9,13.8c-0.1,1.6-0.2,3.2-0.2,4.8c-0.1,4.8,0.2,9.6,0.8,14.2
		c2.5,19.3,10.6,37.5,23.8,52.4c4.1,4.7,8.6,9,13.5,12.7c3.8,3,7.8,5.7,12,8v-58.6l-38.3-22.1c-0.2-3.6-0.2-7.2,0-10.8
		c0.2-2.8,0.5-5.7,0.9-8.4l54.5,31.4V907.9z M-298.6,901l-25.6,14.7l-25.6-14.8c8.1-2.5,16.7-3.8,25.6-3.8
		C-315.2,897.2-306.7,898.5-298.6,901z M-366.9,871.5v-29.8l24.8-14.3C-345.8,844.5-354.6,859.8-366.9,871.5z M-305.5,827.8l24.2,14
		v28.3c-1.7-1.6-3.3-3.3-4.8-5C-295.7,854.2-302.3,841.4-305.5,827.8z"/>
</g>
<g>
	<path class="st2" d="M142.6,1012.6v22c0,0.9-0.7,1.6-1.6,1.6c-0.9,0-1.6-0.7-1.6-1.6v-9.6h-13.9v9.6c0,0.9-0.7,1.6-1.6,1.6
		c-0.9,0-1.6-0.7-1.6-1.6v-22c0-0.9,0.7-1.6,1.6-1.6c0.9,0,1.6,0.7,1.6,1.6v9.2h13.9v-9.2c0-0.9,0.7-1.6,1.6-1.6
		C141.9,1011,142.6,1011.7,142.6,1012.6z"/>
	<path class="st2" d="M158.4,1036.7c-2.3,0-4.4-0.5-6-1.4c-1.4-0.8-2.5-1.9-3.3-3.4c-1.3-2.4-1.3-5-1.3-5.8v-13.4
		c0-0.9,0.7-1.6,1.6-1.6c0.9,0,1.6,0.7,1.6,1.6v13.4c0,0.6,0,2.6,0.9,4.3c0.5,0.9,1.2,1.6,2.1,2.2c1.1,0.6,2.6,1,4.4,1
		c1.8,0,3.3-0.4,4.4-1c0.9-0.5,1.6-1.2,2.1-2.1c0.9-1.7,0.9-3.7,0.9-4.3v-13.4c0-0.9,0.7-1.6,1.6-1.6c0.9,0,1.6,0.7,1.6,1.6v13.4
		c0,0.8,0,3.4-1.3,5.8C166.5,1034.1,163.9,1036.7,158.4,1036.7z"/>
	<path class="st2" d="M197.4,1036.2c-0.9,0-1.6-0.7-1.6-1.6v-17.1l-7.9,10.8c-0.3,0.4-0.8,0.6-1.3,0.6c-0.5,0-1-0.2-1.3-0.6
		l-7.9-10.8v17.1c0,0.9-0.7,1.6-1.6,1.6c-0.9,0-1.6-0.7-1.6-1.6v-22c0-0.7,0.5-1.3,1.1-1.5c0.6-0.2,1.4,0,1.8,0.6l9.5,13l9.5-13
		c0.4-0.5,1.1-0.8,1.8-0.6c0.6,0.2,1.1,0.8,1.1,1.5v22C199,1035.5,198.3,1036.2,197.4,1036.2z"/>
	<path class="st2" d="M205.6,1036.3c-0.3,0-0.7-0.1-1-0.3c-0.6-0.5-0.8-1.3-0.5-2l10.7-22c0.3-0.5,0.8-0.9,1.4-0.9s1.2,0.4,1.4,0.9
		l10.8,22c0.4,0.8,0.1,1.7-0.7,2.1c-0.8,0.4-1.8,0.1-2.2-0.7l-2.5-5.2c-1.7-0.5-3.4-0.5-5.3-0.2c-1.8,0.3-3.6,1-5.5,2
		c-3.3,1.7-5.6,3.9-5.6,3.9C206.4,1036.2,206,1036.3,205.6,1036.3z M216.3,1016.4l-6.5,13.3c0.3-0.2,0.6-0.3,0.9-0.5
		c2.2-1.2,4.3-1.9,6.4-2.3c1.4-0.3,2.8-0.4,4.2-0.2L216.3,1016.4z"/>
	<path class="st2" d="M252.3,1036.4c-0.5,0-0.9-0.2-1.3-0.6l-15.5-18.7v17.6c0,0.9-0.7,1.6-1.6,1.6c-0.9,0-1.6-0.7-1.6-1.6v-22
		c0-0.7,0.4-1.3,1.1-1.5c0.6-0.2,1.3,0,1.8,0.5l15.6,18.6v-17.6c0-0.9,0.7-1.6,1.6-1.6c0.9,0,1.6,0.7,1.6,1.6v22
		c0,0.7-0.5,1.3-1.1,1.5C252.7,1036.4,252.5,1036.4,252.3,1036.4z"/>
	<path class="st2" d="M286.7,1036.8c-1.8,0-3.5-0.4-5.2-1.1c-1.5-0.7-3-1.6-4.2-2.8c-1.2-1.2-2.2-2.6-2.8-4.2c-0.7-1.6-1-3.3-1-5
		c0-1.8,0.4-3.5,1-5.1c0.7-1.5,1.6-3,2.9-4.1c1.2-1.2,2.7-2.2,4.2-2.8c1.6-0.7,3.4-1,5.1-1c2.9,0,5.6,0.9,7.8,2.6
		c0.7,0.5,0.8,1.5,0.3,2.2c-0.5,0.7-1.6,0.8-2.2,0.3c-1.7-1.3-3.7-2-5.9-2c-1.3,0-2.7,0.3-3.9,0.8c-1.2,0.5-2.3,1.2-3.2,2.2
		c-0.9,0.9-1.6,2-2.2,3.1c-0.5,1.2-0.8,2.5-0.8,3.8s0.3,2.6,0.8,3.8c0.5,1.2,1.2,2.2,2.2,3.1c1.9,1.9,4.4,3,7.1,3
		c1.2,0,2.3-0.2,3.4-0.6c1.1-0.4,2-1,2.9-1.7c0.7-0.6,1.7-0.5,2.2,0.2s0.5,1.7-0.2,2.2c-1.2,1-2.4,1.7-3.8,2.2
		C289.8,1036.5,288.3,1036.8,286.7,1036.8z"/>
	<path class="st2" d="M313.8,1036.9c-1.8,0-3.5-0.4-5.1-1.1c-1.6-0.7-3-1.6-4.2-2.8c-1.2-1.2-2.2-2.6-2.8-4.2c-0.7-1.6-1-3.3-1-5
		c0-1.8,0.4-3.5,1.1-5.1c0.7-1.5,1.6-3,2.9-4.1c1.2-1.2,2.6-2.2,4.2-2.8c1.6-0.7,3.4-1,5.2-1c3.5,0,6.8,1.4,9.2,3.9
		c1.2,1.2,2.1,2.6,2.7,4.1c0.7,1.6,1,3.3,1,5c0,1.8-0.3,3.5-1,5c-0.6,1.6-1.6,3-2.8,4.2C320.7,1035.5,317.4,1036.9,313.8,1036.9z
		 M313.9,1013.9c-1.3,0-2.7,0.3-3.9,0.8c-1.2,0.5-2.3,1.2-3.2,2.2c-0.9,0.9-1.7,2-2.2,3.1c-0.5,1.2-0.8,2.5-0.8,3.8
		c0,1.3,0.3,2.6,0.8,3.8c0.5,1.2,1.2,2.2,2.2,3.1c1.9,1.9,4.4,3,7.1,3c2.7,0,5.1-1.1,7-2.9c0.9-0.9,1.6-2,2.1-3.1
		c0.5-1.2,0.7-2.5,0.7-3.8c0-2.6-1-5.1-2.8-6.9C319,1014.9,316.6,1013.9,313.9,1013.9z"/>
	<path class="st2" d="M347.5,1036.3h-14c-0.9,0-1.6-0.7-1.6-1.6v-22c0-0.9,0.7-1.6,1.6-1.6c0.9,0,1.6,0.7,1.6,1.6v20.4h12.4
		c0.9,0,1.6,0.7,1.6,1.6C349.1,1035.6,348.4,1036.3,347.5,1036.3z"/>
	<path class="st2" d="M367.3,1036.9c-1.8,0-3.5-0.4-5.1-1.1c-1.6-0.7-3-1.6-4.2-2.8c-1.2-1.2-2.2-2.6-2.8-4.2c-0.7-1.6-1-3.3-1-5
		c0-1.8,0.4-3.5,1.1-5.1c0.7-1.5,1.6-3,2.9-4.1c1.2-1.2,2.6-2.2,4.2-2.8c1.6-0.7,3.4-1,5.2-1c3.5,0,6.8,1.4,9.2,3.9
		c1.2,1.2,2.1,2.6,2.7,4.1c0.7,1.6,1,3.3,1,5c0,1.8-0.3,3.5-1,5c-0.6,1.6-1.6,3-2.8,4.2C374.1,1035.5,370.8,1036.9,367.3,1036.9z
		 M367.4,1013.9c-1.3,0-2.7,0.3-3.9,0.8c-1.2,0.5-2.3,1.2-3.2,2.2c-0.9,0.9-1.7,2-2.2,3.1c-0.5,1.2-0.8,2.5-0.8,3.8
		c0,1.3,0.3,2.6,0.8,3.8c0.5,1.2,1.2,2.2,2.2,3.1c1.9,1.9,4.4,3,7.1,3c2.7,0,5.1-1.1,7-2.9c0.9-0.9,1.6-2,2.1-3.1
		c0.5-1.2,0.7-2.5,0.7-3.8c0-2.6-1-5.1-2.8-6.9C372.5,1014.9,370,1013.9,367.4,1013.9z"/>
	<path class="st2" d="M394.6,1036.7c-7,0-8.9-3.3-9.2-3.7c-0.4-0.8-0.1-1.8,0.6-2.2s1.7-0.1,2.2,0.6c0.1,0.1,0.4,0.5,1.2,1
		c1.6,0.9,3.7,1.1,5.1,1.1c2.1,0,3.7-0.4,4.6-1.3c0.7-0.6,0.9-1.4,0.9-2c0-1.2-0.4-2.1-1.1-2.8c-1-1-2.7-1.7-5.2-2.2
		c-1.8-0.4-3.3-1-4.5-1.8c-1-0.7-1.8-1.6-2.4-2.6c-0.9-1.6-0.9-3.1-0.9-3.4c0-1.7,0.8-3.4,2.2-4.6c0.7-0.6,1.5-1.1,2.4-1.4
		c1-0.4,2-0.5,3.1-0.5c6.3,0,8.1,3,8.3,3.3c0.4,0.8,0.2,1.8-0.6,2.2c-0.8,0.4-1.7,0.2-2.2-0.6c-0.1-0.1-0.4-0.4-1.1-0.8
		c-0.8-0.4-2.2-0.9-4.5-0.9c-1.8,0-2.8,0.6-3.4,1.2c-0.7,0.6-1.1,1.4-1.1,2.3v0.1c0,0.1,0,0.9,0.6,1.9c0.4,0.6,0.8,1.1,1.5,1.5
		c0.8,0.5,1.9,1,3.2,1.3c3.1,0.6,5.3,1.6,6.8,3.1c1.4,1.3,2.1,3.1,2.1,5.1c0,1.7-0.7,3.2-1.9,4.4
		C399.9,1036,397.6,1036.7,394.6,1036.7z"/>
	<path class="st2" d="M417.8,1036.7c-7,0-8.9-3.3-9.2-3.7c-0.4-0.8-0.1-1.8,0.6-2.2s1.7-0.1,2.2,0.6c0.1,0.1,0.4,0.5,1.2,1
		c1.6,0.9,3.7,1.1,5.1,1.1c2.1,0,3.7-0.4,4.6-1.3c0.7-0.6,0.9-1.4,0.9-2c0-1.2-0.4-2.1-1.1-2.8c-1-1-2.7-1.7-5.2-2.2
		c-1.8-0.4-3.3-1-4.5-1.8c-1-0.7-1.8-1.6-2.4-2.6c-0.9-1.6-0.9-3.1-0.9-3.4c0-1.7,0.8-3.4,2.2-4.6c0.7-0.6,1.5-1.1,2.4-1.4
		c1-0.4,2-0.5,3.1-0.5c6.3,0,8.1,3,8.3,3.3c0.4,0.8,0.2,1.8-0.6,2.2c-0.8,0.4-1.7,0.2-2.2-0.6c-0.1-0.1-0.4-0.4-1.1-0.8
		c-0.8-0.4-2.2-0.9-4.5-0.9c-1.8,0-2.8,0.6-3.4,1.2c-0.7,0.6-1.1,1.4-1.1,2.3v0.1c0,0.1,0,0.9,0.6,1.9c0.4,0.6,0.8,1.1,1.5,1.5
		c0.8,0.5,1.9,1,3.2,1.3c3.1,0.6,5.3,1.6,6.8,3.1c1.4,1.3,2.1,3.1,2.1,5.1c0,1.7-0.7,3.2-1.9,4.4
		C423.1,1036,420.8,1036.7,417.8,1036.7z"/>
	<path class="st2" d="M442.3,1036.7c-2.3,0-4.4-0.5-6-1.4c-1.4-0.8-2.5-1.9-3.3-3.4c-1.3-2.4-1.3-5-1.3-5.8v-13.4
		c0-0.9,0.7-1.6,1.6-1.6c0.9,0,1.6,0.7,1.6,1.6v13.4c0,0.6,0,2.6,0.9,4.3c0.5,0.9,1.2,1.6,2.1,2.2c1.1,0.6,2.6,1,4.4,1
		c1.8,0,3.3-0.4,4.4-1c0.9-0.5,1.6-1.2,2.1-2.1c0.9-1.7,0.9-3.7,0.9-4.3v-13.4c0-0.9,0.7-1.6,1.6-1.6c0.9,0,1.6,0.7,1.6,1.6v13.4
		c0,0.8,0,3.4-1.3,5.8C450.4,1034.1,447.8,1036.7,442.3,1036.7z"/>
	<path class="st2" d="M467.4,1036.7c-7,0-8.9-3.3-9.2-3.7c-0.4-0.8-0.1-1.8,0.6-2.2s1.7-0.1,2.2,0.6c0.1,0.1,0.4,0.5,1.2,1
		c1.6,0.9,3.7,1.1,5.1,1.1c2.1,0,3.7-0.4,4.6-1.3c0.7-0.6,0.9-1.4,0.9-2c0-1.2-0.4-2.1-1.1-2.8c-1-1-2.7-1.7-5.2-2.2
		c-1.8-0.4-3.3-1-4.5-1.8c-1-0.7-1.8-1.6-2.4-2.6c-0.9-1.6-0.9-3.1-0.9-3.4c0-1.7,0.8-3.4,2.2-4.6c0.7-0.6,1.5-1.1,2.4-1.4
		c1-0.4,2-0.5,3.1-0.5c6.3,0,8.1,3,8.3,3.3c0.4,0.8,0.2,1.8-0.6,2.2c-0.8,0.4-1.7,0.2-2.2-0.6c-0.1-0.1-0.4-0.4-1.1-0.8
		c-0.8-0.4-2.2-0.9-4.5-0.9c-1.8,0-2.8,0.6-3.4,1.2c-0.7,0.6-1.1,1.4-1.1,2.3v0.1c0,0.1,0,0.9,0.6,1.9c0.4,0.6,0.8,1.1,1.5,1.5
		c0.8,0.5,1.9,1,3.2,1.3c3.1,0.6,5.3,1.6,6.8,3.1c1.4,1.3,2.1,3.1,2.1,5.1c0,1.7-0.7,3.2-1.9,4.4
		C472.7,1036,470.4,1036.7,467.4,1036.7z"/>
	<path class="st2" d="M227.9,1054.3c0,0.5-0.4,1-1,1h-8.1v4.8h6.9c0.5,0,1,0.4,1,1c0,0.5-0.4,1-1,1h-6.9v5.5c0,0.5-0.4,1-1,1
		c-0.5,0-1-0.4-1-1v-13.2c0-0.5,0.4-1,1-1h9.1C227.5,1053.3,227.9,1053.8,227.9,1054.3z"/>
	<path class="st2" d="M240.8,1068.8c-1.1,0-2.1-0.2-3.1-0.6c-0.9-0.4-1.8-1-2.5-1.7c-0.7-0.7-1.3-1.6-1.7-2.5c-0.4-1-0.6-2-0.6-3
		c0-1.1,0.2-2.1,0.6-3c0.4-0.9,1-1.8,1.7-2.5c0.7-0.7,1.6-1.3,2.5-1.7c1-0.4,2-0.6,3.1-0.6c2.1,0,4.1,0.8,5.5,2.3
		c0.7,0.7,1.3,1.6,1.6,2.5c0.4,1,0.6,2,0.6,3c0,1.1-0.2,2.1-0.6,3c-0.4,0.9-0.9,1.8-1.7,2.5C244.8,1068,242.9,1068.8,240.8,1068.8z
		 M240.8,1055c-0.8,0-1.6,0.2-2.4,0.5c-0.7,0.3-1.4,0.7-1.9,1.3c-0.6,0.5-1,1.2-1.3,1.9c-0.3,0.7-0.5,1.5-0.5,2.3s0.2,1.5,0.5,2.3
		c0.3,0.7,0.7,1.3,1.3,1.9c1.1,1.1,2.6,1.8,4.2,1.8s3.1-0.6,4.2-1.8c0.5-0.5,0.9-1.2,1.3-1.9c0.3-0.7,0.4-1.5,0.4-2.3
		c0-1.6-0.6-3.1-1.7-4.2C243.9,1055.6,242.4,1055,240.8,1055z"/>
	<path class="st2" d="M259.9,1068.7c-1.4,0-2.6-0.3-3.6-0.9c-0.8-0.5-1.5-1.2-2-2c-0.8-1.5-0.8-3-0.8-3.5v-8c0-0.5,0.4-1,1-1
		c0.5,0,1,0.4,1,1v8c0,0.4,0,1.5,0.6,2.6c0.3,0.6,0.7,1,1.3,1.3c0.7,0.4,1.6,0.6,2.6,0.6s2-0.2,2.6-0.6c0.5-0.3,0.9-0.7,1.2-1.3
		c0.6-1,0.6-2.2,0.6-2.6v-8c0-0.5,0.4-1,1-1c0.5,0,1,0.4,1,1v8c0,0.5,0,2-0.8,3.5C264.7,1067.1,263.2,1068.7,259.9,1068.7z"/>
	<path class="st2" d="M283.2,1068.5c-0.3,0-0.6-0.1-0.8-0.3l-9.3-11.2v10.6c0,0.5-0.4,1-1,1c-0.5,0-1-0.4-1-1v-13.2
		c0-0.4,0.2-0.8,0.6-0.9c0.4-0.1,0.8,0,1.1,0.3l9.3,11.2v-10.5c0-0.5,0.4-1,1-1c0.5,0,1,0.4,1,1v13.2c0,0.4-0.3,0.8-0.6,0.9
		C283.5,1068.5,283.3,1068.5,283.2,1068.5z"/>
	<path class="st2" d="M294.9,1068.5L294.9,1068.5h-4.7c-0.5,0-1-0.4-1-1v-13.2c0-0.2,0.1-0.5,0.3-0.7c0.2-0.2,0.4-0.3,0.7-0.3h4.8
		c1.1,0,2.1,0.2,3,0.6c0.9,0.4,1.8,0.9,2.5,1.6c0.7,0.7,1.3,1.5,1.7,2.4c0.4,0.9,0.6,1.9,0.6,2.9c0,1-0.2,2-0.6,2.9
		c-0.4,0.9-1,1.7-1.7,2.4c-0.7,0.7-1.6,1.2-2.5,1.6C297,1068.3,296,1068.5,294.9,1068.5z M291.1,1066.5h3.8c0.8,0,1.5-0.2,2.3-0.5
		c0.7-0.3,1.3-0.7,1.9-1.2c0.5-0.5,1-1.1,1.3-1.8c0.3-0.7,0.5-1.4,0.5-2.1c0-0.8-0.2-1.5-0.5-2.2c-0.3-0.7-0.7-1.3-1.3-1.8
		c-1.1-1.1-2.6-1.7-4.2-1.7h-3.8V1066.5z"/>
	<path class="st2" d="M307.7,1068.5c-0.2,0-0.4-0.1-0.6-0.2c-0.4-0.3-0.5-0.8-0.3-1.2l6.4-13.2c0.2-0.3,0.5-0.5,0.9-0.5
		s0.7,0.2,0.9,0.5l6.5,13.2c0.2,0.5,0,1-0.4,1.3c-0.5,0.2-1.1,0-1.3-0.4l-1.5-3.1c-1-0.3-2.1-0.3-3.2-0.1c-1.1,0.2-2.2,0.6-3.3,1.2
		c-2,1-3.3,2.3-3.4,2.3C308.2,1068.4,307.9,1068.5,307.7,1068.5z M314.1,1056.5l-3.9,8c0.2-0.1,0.3-0.2,0.5-0.3
		c1.3-0.7,2.6-1.2,3.9-1.4c0.9-0.2,1.7-0.2,2.5-0.1L314.1,1056.5z"/>
	<path class="st2" d="M336.1,1054.3c0,0.5-0.4,1-1,1h-4.2v12.3c0,0.5-0.4,1-1,1c-0.5,0-1-0.4-1-1v-12.3h-4.2c-0.5,0-1-0.4-1-1
		c0-0.5,0.4-1,1-1h10.4C335.6,1053.3,336.1,1053.7,336.1,1054.3z"/>
	<path class="st2" d="M342,1068.5c-0.5,0-1-0.4-1-1v-13.2c0-0.5,0.4-1,1-1c0.5,0,1,0.4,1,1v13.2C343,1068,342.6,1068.5,342,1068.5z"
		/>
	<path class="st2" d="M355.8,1068.8c-1.1,0-2.1-0.2-3.1-0.6c-0.9-0.4-1.8-1-2.5-1.7c-0.7-0.7-1.3-1.6-1.7-2.5c-0.4-1-0.6-2-0.6-3
		c0-1.1,0.2-2.1,0.6-3c0.4-0.9,1-1.8,1.7-2.5c0.7-0.7,1.6-1.3,2.5-1.7c1-0.4,2-0.6,3.1-0.6c2.1,0,4.1,0.8,5.5,2.3
		c0.7,0.7,1.3,1.6,1.6,2.5c0.4,1,0.6,2,0.6,3c0,1.1-0.2,2.1-0.6,3c-0.4,0.9-0.9,1.8-1.7,2.5C359.9,1068,358,1068.8,355.8,1068.8z
		 M355.9,1055c-0.8,0-1.6,0.2-2.4,0.5c-0.7,0.3-1.4,0.7-1.9,1.3c-0.6,0.5-1,1.2-1.3,1.9c-0.3,0.7-0.5,1.5-0.5,2.3s0.2,1.5,0.5,2.3
		c0.3,0.7,0.7,1.3,1.3,1.9c1.1,1.1,2.6,1.8,4.2,1.8s3.1-0.6,4.2-1.8c0.5-0.5,0.9-1.2,1.3-1.9c0.3-0.7,0.4-1.5,0.4-2.3
		c0-1.6-0.6-3.1-1.7-4.2C359,1055.6,357.5,1055,355.9,1055z"/>
	<path class="st2" d="M380.6,1068.5c-0.3,0-0.6-0.1-0.8-0.3l-9.3-11.2v10.6c0,0.5-0.4,1-1,1c-0.5,0-1-0.4-1-1v-13.2
		c0-0.4,0.2-0.8,0.6-0.9c0.4-0.1,0.8,0,1.1,0.3l9.3,11.2v-10.5c0-0.5,0.4-1,1-1c0.5,0,1,0.4,1,1v13.2c0,0.4-0.3,0.8-0.6,0.9
		C380.8,1068.5,380.7,1068.5,380.6,1068.5z"/>
</g>
<g>
	<path class="st2" d="M320.1,780.8l-10.2-5.9l-10.2-5.9l-10.3,5.9l-10.2,5.9l-63.9,36.9v97.4l9.2,5.3l10.2,5.9l65,37.5l65-37.5
		l10.2-5.9l9.2-5.3v-97.4L320.1,780.8z M371.5,907.9l-5.7,3.3c-4.6-4.2-9.6-7.9-14.9-11.1c-4-2.5-8.2-4.7-12.6-6.5
		c-11.8-5.1-24.9-7.9-38.6-7.9c-13.7,0-26.7,2.8-38.6,7.9c-4.4,1.9-8.6,4-12.6,6.5l11.6,6.7l39.6,22.8l39.6-22.8
		c5.7,2.9,11.1,6.5,16,10.5l-55.6,32.1l-55.6-32.1l-10.6-6.1l-5.7-3.3v-5.6c6-2,11.7-4.5,17.1-7.6c4.2-2.4,8.2-5,12-7.9
		c20.5-15.9,34.7-39.7,37.8-66.8c0.4-3.7,0.6-7.5,0.6-11.3c0-1,0-1.9-0.1-2.9l-11.6,6.7L245,834.8v46.3c-5.3,3.6-11.1,6.5-17.1,8.9
		v-65.1l54.6-31.5l10.6-6.1l6.7-3.8l6.7,3.9c-0.9,4.5-1.6,9.1-1.9,13.8c-0.1,1.6-0.2,3.2-0.2,4.8c-0.1,4.8,0.2,9.6,0.8,14.2
		c2.5,19.3,10.6,37.5,23.8,52.4c4.1,4.7,8.6,9,13.5,12.7c3.8,3,7.8,5.7,12,8v-58.6l-38.3-22.1c-0.2-3.6-0.2-7.2,0-10.8
		c0.2-2.8,0.5-5.7,0.9-8.4l54.5,31.4V907.9z M325.3,901l-25.6,14.7L274.2,901c8.1-2.5,16.7-3.8,25.6-3.8
		C308.6,897.2,317.2,898.5,325.3,901z M257,871.5v-29.8l24.8-14.3C278,844.5,269.2,859.8,257,871.5z M318.3,827.8l24.2,14v28.3
		c-1.7-1.6-3.3-3.3-4.8-5C328.1,854.2,321.5,841.4,318.3,827.8z"/>
</g>
<g>
	<path d="M-474.4,2261.5v22c0,0.9-0.7,1.6-1.6,1.6c-0.9,0-1.6-0.7-1.6-1.6v-9.6h-13.9v9.6c0,0.9-0.7,1.6-1.6,1.6
		c-0.9,0-1.6-0.7-1.6-1.6v-22c0-0.9,0.7-1.6,1.6-1.6c0.9,0,1.6,0.7,1.6,1.6v9.2h13.9v-9.2c0-0.9,0.7-1.6,1.6-1.6
		C-475.1,2259.9-474.4,2260.6-474.4,2261.5z"/>
	<path d="M-458.6,2285.6c-2.3,0-4.4-0.5-6-1.4c-1.4-0.8-2.5-1.9-3.3-3.4c-1.3-2.4-1.3-5-1.3-5.8v-13.4c0-0.9,0.7-1.6,1.6-1.6
		c0.9,0,1.6,0.7,1.6,1.6v13.4c0,0.6,0,2.6,0.9,4.3c0.5,0.9,1.2,1.6,2.1,2.2c1.1,0.6,2.6,1,4.4,1c1.8,0,3.3-0.4,4.4-1
		c0.9-0.5,1.6-1.2,2.1-2.1c0.9-1.7,0.9-3.7,0.9-4.3v-13.4c0-0.9,0.7-1.6,1.6-1.6c0.9,0,1.6,0.7,1.6,1.6v13.4c0,0.8,0,3.4-1.3,5.8
		C-450.5,2283-453.1,2285.6-458.6,2285.6z"/>
	<path d="M-419.6,2285.1c-0.9,0-1.6-0.7-1.6-1.6v-17.1l-7.9,10.8c-0.3,0.4-0.8,0.6-1.3,0.6s-1-0.2-1.3-0.6l-7.9-10.8v17.1
		c0,0.9-0.7,1.6-1.6,1.6c-0.9,0-1.6-0.7-1.6-1.6v-22c0-0.7,0.4-1.3,1.1-1.5c0.6-0.2,1.4,0,1.8,0.6l9.5,13l9.5-13
		c0.4-0.5,1.1-0.8,1.8-0.6c0.6,0.2,1.1,0.8,1.1,1.5v22C-418,2284.4-418.7,2285.1-419.6,2285.1z"/>
	<path d="M-411.5,2285.2c-0.3,0-0.7-0.1-1-0.3c-0.6-0.5-0.8-1.3-0.5-2l10.7-22c0.3-0.5,0.8-0.9,1.4-0.9c0.6,0,1.2,0.4,1.4,0.9
		l10.8,22c0.4,0.8,0.1,1.7-0.7,2.1c-0.8,0.4-1.8,0.1-2.2-0.7l-2.5-5.2c-1.7-0.5-3.4-0.5-5.3-0.2c-1.8,0.3-3.6,1-5.5,2
		c-3.3,1.7-5.6,3.9-5.6,3.9C-410.7,2285.1-411.1,2285.2-411.5,2285.2z M-400.8,2265.2l-6.5,13.3c0.3-0.2,0.6-0.3,0.9-0.5
		c2.2-1.2,4.3-1.9,6.4-2.3c1.4-0.3,2.8-0.4,4.2-0.2L-400.8,2265.2z"/>
	<path d="M-364.7,2285.3c-0.5,0-0.9-0.2-1.3-0.6l-15.5-18.7v17.6c0,0.9-0.7,1.6-1.6,1.6c-0.9,0-1.6-0.7-1.6-1.6v-22
		c0-0.7,0.4-1.3,1.1-1.5c0.6-0.2,1.3,0,1.8,0.5l15.6,18.6v-17.6c0-0.9,0.7-1.6,1.6-1.6c0.9,0,1.6,0.7,1.6,1.6v22
		c0,0.7-0.4,1.3-1.1,1.5C-364.4,2285.3-364.5,2285.3-364.7,2285.3z"/>
	<path d="M-330.3,2285.7c-1.8,0-3.5-0.4-5.2-1.1c-1.5-0.7-3-1.6-4.2-2.8c-1.2-1.2-2.2-2.6-2.8-4.2c-0.7-1.6-1-3.3-1-5
		c0-1.8,0.4-3.5,1-5.1c0.7-1.5,1.6-3,2.9-4.1c1.2-1.2,2.7-2.2,4.2-2.8c1.6-0.7,3.4-1,5.1-1c2.9,0,5.6,0.9,7.8,2.6
		c0.7,0.5,0.8,1.5,0.3,2.2c-0.5,0.7-1.6,0.8-2.2,0.3c-1.7-1.3-3.7-2-5.9-2c-1.4,0-2.7,0.3-3.9,0.8c-1.2,0.5-2.3,1.2-3.2,2.2
		c-0.9,0.9-1.6,2-2.2,3.1c-0.5,1.2-0.8,2.5-0.8,3.8s0.3,2.6,0.8,3.8c0.5,1.2,1.2,2.2,2.2,3.1c1.9,1.9,4.4,3,7.1,3
		c1.2,0,2.3-0.2,3.4-0.6c1.1-0.4,2-1,2.9-1.7c0.7-0.6,1.7-0.5,2.2,0.2s0.5,1.7-0.2,2.2c-1.2,1-2.4,1.7-3.8,2.2
		C-327.2,2285.4-328.8,2285.7-330.3,2285.7z"/>
	<path d="M-303.2,2285.8c-1.8,0-3.5-0.4-5.1-1.1c-1.6-0.7-3-1.6-4.2-2.8c-1.2-1.2-2.2-2.6-2.8-4.2c-0.7-1.6-1-3.3-1-5
		c0-1.8,0.4-3.5,1.1-5.1c0.7-1.5,1.6-3,2.9-4.1c1.2-1.2,2.6-2.2,4.2-2.8c1.6-0.7,3.4-1,5.2-1c3.5,0,6.8,1.4,9.2,3.9
		c1.2,1.2,2.1,2.6,2.7,4.1c0.7,1.6,1,3.3,1,5c0,1.8-0.3,3.5-1,5c-0.6,1.6-1.6,3-2.8,4.2C-296.4,2284.4-299.7,2285.8-303.2,2285.8z
		 M-303.1,2262.8c-1.3,0-2.7,0.3-3.9,0.8c-1.2,0.5-2.3,1.2-3.2,2.2c-0.9,0.9-1.7,2-2.2,3.1c-0.5,1.2-0.8,2.5-0.8,3.8
		c0,1.3,0.3,2.6,0.8,3.8c0.5,1.2,1.2,2.2,2.2,3.1c1.9,1.9,4.4,3,7.1,3c2.7,0,5.1-1.1,7-2.9c0.9-0.9,1.6-2,2.1-3.1
		c0.5-1.2,0.7-2.5,0.7-3.8c0-2.6-1-5.1-2.8-6.9C-298,2263.8-300.5,2262.8-303.1,2262.8z"/>
	<path d="M-269.5,2285.2h-14c-0.9,0-1.6-0.7-1.6-1.6v-22c0-0.9,0.7-1.6,1.6-1.6c0.9,0,1.6,0.7,1.6,1.6v20.4h12.4
		c0.9,0,1.6,0.7,1.6,1.6C-267.9,2284.5-268.6,2285.2-269.5,2285.2z"/>
	<path d="M-249.8,2285.8c-1.8,0-3.5-0.4-5.1-1.1c-1.6-0.7-3-1.6-4.2-2.8c-1.2-1.2-2.2-2.6-2.8-4.2c-0.7-1.6-1-3.3-1-5
		c0-1.8,0.4-3.5,1.1-5.1c0.7-1.5,1.6-3,2.9-4.1c1.2-1.2,2.6-2.2,4.2-2.8c1.6-0.7,3.4-1,5.2-1c3.5,0,6.8,1.4,9.2,3.9
		c1.2,1.2,2.1,2.6,2.7,4.1c0.7,1.6,1,3.3,1,5c0,1.8-0.3,3.5-1,5c-0.6,1.6-1.6,3-2.8,4.2C-242.9,2284.4-246.2,2285.8-249.8,2285.8z
		 M-249.7,2262.8c-1.3,0-2.7,0.3-3.9,0.8c-1.2,0.5-2.3,1.2-3.2,2.2c-0.9,0.9-1.7,2-2.2,3.1c-0.5,1.2-0.8,2.5-0.8,3.8
		c0,1.3,0.3,2.6,0.8,3.8c0.5,1.2,1.2,2.2,2.2,3.1c1.9,1.9,4.4,3,7.1,3c2.7,0,5.1-1.1,7-2.9c0.9-0.9,1.6-2,2.1-3.1
		c0.5-1.2,0.7-2.5,0.7-3.8c0-2.6-1-5.1-2.8-6.9C-244.6,2263.8-247,2262.8-249.7,2262.8z"/>
	<path d="M-222.4,2285.6c-7,0-8.9-3.3-9.2-3.7c-0.4-0.8-0.1-1.8,0.6-2.2c0.8-0.4,1.7-0.1,2.2,0.6c0.1,0.1,0.4,0.5,1.2,1
		c1.6,0.9,3.7,1.1,5.1,1.1c2.1,0,3.7-0.4,4.6-1.3c0.7-0.6,0.9-1.4,0.9-2c0-1.2-0.4-2.1-1.1-2.8c-1-1-2.7-1.7-5.2-2.2
		c-1.8-0.4-3.3-1-4.5-1.8c-1-0.7-1.8-1.6-2.4-2.6c-0.9-1.6-0.9-3.1-0.9-3.4c0-1.7,0.8-3.4,2.2-4.6c0.7-0.6,1.5-1.1,2.4-1.4
		c1-0.4,2-0.5,3.1-0.5c6.3,0,8.1,3,8.3,3.3c0.4,0.8,0.2,1.8-0.6,2.2c-0.8,0.4-1.7,0.2-2.2-0.6c-0.1-0.1-0.4-0.4-1.1-0.8
		c-0.8-0.4-2.2-0.9-4.5-0.9c-1.8,0-2.8,0.6-3.4,1.2c-0.7,0.6-1.1,1.4-1.1,2.3v0.1c0,0.1,0,0.9,0.6,1.9c0.4,0.6,0.8,1.1,1.5,1.5
		c0.8,0.5,1.9,1,3.2,1.3c3.1,0.6,5.3,1.6,6.8,3.1c1.4,1.3,2.1,3.1,2.1,5.1c0,1.7-0.7,3.2-1.9,4.4
		C-217.1,2284.9-219.4,2285.6-222.4,2285.6z"/>
	<path d="M-199.2,2285.6c-7,0-8.9-3.3-9.2-3.7c-0.4-0.8-0.1-1.8,0.6-2.2c0.8-0.4,1.7-0.1,2.2,0.6c0.1,0.1,0.4,0.5,1.2,1
		c1.6,0.9,3.7,1.1,5.1,1.1c2.1,0,3.7-0.4,4.6-1.3c0.7-0.6,0.9-1.4,0.9-2c0-1.2-0.4-2.1-1.1-2.8c-1-1-2.7-1.7-5.2-2.2
		c-1.8-0.4-3.3-1-4.5-1.8c-1-0.7-1.8-1.6-2.4-2.6c-0.9-1.6-0.9-3.1-0.9-3.4c0-1.7,0.8-3.4,2.2-4.6c0.7-0.6,1.5-1.1,2.4-1.4
		c1-0.4,2-0.5,3.1-0.5c6.3,0,8.1,3,8.3,3.3c0.4,0.8,0.2,1.8-0.6,2.2c-0.8,0.4-1.7,0.2-2.2-0.6c-0.1-0.1-0.4-0.4-1.1-0.8
		c-0.8-0.4-2.2-0.9-4.5-0.9c-1.8,0-2.8,0.6-3.4,1.2c-0.7,0.6-1.1,1.4-1.1,2.3v0.1c0,0.1,0,0.9,0.6,1.9c0.4,0.6,0.8,1.1,1.5,1.5
		c0.8,0.5,1.9,1,3.2,1.3c3.1,0.6,5.3,1.6,6.8,3.1c1.4,1.3,2.1,3.1,2.1,5.1c0,1.7-0.7,3.2-1.9,4.4
		C-193.9,2284.9-196.2,2285.6-199.2,2285.6z"/>
	<path d="M-174.7,2285.6c-2.3,0-4.4-0.5-6-1.4c-1.4-0.8-2.5-1.9-3.3-3.4c-1.3-2.4-1.3-5-1.3-5.8v-13.4c0-0.9,0.7-1.6,1.6-1.6
		c0.9,0,1.6,0.7,1.6,1.6v13.4c0,0.6,0,2.6,0.9,4.3c0.5,0.9,1.2,1.6,2.1,2.2c1.1,0.6,2.6,1,4.4,1c1.8,0,3.3-0.4,4.4-1
		c0.9-0.5,1.6-1.2,2.1-2.1c0.9-1.7,0.9-3.7,0.9-4.3v-13.4c0-0.9,0.7-1.6,1.6-1.6c0.9,0,1.6,0.7,1.6,1.6v13.4c0,0.8,0,3.4-1.3,5.8
		C-166.6,2283-169.2,2285.6-174.7,2285.6z"/>
	<path d="M-149.6,2285.6c-7,0-8.9-3.3-9.2-3.7c-0.4-0.8-0.1-1.8,0.6-2.2c0.8-0.4,1.7-0.1,2.2,0.6c0.1,0.1,0.4,0.5,1.2,1
		c1.6,0.9,3.7,1.1,5.1,1.1c2.1,0,3.7-0.4,4.6-1.3c0.7-0.6,0.9-1.4,0.9-2c0-1.2-0.4-2.1-1.1-2.8c-1-1-2.7-1.7-5.2-2.2
		c-1.8-0.4-3.3-1-4.5-1.8c-1-0.7-1.8-1.6-2.4-2.6c-0.9-1.6-0.9-3.1-0.9-3.4c0-1.7,0.8-3.4,2.2-4.6c0.7-0.6,1.5-1.1,2.4-1.4
		c1-0.4,2-0.5,3.1-0.5c6.3,0,8.1,3,8.3,3.3c0.4,0.8,0.2,1.8-0.6,2.2c-0.8,0.4-1.7,0.2-2.2-0.6c-0.1-0.1-0.4-0.4-1.1-0.8
		c-0.8-0.4-2.2-0.9-4.5-0.9c-1.8,0-2.8,0.6-3.4,1.2c-0.7,0.6-1.1,1.4-1.1,2.3v0.1c0,0.1,0,0.9,0.6,1.9c0.4,0.6,0.8,1.1,1.5,1.5
		c0.8,0.5,1.9,1,3.2,1.3c3.1,0.6,5.3,1.6,6.8,3.1c1.4,1.3,2.1,3.1,2.1,5.1c0,1.7-0.7,3.2-1.9,4.4
		C-144.3,2284.9-146.6,2285.6-149.6,2285.6z"/>
	<path d="M-385.3,2317.6c-1.1,0-2.1-0.2-3.1-0.6c-0.9-0.4-1.8-1-2.5-1.7c-0.7-0.7-1.3-1.6-1.7-2.5c-0.4-1-0.6-2-0.6-3
		c0-1.1,0.2-2.1,0.6-3c0.4-0.9,1-1.8,1.7-2.5c0.7-0.7,1.6-1.3,2.5-1.7c1-0.4,2-0.6,3.1-0.6c1.7,0,3.4,0.5,4.7,1.6
		c0.4,0.3,0.5,0.9,0.2,1.3c-0.3,0.4-0.9,0.5-1.3,0.2c-1-0.8-2.2-1.2-3.5-1.2c-0.8,0-1.6,0.2-2.4,0.5c-0.7,0.3-1.4,0.7-1.9,1.3
		c-0.5,0.5-1,1.2-1.3,1.9c-0.3,0.7-0.5,1.5-0.5,2.3s0.2,1.5,0.5,2.3c0.3,0.7,0.7,1.3,1.3,1.9c1.1,1.1,2.6,1.8,4.2,1.8
		c0.7,0,1.4-0.1,2-0.4c0.6-0.2,1.2-0.6,1.7-1c0.4-0.3,1-0.3,1.3,0.1c0.3,0.4,0.3,1-0.1,1.3c-0.7,0.6-1.5,1-2.3,1.3
		C-383.5,2317.4-384.4,2317.6-385.3,2317.6z"/>
	<path d="M-367.2,2317.7c-1.1,0-2.1-0.2-3.1-0.6c-0.9-0.4-1.8-1-2.5-1.7c-0.7-0.7-1.3-1.6-1.7-2.5c-0.4-1-0.6-2-0.6-3
		c0-1.1,0.2-2.1,0.6-3c0.4-0.9,1-1.8,1.7-2.5c0.7-0.7,1.6-1.3,2.5-1.7c1-0.4,2-0.6,3.1-0.6c2.1,0,4.1,0.8,5.5,2.3
		c0.7,0.7,1.3,1.6,1.6,2.5c0.4,1,0.6,2,0.6,3c0,1.1-0.2,2.1-0.6,3c-0.4,0.9-0.9,1.8-1.7,2.5C-363.1,2316.9-365,2317.7-367.2,2317.7z
		 M-367.1,2303.9c-0.8,0-1.6,0.2-2.4,0.5c-0.7,0.3-1.4,0.7-1.9,1.3c-0.6,0.5-1,1.2-1.3,1.9c-0.3,0.7-0.5,1.5-0.5,2.3
		s0.2,1.5,0.5,2.3c0.3,0.7,0.7,1.3,1.3,1.9c1.1,1.1,2.6,1.8,4.2,1.8s3.1-0.6,4.2-1.8c0.5-0.5,0.9-1.2,1.3-1.9
		c0.3-0.7,0.4-1.5,0.4-2.3c0-1.6-0.6-3.1-1.7-4.2C-364,2304.5-365.5,2303.9-367.1,2303.9z"/>
	<path d="M-340.5,2317.3c-0.5,0-1-0.4-1-1V2306l-4.7,6.5c-0.2,0.3-0.5,0.4-0.8,0.4c-0.3,0-0.6-0.1-0.8-0.4l-4.7-6.5v10.3
		c0,0.5-0.4,1-1,1c-0.5,0-1-0.4-1-1v-13.2c0-0.4,0.3-0.8,0.7-0.9c0.4-0.1,0.8,0,1.1,0.3l5.7,7.8l5.7-7.8c0.3-0.3,0.7-0.5,1.1-0.3
		c0.4,0.1,0.7,0.5,0.7,0.9v13.2C-339.5,2316.8-339.9,2317.3-340.5,2317.3z"/>
	<path d="M-320.6,2317.3c-0.5,0-1-0.4-1-1V2306l-4.7,6.5c-0.2,0.3-0.5,0.4-0.8,0.4c-0.3,0-0.6-0.1-0.8-0.4l-4.7-6.5v10.3
		c0,0.5-0.4,1-1,1c-0.5,0-1-0.4-1-1v-13.2c0-0.4,0.3-0.8,0.7-0.9c0.4-0.1,0.8,0,1.1,0.3l5.7,7.8l5.7-7.8c0.3-0.3,0.7-0.5,1.1-0.3
		c0.4,0.1,0.7,0.5,0.7,0.9v13.2C-319.6,2316.8-320,2317.3-320.6,2317.3z"/>
	<path d="M-308.2,2317.6c-1.4,0-2.6-0.3-3.6-0.9c-0.8-0.5-1.5-1.2-2-2c-0.8-1.5-0.8-3-0.8-3.5v-8c0-0.5,0.4-1,1-1c0.5,0,1,0.4,1,1v8
		c0,0.4,0,1.5,0.6,2.6c0.3,0.6,0.7,1,1.3,1.3c0.7,0.4,1.6,0.6,2.6,0.6c1.1,0,2-0.2,2.6-0.6c0.5-0.3,0.9-0.7,1.2-1.3
		c0.6-1,0.6-2.2,0.6-2.6v-8c0-0.5,0.4-1,1-1c0.5,0,1,0.4,1,1v8c0,0.5,0,2-0.8,3.5C-303.3,2316-304.9,2317.6-308.2,2317.6z"/>
	<path d="M-284.8,2317.4c-0.3,0-0.6-0.1-0.8-0.3l-9.3-11.2v10.6c0,0.5-0.4,1-1,1s-1-0.4-1-1v-13.2c0-0.4,0.3-0.8,0.6-0.9
		c0.4-0.1,0.8,0,1.1,0.3l9.3,11.2v-10.5c0-0.5,0.4-1,1-1c0.5,0,1,0.4,1,1v13.2c0,0.4-0.3,0.8-0.6,0.9
		C-284.6,2317.4-284.7,2317.4-284.8,2317.4z"/>
	<path d="M-277.9,2317.4c-0.5,0-1-0.4-1-1v-13.2c0-0.5,0.4-1,1-1c0.5,0,1,0.4,1,1v13.2C-276.9,2316.9-277.4,2317.4-277.9,2317.4z"/>
	<path d="M-259.6,2303.2c0,0.5-0.4,1-1,1h-4.2v12.3c0,0.5-0.4,1-1,1c-0.5,0-1-0.4-1-1v-12.3h-4.2c-0.5,0-1-0.4-1-1c0-0.5,0.4-1,1-1
		h10.4C-260,2302.2-259.6,2302.6-259.6,2303.2z"/>
	<path d="M-242.5,2303.7l-5,7.5v5.2c0,0.5-0.4,1-1,1c-0.5,0-1-0.4-1-1v-5.2l-5-7.5c-0.3-0.4-0.2-1,0.3-1.3c0.4-0.3,1-0.2,1.3,0.3
		l4.4,6.6l4.4-6.6c0.3-0.4,0.9-0.6,1.3-0.3C-242.3,2302.7-242.2,2303.3-242.5,2303.7z"/>
</g>
<g>
	<path class="st2" d="M142.6,2261.5v22c0,0.9-0.7,1.6-1.6,1.6c-0.9,0-1.6-0.7-1.6-1.6v-9.6h-13.9v9.6c0,0.9-0.7,1.6-1.6,1.6
		c-0.9,0-1.6-0.7-1.6-1.6v-22c0-0.9,0.7-1.6,1.6-1.6c0.9,0,1.6,0.7,1.6,1.6v9.2h13.9v-9.2c0-0.9,0.7-1.6,1.6-1.6
		C141.9,2259.9,142.6,2260.6,142.6,2261.5z"/>
	<path class="st2" d="M158.4,2285.6c-2.3,0-4.4-0.5-6-1.4c-1.4-0.8-2.5-1.9-3.3-3.4c-1.3-2.4-1.3-5-1.3-5.8v-13.4
		c0-0.9,0.7-1.6,1.6-1.6c0.9,0,1.6,0.7,1.6,1.6v13.4c0,0.6,0,2.6,0.9,4.3c0.5,0.9,1.2,1.6,2.1,2.2c1.1,0.6,2.6,1,4.4,1
		c1.8,0,3.3-0.4,4.4-1c0.9-0.5,1.6-1.2,2.1-2.1c0.9-1.7,0.9-3.7,0.9-4.3v-13.4c0-0.9,0.7-1.6,1.6-1.6c0.9,0,1.6,0.7,1.6,1.6v13.4
		c0,0.8,0,3.4-1.3,5.8C166.5,2283,163.9,2285.6,158.4,2285.6z"/>
	<path class="st2" d="M197.4,2285.1c-0.9,0-1.6-0.7-1.6-1.6v-17.1l-7.9,10.8c-0.3,0.4-0.8,0.6-1.3,0.6c-0.5,0-1-0.2-1.3-0.6
		l-7.9-10.8v17.1c0,0.9-0.7,1.6-1.6,1.6c-0.9,0-1.6-0.7-1.6-1.6v-22c0-0.7,0.5-1.3,1.1-1.5c0.6-0.2,1.4,0,1.8,0.6l9.5,13l9.5-13
		c0.4-0.5,1.1-0.8,1.8-0.6c0.6,0.2,1.1,0.8,1.1,1.5v22C199,2284.4,198.3,2285.1,197.4,2285.1z"/>
	<path class="st2" d="M205.6,2285.2c-0.3,0-0.7-0.1-1-0.3c-0.6-0.5-0.8-1.3-0.5-2l10.7-22c0.3-0.5,0.8-0.9,1.4-0.9s1.2,0.4,1.4,0.9
		l10.8,22c0.4,0.8,0.1,1.7-0.7,2.1c-0.8,0.4-1.8,0.1-2.2-0.7l-2.5-5.2c-1.7-0.5-3.4-0.5-5.3-0.2c-1.8,0.3-3.6,1-5.5,2
		c-3.3,1.7-5.6,3.9-5.6,3.9C206.4,2285.1,206,2285.2,205.6,2285.2z M216.3,2265.2l-6.5,13.3c0.3-0.2,0.6-0.3,0.9-0.5
		c2.2-1.2,4.3-1.9,6.4-2.3c1.4-0.3,2.8-0.4,4.2-0.2L216.3,2265.2z"/>
	<path class="st2" d="M252.3,2285.3c-0.5,0-0.9-0.2-1.3-0.6l-15.5-18.7v17.6c0,0.9-0.7,1.6-1.6,1.6c-0.9,0-1.6-0.7-1.6-1.6v-22
		c0-0.7,0.4-1.3,1.1-1.5c0.6-0.2,1.3,0,1.8,0.5l15.6,18.6v-17.6c0-0.9,0.7-1.6,1.6-1.6c0.9,0,1.6,0.7,1.6,1.6v22
		c0,0.7-0.5,1.3-1.1,1.5C252.7,2285.3,252.5,2285.3,252.3,2285.3z"/>
	<path class="st2" d="M286.7,2285.7c-1.8,0-3.5-0.4-5.2-1.1c-1.5-0.7-3-1.6-4.2-2.8c-1.2-1.2-2.2-2.6-2.8-4.2c-0.7-1.6-1-3.3-1-5
		c0-1.8,0.4-3.5,1-5.1c0.7-1.5,1.6-3,2.9-4.1c1.2-1.2,2.7-2.2,4.2-2.8c1.6-0.7,3.4-1,5.1-1c2.9,0,5.6,0.9,7.8,2.6
		c0.7,0.5,0.8,1.5,0.3,2.2c-0.5,0.7-1.6,0.8-2.2,0.3c-1.7-1.3-3.7-2-5.9-2c-1.3,0-2.7,0.3-3.9,0.8c-1.2,0.5-2.3,1.2-3.2,2.2
		c-0.9,0.9-1.6,2-2.2,3.1c-0.5,1.2-0.8,2.5-0.8,3.8s0.3,2.6,0.8,3.8c0.5,1.2,1.2,2.2,2.2,3.1c1.9,1.9,4.4,3,7.1,3
		c1.2,0,2.3-0.2,3.4-0.6c1.1-0.4,2-1,2.9-1.7c0.7-0.6,1.7-0.5,2.2,0.2s0.5,1.7-0.2,2.2c-1.2,1-2.4,1.7-3.8,2.2
		C289.8,2285.4,288.3,2285.7,286.7,2285.7z"/>
	<path class="st2" d="M313.8,2285.8c-1.8,0-3.5-0.4-5.1-1.1c-1.6-0.7-3-1.6-4.2-2.8c-1.2-1.2-2.2-2.6-2.8-4.2c-0.7-1.6-1-3.3-1-5
		c0-1.8,0.4-3.5,1.1-5.1c0.7-1.5,1.6-3,2.9-4.1c1.2-1.2,2.6-2.2,4.2-2.8c1.6-0.7,3.4-1,5.2-1c3.5,0,6.8,1.4,9.2,3.9
		c1.2,1.2,2.1,2.6,2.7,4.1c0.7,1.6,1,3.3,1,5c0,1.8-0.3,3.5-1,5c-0.6,1.6-1.6,3-2.8,4.2C320.7,2284.4,317.4,2285.8,313.8,2285.8z
		 M313.9,2262.8c-1.3,0-2.7,0.3-3.9,0.8c-1.2,0.5-2.3,1.2-3.2,2.2c-0.9,0.9-1.7,2-2.2,3.1c-0.5,1.2-0.8,2.5-0.8,3.8
		c0,1.3,0.3,2.6,0.8,3.8c0.5,1.2,1.2,2.2,2.2,3.1c1.9,1.9,4.4,3,7.1,3c2.7,0,5.1-1.1,7-2.9c0.9-0.9,1.6-2,2.1-3.1
		c0.5-1.2,0.7-2.5,0.7-3.8c0-2.6-1-5.1-2.8-6.9C319,2263.8,316.6,2262.8,313.9,2262.8z"/>
	<path class="st2" d="M347.5,2285.2h-14c-0.9,0-1.6-0.7-1.6-1.6v-22c0-0.9,0.7-1.6,1.6-1.6c0.9,0,1.6,0.7,1.6,1.6v20.4h12.4
		c0.9,0,1.6,0.7,1.6,1.6C349.1,2284.5,348.4,2285.2,347.5,2285.2z"/>
	<path class="st2" d="M367.3,2285.8c-1.8,0-3.5-0.4-5.1-1.1c-1.6-0.7-3-1.6-4.2-2.8c-1.2-1.2-2.2-2.6-2.8-4.2c-0.7-1.6-1-3.3-1-5
		c0-1.8,0.4-3.5,1.1-5.1c0.7-1.5,1.6-3,2.9-4.1c1.2-1.2,2.6-2.2,4.2-2.8c1.6-0.7,3.4-1,5.2-1c3.5,0,6.8,1.4,9.2,3.9
		c1.2,1.2,2.1,2.6,2.7,4.1c0.7,1.6,1,3.3,1,5c0,1.8-0.3,3.5-1,5c-0.6,1.6-1.6,3-2.8,4.2C374.1,2284.4,370.8,2285.8,367.3,2285.8z
		 M367.4,2262.8c-1.3,0-2.7,0.3-3.9,0.8c-1.2,0.5-2.3,1.2-3.2,2.2c-0.9,0.9-1.7,2-2.2,3.1c-0.5,1.2-0.8,2.5-0.8,3.8
		c0,1.3,0.3,2.6,0.8,3.8c0.5,1.2,1.2,2.2,2.2,3.1c1.9,1.9,4.4,3,7.1,3c2.7,0,5.1-1.1,7-2.9c0.9-0.9,1.6-2,2.1-3.1
		c0.5-1.2,0.7-2.5,0.7-3.8c0-2.6-1-5.1-2.8-6.9C372.5,2263.8,370,2262.8,367.4,2262.8z"/>
	<path class="st2" d="M394.6,2285.6c-7,0-8.9-3.3-9.2-3.7c-0.4-0.8-0.1-1.8,0.6-2.2s1.7-0.1,2.2,0.6c0.1,0.1,0.4,0.5,1.2,1
		c1.6,0.9,3.7,1.1,5.1,1.1c2.1,0,3.7-0.4,4.6-1.3c0.7-0.6,0.9-1.4,0.9-2c0-1.2-0.4-2.1-1.1-2.8c-1-1-2.7-1.7-5.2-2.2
		c-1.8-0.4-3.3-1-4.5-1.8c-1-0.7-1.8-1.6-2.4-2.6c-0.9-1.6-0.9-3.1-0.9-3.4c0-1.7,0.8-3.4,2.2-4.6c0.7-0.6,1.5-1.1,2.4-1.4
		c1-0.4,2-0.5,3.1-0.5c6.3,0,8.1,3,8.3,3.3c0.4,0.8,0.2,1.8-0.6,2.2c-0.8,0.4-1.7,0.2-2.2-0.6c-0.1-0.1-0.4-0.4-1.1-0.8
		c-0.8-0.4-2.2-0.9-4.5-0.9c-1.8,0-2.8,0.6-3.4,1.2c-0.7,0.6-1.1,1.4-1.1,2.3v0.1c0,0.1,0,0.9,0.6,1.9c0.4,0.6,0.8,1.1,1.5,1.5
		c0.8,0.5,1.9,1,3.2,1.3c3.1,0.6,5.3,1.6,6.8,3.1c1.4,1.3,2.1,3.1,2.1,5.1c0,1.7-0.7,3.2-1.9,4.4
		C399.9,2284.9,397.6,2285.6,394.6,2285.6z"/>
	<path class="st2" d="M417.8,2285.6c-7,0-8.9-3.3-9.2-3.7c-0.4-0.8-0.1-1.8,0.6-2.2s1.7-0.1,2.2,0.6c0.1,0.1,0.4,0.5,1.2,1
		c1.6,0.9,3.7,1.1,5.1,1.1c2.1,0,3.7-0.4,4.6-1.3c0.7-0.6,0.9-1.4,0.9-2c0-1.2-0.4-2.1-1.1-2.8c-1-1-2.7-1.7-5.2-2.2
		c-1.8-0.4-3.3-1-4.5-1.8c-1-0.7-1.8-1.6-2.4-2.6c-0.9-1.6-0.9-3.1-0.9-3.4c0-1.7,0.8-3.4,2.2-4.6c0.7-0.6,1.5-1.1,2.4-1.4
		c1-0.4,2-0.5,3.1-0.5c6.3,0,8.1,3,8.3,3.3c0.4,0.8,0.2,1.8-0.6,2.2c-0.8,0.4-1.7,0.2-2.2-0.6c-0.1-0.1-0.4-0.4-1.1-0.8
		c-0.8-0.4-2.2-0.9-4.5-0.9c-1.8,0-2.8,0.6-3.4,1.2c-0.7,0.6-1.1,1.4-1.1,2.3v0.1c0,0.1,0,0.9,0.6,1.9c0.4,0.6,0.8,1.1,1.5,1.5
		c0.8,0.5,1.9,1,3.2,1.3c3.1,0.6,5.3,1.6,6.8,3.1c1.4,1.3,2.1,3.1,2.1,5.1c0,1.7-0.7,3.2-1.9,4.4
		C423.1,2284.9,420.8,2285.6,417.8,2285.6z"/>
	<path class="st2" d="M442.3,2285.6c-2.3,0-4.4-0.5-6-1.4c-1.4-0.8-2.5-1.9-3.3-3.4c-1.3-2.4-1.3-5-1.3-5.8v-13.4
		c0-0.9,0.7-1.6,1.6-1.6c0.9,0,1.6,0.7,1.6,1.6v13.4c0,0.6,0,2.6,0.9,4.3c0.5,0.9,1.2,1.6,2.1,2.2c1.1,0.6,2.6,1,4.4,1
		c1.8,0,3.3-0.4,4.4-1c0.9-0.5,1.6-1.2,2.1-2.1c0.9-1.7,0.9-3.7,0.9-4.3v-13.4c0-0.9,0.7-1.6,1.6-1.6c0.9,0,1.6,0.7,1.6,1.6v13.4
		c0,0.8,0,3.4-1.3,5.8C450.4,2283,447.8,2285.6,442.3,2285.6z"/>
	<path class="st2" d="M467.4,2285.6c-7,0-8.9-3.3-9.2-3.7c-0.4-0.8-0.1-1.8,0.6-2.2s1.7-0.1,2.2,0.6c0.1,0.1,0.4,0.5,1.2,1
		c1.6,0.9,3.7,1.1,5.1,1.1c2.1,0,3.7-0.4,4.6-1.3c0.7-0.6,0.9-1.4,0.9-2c0-1.2-0.4-2.1-1.1-2.8c-1-1-2.7-1.7-5.2-2.2
		c-1.8-0.4-3.3-1-4.5-1.8c-1-0.7-1.8-1.6-2.4-2.6c-0.9-1.6-0.9-3.1-0.9-3.4c0-1.7,0.8-3.4,2.2-4.6c0.7-0.6,1.5-1.1,2.4-1.4
		c1-0.4,2-0.5,3.1-0.5c6.3,0,8.1,3,8.3,3.3c0.4,0.8,0.2,1.8-0.6,2.2c-0.8,0.4-1.7,0.2-2.2-0.6c-0.1-0.1-0.4-0.4-1.1-0.8
		c-0.8-0.4-2.2-0.9-4.5-0.9c-1.8,0-2.8,0.6-3.4,1.2c-0.7,0.6-1.1,1.4-1.1,2.3v0.1c0,0.1,0,0.9,0.6,1.9c0.4,0.6,0.8,1.1,1.5,1.5
		c0.8,0.5,1.9,1,3.2,1.3c3.1,0.6,5.3,1.6,6.8,3.1c1.4,1.3,2.1,3.1,2.1,5.1c0,1.7-0.7,3.2-1.9,4.4
		C472.7,2284.9,470.4,2285.6,467.4,2285.6z"/>
	<path class="st2" d="M231.7,2317.6c-1.1,0-2.1-0.2-3.1-0.6c-0.9-0.4-1.8-1-2.5-1.7c-0.7-0.7-1.3-1.6-1.7-2.5c-0.4-1-0.6-2-0.6-3
		c0-1.1,0.2-2.1,0.6-3c0.4-0.9,1-1.8,1.7-2.5c0.7-0.7,1.6-1.3,2.5-1.7c1-0.4,2-0.6,3.1-0.6c1.7,0,3.4,0.5,4.7,1.6
		c0.4,0.3,0.5,0.9,0.2,1.3c-0.3,0.4-0.9,0.5-1.3,0.2c-1-0.8-2.2-1.2-3.5-1.2c-0.8,0-1.6,0.2-2.4,0.5c-0.7,0.3-1.4,0.7-1.9,1.3
		c-0.5,0.5-1,1.2-1.3,1.9s-0.5,1.5-0.5,2.3s0.2,1.5,0.5,2.3c0.3,0.7,0.7,1.3,1.3,1.9c1.1,1.1,2.6,1.8,4.2,1.8c0.7,0,1.4-0.1,2-0.4
		c0.6-0.2,1.2-0.6,1.7-1c0.4-0.3,1-0.3,1.3,0.1c0.3,0.4,0.3,1-0.1,1.3c-0.7,0.6-1.5,1-2.3,1.3
		C233.5,2317.4,232.6,2317.6,231.7,2317.6z"/>
	<path class="st2" d="M249.9,2317.7c-1.1,0-2.1-0.2-3.1-0.6c-0.9-0.4-1.8-1-2.5-1.7c-0.7-0.7-1.3-1.6-1.7-2.5c-0.4-1-0.6-2-0.6-3
		c0-1.1,0.2-2.1,0.6-3c0.4-0.9,1-1.8,1.7-2.5c0.7-0.7,1.6-1.3,2.5-1.7c1-0.4,2-0.6,3.1-0.6c2.1,0,4.1,0.8,5.5,2.3
		c0.7,0.7,1.3,1.6,1.6,2.5c0.4,1,0.6,2,0.6,3c0,1.1-0.2,2.1-0.6,3c-0.4,0.9-0.9,1.8-1.7,2.5C254,2316.9,252,2317.7,249.9,2317.7z
		 M249.9,2303.9c-0.8,0-1.6,0.2-2.4,0.5c-0.7,0.3-1.4,0.7-1.9,1.3c-0.6,0.5-1,1.2-1.3,1.9c-0.3,0.7-0.5,1.5-0.5,2.3s0.2,1.5,0.5,2.3
		c0.3,0.7,0.7,1.3,1.3,1.9c1.1,1.1,2.6,1.8,4.2,1.8s3.1-0.6,4.2-1.8c0.5-0.5,0.9-1.2,1.3-1.9c0.3-0.7,0.4-1.5,0.4-2.3
		c0-1.6-0.6-3.1-1.7-4.2C253,2304.5,251.5,2303.9,249.9,2303.9z"/>
	<path class="st2" d="M276.6,2317.3c-0.5,0-1-0.4-1-1V2306l-4.7,6.5c-0.2,0.3-0.5,0.4-0.8,0.4s-0.6-0.1-0.8-0.4l-4.7-6.5v10.3
		c0,0.5-0.4,1-1,1c-0.5,0-1-0.4-1-1v-13.2c0-0.4,0.3-0.8,0.7-0.9c0.4-0.1,0.8,0,1.1,0.3l5.7,7.8l5.7-7.8c0.3-0.3,0.7-0.5,1.1-0.3
		c0.4,0.1,0.7,0.5,0.7,0.9v13.2C277.5,2316.8,277.1,2317.3,276.6,2317.3z"/>
	<path class="st2" d="M296.5,2317.3c-0.5,0-1-0.4-1-1V2306l-4.7,6.5c-0.2,0.3-0.5,0.4-0.8,0.4s-0.6-0.1-0.8-0.4l-4.7-6.5v10.3
		c0,0.5-0.4,1-1,1c-0.5,0-1-0.4-1-1v-13.2c0-0.4,0.3-0.8,0.7-0.9c0.4-0.1,0.8,0,1.1,0.3l5.7,7.8l5.7-7.8c0.3-0.3,0.7-0.5,1.1-0.3
		c0.4,0.1,0.7,0.5,0.7,0.9v13.2C297.4,2316.8,297,2317.3,296.5,2317.3z"/>
	<path class="st2" d="M308.8,2317.6c-1.4,0-2.6-0.3-3.6-0.9c-0.8-0.5-1.5-1.2-2-2c-0.8-1.5-0.8-3-0.8-3.5v-8c0-0.5,0.4-1,1-1
		c0.5,0,1,0.4,1,1v8c0,0.4,0,1.5,0.6,2.6c0.3,0.6,0.7,1,1.3,1.3c0.7,0.4,1.6,0.6,2.6,0.6s2-0.2,2.6-0.6c0.5-0.3,0.9-0.7,1.2-1.3
		c0.6-1,0.6-2.2,0.6-2.6v-8c0-0.5,0.4-1,1-1c0.5,0,1,0.4,1,1v8c0,0.5,0,2-0.8,3.5C313.7,2316,312.1,2317.6,308.8,2317.6z"/>
	<path class="st2" d="M332.2,2317.4c-0.3,0-0.6-0.1-0.8-0.3l-9.3-11.2v10.6c0,0.5-0.4,1-1,1c-0.5,0-1-0.4-1-1v-13.2
		c0-0.4,0.2-0.8,0.6-0.9c0.4-0.1,0.8,0,1.1,0.3l9.3,11.2v-10.5c0-0.5,0.4-1,1-1c0.5,0,1,0.4,1,1v13.2c0,0.4-0.3,0.8-0.6,0.9
		C332.4,2317.4,332.3,2317.4,332.2,2317.4z"/>
	<path class="st2" d="M339.1,2317.4c-0.5,0-1-0.4-1-1v-13.2c0-0.5,0.4-1,1-1c0.5,0,1,0.4,1,1v13.2
		C340.1,2316.9,339.7,2317.4,339.1,2317.4z"/>
	<path class="st2" d="M357.4,2303.2c0,0.5-0.4,1-1,1h-4.2v12.3c0,0.5-0.4,1-1,1c-0.5,0-1-0.4-1-1v-12.3h-4.2c-0.5,0-1-0.4-1-1
		c0-0.5,0.4-1,1-1h10.4C357,2302.2,357.4,2302.6,357.4,2303.2z"/>
	<path class="st2" d="M374.6,2303.7l-5,7.5v5.2c0,0.5-0.4,1-1,1c-0.5,0-1-0.4-1-1v-5.2l-5-7.5c-0.3-0.4-0.2-1,0.3-1.3
		c0.4-0.3,1-0.2,1.3,0.3l4.4,6.6l4.4-6.6c0.3-0.4,0.9-0.6,1.3-0.3C374.7,2302.7,374.8,2303.3,374.6,2303.7z"/>
</g>
<g>
	<path d="M-303.7,2029.7l-10.2-5.9l-10.2-5.9l-10.3,5.9l-10.2,5.9l-63.9,36.9v97.4l9.2,5.3l10.2,5.9l65,37.5l65-37.5l10.2-5.9
		l9.2-5.3v-97.4L-303.7,2029.7z M-252.3,2156.8l-5.7,3.3c-4.6-4.2-9.6-7.9-14.9-11.1c-4-2.5-8.2-4.7-12.6-6.5
		c-11.8-5.1-24.9-7.9-38.6-7.9c-13.7,0-26.7,2.8-38.6,7.9c-4.4,1.9-8.6,4-12.6,6.5l11.6,6.7l39.6,22.8l39.6-22.8
		c5.7,2.9,11.1,6.5,16,10.5l-55.6,32.1l-55.6-32.1l-10.6-6.1l-5.7-3.3v-5.6c6-2,11.7-4.5,17.1-7.6c4.2-2.4,8.2-5,12-7.9
		c20.5-15.9,34.7-39.7,37.8-66.8c0.4-3.7,0.6-7.5,0.6-11.3c0-1,0-1.9-0.1-2.9l-11.6,6.7l-38.7,22.4v46.3c-5.3,3.6-11.1,6.5-17.1,8.9
		v-65.1l54.6-31.5l10.6-6.1l6.7-3.8l6.7,3.9c-0.9,4.5-1.6,9.1-1.9,13.8c-0.1,1.6-0.2,3.2-0.2,4.8c-0.1,4.8,0.2,9.6,0.8,14.2
		c2.5,19.3,10.6,37.5,23.8,52.4c4.1,4.7,8.6,9,13.5,12.7c3.8,3,7.8,5.7,12,8v-58.6l-38.3-22.1c-0.2-3.6-0.2-7.2,0-10.8
		c0.2-2.8,0.5-5.7,0.9-8.4l54.5,31.4V2156.8z M-298.6,2149.9l-25.6,14.7l-25.6-14.8c8.1-2.5,16.7-3.8,25.6-3.8
		C-315.2,2146.1-306.7,2147.4-298.6,2149.9z M-366.9,2120.4v-29.8l24.8-14.3C-345.8,2093.4-354.6,2108.7-366.9,2120.4z
		 M-305.5,2076.7l24.2,14v28.3c-1.7-1.6-3.3-3.3-4.8-5C-295.7,2103.1-302.3,2090.3-305.5,2076.7z"/>
</g>
<g>
	<path d="M-474.4,1632.6v22c0,0.9-0.7,1.6-1.6,1.6c-0.9,0-1.6-0.7-1.6-1.6v-9.6h-13.9v9.6c0,0.9-0.7,1.6-1.6,1.6
		c-0.9,0-1.6-0.7-1.6-1.6v-22c0-0.9,0.7-1.6,1.6-1.6c0.9,0,1.6,0.7,1.6,1.6v9.2h13.9v-9.2c0-0.9,0.7-1.6,1.6-1.6
		C-475.1,1631-474.4,1631.7-474.4,1632.6z"/>
	<path d="M-458.6,1656.7c-2.3,0-4.4-0.5-6-1.4c-1.4-0.8-2.5-1.9-3.3-3.4c-1.3-2.4-1.3-5-1.3-5.8v-13.4c0-0.9,0.7-1.6,1.6-1.6
		c0.9,0,1.6,0.7,1.6,1.6v13.4c0,0.6,0,2.6,0.9,4.3c0.5,0.9,1.2,1.6,2.1,2.2c1.1,0.6,2.6,1,4.4,1c1.8,0,3.3-0.4,4.4-1
		c0.9-0.5,1.6-1.2,2.1-2.1c0.9-1.7,0.9-3.7,0.9-4.3v-13.4c0-0.9,0.7-1.6,1.6-1.6c0.9,0,1.6,0.7,1.6,1.6v13.4c0,0.8,0,3.4-1.3,5.8
		C-450.5,1654.1-453.1,1656.7-458.6,1656.7z"/>
	<path d="M-419.6,1656.2c-0.9,0-1.6-0.7-1.6-1.6v-17.1l-7.9,10.8c-0.3,0.4-0.8,0.6-1.3,0.6s-1-0.2-1.3-0.6l-7.9-10.8v17.1
		c0,0.9-0.7,1.6-1.6,1.6c-0.9,0-1.6-0.7-1.6-1.6v-22c0-0.7,0.4-1.3,1.1-1.5c0.6-0.2,1.4,0,1.8,0.6l9.5,13l9.5-13
		c0.4-0.5,1.1-0.8,1.8-0.6c0.6,0.2,1.1,0.8,1.1,1.5v22C-418,1655.5-418.7,1656.2-419.6,1656.2z"/>
	<path d="M-411.5,1656.3c-0.3,0-0.7-0.1-1-0.3c-0.6-0.5-0.8-1.3-0.5-2l10.7-22c0.3-0.5,0.8-0.9,1.4-0.9c0.6,0,1.2,0.4,1.4,0.9
		l10.8,22c0.4,0.8,0.1,1.7-0.7,2.1c-0.8,0.4-1.8,0.1-2.2-0.7l-2.5-5.2c-1.7-0.5-3.4-0.5-5.3-0.2c-1.8,0.3-3.6,1-5.5,2
		c-3.3,1.7-5.6,3.9-5.6,3.9C-410.7,1656.2-411.1,1656.3-411.5,1656.3z M-400.8,1636.4l-6.5,13.3c0.3-0.2,0.6-0.3,0.9-0.5
		c2.2-1.2,4.3-1.9,6.4-2.3c1.4-0.3,2.8-0.4,4.2-0.2L-400.8,1636.4z"/>
	<path d="M-364.7,1656.4c-0.5,0-0.9-0.2-1.3-0.6l-15.5-18.7v17.6c0,0.9-0.7,1.6-1.6,1.6c-0.9,0-1.6-0.7-1.6-1.6v-22
		c0-0.7,0.4-1.3,1.1-1.5c0.6-0.2,1.3,0,1.8,0.5l15.6,18.6v-17.6c0-0.9,0.7-1.6,1.6-1.6c0.9,0,1.6,0.7,1.6,1.6v22
		c0,0.7-0.4,1.3-1.1,1.5C-364.4,1656.4-364.5,1656.4-364.7,1656.4z"/>
	<path d="M-330.3,1656.8c-1.8,0-3.5-0.4-5.2-1.1c-1.5-0.7-3-1.6-4.2-2.8c-1.2-1.2-2.2-2.6-2.8-4.2c-0.7-1.6-1-3.3-1-5
		c0-1.8,0.4-3.5,1-5.1c0.7-1.5,1.6-3,2.9-4.1c1.2-1.2,2.7-2.2,4.2-2.8c1.6-0.7,3.4-1,5.1-1c2.9,0,5.6,0.9,7.8,2.6
		c0.7,0.5,0.8,1.5,0.3,2.2c-0.5,0.7-1.6,0.8-2.2,0.3c-1.7-1.3-3.7-2-5.9-2c-1.4,0-2.7,0.3-3.9,0.8c-1.2,0.5-2.3,1.2-3.2,2.2
		c-0.9,0.9-1.6,2-2.2,3.2s-0.8,2.5-0.8,3.8c0,1.3,0.3,2.6,0.8,3.8c0.5,1.2,1.2,2.2,2.2,3.1c1.9,1.9,4.4,3,7.1,3
		c1.2,0,2.3-0.2,3.4-0.6c1.1-0.4,2-1,2.9-1.7c0.7-0.6,1.7-0.5,2.2,0.2c0.6,0.7,0.5,1.7-0.2,2.2c-1.2,1-2.4,1.7-3.8,2.2
		C-327.2,1656.5-328.8,1656.8-330.3,1656.8z"/>
	<path d="M-303.2,1656.9c-1.8,0-3.5-0.4-5.1-1.1c-1.6-0.7-3-1.6-4.2-2.8c-1.2-1.2-2.2-2.6-2.8-4.2c-0.7-1.6-1-3.3-1-5
		c0-1.8,0.4-3.5,1.1-5.1c0.7-1.5,1.6-3,2.9-4.1c1.2-1.2,2.6-2.2,4.2-2.8c1.6-0.7,3.4-1,5.2-1c3.5,0,6.8,1.4,9.2,3.9
		c1.2,1.2,2.1,2.6,2.7,4.1c0.7,1.6,1,3.3,1,5c0,1.8-0.3,3.5-1,5c-0.6,1.6-1.6,3-2.8,4.2C-296.4,1655.5-299.7,1656.9-303.2,1656.9z
		 M-303.1,1633.9c-1.3,0-2.7,0.3-3.9,0.8c-1.2,0.5-2.3,1.2-3.2,2.2c-0.9,0.9-1.7,2-2.2,3.2c-0.5,1.2-0.8,2.5-0.8,3.8
		s0.3,2.6,0.8,3.8c0.5,1.2,1.2,2.2,2.2,3.1c1.9,1.9,4.4,3,7.1,3c2.7,0,5.1-1.1,7-2.9c0.9-0.9,1.6-2,2.1-3.1c0.5-1.2,0.7-2.5,0.7-3.8
		c0-2.6-1-5.1-2.8-6.9C-298,1634.9-300.5,1633.9-303.1,1633.9z"/>
	<path d="M-269.5,1656.3h-14c-0.9,0-1.6-0.7-1.6-1.6v-22c0-0.9,0.7-1.6,1.6-1.6c0.9,0,1.6,0.7,1.6,1.6v20.4h12.4
		c0.9,0,1.6,0.7,1.6,1.6C-267.9,1655.6-268.6,1656.3-269.5,1656.3z"/>
	<path d="M-249.8,1656.9c-1.8,0-3.5-0.4-5.1-1.1c-1.6-0.7-3-1.6-4.2-2.8c-1.2-1.2-2.2-2.6-2.8-4.2c-0.7-1.6-1-3.3-1-5
		c0-1.8,0.4-3.5,1.1-5.1c0.7-1.5,1.6-3,2.9-4.1c1.2-1.2,2.6-2.2,4.2-2.8c1.6-0.7,3.4-1,5.2-1c3.5,0,6.8,1.4,9.2,3.9
		c1.2,1.2,2.1,2.6,2.7,4.1c0.7,1.6,1,3.3,1,5c0,1.8-0.3,3.5-1,5c-0.6,1.6-1.6,3-2.8,4.2C-242.9,1655.5-246.2,1656.9-249.8,1656.9z
		 M-249.7,1633.9c-1.3,0-2.7,0.3-3.9,0.8c-1.2,0.5-2.3,1.2-3.2,2.2c-0.9,0.9-1.7,2-2.2,3.2c-0.5,1.2-0.8,2.5-0.8,3.8
		s0.3,2.6,0.8,3.8c0.5,1.2,1.2,2.2,2.2,3.1c1.9,1.9,4.4,3,7.1,3c2.7,0,5.1-1.1,7-2.9c0.9-0.9,1.6-2,2.1-3.1c0.5-1.2,0.7-2.5,0.7-3.8
		c0-2.6-1-5.1-2.8-6.9C-244.6,1634.9-247,1633.9-249.7,1633.9z"/>
	<path d="M-222.4,1656.7c-7,0-8.9-3.3-9.2-3.7c-0.4-0.8-0.1-1.8,0.6-2.2c0.8-0.4,1.7-0.1,2.2,0.6c0.1,0.1,0.4,0.5,1.2,1
		c1.6,0.9,3.7,1.1,5.1,1.1c2.1,0,3.7-0.4,4.6-1.3c0.7-0.6,0.9-1.4,0.9-2c0-1.2-0.4-2.1-1.1-2.8c-1-1-2.7-1.7-5.2-2.2
		c-1.8-0.4-3.3-1-4.5-1.8c-1-0.7-1.8-1.6-2.4-2.6c-0.9-1.6-0.9-3.1-0.9-3.4c0-1.7,0.8-3.4,2.2-4.6c0.7-0.6,1.5-1.1,2.4-1.4
		c1-0.4,2-0.5,3.1-0.5c6.3,0,8.1,3,8.3,3.3c0.4,0.8,0.2,1.8-0.6,2.2c-0.8,0.4-1.7,0.2-2.2-0.6c-0.1-0.1-0.4-0.4-1.1-0.8
		c-0.8-0.4-2.2-0.9-4.5-0.9c-1.8,0-2.8,0.6-3.4,1.2c-0.7,0.6-1.1,1.4-1.1,2.3v0.1c0,0.1,0,0.9,0.6,1.9c0.4,0.6,0.8,1.1,1.5,1.5
		c0.8,0.5,1.9,1,3.2,1.3c3.1,0.6,5.3,1.6,6.8,3.1c1.4,1.3,2.1,3.1,2.1,5.1c0,1.7-0.7,3.2-1.9,4.4
		C-217.1,1656-219.4,1656.7-222.4,1656.7z"/>
	<path d="M-199.2,1656.7c-7,0-8.9-3.3-9.2-3.7c-0.4-0.8-0.1-1.8,0.6-2.2c0.8-0.4,1.7-0.1,2.2,0.6c0.1,0.1,0.4,0.5,1.2,1
		c1.6,0.9,3.7,1.1,5.1,1.1c2.1,0,3.7-0.4,4.6-1.3c0.7-0.6,0.9-1.4,0.9-2c0-1.2-0.4-2.1-1.1-2.8c-1-1-2.7-1.7-5.2-2.2
		c-1.8-0.4-3.3-1-4.5-1.8c-1-0.7-1.8-1.6-2.4-2.6c-0.9-1.6-0.9-3.1-0.9-3.4c0-1.7,0.8-3.4,2.2-4.6c0.7-0.6,1.5-1.1,2.4-1.4
		c1-0.4,2-0.5,3.1-0.5c6.3,0,8.1,3,8.3,3.3c0.4,0.8,0.2,1.8-0.6,2.2c-0.8,0.4-1.7,0.2-2.2-0.6c-0.1-0.1-0.4-0.4-1.1-0.8
		c-0.8-0.4-2.2-0.9-4.5-0.9c-1.8,0-2.8,0.6-3.4,1.2c-0.7,0.6-1.1,1.4-1.1,2.3v0.1c0,0.1,0,0.9,0.6,1.9c0.4,0.6,0.8,1.1,1.5,1.5
		c0.8,0.5,1.9,1,3.2,1.3c3.1,0.6,5.3,1.6,6.8,3.1c1.4,1.3,2.1,3.1,2.1,5.1c0,1.7-0.7,3.2-1.9,4.4
		C-193.9,1656-196.2,1656.7-199.2,1656.7z"/>
	<path d="M-174.7,1656.7c-2.3,0-4.4-0.5-6-1.4c-1.4-0.8-2.5-1.9-3.3-3.4c-1.3-2.4-1.3-5-1.3-5.8v-13.4c0-0.9,0.7-1.6,1.6-1.6
		c0.9,0,1.6,0.7,1.6,1.6v13.4c0,0.6,0,2.6,0.9,4.3c0.5,0.9,1.2,1.6,2.1,2.2c1.1,0.6,2.6,1,4.4,1c1.8,0,3.3-0.4,4.4-1
		c0.9-0.5,1.6-1.2,2.1-2.1c0.9-1.7,0.9-3.7,0.9-4.3v-13.4c0-0.9,0.7-1.6,1.6-1.6c0.9,0,1.6,0.7,1.6,1.6v13.4c0,0.8,0,3.4-1.3,5.8
		C-166.6,1654.1-169.2,1656.7-174.7,1656.7z"/>
	<path d="M-149.6,1656.7c-7,0-8.9-3.3-9.2-3.7c-0.4-0.8-0.1-1.8,0.6-2.2c0.8-0.4,1.7-0.1,2.2,0.6c0.1,0.1,0.4,0.5,1.2,1
		c1.6,0.9,3.7,1.1,5.1,1.1c2.1,0,3.7-0.4,4.6-1.3c0.7-0.6,0.9-1.4,0.9-2c0-1.2-0.4-2.1-1.1-2.8c-1-1-2.7-1.7-5.2-2.2
		c-1.8-0.4-3.3-1-4.5-1.8c-1-0.7-1.8-1.6-2.4-2.6c-0.9-1.6-0.9-3.1-0.9-3.4c0-1.7,0.8-3.4,2.2-4.6c0.7-0.6,1.5-1.1,2.4-1.4
		c1-0.4,2-0.5,3.1-0.5c6.3,0,8.1,3,8.3,3.3c0.4,0.8,0.2,1.8-0.6,2.2c-0.8,0.4-1.7,0.2-2.2-0.6c-0.1-0.1-0.4-0.4-1.1-0.8
		c-0.8-0.4-2.2-0.9-4.5-0.9c-1.8,0-2.8,0.6-3.4,1.2c-0.7,0.6-1.1,1.4-1.1,2.3v0.1c0,0.1,0,0.9,0.6,1.9c0.4,0.6,0.8,1.1,1.5,1.5
		c0.8,0.5,1.9,1,3.2,1.3c3.1,0.6,5.3,1.6,6.8,3.1c1.4,1.3,2.1,3.1,2.1,5.1c0,1.7-0.7,3.2-1.9,4.4
		C-144.3,1656-146.6,1656.7-149.6,1656.7z"/>
	<path d="M-385.3,1688.7c-1.1,0-2.1-0.2-3.1-0.6c-0.9-0.4-1.8-1-2.5-1.7c-0.7-0.7-1.3-1.6-1.7-2.5c-0.4-1-0.6-2-0.6-3
		c0-1.1,0.2-2.1,0.6-3c0.4-0.9,1-1.8,1.7-2.5c0.7-0.7,1.6-1.3,2.5-1.7c1-0.4,2-0.6,3.1-0.6c1.7,0,3.4,0.5,4.7,1.6
		c0.4,0.3,0.5,0.9,0.2,1.3c-0.3,0.4-0.9,0.5-1.3,0.2c-1-0.8-2.2-1.2-3.5-1.2c-0.8,0-1.6,0.2-2.4,0.5c-0.7,0.3-1.4,0.7-1.9,1.3
		c-0.5,0.5-1,1.2-1.3,1.9c-0.3,0.7-0.5,1.5-0.5,2.3c0,0.8,0.2,1.5,0.5,2.3c0.3,0.7,0.7,1.3,1.3,1.9c1.1,1.1,2.6,1.8,4.2,1.8
		c0.7,0,1.4-0.1,2-0.4c0.6-0.2,1.2-0.6,1.7-1c0.4-0.3,1-0.3,1.3,0.1c0.3,0.4,0.3,1-0.1,1.3c-0.7,0.6-1.5,1-2.3,1.3
		C-383.5,1688.5-384.4,1688.7-385.3,1688.7z"/>
	<path d="M-367.2,1688.8c-1.1,0-2.1-0.2-3.1-0.6c-0.9-0.4-1.8-1-2.5-1.7c-0.7-0.7-1.3-1.6-1.7-2.5c-0.4-1-0.6-2-0.6-3
		c0-1.1,0.2-2.1,0.6-3c0.4-0.9,1-1.8,1.7-2.5c0.7-0.7,1.6-1.3,2.5-1.7c1-0.4,2-0.6,3.1-0.6c2.1,0,4.1,0.8,5.5,2.3
		c0.7,0.7,1.3,1.6,1.6,2.5c0.4,1,0.6,2,0.6,3c0,1.1-0.2,2.1-0.6,3c-0.4,0.9-0.9,1.8-1.7,2.5C-363.1,1688-365,1688.8-367.2,1688.8z
		 M-367.1,1675c-0.8,0-1.6,0.2-2.4,0.5c-0.7,0.3-1.4,0.7-1.9,1.3c-0.6,0.5-1,1.2-1.3,1.9c-0.3,0.7-0.5,1.5-0.5,2.3
		c0,0.8,0.2,1.5,0.5,2.3c0.3,0.7,0.7,1.3,1.3,1.9c1.1,1.1,2.6,1.8,4.2,1.8s3.1-0.6,4.2-1.8c0.5-0.5,0.9-1.2,1.3-1.9
		c0.3-0.7,0.4-1.5,0.4-2.3c0-1.6-0.6-3.1-1.7-4.2C-364,1675.6-365.5,1675-367.1,1675z"/>
	<path d="M-340.5,1688.4c-0.5,0-1-0.4-1-1v-10.3l-4.7,6.5c-0.2,0.2-0.5,0.4-0.8,0.4c-0.3,0-0.6-0.1-0.8-0.4l-4.7-6.5v10.3
		c0,0.5-0.4,1-1,1c-0.5,0-1-0.4-1-1v-13.2c0-0.4,0.3-0.8,0.7-0.9c0.4-0.1,0.8,0,1.1,0.3l5.7,7.8l5.7-7.8c0.3-0.3,0.7-0.5,1.1-0.3
		c0.4,0.1,0.7,0.5,0.7,0.9v13.2C-339.5,1688-339.9,1688.4-340.5,1688.4z"/>
	<path d="M-320.6,1688.4c-0.5,0-1-0.4-1-1v-10.3l-4.7,6.5c-0.2,0.2-0.5,0.4-0.8,0.4c-0.3,0-0.6-0.1-0.8-0.4l-4.7-6.5v10.3
		c0,0.5-0.4,1-1,1c-0.5,0-1-0.4-1-1v-13.2c0-0.4,0.3-0.8,0.7-0.9c0.4-0.1,0.8,0,1.1,0.3l5.7,7.8l5.7-7.8c0.3-0.3,0.7-0.5,1.1-0.3
		c0.4,0.1,0.7,0.5,0.7,0.9v13.2C-319.6,1688-320,1688.4-320.6,1688.4z"/>
	<path d="M-308.2,1688.7c-1.4,0-2.6-0.3-3.6-0.9c-0.8-0.5-1.5-1.2-2-2c-0.8-1.5-0.8-3-0.8-3.5v-8c0-0.5,0.4-1,1-1c0.5,0,1,0.4,1,1v8
		c0,0.4,0,1.5,0.6,2.6c0.3,0.6,0.7,1,1.3,1.3c0.7,0.4,1.6,0.6,2.6,0.6c1.1,0,2-0.2,2.6-0.6c0.5-0.3,0.9-0.7,1.2-1.3
		c0.6-1,0.6-2.2,0.6-2.6v-8c0-0.5,0.4-1,1-1c0.5,0,1,0.4,1,1v8c0,0.5,0,2-0.8,3.5C-303.3,1687.1-304.9,1688.7-308.2,1688.7z"/>
	<path d="M-284.8,1688.5c-0.3,0-0.6-0.1-0.8-0.3l-9.3-11.2v10.6c0,0.5-0.4,1-1,1s-1-0.4-1-1v-13.2c0-0.4,0.3-0.8,0.6-0.9
		c0.4-0.1,0.8,0,1.1,0.3l9.3,11.2v-10.5c0-0.5,0.4-1,1-1c0.5,0,1,0.4,1,1v13.2c0,0.4-0.3,0.8-0.6,0.9
		C-284.6,1688.5-284.7,1688.5-284.8,1688.5z"/>
	<path d="M-277.9,1688.5c-0.5,0-1-0.4-1-1v-13.2c0-0.5,0.4-1,1-1c0.5,0,1,0.4,1,1v13.2C-276.9,1688-277.4,1688.5-277.9,1688.5z"/>
	<path d="M-259.6,1674.3c0,0.5-0.4,1-1,1h-4.2v12.3c0,0.5-0.4,1-1,1c-0.5,0-1-0.4-1-1v-12.3h-4.2c-0.5,0-1-0.4-1-1c0-0.5,0.4-1,1-1
		h10.4C-260,1673.3-259.6,1673.7-259.6,1674.3z"/>
	<path d="M-242.5,1674.8l-5,7.5v5.2c0,0.5-0.4,1-1,1c-0.5,0-1-0.4-1-1v-5.2l-5-7.5c-0.3-0.4-0.2-1,0.3-1.3c0.4-0.3,1-0.2,1.3,0.3
		l4.4,6.6l4.4-6.6c0.3-0.4,0.9-0.6,1.3-0.3C-242.3,1673.8-242.2,1674.4-242.5,1674.8z"/>
</g>
<g>
	<path class="st0" d="M-303.7,1400.8l-10.2-5.9l-10.2-5.9l-10.3,5.9l-10.2,5.9l-63.9,36.9v97.4l9.2,5.3l10.2,5.9l65,37.5l65-37.5
		l10.2-5.9l9.2-5.3v-97.4L-303.7,1400.8z M-252.3,1527.9l-5.7,3.3c-4.6-4.2-9.6-7.9-14.9-11.1c-4-2.5-8.2-4.7-12.6-6.5
		c-11.8-5.1-24.9-7.9-38.6-7.9c-13.7,0-26.7,2.8-38.6,7.9c-4.4,1.9-8.6,4-12.6,6.5l11.6,6.7l39.6,22.8l39.6-22.8
		c5.7,2.9,11.1,6.5,16,10.5l-55.6,32.1l-55.6-32.1l-10.6-6.1l-5.7-3.3v-5.6c6-2,11.7-4.5,17.1-7.6c4.2-2.4,8.2-5,12-7.9
		c20.5-15.9,34.7-39.7,37.8-66.8c0.4-3.7,0.6-7.5,0.6-11.3c0-1,0-1.9-0.1-2.9l-11.6,6.7l-38.7,22.4v46.3c-5.3,3.6-11.1,6.5-17.1,8.9
		v-65.1l54.6-31.5l10.6-6.1l6.7-3.8l6.7,3.9c-0.9,4.5-1.6,9.1-1.9,13.8c-0.1,1.6-0.2,3.2-0.2,4.8c-0.1,4.8,0.2,9.6,0.8,14.2
		c2.5,19.3,10.6,37.5,23.8,52.4c4.1,4.7,8.6,9,13.5,12.7c3.8,3,7.8,5.7,12,8v-58.6l-38.3-22.1c-0.2-3.6-0.2-7.2,0-10.8
		c0.2-2.8,0.5-5.7,0.9-8.4l54.5,31.4V1527.9z M-298.6,1521l-25.6,14.7l-25.6-14.8c8.1-2.5,16.7-3.8,25.6-3.8
		C-315.2,1517.2-306.7,1518.5-298.6,1521z M-366.9,1491.5v-29.8l24.8-14.3C-345.8,1464.5-354.6,1479.8-366.9,1491.5z M-305.5,1447.8
		l24.2,14v28.3c-1.7-1.6-3.3-3.3-4.8-5C-295.7,1474.2-302.3,1461.4-305.5,1447.8z"/>
</g>
<g>
	<path class="st2" d="M320.1,2029.7l-10.2-5.9l-10.2-5.9l-10.3,5.9l-10.2,5.9l-63.9,36.9v97.4l9.2,5.3l10.2,5.9l65,37.5l65-37.5
		l10.2-5.9l9.2-5.3v-97.4L320.1,2029.7z M371.5,2156.8l-5.7,3.3c-4.6-4.2-9.6-7.9-14.9-11.1c-4-2.5-8.2-4.7-12.6-6.5
		c-11.8-5.1-24.9-7.9-38.6-7.9c-13.7,0-26.7,2.8-38.6,7.9c-4.4,1.9-8.6,4-12.6,6.5l11.6,6.7l39.6,22.8l39.6-22.8
		c5.7,2.9,11.1,6.5,16,10.5l-55.6,32.1l-55.6-32.1l-10.6-6.1l-5.7-3.3v-5.6c6-2,11.7-4.5,17.1-7.6c4.2-2.4,8.2-5,12-7.9
		c20.5-15.9,34.7-39.7,37.8-66.8c0.4-3.7,0.6-7.5,0.6-11.3c0-1,0-1.9-0.1-2.9l-11.6,6.7l-38.7,22.4v46.3c-5.3,3.6-11.1,6.5-17.1,8.9
		v-65.1l54.6-31.5l10.6-6.1l6.7-3.8l6.7,3.9c-0.9,4.5-1.6,9.1-1.9,13.8c-0.1,1.6-0.2,3.2-0.2,4.8c-0.1,4.8,0.2,9.6,0.8,14.2
		c2.5,19.3,10.6,37.5,23.8,52.4c4.1,4.7,8.6,9,13.5,12.7c3.8,3,7.8,5.7,12,8v-58.6l-38.3-22.1c-0.2-3.6-0.2-7.2,0-10.8
		c0.2-2.8,0.5-5.7,0.9-8.4l54.5,31.4V2156.8z M325.3,2149.9l-25.6,14.7l-25.6-14.8c8.1-2.5,16.7-3.8,25.6-3.8
		C308.6,2146.1,317.2,2147.4,325.3,2149.9z M257,2120.4v-29.8l24.8-14.3C278,2093.4,269.2,2108.7,257,2120.4z M318.3,2076.7l24.2,14
		v28.3c-1.7-1.6-3.3-3.3-4.8-5C328.1,2103.1,321.5,2090.3,318.3,2076.7z"/>
</g>
<g>
	<path d="M142.6,1632.6v22c0,0.9-0.7,1.6-1.6,1.6c-0.9,0-1.6-0.7-1.6-1.6v-9.6h-13.9v9.6c0,0.9-0.7,1.6-1.6,1.6
		c-0.9,0-1.6-0.7-1.6-1.6v-22c0-0.9,0.7-1.6,1.6-1.6c0.9,0,1.6,0.7,1.6,1.6v9.2h13.9v-9.2c0-0.9,0.7-1.6,1.6-1.6
		C141.9,1631,142.6,1631.7,142.6,1632.6z"/>
	<path d="M158.4,1656.7c-2.3,0-4.4-0.5-6-1.4c-1.4-0.8-2.5-1.9-3.3-3.4c-1.3-2.4-1.3-5-1.3-5.8v-13.4c0-0.9,0.7-1.6,1.6-1.6
		c0.9,0,1.6,0.7,1.6,1.6v13.4c0,0.6,0,2.6,0.9,4.3c0.5,0.9,1.2,1.6,2.1,2.2c1.1,0.6,2.6,1,4.4,1c1.8,0,3.3-0.4,4.4-1
		c0.9-0.5,1.6-1.2,2.1-2.1c0.9-1.7,0.9-3.7,0.9-4.3v-13.4c0-0.9,0.7-1.6,1.6-1.6c0.9,0,1.6,0.7,1.6,1.6v13.4c0,0.8,0,3.4-1.3,5.8
		C166.5,1654.1,163.9,1656.7,158.4,1656.7z"/>
	<path d="M197.4,1656.2c-0.9,0-1.6-0.7-1.6-1.6v-17.1l-7.9,10.8c-0.3,0.4-0.8,0.6-1.3,0.6c-0.5,0-1-0.2-1.3-0.6l-7.9-10.8v17.1
		c0,0.9-0.7,1.6-1.6,1.6c-0.9,0-1.6-0.7-1.6-1.6v-22c0-0.7,0.5-1.3,1.1-1.5c0.6-0.2,1.4,0,1.8,0.6l9.5,13l9.5-13
		c0.4-0.5,1.1-0.8,1.8-0.6c0.6,0.2,1.1,0.8,1.1,1.5v22C199,1655.5,198.3,1656.2,197.4,1656.2z"/>
	<path d="M205.6,1656.3c-0.3,0-0.7-0.1-1-0.3c-0.6-0.4-0.8-1.3-0.5-2l10.7-22c0.3-0.5,0.8-0.9,1.4-0.9s1.2,0.4,1.4,0.9l10.8,22
		c0.4,0.8,0.1,1.7-0.7,2.1c-0.8,0.4-1.8,0.1-2.2-0.7l-2.5-5.2c-1.7-0.5-3.4-0.5-5.3-0.2c-1.8,0.3-3.6,1-5.5,2
		c-3.3,1.7-5.6,3.9-5.6,3.9C206.4,1656.2,206,1656.3,205.6,1656.3z M216.3,1636.4l-6.5,13.3c0.3-0.2,0.6-0.3,0.9-0.5
		c2.2-1.2,4.3-1.9,6.4-2.3c1.4-0.3,2.8-0.4,4.2-0.2L216.3,1636.4z"/>
	<path d="M252.3,1656.4c-0.5,0-0.9-0.2-1.3-0.6l-15.5-18.7v17.6c0,0.9-0.7,1.6-1.6,1.6c-0.9,0-1.6-0.7-1.6-1.6v-22
		c0-0.7,0.4-1.3,1.1-1.5c0.6-0.2,1.3,0,1.8,0.5l15.6,18.6v-17.6c0-0.9,0.7-1.6,1.6-1.6c0.9,0,1.6,0.7,1.6,1.6v22
		c0,0.7-0.5,1.3-1.1,1.5C252.7,1656.4,252.5,1656.4,252.3,1656.4z"/>
	<path d="M286.7,1656.8c-1.8,0-3.5-0.4-5.2-1.1c-1.5-0.7-3-1.6-4.2-2.8c-1.2-1.2-2.2-2.6-2.8-4.2c-0.7-1.6-1-3.3-1-5
		c0-1.8,0.4-3.5,1-5.1c0.7-1.5,1.6-3,2.9-4.1c1.2-1.2,2.7-2.2,4.2-2.8c1.6-0.7,3.4-1,5.1-1c2.9,0,5.6,0.9,7.8,2.6
		c0.7,0.5,0.8,1.5,0.3,2.2c-0.5,0.7-1.6,0.8-2.2,0.3c-1.7-1.3-3.7-2-5.9-2c-1.3,0-2.7,0.3-3.9,0.8c-1.2,0.5-2.3,1.2-3.2,2.2
		c-0.9,0.9-1.6,2-2.2,3.1c-0.5,1.2-0.8,2.5-0.8,3.8c0,1.3,0.3,2.6,0.8,3.8c0.5,1.2,1.2,2.2,2.2,3.2c1.9,1.9,4.4,3,7.1,3
		c1.2,0,2.3-0.2,3.4-0.6c1.1-0.4,2-1,2.9-1.7c0.7-0.6,1.7-0.5,2.2,0.2c0.6,0.7,0.5,1.7-0.2,2.2c-1.2,1-2.4,1.7-3.8,2.2
		C289.8,1656.5,288.3,1656.8,286.7,1656.8z"/>
	<path d="M313.8,1656.9c-1.8,0-3.5-0.4-5.1-1.1c-1.6-0.7-3-1.6-4.2-2.8c-1.2-1.2-2.2-2.6-2.8-4.2c-0.7-1.6-1-3.3-1-5
		c0-1.8,0.4-3.5,1.1-5.1c0.7-1.5,1.6-3,2.9-4.1c1.2-1.2,2.6-2.2,4.2-2.8c1.6-0.7,3.4-1,5.2-1c3.5,0,6.8,1.4,9.2,3.9
		c1.2,1.2,2.1,2.6,2.7,4.1c0.7,1.6,1,3.3,1,5c0,1.8-0.3,3.5-1,5c-0.6,1.6-1.6,3-2.8,4.2C320.7,1655.5,317.4,1656.9,313.8,1656.9z
		 M313.9,1633.9c-1.3,0-2.7,0.3-3.9,0.8c-1.2,0.5-2.3,1.2-3.2,2.2c-0.9,0.9-1.7,2-2.2,3.1c-0.5,1.2-0.8,2.5-0.8,3.8
		c0,1.3,0.3,2.6,0.8,3.8c0.5,1.2,1.2,2.2,2.2,3.1c1.9,1.9,4.4,3,7.1,3c2.7,0,5.1-1.1,7-2.9c0.9-0.9,1.6-2,2.1-3.1
		c0.5-1.2,0.7-2.5,0.7-3.8c0-2.6-1-5.1-2.8-6.9C319,1634.9,316.6,1633.9,313.9,1633.9z"/>
	<path d="M347.5,1656.3h-14c-0.9,0-1.6-0.7-1.6-1.6v-22c0-0.9,0.7-1.6,1.6-1.6c0.9,0,1.6,0.7,1.6,1.6v20.4h12.4
		c0.9,0,1.6,0.7,1.6,1.6S348.4,1656.3,347.5,1656.3z"/>
	<path d="M367.3,1656.9c-1.8,0-3.5-0.4-5.1-1.1c-1.6-0.7-3-1.6-4.2-2.8c-1.2-1.2-2.2-2.6-2.8-4.2c-0.7-1.6-1-3.3-1-5
		c0-1.8,0.4-3.5,1.1-5.1c0.7-1.5,1.6-3,2.9-4.1c1.2-1.2,2.6-2.2,4.2-2.8c1.6-0.7,3.4-1,5.2-1c3.5,0,6.8,1.4,9.2,3.9
		c1.2,1.2,2.1,2.6,2.7,4.1c0.7,1.6,1,3.3,1,5c0,1.8-0.3,3.5-1,5c-0.6,1.6-1.6,3-2.8,4.2C374.1,1655.5,370.8,1656.9,367.3,1656.9z
		 M367.4,1633.9c-1.3,0-2.7,0.3-3.9,0.8c-1.2,0.5-2.3,1.2-3.2,2.2c-0.9,0.9-1.7,2-2.2,3.1c-0.5,1.2-0.8,2.5-0.8,3.8
		c0,1.3,0.3,2.6,0.8,3.8c0.5,1.2,1.2,2.2,2.2,3.1c1.9,1.9,4.4,3,7.1,3c2.7,0,5.1-1.1,7-2.9c0.9-0.9,1.6-2,2.1-3.1
		c0.5-1.2,0.7-2.5,0.7-3.8c0-2.6-1-5.1-2.8-6.9C372.5,1634.9,370,1633.9,367.4,1633.9z"/>
	<path d="M394.6,1656.7c-7,0-8.9-3.3-9.2-3.7c-0.4-0.8-0.1-1.8,0.6-2.2s1.7-0.1,2.2,0.6c0.1,0.1,0.4,0.5,1.2,1
		c1.6,0.9,3.7,1.1,5.1,1.1c2.1,0,3.7-0.4,4.6-1.3c0.7-0.6,0.9-1.4,0.9-2c0-1.2-0.4-2.1-1.1-2.8c-1-1-2.7-1.7-5.2-2.2
		c-1.8-0.4-3.3-1-4.5-1.8c-1-0.7-1.8-1.6-2.4-2.6c-0.9-1.6-0.9-3.1-0.9-3.4c0-1.7,0.8-3.4,2.2-4.6c0.7-0.6,1.5-1.1,2.4-1.4
		c1-0.4,2-0.5,3.1-0.5c6.3,0,8.1,3,8.3,3.3c0.4,0.8,0.2,1.8-0.6,2.2c-0.8,0.4-1.7,0.2-2.2-0.6c-0.1-0.1-0.4-0.4-1.1-0.8
		c-0.8-0.4-2.2-0.9-4.5-0.9c-1.8,0-2.8,0.6-3.4,1.2c-0.7,0.6-1.1,1.4-1.1,2.3v0.1c0,0.1,0,0.9,0.6,1.9c0.4,0.6,0.8,1.1,1.5,1.5
		c0.8,0.5,1.9,1,3.2,1.3c3.1,0.6,5.3,1.6,6.8,3.1c1.4,1.3,2.1,3.1,2.1,5.1c0,1.7-0.7,3.2-1.9,4.4
		C399.9,1656,397.6,1656.7,394.6,1656.7z"/>
	<path d="M417.8,1656.7c-7,0-8.9-3.3-9.2-3.7c-0.4-0.8-0.1-1.8,0.6-2.2s1.7-0.1,2.2,0.6c0.1,0.1,0.4,0.5,1.2,1
		c1.6,0.9,3.7,1.1,5.1,1.1c2.1,0,3.7-0.4,4.6-1.3c0.7-0.6,0.9-1.4,0.9-2c0-1.2-0.4-2.1-1.1-2.8c-1-1-2.7-1.7-5.2-2.2
		c-1.8-0.4-3.3-1-4.5-1.8c-1-0.7-1.8-1.6-2.4-2.6c-0.9-1.6-0.9-3.1-0.9-3.4c0-1.7,0.8-3.4,2.2-4.6c0.7-0.6,1.5-1.1,2.4-1.4
		c1-0.4,2-0.5,3.1-0.5c6.3,0,8.1,3,8.3,3.3c0.4,0.8,0.2,1.8-0.6,2.2c-0.8,0.4-1.7,0.2-2.2-0.6c-0.1-0.1-0.4-0.4-1.1-0.8
		c-0.8-0.4-2.2-0.9-4.5-0.9c-1.8,0-2.8,0.6-3.4,1.2c-0.7,0.6-1.1,1.4-1.1,2.3v0.1c0,0.1,0,0.9,0.6,1.9c0.4,0.6,0.8,1.1,1.5,1.5
		c0.8,0.5,1.9,1,3.2,1.3c3.1,0.6,5.3,1.6,6.8,3.1c1.4,1.3,2.1,3.1,2.1,5.1c0,1.7-0.7,3.2-1.9,4.4
		C423.1,1656,420.8,1656.7,417.8,1656.7z"/>
	<path d="M442.3,1656.7c-2.3,0-4.4-0.5-6-1.4c-1.4-0.8-2.5-1.9-3.3-3.4c-1.3-2.4-1.3-5-1.3-5.8v-13.4c0-0.9,0.7-1.6,1.6-1.6
		c0.9,0,1.6,0.7,1.6,1.6v13.4c0,0.6,0,2.6,0.9,4.3c0.5,0.9,1.2,1.6,2.1,2.2c1.1,0.6,2.6,1,4.4,1c1.8,0,3.3-0.4,4.4-1
		c0.9-0.5,1.6-1.2,2.1-2.1c0.9-1.7,0.9-3.7,0.9-4.3v-13.4c0-0.9,0.7-1.6,1.6-1.6c0.9,0,1.6,0.7,1.6,1.6v13.4c0,0.8,0,3.4-1.3,5.8
		C450.4,1654.1,447.8,1656.7,442.3,1656.7z"/>
	<path d="M467.4,1656.7c-7,0-8.9-3.3-9.2-3.7c-0.4-0.8-0.1-1.8,0.6-2.2s1.7-0.1,2.2,0.6c0.1,0.1,0.4,0.5,1.2,1
		c1.6,0.9,3.7,1.1,5.1,1.1c2.1,0,3.7-0.4,4.6-1.3c0.7-0.6,0.9-1.4,0.9-2c0-1.2-0.4-2.1-1.1-2.8c-1-1-2.7-1.7-5.2-2.2
		c-1.8-0.4-3.3-1-4.5-1.8c-1-0.7-1.8-1.6-2.4-2.6c-0.9-1.6-0.9-3.1-0.9-3.4c0-1.7,0.8-3.4,2.2-4.6c0.7-0.6,1.5-1.1,2.4-1.4
		c1-0.4,2-0.5,3.1-0.5c6.3,0,8.1,3,8.3,3.3c0.4,0.8,0.2,1.8-0.6,2.2c-0.8,0.4-1.7,0.2-2.2-0.6c-0.1-0.1-0.4-0.4-1.1-0.8
		c-0.8-0.4-2.2-0.9-4.5-0.9c-1.8,0-2.8,0.6-3.4,1.2c-0.7,0.6-1.1,1.4-1.1,2.3v0.1c0,0.1,0,0.9,0.6,1.9c0.4,0.6,0.8,1.1,1.5,1.5
		c0.8,0.5,1.9,1,3.2,1.3c3.1,0.6,5.3,1.6,6.8,3.1c1.4,1.3,2.1,3.1,2.1,5.1c0,1.7-0.7,3.2-1.9,4.4
		C472.7,1656,470.4,1656.7,467.4,1656.7z"/>
	<path d="M231.7,1688.7c-1.1,0-2.1-0.2-3.1-0.6c-0.9-0.4-1.8-1-2.5-1.7c-0.7-0.7-1.3-1.6-1.7-2.5c-0.4-1-0.6-2-0.6-3
		c0-1.1,0.2-2.1,0.6-3c0.4-0.9,1-1.8,1.7-2.5c0.7-0.7,1.6-1.3,2.5-1.7c1-0.4,2-0.6,3.1-0.6c1.7,0,3.4,0.5,4.7,1.6
		c0.4,0.3,0.5,0.9,0.2,1.3c-0.3,0.4-0.9,0.5-1.3,0.2c-1-0.8-2.2-1.2-3.5-1.2c-0.8,0-1.6,0.2-2.4,0.5c-0.7,0.3-1.4,0.7-1.9,1.3
		c-0.5,0.5-1,1.2-1.3,1.9s-0.5,1.5-0.5,2.3c0,0.8,0.2,1.5,0.5,2.3c0.3,0.7,0.7,1.3,1.3,1.9c1.1,1.1,2.6,1.8,4.2,1.8
		c0.7,0,1.4-0.1,2-0.4c0.6-0.2,1.2-0.6,1.7-1c0.4-0.3,1-0.3,1.3,0.1c0.3,0.4,0.3,1-0.1,1.3c-0.7,0.6-1.5,1-2.3,1.3
		C233.5,1688.5,232.6,1688.7,231.7,1688.7z"/>
	<path d="M249.9,1688.8c-1.1,0-2.1-0.2-3.1-0.6c-0.9-0.4-1.8-1-2.5-1.7c-0.7-0.7-1.3-1.6-1.7-2.5c-0.4-1-0.6-2-0.6-3
		c0-1.1,0.2-2.1,0.6-3c0.4-0.9,1-1.8,1.7-2.5c0.7-0.7,1.6-1.3,2.5-1.7c1-0.4,2-0.6,3.1-0.6c2.1,0,4.1,0.8,5.5,2.3
		c0.7,0.7,1.3,1.6,1.6,2.5c0.4,1,0.6,2,0.6,3c0,1.1-0.2,2.1-0.6,3c-0.4,0.9-0.9,1.8-1.7,2.5C254,1688,252,1688.8,249.9,1688.8z
		 M249.9,1675c-0.8,0-1.6,0.2-2.4,0.5c-0.7,0.3-1.4,0.7-1.9,1.3c-0.6,0.5-1,1.2-1.3,1.9c-0.3,0.7-0.5,1.5-0.5,2.3
		c0,0.8,0.2,1.5,0.5,2.3c0.3,0.7,0.7,1.3,1.3,1.9c1.1,1.1,2.6,1.8,4.2,1.8s3.1-0.6,4.2-1.8c0.5-0.5,0.9-1.2,1.3-1.9
		c0.3-0.7,0.4-1.5,0.4-2.3c0-1.6-0.6-3.1-1.7-4.2C253,1675.6,251.5,1675,249.9,1675z"/>
	<path d="M276.6,1688.4c-0.5,0-1-0.4-1-1v-10.3l-4.7,6.5c-0.2,0.3-0.5,0.4-0.8,0.4s-0.6-0.1-0.8-0.4l-4.7-6.5v10.3c0,0.5-0.4,1-1,1
		c-0.5,0-1-0.4-1-1v-13.2c0-0.4,0.3-0.8,0.7-0.9c0.4-0.1,0.8,0,1.1,0.3l5.7,7.8l5.7-7.8c0.3-0.3,0.7-0.5,1.1-0.3
		c0.4,0.1,0.7,0.5,0.7,0.9v13.2C277.5,1688,277.1,1688.4,276.6,1688.4z"/>
	<path d="M296.5,1688.4c-0.5,0-1-0.4-1-1v-10.3l-4.7,6.5c-0.2,0.3-0.5,0.4-0.8,0.4s-0.6-0.1-0.8-0.4l-4.7-6.5v10.3c0,0.5-0.4,1-1,1
		c-0.5,0-1-0.4-1-1v-13.2c0-0.4,0.3-0.8,0.7-0.9c0.4-0.1,0.8,0,1.1,0.3l5.7,7.8l5.7-7.8c0.3-0.3,0.7-0.5,1.1-0.3
		c0.4,0.1,0.7,0.5,0.7,0.9v13.2C297.4,1688,297,1688.4,296.5,1688.4z"/>
	<path d="M308.8,1688.7c-1.4,0-2.6-0.3-3.6-0.9c-0.8-0.5-1.5-1.2-2-2c-0.8-1.5-0.8-3-0.8-3.5v-8c0-0.5,0.4-1,1-1c0.5,0,1,0.4,1,1v8
		c0,0.4,0,1.5,0.6,2.6c0.3,0.6,0.7,1,1.3,1.3c0.7,0.4,1.6,0.6,2.6,0.6s2-0.2,2.6-0.6c0.5-0.3,0.9-0.7,1.2-1.3c0.6-1,0.6-2.2,0.6-2.6
		v-8c0-0.5,0.4-1,1-1c0.5,0,1,0.4,1,1v8c0,0.5,0,2-0.8,3.5C313.7,1687.1,312.1,1688.7,308.8,1688.7z"/>
	<path d="M332.2,1688.5c-0.3,0-0.6-0.1-0.8-0.3l-9.3-11.2v10.6c0,0.5-0.4,1-1,1c-0.5,0-1-0.4-1-1v-13.2c0-0.4,0.2-0.8,0.6-0.9
		s0.8,0,1.1,0.3l9.3,11.2v-10.5c0-0.5,0.4-1,1-1c0.5,0,1,0.4,1,1v13.2c0,0.4-0.3,0.8-0.6,0.9
		C332.4,1688.5,332.3,1688.5,332.2,1688.5z"/>
	<path d="M339.1,1688.5c-0.5,0-1-0.4-1-1v-13.2c0-0.5,0.4-1,1-1c0.5,0,1,0.4,1,1v13.2C340.1,1688,339.7,1688.5,339.1,1688.5z"/>
	<path d="M357.4,1674.3c0,0.5-0.4,1-1,1h-4.2v12.3c0,0.5-0.4,1-1,1c-0.5,0-1-0.4-1-1v-12.3h-4.2c-0.5,0-1-0.4-1-1s0.4-1,1-1h10.4
		C357,1673.3,357.4,1673.7,357.4,1674.3z"/>
	<path d="M374.6,1674.8l-5,7.5v5.2c0,0.5-0.4,1-1,1c-0.5,0-1-0.4-1-1v-5.2l-5-7.5c-0.3-0.4-0.2-1,0.3-1.3c0.4-0.3,1-0.2,1.3,0.3
		l4.4,6.6l4.4-6.6c0.3-0.4,0.9-0.6,1.3-0.3C374.7,1673.8,374.8,1674.4,374.6,1674.8z"/>
</g>
<g>
	
		<radialGradient id="SVGID_2_" cx="299.7005" cy="1486.4105" r="91.1293" gradientTransform="matrix(6.123234e-17 -1 1 6.123234e-17 -1186.7098 1786.111)" gradientUnits="userSpaceOnUse">
		<stop  offset="6.385220e-03" style="stop-color:#00E7D6"/>
		<stop  offset="0.3649" style="stop-color:#07C9BE"/>
		<stop  offset="0.5239" style="stop-color:#05B0B4"/>
		<stop  offset="1" style="stop-color:#016A97"/>
	</radialGradient>
	<path class="st3" d="M320.1,1400.8l-10.2-5.9l-10.2-5.9l-10.3,5.9l-10.2,5.9l-63.9,36.9v97.4l9.2,5.3l10.2,5.9l65,37.5l65-37.5
		l10.2-5.9l9.2-5.3v-97.4L320.1,1400.8z M371.5,1527.9l-5.7,3.3c-4.6-4.2-9.6-7.9-14.9-11.1c-4-2.5-8.2-4.7-12.6-6.5
		c-11.8-5.1-24.9-7.9-38.6-7.9c-13.7,0-26.7,2.8-38.6,7.9c-4.4,1.9-8.6,4-12.6,6.5l11.6,6.7l39.6,22.8l39.6-22.8
		c5.7,2.9,11.1,6.5,16,10.5l-55.6,32.1l-55.6-32.1l-10.6-6.1l-5.7-3.3v-5.6c6-2,11.7-4.5,17.1-7.6c4.2-2.4,8.2-5,12-7.9
		c20.5-15.9,34.7-39.7,37.8-66.8c0.4-3.7,0.6-7.5,0.6-11.3c0-1,0-1.9-0.1-2.9l-11.6,6.7l-38.7,22.4v46.3c-5.3,3.6-11.1,6.5-17.1,8.9
		v-65.1l54.6-31.5l10.6-6.1l6.7-3.8l6.7,3.9c-0.9,4.5-1.6,9.1-1.9,13.8c-0.1,1.6-0.2,3.2-0.2,4.8c-0.1,4.8,0.2,9.6,0.8,14.2
		c2.5,19.3,10.6,37.5,23.8,52.4c4.1,4.7,8.6,9,13.5,12.7c3.8,3,7.8,5.7,12,8v-58.6l-38.3-22.1c-0.2-3.6-0.2-7.2,0-10.8
		c0.2-2.8,0.5-5.7,0.9-8.4l54.5,31.4V1527.9z M325.3,1521l-25.6,14.7l-25.6-14.8c8.1-2.5,16.7-3.8,25.6-3.8
		C308.6,1517.2,317.2,1518.5,325.3,1521z M257,1491.5v-29.8l24.8-14.3C278,1464.5,269.2,1479.8,257,1491.5z M318.3,1447.8l24.2,14
		v28.3c-1.7-1.6-3.3-3.3-4.8-5C328.1,1474.2,321.5,1461.4,318.3,1447.8z"/>
</g>
</svg>
