<?xml version="1.0" encoding="utf-8"?>
<!-- Generator: Adobe Illustrator 24.1.0, SVG Export Plug-In . SVG Version: 6.00 Build 0)  -->
<svg version="1.1" id="Warstwa_1" xmlns="http://www.w3.org/2000/svg" xmlns:xlink="http://www.w3.org/1999/xlink" x="0px" y="0px"
	 viewBox="0 0 600 600" style="enable-background:new 0 0 600 600;" xml:space="preserve">
<style type="text/css">
	.st0{fill:#1EA2C1;}
	.st1{fill:url(#SVGID_1_);}
	.st2{fill:#FFFFFF;}
	.st3{fill:url(#SVGID_2_);}
</style>
<rect x="610.5" y="611.3" width="618.5" height="618.5"/>
<rect x="610.5" y="1855.4" width="618.5" height="618.5"/>
<g>
	<path d="M145.6,392.6v22c0,0.9-0.7,1.6-1.6,1.6c-0.9,0-1.6-0.7-1.6-1.6V405h-13.9v9.6c0,0.9-0.7,1.6-1.6,1.6
		c-0.9,0-1.6-0.7-1.6-1.6v-22c0-0.9,0.7-1.6,1.6-1.6c0.9,0,1.6,0.7,1.6,1.6v9.2h13.9v-9.2c0-0.9,0.7-1.6,1.6-1.6
		C144.9,391,145.6,391.7,145.6,392.6z"/>
	<path d="M161.4,416.7c-2.3,0-4.4-0.5-6-1.4c-1.4-0.8-2.5-1.9-3.3-3.4c-1.3-2.4-1.3-5-1.3-5.8v-13.4c0-0.9,0.7-1.6,1.6-1.6
		c0.9,0,1.6,0.7,1.6,1.6v13.4c0,0.6,0,2.6,0.9,4.3c0.5,0.9,1.2,1.6,2.1,2.2c1.1,0.6,2.6,1,4.4,1c1.8,0,3.3-0.4,4.4-1
		c0.9-0.5,1.6-1.2,2.1-2.1c0.9-1.7,0.9-3.7,0.9-4.3v-13.4c0-0.9,0.7-1.6,1.6-1.6c0.9,0,1.6,0.7,1.6,1.6v13.4c0,0.8,0,3.4-1.3,5.8
		C169.5,414.1,166.9,416.7,161.4,416.7z"/>
	<path d="M200.4,416.2c-0.9,0-1.6-0.7-1.6-1.6v-17.1l-7.9,10.8c-0.3,0.4-0.8,0.6-1.3,0.6s-1-0.2-1.3-0.6l-7.9-10.8v17.1
		c0,0.9-0.7,1.6-1.6,1.6c-0.9,0-1.6-0.7-1.6-1.6v-22c0-0.7,0.4-1.3,1.1-1.5c0.6-0.2,1.4,0,1.8,0.6l9.5,13l9.5-13
		c0.4-0.5,1.1-0.8,1.8-0.6c0.6,0.2,1.1,0.8,1.1,1.5v22C202,415.5,201.3,416.2,200.4,416.2z"/>
	<path d="M208.5,416.3c-0.3,0-0.7-0.1-1-0.3c-0.6-0.5-0.8-1.3-0.5-2l10.7-22c0.3-0.5,0.8-0.9,1.4-0.9c0.6,0,1.2,0.4,1.4,0.9l10.8,22
		c0.4,0.8,0.1,1.7-0.7,2.1c-0.8,0.4-1.8,0.1-2.2-0.7l-2.5-5.2c-1.7-0.5-3.4-0.5-5.3-0.2c-1.8,0.3-3.6,1-5.5,2
		c-3.3,1.7-5.6,3.9-5.6,3.9C209.3,416.2,208.9,416.3,208.5,416.3z M219.2,396.4l-6.5,13.3c0.3-0.2,0.6-0.3,0.9-0.5
		c2.2-1.2,4.3-1.9,6.4-2.3c1.4-0.3,2.8-0.4,4.2-0.2L219.2,396.4z"/>
	<path d="M255.3,416.4c-0.5,0-0.9-0.2-1.3-0.6l-15.5-18.7v17.6c0,0.9-0.7,1.6-1.6,1.6c-0.9,0-1.6-0.7-1.6-1.6v-22
		c0-0.7,0.4-1.3,1.1-1.5c0.6-0.2,1.3,0,1.8,0.5l15.6,18.6v-17.6c0-0.9,0.7-1.6,1.6-1.6c0.9,0,1.6,0.7,1.6,1.6v22
		c0,0.7-0.4,1.3-1.1,1.5C255.6,416.4,255.5,416.4,255.3,416.4z"/>
	<path d="M289.7,416.8c-1.8,0-3.5-0.4-5.2-1.1c-1.5-0.7-3-1.6-4.2-2.8c-1.2-1.2-2.2-2.6-2.8-4.2c-0.7-1.6-1-3.3-1-5
		c0-1.8,0.4-3.5,1-5.1c0.7-1.5,1.6-3,2.9-4.1c1.2-1.2,2.7-2.2,4.2-2.8c1.6-0.7,3.4-1,5.1-1c2.9,0,5.6,0.9,7.8,2.6
		c0.7,0.5,0.8,1.5,0.3,2.2c-0.5,0.7-1.6,0.8-2.2,0.3c-1.7-1.3-3.7-2-5.9-2c-1.4,0-2.7,0.3-3.9,0.8c-1.2,0.5-2.3,1.2-3.2,2.2
		c-0.9,0.9-1.6,2-2.2,3.1c-0.5,1.2-0.8,2.5-0.8,3.8s0.3,2.6,0.8,3.8c0.5,1.2,1.2,2.2,2.2,3.1c1.9,1.9,4.4,3,7.1,3
		c1.2,0,2.3-0.2,3.4-0.6c1.1-0.4,2-1,2.9-1.7c0.7-0.6,1.7-0.5,2.2,0.2s0.5,1.7-0.2,2.2c-1.2,1-2.4,1.7-3.8,2.2
		C292.8,416.5,291.2,416.8,289.7,416.8z"/>
	<path d="M316.8,416.9c-1.8,0-3.5-0.4-5.1-1.1c-1.6-0.7-3-1.6-4.2-2.8c-1.2-1.2-2.2-2.6-2.8-4.2c-0.7-1.6-1-3.3-1-5
		c0-1.8,0.4-3.5,1.1-5.1c0.7-1.5,1.6-3,2.9-4.1c1.2-1.2,2.6-2.2,4.2-2.8c1.6-0.7,3.4-1,5.2-1c3.5,0,6.8,1.4,9.2,3.9
		c1.2,1.2,2.1,2.6,2.7,4.1c0.7,1.6,1,3.3,1,5c0,1.8-0.3,3.5-1,5c-0.6,1.6-1.6,3-2.8,4.2C323.6,415.5,320.3,416.9,316.8,416.9z
		 M316.9,393.9c-1.3,0-2.7,0.3-3.9,0.8c-1.2,0.5-2.3,1.2-3.2,2.2c-0.9,0.9-1.7,2-2.2,3.1c-0.5,1.2-0.8,2.5-0.8,3.8
		c0,1.3,0.3,2.6,0.8,3.8c0.5,1.2,1.2,2.2,2.2,3.1c1.9,1.9,4.4,3,7.1,3c2.7,0,5.1-1.1,7-2.9c0.9-0.9,1.6-2,2.1-3.1
		c0.5-1.2,0.7-2.5,0.7-3.8c0-2.6-1-5.1-2.8-6.9C322,394.9,319.5,393.9,316.9,393.9z"/>
	<path d="M350.5,416.3h-14c-0.9,0-1.6-0.7-1.6-1.6v-22c0-0.9,0.7-1.6,1.6-1.6c0.9,0,1.6,0.7,1.6,1.6v20.4h12.4
		c0.9,0,1.6,0.7,1.6,1.6C352.1,415.6,351.4,416.3,350.5,416.3z"/>
	<path d="M370.2,416.9c-1.8,0-3.5-0.4-5.1-1.1c-1.6-0.7-3-1.6-4.2-2.8c-1.2-1.2-2.2-2.6-2.8-4.2c-0.7-1.6-1-3.3-1-5
		c0-1.8,0.4-3.5,1.1-5.1c0.7-1.5,1.6-3,2.9-4.1c1.2-1.2,2.6-2.2,4.2-2.8c1.6-0.7,3.4-1,5.2-1c3.5,0,6.8,1.4,9.2,3.9
		c1.2,1.2,2.1,2.6,2.7,4.1c0.7,1.6,1,3.3,1,5c0,1.8-0.3,3.5-1,5c-0.6,1.6-1.6,3-2.8,4.2C377.1,415.5,373.8,416.9,370.2,416.9z
		 M370.3,393.9c-1.3,0-2.7,0.3-3.9,0.8c-1.2,0.5-2.3,1.2-3.2,2.2c-0.9,0.9-1.7,2-2.2,3.1c-0.5,1.2-0.8,2.5-0.8,3.8
		c0,1.3,0.3,2.6,0.8,3.8c0.5,1.2,1.2,2.2,2.2,3.1c1.9,1.9,4.4,3,7.1,3c2.7,0,5.1-1.1,7-2.9c0.9-0.9,1.6-2,2.1-3.1
		c0.5-1.2,0.7-2.5,0.7-3.8c0-2.6-1-5.1-2.8-6.9C375.4,394.9,373,393.9,370.3,393.9z"/>
	<path d="M397.6,416.7c-7,0-8.9-3.3-9.2-3.7c-0.4-0.8-0.1-1.8,0.6-2.2c0.8-0.4,1.7-0.1,2.2,0.6c0.1,0.1,0.4,0.5,1.2,1
		c1.6,0.9,3.7,1.1,5.1,1.1c2.1,0,3.7-0.4,4.6-1.3c0.7-0.6,0.9-1.4,0.9-2c0-1.2-0.4-2.1-1.1-2.8c-1-1-2.7-1.7-5.2-2.2
		c-1.8-0.4-3.3-1-4.5-1.8c-1-0.7-1.8-1.6-2.4-2.6c-0.9-1.6-0.9-3.1-0.9-3.4c0-1.7,0.8-3.4,2.2-4.6c0.7-0.6,1.5-1.1,2.4-1.4
		c1-0.4,2-0.5,3.1-0.5c6.3,0,8.1,3,8.3,3.3c0.4,0.8,0.2,1.8-0.6,2.2c-0.8,0.4-1.7,0.2-2.2-0.6c-0.1-0.1-0.4-0.4-1.1-0.8
		c-0.8-0.4-2.2-0.9-4.5-0.9c-1.8,0-2.8,0.6-3.4,1.2c-0.7,0.6-1.1,1.4-1.1,2.3v0.1c0,0.1,0,0.9,0.6,1.9c0.4,0.6,0.8,1.1,1.5,1.5
		c0.8,0.5,1.9,1,3.2,1.3c3.1,0.6,5.3,1.6,6.8,3.1c1.4,1.3,2.1,3.1,2.1,5.1c0,1.7-0.7,3.2-1.9,4.4C402.9,416,400.6,416.7,397.6,416.7
		z"/>
	<path d="M420.8,416.7c-7,0-8.9-3.3-9.2-3.7c-0.4-0.8-0.1-1.8,0.6-2.2c0.8-0.4,1.7-0.1,2.2,0.6c0.1,0.1,0.4,0.5,1.2,1
		c1.6,0.9,3.7,1.1,5.1,1.1c2.1,0,3.7-0.4,4.6-1.3c0.7-0.6,0.9-1.4,0.9-2c0-1.2-0.4-2.1-1.1-2.8c-1-1-2.7-1.7-5.2-2.2
		c-1.8-0.4-3.3-1-4.5-1.8c-1-0.7-1.8-1.6-2.4-2.6c-0.9-1.6-0.9-3.1-0.9-3.4c0-1.7,0.8-3.4,2.2-4.6c0.7-0.6,1.5-1.1,2.4-1.4
		c1-0.4,2-0.5,3.1-0.5c6.3,0,8.1,3,8.3,3.3c0.4,0.8,0.2,1.8-0.6,2.2c-0.8,0.4-1.7,0.2-2.2-0.6c-0.1-0.1-0.4-0.4-1.1-0.8
		c-0.8-0.4-2.2-0.9-4.5-0.9c-1.8,0-2.8,0.6-3.4,1.2c-0.7,0.6-1.1,1.4-1.1,2.3v0.1c0,0.1,0,0.9,0.6,1.9c0.4,0.6,0.8,1.1,1.5,1.5
		c0.8,0.5,1.9,1,3.2,1.3c3.1,0.6,5.3,1.6,6.8,3.1c1.4,1.3,2.1,3.1,2.1,5.1c0,1.7-0.7,3.2-1.9,4.4C426.1,416,423.8,416.7,420.8,416.7
		z"/>
	<path d="M445.3,416.7c-2.3,0-4.4-0.5-6-1.4c-1.4-0.8-2.5-1.9-3.3-3.4c-1.3-2.4-1.3-5-1.3-5.8v-13.4c0-0.9,0.7-1.6,1.6-1.6
		c0.9,0,1.6,0.7,1.6,1.6v13.4c0,0.6,0,2.6,0.9,4.3c0.5,0.9,1.2,1.6,2.1,2.2c1.1,0.6,2.6,1,4.4,1c1.8,0,3.3-0.4,4.4-1
		c0.9-0.5,1.6-1.2,2.1-2.1c0.9-1.7,0.9-3.7,0.9-4.3v-13.4c0-0.9,0.7-1.6,1.6-1.6c0.9,0,1.6,0.7,1.6,1.6v13.4c0,0.8,0,3.4-1.3,5.8
		C453.4,414.1,450.8,416.7,445.3,416.7z"/>
	<path d="M470.4,416.7c-7,0-8.9-3.3-9.2-3.7c-0.4-0.8-0.1-1.8,0.6-2.2c0.8-0.4,1.7-0.1,2.2,0.6c0.1,0.1,0.4,0.5,1.2,1
		c1.6,0.9,3.7,1.1,5.1,1.1c2.1,0,3.7-0.4,4.6-1.3c0.7-0.6,0.9-1.4,0.9-2c0-1.2-0.4-2.1-1.1-2.8c-1-1-2.7-1.7-5.2-2.2
		c-1.8-0.4-3.3-1-4.5-1.8c-1-0.7-1.8-1.6-2.4-2.6c-0.9-1.6-0.9-3.1-0.9-3.4c0-1.7,0.8-3.4,2.2-4.6c0.7-0.6,1.5-1.1,2.4-1.4
		c1-0.4,2-0.5,3.1-0.5c6.3,0,8.1,3,8.3,3.3c0.4,0.8,0.2,1.8-0.6,2.2c-0.8,0.4-1.7,0.2-2.2-0.6c-0.1-0.1-0.4-0.4-1.1-0.8
		c-0.8-0.4-2.2-0.9-4.5-0.9c-1.8,0-2.8,0.6-3.4,1.2c-0.7,0.6-1.1,1.4-1.1,2.3v0.1c0,0.1,0,0.9,0.6,1.9c0.4,0.6,0.8,1.1,1.5,1.5
		c0.8,0.5,1.9,1,3.2,1.3c3.1,0.6,5.3,1.6,6.8,3.1c1.4,1.3,2.1,3.1,2.1,5.1c0,1.7-0.7,3.2-1.9,4.4C475.7,416,473.4,416.7,470.4,416.7
		z"/>
	<path d="M230.9,434.3c0,0.5-0.4,1-1,1h-8.1v4.8h6.9c0.5,0,1,0.4,1,1c0,0.5-0.4,1-1,1h-6.9v5.5c0,0.5-0.4,1-1,1s-1-0.4-1-1v-13.2
		c0-0.5,0.4-1,1-1h9.1C230.5,433.3,230.9,433.8,230.9,434.3z"/>
	<path d="M243.7,448.8c-1.1,0-2.1-0.2-3.1-0.6c-0.9-0.4-1.8-1-2.5-1.7c-0.7-0.7-1.3-1.6-1.7-2.5c-0.4-1-0.6-2-0.6-3
		c0-1.1,0.2-2.1,0.6-3c0.4-0.9,1-1.8,1.7-2.5c0.7-0.7,1.6-1.3,2.5-1.7c1-0.4,2-0.6,3.1-0.6c2.1,0,4.1,0.8,5.5,2.3
		c0.7,0.7,1.3,1.6,1.6,2.5c0.4,1,0.6,2,0.6,3c0,1.1-0.2,2.1-0.6,3c-0.4,0.9-0.9,1.8-1.7,2.5C247.8,448,245.9,448.8,243.7,448.8z
		 M243.8,435c-0.8,0-1.6,0.2-2.4,0.5c-0.7,0.3-1.4,0.7-1.9,1.3c-0.6,0.5-1,1.2-1.3,1.9c-0.3,0.7-0.5,1.5-0.5,2.3s0.2,1.5,0.5,2.3
		c0.3,0.7,0.7,1.3,1.3,1.9c1.1,1.1,2.6,1.8,4.2,1.8s3.1-0.6,4.2-1.8c0.5-0.5,0.9-1.2,1.3-1.9c0.3-0.7,0.4-1.5,0.4-2.3
		c0-1.6-0.6-3.1-1.7-4.2C246.9,435.6,245.4,435,243.8,435z"/>
	<path d="M262.9,448.7c-1.4,0-2.6-0.3-3.6-0.9c-0.8-0.5-1.5-1.2-2-2c-0.8-1.5-0.8-3-0.8-3.5v-8c0-0.5,0.4-1,1-1c0.5,0,1,0.4,1,1v8
		c0,0.4,0,1.5,0.6,2.6c0.3,0.6,0.7,1,1.3,1.3c0.7,0.4,1.6,0.6,2.6,0.6c1.1,0,2-0.2,2.6-0.6c0.5-0.3,0.9-0.7,1.2-1.3
		c0.6-1,0.6-2.2,0.6-2.6v-8c0-0.5,0.4-1,1-1c0.5,0,1,0.4,1,1v8c0,0.5,0,2-0.8,3.5C267.7,447.1,266.2,448.7,262.9,448.7z"/>
	<path d="M286.2,448.5c-0.3,0-0.6-0.1-0.8-0.3l-9.3-11.2v10.6c0,0.5-0.4,1-1,1s-1-0.4-1-1v-13.2c0-0.4,0.3-0.8,0.6-0.9
		c0.4-0.1,0.8,0,1.1,0.3l9.3,11.2v-10.5c0-0.5,0.4-1,1-1c0.5,0,1,0.4,1,1v13.2c0,0.4-0.3,0.8-0.6,0.9
		C286.4,448.5,286.3,448.5,286.2,448.5z"/>
	<path d="M297.9,448.5L297.9,448.5h-4.7c-0.5,0-1-0.4-1-1v-13.2c0-0.2,0.1-0.5,0.3-0.7c0.2-0.2,0.4-0.3,0.7-0.3h4.8
		c1.1,0,2.1,0.2,3,0.6c0.9,0.4,1.8,0.9,2.5,1.6c0.7,0.7,1.3,1.5,1.7,2.4c0.4,0.9,0.6,1.9,0.6,2.9c0,1-0.2,2-0.6,2.9
		c-0.4,0.9-1,1.7-1.7,2.4c-0.7,0.7-1.6,1.2-2.5,1.6C300,448.3,298.9,448.5,297.9,448.5z M294.1,446.5h3.8c0.8,0,1.5-0.2,2.3-0.5
		s1.3-0.7,1.9-1.2s1-1.1,1.3-1.8c0.3-0.7,0.5-1.4,0.5-2.1c0-0.8-0.2-1.5-0.5-2.2c-0.3-0.7-0.7-1.3-1.3-1.8c-1.1-1.1-2.6-1.7-4.2-1.7
		h-3.8V446.5z"/>
	<path d="M310.7,448.5c-0.2,0-0.4-0.1-0.6-0.2c-0.4-0.3-0.5-0.8-0.3-1.2l6.4-13.2c0.2-0.3,0.5-0.5,0.9-0.5s0.7,0.2,0.9,0.5l6.5,13.2
		c0.2,0.5,0,1-0.4,1.3c-0.5,0.2-1.1,0-1.3-0.4l-1.5-3.1c-1-0.3-2.1-0.3-3.2-0.1c-1.1,0.2-2.2,0.6-3.3,1.2c-2,1-3.3,2.3-3.4,2.3
		C311.1,448.4,310.9,448.5,310.7,448.5z M317.1,436.5l-3.9,8c0.2-0.1,0.3-0.2,0.5-0.3c1.3-0.7,2.6-1.2,3.9-1.4
		c0.9-0.2,1.7-0.2,2.5-0.1L317.1,436.5z"/>
	<path d="M339,434.3c0,0.5-0.4,1-1,1h-4.2v12.3c0,0.5-0.4,1-1,1c-0.5,0-1-0.4-1-1v-12.3h-4.2c-0.5,0-1-0.4-1-1c0-0.5,0.4-1,1-1h10.4
		C338.6,433.3,339,433.7,339,434.3z"/>
	<path d="M345,448.5c-0.5,0-1-0.4-1-1v-13.2c0-0.5,0.4-1,1-1c0.5,0,1,0.4,1,1v13.2C346,448,345.6,448.5,345,448.5z"/>
	<path d="M358.8,448.8c-1.1,0-2.1-0.2-3.1-0.6c-0.9-0.4-1.8-1-2.5-1.7c-0.7-0.7-1.3-1.6-1.7-2.5c-0.4-1-0.6-2-0.6-3
		c0-1.1,0.2-2.1,0.6-3c0.4-0.9,1-1.8,1.7-2.5c0.7-0.7,1.6-1.3,2.5-1.7c1-0.4,2-0.6,3.1-0.6c2.1,0,4.1,0.8,5.5,2.3
		c0.7,0.7,1.3,1.6,1.6,2.5c0.4,1,0.6,2,0.6,3c0,1.1-0.2,2.1-0.6,3c-0.4,0.9-0.9,1.8-1.7,2.5C362.9,448,360.9,448.8,358.8,448.8z
		 M358.9,435c-0.8,0-1.6,0.2-2.4,0.5c-0.7,0.3-1.4,0.7-1.9,1.3c-0.6,0.5-1,1.2-1.3,1.9c-0.3,0.7-0.5,1.5-0.5,2.3s0.2,1.5,0.5,2.3
		c0.3,0.7,0.7,1.3,1.3,1.9c1.1,1.1,2.6,1.8,4.2,1.8s3.1-0.6,4.2-1.8c0.5-0.5,0.9-1.2,1.3-1.9c0.3-0.7,0.4-1.5,0.4-2.3
		c0-1.6-0.6-3.1-1.7-4.2C361.9,435.6,360.5,435,358.9,435z"/>
	<path d="M383.5,448.5c-0.3,0-0.6-0.1-0.8-0.3l-9.3-11.2v10.6c0,0.5-0.4,1-1,1s-1-0.4-1-1v-13.2c0-0.4,0.3-0.8,0.6-0.9
		c0.4-0.1,0.8,0,1.1,0.3l9.3,11.2v-10.5c0-0.5,0.4-1,1-1c0.5,0,1,0.4,1,1v13.2c0,0.4-0.3,0.8-0.6,0.9
		C383.8,448.5,383.6,448.5,383.5,448.5z"/>
</g>
<g>
	<path d="M762.6,392.6v22c0,0.9-0.7,1.6-1.6,1.6c-0.9,0-1.6-0.7-1.6-1.6V405h-13.9v9.6c0,0.9-0.7,1.6-1.6,1.6
		c-0.9,0-1.6-0.7-1.6-1.6v-22c0-0.9,0.7-1.6,1.6-1.6c0.9,0,1.6,0.7,1.6,1.6v9.2h13.9v-9.2c0-0.9,0.7-1.6,1.6-1.6
		C761.9,391,762.6,391.7,762.6,392.6z"/>
	<path d="M778.4,416.7c-2.3,0-4.4-0.5-6-1.4c-1.4-0.8-2.5-1.9-3.3-3.4c-1.3-2.4-1.3-5-1.3-5.8v-13.4c0-0.9,0.7-1.6,1.6-1.6
		c0.9,0,1.6,0.7,1.6,1.6v13.4c0,0.6,0,2.6,0.9,4.3c0.5,0.9,1.2,1.6,2.1,2.2c1.1,0.6,2.6,1,4.4,1c1.8,0,3.3-0.4,4.4-1
		c0.9-0.5,1.6-1.2,2.1-2.1c0.9-1.7,0.9-3.7,0.9-4.3v-13.4c0-0.9,0.7-1.6,1.6-1.6c0.9,0,1.6,0.7,1.6,1.6v13.4c0,0.8,0,3.4-1.3,5.8
		C786.5,414.1,783.9,416.7,778.4,416.7z"/>
	<path d="M817.4,416.2c-0.9,0-1.6-0.7-1.6-1.6v-17.1l-7.9,10.8c-0.3,0.4-0.8,0.6-1.3,0.6c-0.5,0-1-0.2-1.3-0.6l-7.9-10.8v17.1
		c0,0.9-0.7,1.6-1.6,1.6c-0.9,0-1.6-0.7-1.6-1.6v-22c0-0.7,0.5-1.3,1.1-1.5c0.6-0.2,1.4,0,1.8,0.6l9.5,13l9.5-13
		c0.4-0.5,1.1-0.8,1.8-0.6c0.6,0.2,1.1,0.8,1.1,1.5v22C819,415.5,818.3,416.2,817.4,416.2z"/>
	<path d="M825.6,416.3c-0.3,0-0.7-0.1-1-0.3c-0.6-0.5-0.8-1.3-0.5-2l10.7-22c0.3-0.5,0.8-0.9,1.4-0.9s1.2,0.4,1.4,0.9l10.8,22
		c0.4,0.8,0.1,1.7-0.7,2.1c-0.8,0.4-1.8,0.1-2.2-0.7l-2.5-5.2c-1.7-0.5-3.4-0.5-5.3-0.2c-1.8,0.3-3.6,1-5.5,2
		c-3.3,1.7-5.6,3.9-5.6,3.9C826.4,416.2,826,416.3,825.6,416.3z M836.3,396.4l-6.5,13.3c0.3-0.2,0.6-0.3,0.9-0.5
		c2.2-1.2,4.3-1.9,6.4-2.3c1.4-0.3,2.8-0.4,4.2-0.2L836.3,396.4z"/>
	<path d="M872.3,416.4c-0.5,0-0.9-0.2-1.3-0.6l-15.5-18.7v17.6c0,0.9-0.7,1.6-1.6,1.6c-0.9,0-1.6-0.7-1.6-1.6v-22
		c0-0.7,0.4-1.3,1.1-1.5c0.6-0.2,1.3,0,1.8,0.5l15.6,18.6v-17.6c0-0.9,0.7-1.6,1.6-1.6c0.9,0,1.6,0.7,1.6,1.6v22
		c0,0.7-0.5,1.3-1.1,1.5C872.7,416.4,872.5,416.4,872.3,416.4z"/>
	<path d="M906.7,416.8c-1.8,0-3.5-0.4-5.2-1.1c-1.5-0.7-3-1.6-4.2-2.8c-1.2-1.2-2.2-2.6-2.8-4.2c-0.7-1.6-1-3.3-1-5
		c0-1.8,0.4-3.5,1-5.1c0.7-1.5,1.6-3,2.9-4.1c1.2-1.2,2.7-2.2,4.2-2.8c1.6-0.7,3.4-1,5.1-1c2.9,0,5.6,0.9,7.8,2.6
		c0.7,0.5,0.8,1.5,0.3,2.2c-0.5,0.7-1.6,0.8-2.2,0.3c-1.7-1.3-3.7-2-5.9-2c-1.3,0-2.7,0.3-3.9,0.8c-1.2,0.5-2.3,1.2-3.2,2.2
		c-0.9,0.9-1.6,2-2.2,3.1c-0.5,1.2-0.8,2.5-0.8,3.8s0.3,2.6,0.8,3.8c0.5,1.2,1.2,2.2,2.2,3.1c1.9,1.9,4.4,3,7.1,3
		c1.2,0,2.3-0.2,3.4-0.6c1.1-0.4,2-1,2.9-1.7c0.7-0.6,1.7-0.5,2.2,0.2s0.5,1.7-0.2,2.2c-1.2,1-2.4,1.7-3.8,2.2
		C909.8,416.5,908.3,416.8,906.7,416.8z"/>
	<path d="M933.8,416.9c-1.8,0-3.5-0.4-5.1-1.1c-1.6-0.7-3-1.6-4.2-2.8c-1.2-1.2-2.2-2.6-2.8-4.2c-0.7-1.6-1-3.3-1-5
		c0-1.8,0.4-3.5,1.1-5.1c0.7-1.5,1.6-3,2.9-4.1c1.2-1.2,2.6-2.2,4.2-2.8c1.6-0.7,3.4-1,5.2-1c3.5,0,6.8,1.4,9.2,3.9
		c1.2,1.2,2.1,2.6,2.7,4.1c0.7,1.6,1,3.3,1,5c0,1.8-0.3,3.5-1,5c-0.6,1.6-1.6,3-2.8,4.2C940.7,415.5,937.4,416.9,933.8,416.9z
		 M933.9,393.9c-1.3,0-2.7,0.3-3.9,0.8c-1.2,0.5-2.3,1.2-3.2,2.2c-0.9,0.9-1.7,2-2.2,3.1c-0.5,1.2-0.8,2.5-0.8,3.8
		c0,1.3,0.3,2.6,0.8,3.8c0.5,1.2,1.2,2.2,2.2,3.1c1.9,1.9,4.4,3,7.1,3c2.7,0,5.1-1.1,7-2.9c0.9-0.9,1.6-2,2.1-3.1
		c0.5-1.2,0.7-2.5,0.7-3.8c0-2.6-1-5.1-2.8-6.9C939,394.9,936.6,393.9,933.9,393.9z"/>
	<path d="M967.5,416.3h-14c-0.9,0-1.6-0.7-1.6-1.6v-22c0-0.9,0.7-1.6,1.6-1.6c0.9,0,1.6,0.7,1.6,1.6v20.4h12.4
		c0.9,0,1.6,0.7,1.6,1.6C969.1,415.6,968.4,416.3,967.5,416.3z"/>
	<path d="M987.3,416.9c-1.8,0-3.5-0.4-5.1-1.1c-1.6-0.7-3-1.6-4.2-2.8c-1.2-1.2-2.2-2.6-2.8-4.2c-0.7-1.6-1-3.3-1-5
		c0-1.8,0.4-3.5,1.1-5.1c0.7-1.5,1.6-3,2.9-4.1c1.2-1.2,2.6-2.2,4.2-2.8c1.6-0.7,3.4-1,5.2-1c3.5,0,6.8,1.4,9.2,3.9
		c1.2,1.2,2.1,2.6,2.7,4.1c0.7,1.6,1,3.3,1,5c0,1.8-0.3,3.5-1,5c-0.6,1.6-1.6,3-2.8,4.2C994.1,415.5,990.8,416.9,987.3,416.9z
		 M987.4,393.9c-1.3,0-2.7,0.3-3.9,0.8c-1.2,0.5-2.3,1.2-3.2,2.2c-0.9,0.9-1.7,2-2.2,3.1c-0.5,1.2-0.8,2.5-0.8,3.8
		c0,1.3,0.3,2.6,0.8,3.8c0.5,1.2,1.2,2.2,2.2,3.1c1.9,1.9,4.4,3,7.1,3c2.7,0,5.1-1.1,7-2.9c0.9-0.9,1.6-2,2.1-3.1
		c0.5-1.2,0.7-2.5,0.7-3.8c0-2.6-1-5.1-2.8-6.9C992.5,394.9,990,393.9,987.4,393.9z"/>
	<path d="M1014.6,416.7c-7,0-8.9-3.3-9.2-3.7c-0.4-0.8-0.1-1.8,0.6-2.2s1.7-0.1,2.2,0.6c0.1,0.1,0.4,0.5,1.2,1
		c1.6,0.9,3.7,1.1,5.1,1.1c2.1,0,3.7-0.4,4.6-1.3c0.7-0.6,0.9-1.4,0.9-2c0-1.2-0.4-2.1-1.1-2.8c-1-1-2.7-1.7-5.2-2.2
		c-1.8-0.4-3.3-1-4.5-1.8c-1-0.7-1.8-1.6-2.4-2.6c-0.9-1.6-0.9-3.1-0.9-3.4c0-1.7,0.8-3.4,2.2-4.6c0.7-0.6,1.5-1.1,2.4-1.4
		c1-0.4,2-0.5,3.1-0.5c6.3,0,8.1,3,8.3,3.3c0.4,0.8,0.2,1.8-0.6,2.2c-0.8,0.4-1.7,0.2-2.2-0.6c-0.1-0.1-0.4-0.4-1.1-0.8
		c-0.8-0.4-2.2-0.9-4.5-0.9c-1.8,0-2.8,0.6-3.4,1.2c-0.7,0.6-1.1,1.4-1.1,2.3v0.1c0,0.1,0,0.9,0.6,1.9c0.4,0.6,0.8,1.1,1.5,1.5
		c0.8,0.5,1.9,1,3.2,1.3c3.1,0.6,5.3,1.6,6.8,3.1c1.4,1.3,2.1,3.1,2.1,5.1c0,1.7-0.7,3.2-1.9,4.4
		C1019.9,416,1017.6,416.7,1014.6,416.7z"/>
	<path d="M1037.8,416.7c-7,0-8.9-3.3-9.2-3.7c-0.4-0.8-0.1-1.8,0.6-2.2s1.7-0.1,2.2,0.6c0.1,0.1,0.4,0.5,1.2,1
		c1.6,0.9,3.7,1.1,5.1,1.1c2.1,0,3.7-0.4,4.6-1.3c0.7-0.6,0.9-1.4,0.9-2c0-1.2-0.4-2.1-1.1-2.8c-1-1-2.7-1.7-5.2-2.2
		c-1.8-0.4-3.3-1-4.5-1.8c-1-0.7-1.8-1.6-2.4-2.6c-0.9-1.6-0.9-3.1-0.9-3.4c0-1.7,0.8-3.4,2.2-4.6c0.7-0.6,1.5-1.1,2.4-1.4
		c1-0.4,2-0.5,3.1-0.5c6.3,0,8.1,3,8.3,3.3c0.4,0.8,0.2,1.8-0.6,2.2c-0.8,0.4-1.7,0.2-2.2-0.6c-0.1-0.1-0.4-0.4-1.1-0.8
		c-0.8-0.4-2.2-0.9-4.5-0.9c-1.8,0-2.8,0.6-3.4,1.2c-0.7,0.6-1.1,1.4-1.1,2.3v0.1c0,0.1,0,0.9,0.6,1.9c0.4,0.6,0.8,1.1,1.5,1.5
		c0.8,0.5,1.9,1,3.2,1.3c3.1,0.6,5.3,1.6,6.8,3.1c1.4,1.3,2.1,3.1,2.1,5.1c0,1.7-0.7,3.2-1.9,4.4
		C1043.1,416,1040.8,416.7,1037.8,416.7z"/>
	<path d="M1062.3,416.7c-2.3,0-4.4-0.5-6-1.4c-1.4-0.8-2.5-1.9-3.3-3.4c-1.3-2.4-1.3-5-1.3-5.8v-13.4c0-0.9,0.7-1.6,1.6-1.6
		c0.9,0,1.6,0.7,1.6,1.6v13.4c0,0.6,0,2.6,0.9,4.3c0.5,0.9,1.2,1.6,2.1,2.2c1.1,0.6,2.6,1,4.4,1c1.8,0,3.3-0.4,4.4-1
		c0.9-0.5,1.6-1.2,2.1-2.1c0.9-1.7,0.9-3.7,0.9-4.3v-13.4c0-0.9,0.7-1.6,1.6-1.6c0.9,0,1.6,0.7,1.6,1.6v13.4c0,0.8,0,3.4-1.3,5.8
		C1070.4,414.1,1067.8,416.7,1062.3,416.7z"/>
	<path d="M1087.4,416.7c-7,0-8.9-3.3-9.2-3.7c-0.4-0.8-0.1-1.8,0.6-2.2s1.7-0.1,2.2,0.6c0.1,0.1,0.4,0.5,1.2,1
		c1.6,0.9,3.7,1.1,5.1,1.1c2.1,0,3.7-0.4,4.6-1.3c0.7-0.6,0.9-1.4,0.9-2c0-1.2-0.4-2.1-1.1-2.8c-1-1-2.7-1.7-5.2-2.2
		c-1.8-0.4-3.3-1-4.5-1.8c-1-0.7-1.8-1.6-2.4-2.6c-0.9-1.6-0.9-3.1-0.9-3.4c0-1.7,0.8-3.4,2.2-4.6c0.7-0.6,1.5-1.1,2.4-1.4
		c1-0.4,2-0.5,3.1-0.5c6.3,0,8.1,3,8.3,3.3c0.4,0.8,0.2,1.8-0.6,2.2c-0.8,0.4-1.7,0.2-2.2-0.6c-0.1-0.1-0.4-0.4-1.1-0.8
		c-0.8-0.4-2.2-0.9-4.5-0.9c-1.8,0-2.8,0.6-3.4,1.2c-0.7,0.6-1.1,1.4-1.1,2.3v0.1c0,0.1,0,0.9,0.6,1.9c0.4,0.6,0.8,1.1,1.5,1.5
		c0.8,0.5,1.9,1,3.2,1.3c3.1,0.6,5.3,1.6,6.8,3.1c1.4,1.3,2.1,3.1,2.1,5.1c0,1.7-0.7,3.2-1.9,4.4
		C1092.7,416,1090.4,416.7,1087.4,416.7z"/>
	<path d="M847.9,434.3c0,0.5-0.4,1-1,1h-8.1v4.8h6.9c0.5,0,1,0.4,1,1c0,0.5-0.4,1-1,1h-6.9v5.5c0,0.5-0.4,1-1,1c-0.5,0-1-0.4-1-1
		v-13.2c0-0.5,0.4-1,1-1h9.1C847.5,433.3,847.9,433.8,847.9,434.3z"/>
	<path d="M860.8,448.8c-1.1,0-2.1-0.2-3.1-0.6c-0.9-0.4-1.8-1-2.5-1.7c-0.7-0.7-1.3-1.6-1.7-2.5c-0.4-1-0.6-2-0.6-3
		c0-1.1,0.2-2.1,0.6-3c0.4-0.9,1-1.8,1.7-2.5c0.7-0.7,1.6-1.3,2.5-1.7c1-0.4,2-0.6,3.1-0.6c2.1,0,4.1,0.8,5.5,2.3
		c0.7,0.7,1.3,1.6,1.6,2.5c0.4,1,0.6,2,0.6,3c0,1.1-0.2,2.1-0.6,3c-0.4,0.9-0.9,1.8-1.7,2.5C864.8,448,862.9,448.8,860.8,448.8z
		 M860.8,435c-0.8,0-1.6,0.2-2.4,0.5c-0.7,0.3-1.4,0.7-1.9,1.3c-0.6,0.5-1,1.2-1.3,1.9c-0.3,0.7-0.5,1.5-0.5,2.3s0.2,1.5,0.5,2.3
		c0.3,0.7,0.7,1.3,1.3,1.9c1.1,1.1,2.6,1.8,4.2,1.8s3.1-0.6,4.2-1.8c0.5-0.5,0.9-1.2,1.3-1.9c0.3-0.7,0.4-1.5,0.4-2.3
		c0-1.6-0.6-3.1-1.7-4.2C863.9,435.6,862.4,435,860.8,435z"/>
	<path d="M879.9,448.7c-1.4,0-2.6-0.3-3.6-0.9c-0.8-0.5-1.5-1.2-2-2c-0.8-1.5-0.8-3-0.8-3.5v-8c0-0.5,0.4-1,1-1c0.5,0,1,0.4,1,1v8
		c0,0.4,0,1.5,0.6,2.6c0.3,0.6,0.7,1,1.3,1.3c0.7,0.4,1.6,0.6,2.6,0.6s2-0.2,2.6-0.6c0.5-0.3,0.9-0.7,1.2-1.3c0.6-1,0.6-2.2,0.6-2.6
		v-8c0-0.5,0.4-1,1-1c0.5,0,1,0.4,1,1v8c0,0.5,0,2-0.8,3.5C884.7,447.1,883.2,448.7,879.9,448.7z"/>
	<path d="M903.2,448.5c-0.3,0-0.6-0.1-0.8-0.3l-9.3-11.2v10.6c0,0.5-0.4,1-1,1c-0.5,0-1-0.4-1-1v-13.2c0-0.4,0.2-0.8,0.6-0.9
		c0.4-0.1,0.8,0,1.1,0.3l9.3,11.2v-10.5c0-0.5,0.4-1,1-1c0.5,0,1,0.4,1,1v13.2c0,0.4-0.3,0.8-0.6,0.9
		C903.5,448.5,903.3,448.5,903.2,448.5z"/>
	<path d="M914.9,448.5L914.9,448.5h-4.7c-0.5,0-1-0.4-1-1v-13.2c0-0.2,0.1-0.5,0.3-0.7c0.2-0.2,0.4-0.3,0.7-0.3h4.8
		c1.1,0,2.1,0.2,3,0.6c0.9,0.4,1.8,0.9,2.5,1.6c0.7,0.7,1.3,1.5,1.7,2.4c0.4,0.9,0.6,1.9,0.6,2.9c0,1-0.2,2-0.6,2.9
		c-0.4,0.9-1,1.7-1.7,2.4c-0.7,0.7-1.6,1.2-2.5,1.6C917,448.3,916,448.5,914.9,448.5z M911.1,446.5h3.8c0.8,0,1.5-0.2,2.3-0.5
		c0.7-0.3,1.3-0.7,1.9-1.2c0.5-0.5,1-1.1,1.3-1.8c0.3-0.7,0.5-1.4,0.5-2.1c0-0.8-0.2-1.5-0.5-2.2c-0.3-0.7-0.7-1.3-1.3-1.8
		c-1.1-1.1-2.6-1.7-4.2-1.7h-3.8V446.5z"/>
	<path d="M927.7,448.5c-0.2,0-0.4-0.1-0.6-0.2c-0.4-0.3-0.5-0.8-0.3-1.2l6.4-13.2c0.2-0.3,0.5-0.5,0.9-0.5s0.7,0.2,0.9,0.5l6.5,13.2
		c0.2,0.5,0,1-0.4,1.3c-0.5,0.2-1.1,0-1.3-0.4l-1.5-3.1c-1-0.3-2.1-0.3-3.2-0.1c-1.1,0.2-2.2,0.6-3.3,1.2c-2,1-3.3,2.3-3.4,2.3
		C928.2,448.4,927.9,448.5,927.7,448.5z M934.1,436.5l-3.9,8c0.2-0.1,0.3-0.2,0.5-0.3c1.3-0.7,2.6-1.2,3.9-1.4
		c0.9-0.2,1.7-0.2,2.5-0.1L934.1,436.5z"/>
	<path d="M956.1,434.3c0,0.5-0.4,1-1,1h-4.2v12.3c0,0.5-0.4,1-1,1c-0.5,0-1-0.4-1-1v-12.3h-4.2c-0.5,0-1-0.4-1-1c0-0.5,0.4-1,1-1
		h10.4C955.6,433.3,956.1,433.7,956.1,434.3z"/>
	<path d="M962,448.5c-0.5,0-1-0.4-1-1v-13.2c0-0.5,0.4-1,1-1c0.5,0,1,0.4,1,1v13.2C963,448,962.6,448.5,962,448.5z"/>
	<path d="M975.8,448.8c-1.1,0-2.1-0.2-3.1-0.6c-0.9-0.4-1.8-1-2.5-1.7c-0.7-0.7-1.3-1.6-1.7-2.5c-0.4-1-0.6-2-0.6-3
		c0-1.1,0.2-2.1,0.6-3c0.4-0.9,1-1.8,1.7-2.5c0.7-0.7,1.6-1.3,2.5-1.7c1-0.4,2-0.6,3.1-0.6c2.1,0,4.1,0.8,5.5,2.3
		c0.7,0.7,1.3,1.6,1.6,2.5c0.4,1,0.6,2,0.6,3c0,1.1-0.2,2.1-0.6,3c-0.4,0.9-0.9,1.8-1.7,2.5C979.9,448,978,448.8,975.8,448.8z
		 M975.9,435c-0.8,0-1.6,0.2-2.4,0.5c-0.7,0.3-1.4,0.7-1.9,1.3c-0.6,0.5-1,1.2-1.3,1.9c-0.3,0.7-0.5,1.5-0.5,2.3s0.2,1.5,0.5,2.3
		c0.3,0.7,0.7,1.3,1.3,1.9c1.1,1.1,2.6,1.8,4.2,1.8s3.1-0.6,4.2-1.8c0.5-0.5,0.9-1.2,1.3-1.9c0.3-0.7,0.4-1.5,0.4-2.3
		c0-1.6-0.6-3.1-1.7-4.2C979,435.6,977.5,435,975.9,435z"/>
	<path d="M1000.6,448.5c-0.3,0-0.6-0.1-0.8-0.3l-9.3-11.2v10.6c0,0.5-0.4,1-1,1c-0.5,0-1-0.4-1-1v-13.2c0-0.4,0.2-0.8,0.6-0.9
		c0.4-0.1,0.8,0,1.1,0.3l9.3,11.2v-10.5c0-0.5,0.4-1,1-1c0.5,0,1,0.4,1,1v13.2c0,0.4-0.3,0.8-0.6,0.9
		C1000.8,448.5,1000.7,448.5,1000.6,448.5z"/>
</g>
<g>
	<path class="st0" d="M316.3,160.8l-10.2-5.9l-10.2-5.9l-10.3,5.9l-10.2,5.9l-63.9,36.9v97.4l9.2,5.3l10.2,5.9l65,37.5l65-37.5
		l10.2-5.9l9.2-5.3v-97.4L316.3,160.8z M367.7,287.9l-5.7,3.3c-4.6-4.2-9.6-7.9-14.9-11.1c-4-2.5-8.2-4.7-12.6-6.5
		c-11.8-5.1-24.9-7.9-38.6-7.9c-13.7,0-26.7,2.8-38.6,7.9c-4.4,1.9-8.6,4-12.6,6.5l11.6,6.7l39.6,22.8l39.6-22.8
		c5.7,2.9,11.1,6.5,16,10.5l-55.6,32.1l-55.6-32.1l-10.6-6.1l-5.7-3.3v-5.6c6-2,11.7-4.5,17.1-7.6c4.2-2.4,8.2-5,12-7.9
		c20.5-15.9,34.7-39.7,37.8-66.8c0.4-3.7,0.6-7.5,0.6-11.3c0-1,0-1.9-0.1-2.9l-11.6,6.7l-38.7,22.4v46.3c-5.3,3.6-11.1,6.5-17.1,8.9
		v-65.1l54.6-31.5l10.6-6.1l6.7-3.8l6.7,3.9c-0.9,4.5-1.6,9.1-1.9,13.8c-0.1,1.6-0.2,3.2-0.2,4.8c-0.1,4.8,0.2,9.6,0.8,14.2
		c2.5,19.3,10.6,37.5,23.8,52.4c4.1,4.7,8.6,9,13.5,12.7c3.8,3,7.8,5.7,12,8v-58.6l-38.3-22.1c-0.2-3.6-0.2-7.2,0-10.8
		c0.2-2.8,0.5-5.7,0.9-8.4l54.5,31.4V287.9z M321.4,281l-25.6,14.7L270.3,281c8.1-2.5,16.7-3.8,25.6-3.8
		C304.8,277.2,313.3,278.5,321.4,281z M253.1,251.5v-29.8l24.8-14.3C274.2,224.5,265.4,239.8,253.1,251.5z M314.5,207.8l24.2,14
		v28.3c-1.7-1.6-3.3-3.3-4.8-5C324.3,234.2,317.7,221.4,314.5,207.8z"/>
</g>
<g>
	
		<radialGradient id="SVGID_1_" cx="919.7005" cy="246.4105" r="91.1293" gradientTransform="matrix(6.123234e-17 -1 1 6.123234e-17 673.29 1166.111)" gradientUnits="userSpaceOnUse">
		<stop  offset="6.385220e-03" style="stop-color:#00E7D6"/>
		<stop  offset="0.3649" style="stop-color:#07C9BE"/>
		<stop  offset="0.5239" style="stop-color:#05B0B4"/>
		<stop  offset="1" style="stop-color:#016A97"/>
	</radialGradient>
	<path class="st1" d="M940.1,160.8l-10.2-5.9l-10.2-5.9l-10.3,5.9l-10.2,5.9l-63.9,36.9v97.4l9.2,5.3l10.2,5.9l65,37.5l65-37.5
		l10.2-5.9l9.2-5.3v-97.4L940.1,160.8z M991.5,287.9l-5.7,3.3c-4.6-4.2-9.6-7.9-14.9-11.1c-4-2.5-8.2-4.7-12.6-6.5
		c-11.8-5.1-24.9-7.9-38.6-7.9c-13.7,0-26.7,2.8-38.6,7.9c-4.4,1.9-8.6,4-12.6,6.5l11.6,6.7l39.6,22.8l39.6-22.8
		c5.7,2.9,11.1,6.5,16,10.5l-55.6,32.1l-55.6-32.1l-10.6-6.1l-5.7-3.3v-5.6c6-2,11.7-4.5,17.1-7.6c4.2-2.4,8.2-5,12-7.9
		c20.5-15.9,34.7-39.7,37.8-66.8c0.4-3.7,0.6-7.5,0.6-11.3c0-1,0-1.9-0.1-2.9l-11.6,6.7L865,214.8v46.3c-5.3,3.6-11.1,6.5-17.1,8.9
		v-65.1l54.6-31.5l10.6-6.1l6.7-3.8l6.7,3.9c-0.9,4.5-1.6,9.1-1.9,13.8c-0.1,1.6-0.2,3.2-0.2,4.8c-0.1,4.8,0.2,9.6,0.8,14.2
		c2.5,19.3,10.6,37.5,23.8,52.4c4.1,4.7,8.6,9,13.5,12.7c3.8,3,7.8,5.7,12,8v-58.6l-38.3-22.1c-0.2-3.6-0.2-7.2,0-10.8
		c0.2-2.8,0.5-5.7,0.9-8.4l54.5,31.4V287.9z M945.3,281l-25.6,14.7L894.2,281c8.1-2.5,16.7-3.8,25.6-3.8
		C928.6,277.2,937.2,278.5,945.3,281z M877,251.5v-29.8l24.8-14.3C898,224.5,889.2,239.8,877,251.5z M938.3,207.8l24.2,14v28.3
		c-1.7-1.6-3.3-3.3-4.8-5C948.1,234.2,941.5,221.4,938.3,207.8z"/>
</g>
<g>
	<path d="M145.6,1012.6v22c0,0.9-0.7,1.6-1.6,1.6c-0.9,0-1.6-0.7-1.6-1.6v-9.6h-13.9v9.6c0,0.9-0.7,1.6-1.6,1.6
		c-0.9,0-1.6-0.7-1.6-1.6v-22c0-0.9,0.7-1.6,1.6-1.6c0.9,0,1.6,0.7,1.6,1.6v9.2h13.9v-9.2c0-0.9,0.7-1.6,1.6-1.6
		C144.9,1011,145.6,1011.7,145.6,1012.6z"/>
	<path d="M161.4,1036.7c-2.3,0-4.4-0.5-6-1.4c-1.4-0.8-2.5-1.9-3.3-3.4c-1.3-2.4-1.3-5-1.3-5.8v-13.4c0-0.9,0.7-1.6,1.6-1.6
		c0.9,0,1.6,0.7,1.6,1.6v13.4c0,0.6,0,2.6,0.9,4.3c0.5,0.9,1.2,1.6,2.1,2.2c1.1,0.6,2.6,1,4.4,1c1.8,0,3.3-0.4,4.4-1
		c0.9-0.5,1.6-1.2,2.1-2.1c0.9-1.7,0.9-3.7,0.9-4.3v-13.4c0-0.9,0.7-1.6,1.6-1.6c0.9,0,1.6,0.7,1.6,1.6v13.4c0,0.8,0,3.4-1.3,5.8
		C169.5,1034.1,166.9,1036.7,161.4,1036.7z"/>
	<path d="M200.4,1036.2c-0.9,0-1.6-0.7-1.6-1.6v-17.1l-7.9,10.8c-0.3,0.4-0.8,0.6-1.3,0.6s-1-0.2-1.3-0.6l-7.9-10.8v17.1
		c0,0.9-0.7,1.6-1.6,1.6c-0.9,0-1.6-0.7-1.6-1.6v-22c0-0.7,0.4-1.3,1.1-1.5c0.6-0.2,1.4,0,1.8,0.6l9.5,13l9.5-13
		c0.4-0.5,1.1-0.8,1.8-0.6c0.6,0.2,1.1,0.8,1.1,1.5v22C202,1035.5,201.3,1036.2,200.4,1036.2z"/>
	<path d="M208.5,1036.3c-0.3,0-0.7-0.1-1-0.3c-0.6-0.5-0.8-1.3-0.5-2l10.7-22c0.3-0.5,0.8-0.9,1.4-0.9c0.6,0,1.2,0.4,1.4,0.9
		l10.8,22c0.4,0.8,0.1,1.7-0.7,2.1c-0.8,0.4-1.8,0.1-2.2-0.7l-2.5-5.2c-1.7-0.5-3.4-0.5-5.3-0.2c-1.8,0.3-3.6,1-5.5,2
		c-3.3,1.7-5.6,3.9-5.6,3.9C209.3,1036.2,208.9,1036.3,208.5,1036.3z M219.2,1016.4l-6.5,13.3c0.3-0.2,0.6-0.3,0.9-0.5
		c2.2-1.2,4.3-1.9,6.4-2.3c1.4-0.3,2.8-0.4,4.2-0.2L219.2,1016.4z"/>
	<path d="M255.3,1036.4c-0.5,0-0.9-0.2-1.3-0.6l-15.5-18.7v17.6c0,0.9-0.7,1.6-1.6,1.6c-0.9,0-1.6-0.7-1.6-1.6v-22
		c0-0.7,0.4-1.3,1.1-1.5c0.6-0.2,1.3,0,1.8,0.5l15.6,18.6v-17.6c0-0.9,0.7-1.6,1.6-1.6c0.9,0,1.6,0.7,1.6,1.6v22
		c0,0.7-0.4,1.3-1.1,1.5C255.6,1036.4,255.5,1036.4,255.3,1036.4z"/>
	<path d="M289.7,1036.8c-1.8,0-3.5-0.4-5.2-1.1c-1.5-0.7-3-1.6-4.2-2.8c-1.2-1.2-2.2-2.6-2.8-4.2c-0.7-1.6-1-3.3-1-5
		c0-1.8,0.4-3.5,1-5.1c0.7-1.5,1.6-3,2.9-4.1c1.2-1.2,2.7-2.2,4.2-2.8c1.6-0.7,3.4-1,5.1-1c2.9,0,5.6,0.9,7.8,2.6
		c0.7,0.5,0.8,1.5,0.3,2.2c-0.5,0.7-1.6,0.8-2.2,0.3c-1.7-1.3-3.7-2-5.9-2c-1.4,0-2.7,0.3-3.9,0.8c-1.2,0.5-2.3,1.2-3.2,2.2
		c-0.9,0.9-1.6,2-2.2,3.1c-0.5,1.2-0.8,2.5-0.8,3.8s0.3,2.6,0.8,3.8c0.5,1.2,1.2,2.2,2.2,3.1c1.9,1.9,4.4,3,7.1,3
		c1.2,0,2.3-0.2,3.4-0.6c1.1-0.4,2-1,2.9-1.7c0.7-0.6,1.7-0.5,2.2,0.2s0.5,1.7-0.2,2.2c-1.2,1-2.4,1.7-3.8,2.2
		C292.8,1036.5,291.2,1036.8,289.7,1036.8z"/>
	<path d="M316.8,1036.9c-1.8,0-3.5-0.4-5.1-1.1c-1.6-0.7-3-1.6-4.2-2.8c-1.2-1.2-2.2-2.6-2.8-4.2c-0.7-1.6-1-3.3-1-5
		c0-1.8,0.4-3.5,1.1-5.1c0.7-1.5,1.6-3,2.9-4.1c1.2-1.2,2.6-2.2,4.2-2.8c1.6-0.7,3.4-1,5.2-1c3.5,0,6.8,1.4,9.2,3.9
		c1.2,1.2,2.1,2.6,2.7,4.1c0.7,1.6,1,3.3,1,5c0,1.8-0.3,3.5-1,5c-0.6,1.6-1.6,3-2.8,4.2C323.6,1035.5,320.3,1036.9,316.8,1036.9z
		 M316.9,1013.9c-1.3,0-2.7,0.3-3.9,0.8c-1.2,0.5-2.3,1.2-3.2,2.2c-0.9,0.9-1.7,2-2.2,3.1c-0.5,1.2-0.8,2.5-0.8,3.8
		c0,1.3,0.3,2.6,0.8,3.8c0.5,1.2,1.2,2.2,2.2,3.1c1.9,1.9,4.4,3,7.1,3c2.7,0,5.1-1.1,7-2.9c0.9-0.9,1.6-2,2.1-3.1
		c0.5-1.2,0.7-2.5,0.7-3.8c0-2.6-1-5.1-2.8-6.9C322,1014.9,319.5,1013.9,316.9,1013.9z"/>
	<path d="M350.5,1036.3h-14c-0.9,0-1.6-0.7-1.6-1.6v-22c0-0.9,0.7-1.6,1.6-1.6c0.9,0,1.6,0.7,1.6,1.6v20.4h12.4
		c0.9,0,1.6,0.7,1.6,1.6C352.1,1035.6,351.4,1036.3,350.5,1036.3z"/>
	<path d="M370.2,1036.9c-1.8,0-3.5-0.4-5.1-1.1c-1.6-0.7-3-1.6-4.2-2.8c-1.2-1.2-2.2-2.6-2.8-4.2c-0.7-1.6-1-3.3-1-5
		c0-1.8,0.4-3.5,1.1-5.1c0.7-1.5,1.6-3,2.9-4.1c1.2-1.2,2.6-2.2,4.2-2.8c1.6-0.7,3.4-1,5.2-1c3.5,0,6.8,1.4,9.2,3.9
		c1.2,1.2,2.1,2.6,2.7,4.1c0.7,1.6,1,3.3,1,5c0,1.8-0.3,3.5-1,5c-0.6,1.6-1.6,3-2.8,4.2C377.1,1035.5,373.8,1036.9,370.2,1036.9z
		 M370.3,1013.9c-1.3,0-2.7,0.3-3.9,0.8c-1.2,0.5-2.3,1.2-3.2,2.2c-0.9,0.9-1.7,2-2.2,3.1c-0.5,1.2-0.8,2.5-0.8,3.8
		c0,1.3,0.3,2.6,0.8,3.8c0.5,1.2,1.2,2.2,2.2,3.1c1.9,1.9,4.4,3,7.1,3c2.7,0,5.1-1.1,7-2.9c0.9-0.9,1.6-2,2.1-3.1
		c0.5-1.2,0.7-2.5,0.7-3.8c0-2.6-1-5.1-2.8-6.9C375.4,1014.9,373,1013.9,370.3,1013.9z"/>
	<path d="M397.6,1036.7c-7,0-8.9-3.3-9.2-3.7c-0.4-0.8-0.1-1.8,0.6-2.2c0.8-0.4,1.7-0.1,2.2,0.6c0.1,0.1,0.4,0.5,1.2,1
		c1.6,0.9,3.7,1.1,5.1,1.1c2.1,0,3.7-0.4,4.6-1.3c0.7-0.6,0.9-1.4,0.9-2c0-1.2-0.4-2.1-1.1-2.8c-1-1-2.7-1.7-5.2-2.2
		c-1.8-0.4-3.3-1-4.5-1.8c-1-0.7-1.8-1.6-2.4-2.6c-0.9-1.6-0.9-3.1-0.9-3.4c0-1.7,0.8-3.4,2.2-4.6c0.7-0.6,1.5-1.1,2.4-1.4
		c1-0.4,2-0.5,3.1-0.5c6.3,0,8.1,3,8.3,3.3c0.4,0.8,0.2,1.8-0.6,2.2c-0.8,0.4-1.7,0.2-2.2-0.6c-0.1-0.1-0.4-0.4-1.1-0.8
		c-0.8-0.4-2.2-0.9-4.5-0.9c-1.8,0-2.8,0.6-3.4,1.2c-0.7,0.6-1.1,1.4-1.1,2.3v0.1c0,0.1,0,0.9,0.6,1.9c0.4,0.6,0.8,1.1,1.5,1.5
		c0.8,0.5,1.9,1,3.2,1.3c3.1,0.6,5.3,1.6,6.8,3.1c1.4,1.3,2.1,3.1,2.1,5.1c0,1.7-0.7,3.2-1.9,4.4
		C402.9,1036,400.6,1036.7,397.6,1036.7z"/>
	<path d="M420.8,1036.7c-7,0-8.9-3.3-9.2-3.7c-0.4-0.8-0.1-1.8,0.6-2.2c0.8-0.4,1.7-0.1,2.2,0.6c0.1,0.1,0.4,0.5,1.2,1
		c1.6,0.9,3.7,1.1,5.1,1.1c2.1,0,3.7-0.4,4.6-1.3c0.7-0.6,0.9-1.4,0.9-2c0-1.2-0.4-2.1-1.1-2.8c-1-1-2.7-1.7-5.2-2.2
		c-1.8-0.4-3.3-1-4.5-1.8c-1-0.7-1.8-1.6-2.4-2.6c-0.9-1.6-0.9-3.1-0.9-3.4c0-1.7,0.8-3.4,2.2-4.6c0.7-0.6,1.5-1.1,2.4-1.4
		c1-0.4,2-0.5,3.1-0.5c6.3,0,8.1,3,8.3,3.3c0.4,0.8,0.2,1.8-0.6,2.2c-0.8,0.4-1.7,0.2-2.2-0.6c-0.1-0.1-0.4-0.4-1.1-0.8
		c-0.8-0.4-2.2-0.9-4.5-0.9c-1.8,0-2.8,0.6-3.4,1.2c-0.7,0.6-1.1,1.4-1.1,2.3v0.1c0,0.1,0,0.9,0.6,1.9c0.4,0.6,0.8,1.1,1.5,1.5
		c0.8,0.5,1.9,1,3.2,1.3c3.1,0.6,5.3,1.6,6.8,3.1c1.4,1.3,2.1,3.1,2.1,5.1c0,1.7-0.7,3.2-1.9,4.4
		C426.1,1036,423.8,1036.7,420.8,1036.7z"/>
	<path d="M445.3,1036.7c-2.3,0-4.4-0.5-6-1.4c-1.4-0.8-2.5-1.9-3.3-3.4c-1.3-2.4-1.3-5-1.3-5.8v-13.4c0-0.9,0.7-1.6,1.6-1.6
		c0.9,0,1.6,0.7,1.6,1.6v13.4c0,0.6,0,2.6,0.9,4.3c0.5,0.9,1.2,1.6,2.1,2.2c1.1,0.6,2.6,1,4.4,1c1.8,0,3.3-0.4,4.4-1
		c0.9-0.5,1.6-1.2,2.1-2.1c0.9-1.7,0.9-3.7,0.9-4.3v-13.4c0-0.9,0.7-1.6,1.6-1.6c0.9,0,1.6,0.7,1.6,1.6v13.4c0,0.8,0,3.4-1.3,5.8
		C453.4,1034.1,450.8,1036.7,445.3,1036.7z"/>
	<path d="M470.4,1036.7c-7,0-8.9-3.3-9.2-3.7c-0.4-0.8-0.1-1.8,0.6-2.2c0.8-0.4,1.7-0.1,2.2,0.6c0.1,0.1,0.4,0.5,1.2,1
		c1.6,0.9,3.7,1.1,5.1,1.1c2.1,0,3.7-0.4,4.6-1.3c0.7-0.6,0.9-1.4,0.9-2c0-1.2-0.4-2.1-1.1-2.8c-1-1-2.7-1.7-5.2-2.2
		c-1.8-0.4-3.3-1-4.5-1.8c-1-0.7-1.8-1.6-2.4-2.6c-0.9-1.6-0.9-3.1-0.9-3.4c0-1.7,0.8-3.4,2.2-4.6c0.7-0.6,1.5-1.1,2.4-1.4
		c1-0.4,2-0.5,3.1-0.5c6.3,0,8.1,3,8.3,3.3c0.4,0.8,0.2,1.8-0.6,2.2c-0.8,0.4-1.7,0.2-2.2-0.6c-0.1-0.1-0.4-0.4-1.1-0.8
		c-0.8-0.4-2.2-0.9-4.5-0.9c-1.8,0-2.8,0.6-3.4,1.2c-0.7,0.6-1.1,1.4-1.1,2.3v0.1c0,0.1,0,0.9,0.6,1.9c0.4,0.6,0.8,1.1,1.5,1.5
		c0.8,0.5,1.9,1,3.2,1.3c3.1,0.6,5.3,1.6,6.8,3.1c1.4,1.3,2.1,3.1,2.1,5.1c0,1.7-0.7,3.2-1.9,4.4
		C475.7,1036,473.4,1036.7,470.4,1036.7z"/>
	<path d="M230.9,1054.3c0,0.5-0.4,1-1,1h-8.1v4.8h6.9c0.5,0,1,0.4,1,1c0,0.5-0.4,1-1,1h-6.9v5.5c0,0.5-0.4,1-1,1s-1-0.4-1-1v-13.2
		c0-0.5,0.4-1,1-1h9.1C230.5,1053.3,230.9,1053.8,230.9,1054.3z"/>
	<path d="M243.7,1068.8c-1.1,0-2.1-0.2-3.1-0.6c-0.9-0.4-1.8-1-2.5-1.7c-0.7-0.7-1.3-1.6-1.7-2.5c-0.4-1-0.6-2-0.6-3
		c0-1.1,0.2-2.1,0.6-3c0.4-0.9,1-1.8,1.7-2.5c0.7-0.7,1.6-1.3,2.5-1.7c1-0.4,2-0.6,3.1-0.6c2.1,0,4.1,0.8,5.5,2.3
		c0.7,0.7,1.3,1.6,1.6,2.5c0.4,1,0.6,2,0.6,3c0,1.1-0.2,2.1-0.6,3c-0.4,0.9-0.9,1.8-1.7,2.5C247.8,1068,245.9,1068.8,243.7,1068.8z
		 M243.8,1055c-0.8,0-1.6,0.2-2.4,0.5c-0.7,0.3-1.4,0.7-1.9,1.3c-0.6,0.5-1,1.2-1.3,1.9c-0.3,0.7-0.5,1.5-0.5,2.3s0.2,1.5,0.5,2.3
		c0.3,0.7,0.7,1.3,1.3,1.9c1.1,1.1,2.6,1.8,4.2,1.8s3.1-0.6,4.2-1.8c0.5-0.5,0.9-1.2,1.3-1.9c0.3-0.7,0.4-1.5,0.4-2.3
		c0-1.6-0.6-3.1-1.7-4.2C246.9,1055.6,245.4,1055,243.8,1055z"/>
	<path d="M262.9,1068.7c-1.4,0-2.6-0.3-3.6-0.9c-0.8-0.5-1.5-1.2-2-2c-0.8-1.5-0.8-3-0.8-3.5v-8c0-0.5,0.4-1,1-1c0.5,0,1,0.4,1,1v8
		c0,0.4,0,1.5,0.6,2.6c0.3,0.6,0.7,1,1.3,1.3c0.7,0.4,1.6,0.6,2.6,0.6c1.1,0,2-0.2,2.6-0.6c0.5-0.3,0.9-0.7,1.2-1.3
		c0.6-1,0.6-2.2,0.6-2.6v-8c0-0.5,0.4-1,1-1c0.5,0,1,0.4,1,1v8c0,0.5,0,2-0.8,3.5C267.7,1067.1,266.2,1068.7,262.9,1068.7z"/>
	<path d="M286.2,1068.5c-0.3,0-0.6-0.1-0.8-0.3l-9.3-11.2v10.6c0,0.5-0.4,1-1,1s-1-0.4-1-1v-13.2c0-0.4,0.3-0.8,0.6-0.9
		c0.4-0.1,0.8,0,1.1,0.3l9.3,11.2v-10.5c0-0.5,0.4-1,1-1c0.5,0,1,0.4,1,1v13.2c0,0.4-0.3,0.8-0.6,0.9
		C286.4,1068.5,286.3,1068.5,286.2,1068.5z"/>
	<path d="M297.9,1068.5L297.9,1068.5h-4.7c-0.5,0-1-0.4-1-1v-13.2c0-0.2,0.1-0.5,0.3-0.7c0.2-0.2,0.4-0.3,0.7-0.3h4.8
		c1.1,0,2.1,0.2,3,0.6c0.9,0.4,1.8,0.9,2.5,1.6c0.7,0.7,1.3,1.5,1.7,2.4c0.4,0.9,0.6,1.9,0.6,2.9c0,1-0.2,2-0.6,2.9
		c-0.4,0.9-1,1.7-1.7,2.4c-0.7,0.7-1.6,1.2-2.5,1.6C300,1068.3,298.9,1068.5,297.9,1068.5z M294.1,1066.5h3.8c0.8,0,1.5-0.2,2.3-0.5
		s1.3-0.7,1.9-1.2s1-1.1,1.3-1.8c0.3-0.7,0.5-1.4,0.5-2.1c0-0.8-0.2-1.5-0.5-2.2c-0.3-0.7-0.7-1.3-1.3-1.8c-1.1-1.1-2.6-1.7-4.2-1.7
		h-3.8V1066.5z"/>
	<path d="M310.7,1068.5c-0.2,0-0.4-0.1-0.6-0.2c-0.4-0.3-0.5-0.8-0.3-1.2l6.4-13.2c0.2-0.3,0.5-0.5,0.9-0.5s0.7,0.2,0.9,0.5
		l6.5,13.2c0.2,0.5,0,1-0.4,1.3c-0.5,0.2-1.1,0-1.3-0.4l-1.5-3.1c-1-0.3-2.1-0.3-3.2-0.1c-1.1,0.2-2.2,0.6-3.3,1.2
		c-2,1-3.3,2.3-3.4,2.3C311.1,1068.4,310.9,1068.5,310.7,1068.5z M317.1,1056.5l-3.9,8c0.2-0.1,0.3-0.2,0.5-0.3
		c1.3-0.7,2.6-1.2,3.9-1.4c0.9-0.2,1.7-0.2,2.5-0.1L317.1,1056.5z"/>
	<path d="M339,1054.3c0,0.5-0.4,1-1,1h-4.2v12.3c0,0.5-0.4,1-1,1c-0.5,0-1-0.4-1-1v-12.3h-4.2c-0.5,0-1-0.4-1-1c0-0.5,0.4-1,1-1
		h10.4C338.6,1053.3,339,1053.7,339,1054.3z"/>
	<path d="M345,1068.5c-0.5,0-1-0.4-1-1v-13.2c0-0.5,0.4-1,1-1c0.5,0,1,0.4,1,1v13.2C346,1068,345.6,1068.5,345,1068.5z"/>
	<path d="M358.8,1068.8c-1.1,0-2.1-0.2-3.1-0.6c-0.9-0.4-1.8-1-2.5-1.7c-0.7-0.7-1.3-1.6-1.7-2.5c-0.4-1-0.6-2-0.6-3
		c0-1.1,0.2-2.1,0.6-3c0.4-0.9,1-1.8,1.7-2.5c0.7-0.7,1.6-1.3,2.5-1.7c1-0.4,2-0.6,3.1-0.6c2.1,0,4.1,0.8,5.5,2.3
		c0.7,0.7,1.3,1.6,1.6,2.5c0.4,1,0.6,2,0.6,3c0,1.1-0.2,2.1-0.6,3c-0.4,0.9-0.9,1.8-1.7,2.5C362.9,1068,360.9,1068.8,358.8,1068.8z
		 M358.9,1055c-0.8,0-1.6,0.2-2.4,0.5c-0.7,0.3-1.4,0.7-1.9,1.3c-0.6,0.5-1,1.2-1.3,1.9c-0.3,0.7-0.5,1.5-0.5,2.3s0.2,1.5,0.5,2.3
		c0.3,0.7,0.7,1.3,1.3,1.9c1.1,1.1,2.6,1.8,4.2,1.8s3.1-0.6,4.2-1.8c0.5-0.5,0.9-1.2,1.3-1.9c0.3-0.7,0.4-1.5,0.4-2.3
		c0-1.6-0.6-3.1-1.7-4.2C361.9,1055.6,360.5,1055,358.9,1055z"/>
	<path d="M383.5,1068.5c-0.3,0-0.6-0.1-0.8-0.3l-9.3-11.2v10.6c0,0.5-0.4,1-1,1s-1-0.4-1-1v-13.2c0-0.4,0.3-0.8,0.6-0.9
		c0.4-0.1,0.8,0,1.1,0.3l9.3,11.2v-10.5c0-0.5,0.4-1,1-1c0.5,0,1,0.4,1,1v13.2c0,0.4-0.3,0.8-0.6,0.9
		C383.8,1068.5,383.6,1068.5,383.5,1068.5z"/>
</g>
<g>
	<path d="M316.3,780.8l-10.2-5.9l-10.2-5.9l-10.3,5.9l-10.2,5.9l-63.9,36.9v97.4l9.2,5.3l10.2,5.9l65,37.5l65-37.5l10.2-5.9l9.2-5.3
		v-97.4L316.3,780.8z M367.7,907.9l-5.7,3.3c-4.6-4.2-9.6-7.9-14.9-11.1c-4-2.5-8.2-4.7-12.6-6.5c-11.8-5.1-24.9-7.9-38.6-7.9
		c-13.7,0-26.7,2.8-38.6,7.9c-4.4,1.9-8.6,4-12.6,6.5l11.6,6.7l39.6,22.8l39.6-22.8c5.7,2.9,11.1,6.5,16,10.5l-55.6,32.1l-55.6-32.1
		l-10.6-6.1l-5.7-3.3v-5.6c6-2,11.7-4.5,17.1-7.6c4.2-2.4,8.2-5,12-7.9c20.5-15.9,34.7-39.7,37.8-66.8c0.4-3.7,0.6-7.5,0.6-11.3
		c0-1,0-1.9-0.1-2.9l-11.6,6.7l-38.7,22.4v46.3c-5.3,3.6-11.1,6.5-17.1,8.9v-65.1l54.6-31.5l10.6-6.1l6.7-3.8l6.7,3.9
		c-0.9,4.5-1.6,9.1-1.9,13.8c-0.1,1.6-0.2,3.2-0.2,4.8c-0.1,4.8,0.2,9.6,0.8,14.2c2.5,19.3,10.6,37.5,23.8,52.4
		c4.1,4.7,8.6,9,13.5,12.7c3.8,3,7.8,5.7,12,8v-58.6l-38.3-22.1c-0.2-3.6-0.2-7.2,0-10.8c0.2-2.8,0.5-5.7,0.9-8.4l54.5,31.4V907.9z
		 M321.4,901l-25.6,14.7L270.3,901c8.1-2.5,16.7-3.8,25.6-3.8C304.8,897.2,313.3,898.5,321.4,901z M253.1,871.5v-29.8l24.8-14.3
		C274.2,844.5,265.4,859.8,253.1,871.5z M314.5,827.8l24.2,14v28.3c-1.7-1.6-3.3-3.3-4.8-5C324.3,854.2,317.7,841.4,314.5,827.8z"/>
</g>
<g>
	<path class="st2" d="M762.6,1012.6v22c0,0.9-0.7,1.6-1.6,1.6c-0.9,0-1.6-0.7-1.6-1.6v-9.6h-13.9v9.6c0,0.9-0.7,1.6-1.6,1.6
		c-0.9,0-1.6-0.7-1.6-1.6v-22c0-0.9,0.7-1.6,1.6-1.6c0.9,0,1.6,0.7,1.6,1.6v9.2h13.9v-9.2c0-0.9,0.7-1.6,1.6-1.6
		C761.9,1011,762.6,1011.7,762.6,1012.6z"/>
	<path class="st2" d="M778.4,1036.7c-2.3,0-4.4-0.5-6-1.4c-1.4-0.8-2.5-1.9-3.3-3.4c-1.3-2.4-1.3-5-1.3-5.8v-13.4
		c0-0.9,0.7-1.6,1.6-1.6c0.9,0,1.6,0.7,1.6,1.6v13.4c0,0.6,0,2.6,0.9,4.3c0.5,0.9,1.2,1.6,2.1,2.2c1.1,0.6,2.6,1,4.4,1
		c1.8,0,3.3-0.4,4.4-1c0.9-0.5,1.6-1.2,2.1-2.1c0.9-1.7,0.9-3.7,0.9-4.3v-13.4c0-0.9,0.7-1.6,1.6-1.6c0.9,0,1.6,0.7,1.6,1.6v13.4
		c0,0.8,0,3.4-1.3,5.8C786.5,1034.1,783.9,1036.7,778.4,1036.7z"/>
	<path class="st2" d="M817.4,1036.2c-0.9,0-1.6-0.7-1.6-1.6v-17.1l-7.9,10.8c-0.3,0.4-0.8,0.6-1.3,0.6c-0.5,0-1-0.2-1.3-0.6
		l-7.9-10.8v17.1c0,0.9-0.7,1.6-1.6,1.6c-0.9,0-1.6-0.7-1.6-1.6v-22c0-0.7,0.5-1.3,1.1-1.5c0.6-0.2,1.4,0,1.8,0.6l9.5,13l9.5-13
		c0.4-0.5,1.1-0.8,1.8-0.6c0.6,0.2,1.1,0.8,1.1,1.5v22C819,1035.5,818.3,1036.2,817.4,1036.2z"/>
	<path class="st2" d="M825.6,1036.3c-0.3,0-0.7-0.1-1-0.3c-0.6-0.5-0.8-1.3-0.5-2l10.7-22c0.3-0.5,0.8-0.9,1.4-0.9s1.2,0.4,1.4,0.9
		l10.8,22c0.4,0.8,0.1,1.7-0.7,2.1c-0.8,0.4-1.8,0.1-2.2-0.7l-2.5-5.2c-1.7-0.5-3.4-0.5-5.3-0.2c-1.8,0.3-3.6,1-5.5,2
		c-3.3,1.7-5.6,3.9-5.6,3.9C826.4,1036.2,826,1036.3,825.6,1036.3z M836.3,1016.4l-6.5,13.3c0.3-0.2,0.6-0.3,0.9-0.5
		c2.2-1.2,4.3-1.9,6.4-2.3c1.4-0.3,2.8-0.4,4.2-0.2L836.3,1016.4z"/>
	<path class="st2" d="M872.3,1036.4c-0.5,0-0.9-0.2-1.3-0.6l-15.5-18.7v17.6c0,0.9-0.7,1.6-1.6,1.6c-0.9,0-1.6-0.7-1.6-1.6v-22
		c0-0.7,0.4-1.3,1.1-1.5c0.6-0.2,1.3,0,1.8,0.5l15.6,18.6v-17.6c0-0.9,0.7-1.6,1.6-1.6c0.9,0,1.6,0.7,1.6,1.6v22
		c0,0.7-0.5,1.3-1.1,1.5C872.7,1036.4,872.5,1036.4,872.3,1036.4z"/>
	<path class="st2" d="M906.7,1036.8c-1.8,0-3.5-0.4-5.2-1.1c-1.5-0.7-3-1.6-4.2-2.8c-1.2-1.2-2.2-2.6-2.8-4.2c-0.7-1.6-1-3.3-1-5
		c0-1.8,0.4-3.5,1-5.1c0.7-1.5,1.6-3,2.9-4.1c1.2-1.2,2.7-2.2,4.2-2.8c1.6-0.7,3.4-1,5.1-1c2.9,0,5.6,0.9,7.8,2.6
		c0.7,0.5,0.8,1.5,0.3,2.2c-0.5,0.7-1.6,0.8-2.2,0.3c-1.7-1.3-3.7-2-5.9-2c-1.3,0-2.7,0.3-3.9,0.8c-1.2,0.5-2.3,1.2-3.2,2.2
		c-0.9,0.9-1.6,2-2.2,3.1c-0.5,1.2-0.8,2.5-0.8,3.8s0.3,2.6,0.8,3.8c0.5,1.2,1.2,2.2,2.2,3.1c1.9,1.9,4.4,3,7.1,3
		c1.2,0,2.3-0.2,3.4-0.6c1.1-0.4,2-1,2.9-1.7c0.7-0.6,1.7-0.5,2.2,0.2s0.5,1.7-0.2,2.2c-1.2,1-2.4,1.7-3.8,2.2
		C909.8,1036.5,908.3,1036.8,906.7,1036.8z"/>
	<path class="st2" d="M933.8,1036.9c-1.8,0-3.5-0.4-5.1-1.1c-1.6-0.7-3-1.6-4.2-2.8c-1.2-1.2-2.2-2.6-2.8-4.2c-0.7-1.6-1-3.3-1-5
		c0-1.8,0.4-3.5,1.1-5.1c0.7-1.5,1.6-3,2.9-4.1c1.2-1.2,2.6-2.2,4.2-2.8c1.6-0.7,3.4-1,5.2-1c3.5,0,6.8,1.4,9.2,3.9
		c1.2,1.2,2.1,2.6,2.7,4.1c0.7,1.6,1,3.3,1,5c0,1.8-0.3,3.5-1,5c-0.6,1.6-1.6,3-2.8,4.2C940.7,1035.5,937.4,1036.9,933.8,1036.9z
		 M933.9,1013.9c-1.3,0-2.7,0.3-3.9,0.8c-1.2,0.5-2.3,1.2-3.2,2.2c-0.9,0.9-1.7,2-2.2,3.1c-0.5,1.2-0.8,2.5-0.8,3.8
		c0,1.3,0.3,2.6,0.8,3.8c0.5,1.2,1.2,2.2,2.2,3.1c1.9,1.9,4.4,3,7.1,3c2.7,0,5.1-1.1,7-2.9c0.9-0.9,1.6-2,2.1-3.1
		c0.5-1.2,0.7-2.5,0.7-3.8c0-2.6-1-5.1-2.8-6.9C939,1014.9,936.6,1013.9,933.9,1013.9z"/>
	<path class="st2" d="M967.5,1036.3h-14c-0.9,0-1.6-0.7-1.6-1.6v-22c0-0.9,0.7-1.6,1.6-1.6c0.9,0,1.6,0.7,1.6,1.6v20.4h12.4
		c0.9,0,1.6,0.7,1.6,1.6C969.1,1035.6,968.4,1036.3,967.5,1036.3z"/>
	<path class="st2" d="M987.3,1036.9c-1.8,0-3.5-0.4-5.1-1.1c-1.6-0.7-3-1.6-4.2-2.8c-1.2-1.2-2.2-2.6-2.8-4.2c-0.7-1.6-1-3.3-1-5
		c0-1.8,0.4-3.5,1.1-5.1c0.7-1.5,1.6-3,2.9-4.1c1.2-1.2,2.6-2.2,4.2-2.8c1.6-0.7,3.4-1,5.2-1c3.5,0,6.8,1.4,9.2,3.9
		c1.2,1.2,2.1,2.6,2.7,4.1c0.7,1.6,1,3.3,1,5c0,1.8-0.3,3.5-1,5c-0.6,1.6-1.6,3-2.8,4.2C994.1,1035.5,990.8,1036.9,987.3,1036.9z
		 M987.4,1013.9c-1.3,0-2.7,0.3-3.9,0.8c-1.2,0.5-2.3,1.2-3.2,2.2c-0.9,0.9-1.7,2-2.2,3.1c-0.5,1.2-0.8,2.5-0.8,3.8
		c0,1.3,0.3,2.6,0.8,3.8c0.5,1.2,1.2,2.2,2.2,3.1c1.9,1.9,4.4,3,7.1,3c2.7,0,5.1-1.1,7-2.9c0.9-0.9,1.6-2,2.1-3.1
		c0.5-1.2,0.7-2.5,0.7-3.8c0-2.6-1-5.1-2.8-6.9C992.5,1014.9,990,1013.9,987.4,1013.9z"/>
	<path class="st2" d="M1014.6,1036.7c-7,0-8.9-3.3-9.2-3.7c-0.4-0.8-0.1-1.8,0.6-2.2s1.7-0.1,2.2,0.6c0.1,0.1,0.4,0.5,1.2,1
		c1.6,0.9,3.7,1.1,5.1,1.1c2.1,0,3.7-0.4,4.6-1.3c0.7-0.6,0.9-1.4,0.9-2c0-1.2-0.4-2.1-1.1-2.8c-1-1-2.7-1.7-5.2-2.2
		c-1.8-0.4-3.3-1-4.5-1.8c-1-0.7-1.8-1.6-2.4-2.6c-0.9-1.6-0.9-3.1-0.9-3.4c0-1.7,0.8-3.4,2.2-4.6c0.7-0.6,1.5-1.1,2.4-1.4
		c1-0.4,2-0.5,3.1-0.5c6.3,0,8.1,3,8.3,3.3c0.4,0.8,0.2,1.8-0.6,2.2c-0.8,0.4-1.7,0.2-2.2-0.6c-0.1-0.1-0.4-0.4-1.1-0.8
		c-0.8-0.4-2.2-0.9-4.5-0.9c-1.8,0-2.8,0.6-3.4,1.2c-0.7,0.6-1.1,1.4-1.1,2.3v0.1c0,0.1,0,0.9,0.6,1.9c0.4,0.6,0.8,1.1,1.5,1.5
		c0.8,0.5,1.9,1,3.2,1.3c3.1,0.6,5.3,1.6,6.8,3.1c1.4,1.3,2.1,3.1,2.1,5.1c0,1.7-0.7,3.2-1.9,4.4
		C1019.9,1036,1017.6,1036.7,1014.6,1036.7z"/>
	<path class="st2" d="M1037.8,1036.7c-7,0-8.9-3.3-9.2-3.7c-0.4-0.8-0.1-1.8,0.6-2.2s1.7-0.1,2.2,0.6c0.1,0.1,0.4,0.5,1.2,1
		c1.6,0.9,3.7,1.1,5.1,1.1c2.1,0,3.7-0.4,4.6-1.3c0.7-0.6,0.9-1.4,0.9-2c0-1.2-0.4-2.1-1.1-2.8c-1-1-2.7-1.7-5.2-2.2
		c-1.8-0.4-3.3-1-4.5-1.8c-1-0.7-1.8-1.6-2.4-2.6c-0.9-1.6-0.9-3.1-0.9-3.4c0-1.7,0.8-3.4,2.2-4.6c0.7-0.6,1.5-1.1,2.4-1.4
		c1-0.4,2-0.5,3.1-0.5c6.3,0,8.1,3,8.3,3.3c0.4,0.8,0.2,1.8-0.6,2.2c-0.8,0.4-1.7,0.2-2.2-0.6c-0.1-0.1-0.4-0.4-1.1-0.8
		c-0.8-0.4-2.2-0.9-4.5-0.9c-1.8,0-2.8,0.6-3.4,1.2c-0.7,0.6-1.1,1.4-1.1,2.3v0.1c0,0.1,0,0.9,0.6,1.9c0.4,0.6,0.8,1.1,1.5,1.5
		c0.8,0.5,1.9,1,3.2,1.3c3.1,0.6,5.3,1.6,6.8,3.1c1.4,1.3,2.1,3.1,2.1,5.1c0,1.7-0.7,3.2-1.9,4.4
		C1043.1,1036,1040.8,1036.7,1037.8,1036.7z"/>
	<path class="st2" d="M1062.3,1036.7c-2.3,0-4.4-0.5-6-1.4c-1.4-0.8-2.5-1.9-3.3-3.4c-1.3-2.4-1.3-5-1.3-5.8v-13.4
		c0-0.9,0.7-1.6,1.6-1.6c0.9,0,1.6,0.7,1.6,1.6v13.4c0,0.6,0,2.6,0.9,4.3c0.5,0.9,1.2,1.6,2.1,2.2c1.1,0.6,2.6,1,4.4,1
		c1.8,0,3.3-0.4,4.4-1c0.9-0.5,1.6-1.2,2.1-2.1c0.9-1.7,0.9-3.7,0.9-4.3v-13.4c0-0.9,0.7-1.6,1.6-1.6c0.9,0,1.6,0.7,1.6,1.6v13.4
		c0,0.8,0,3.4-1.3,5.8C1070.4,1034.1,1067.8,1036.7,1062.3,1036.7z"/>
	<path class="st2" d="M1087.4,1036.7c-7,0-8.9-3.3-9.2-3.7c-0.4-0.8-0.1-1.8,0.6-2.2s1.7-0.1,2.2,0.6c0.1,0.1,0.4,0.5,1.2,1
		c1.6,0.9,3.7,1.1,5.1,1.1c2.1,0,3.7-0.4,4.6-1.3c0.7-0.6,0.9-1.4,0.9-2c0-1.2-0.4-2.1-1.1-2.8c-1-1-2.7-1.7-5.2-2.2
		c-1.8-0.4-3.3-1-4.5-1.8c-1-0.7-1.8-1.6-2.4-2.6c-0.9-1.6-0.9-3.1-0.9-3.4c0-1.7,0.8-3.4,2.2-4.6c0.7-0.6,1.5-1.1,2.4-1.4
		c1-0.4,2-0.5,3.1-0.5c6.3,0,8.1,3,8.3,3.3c0.4,0.8,0.2,1.8-0.6,2.2c-0.8,0.4-1.7,0.2-2.2-0.6c-0.1-0.1-0.4-0.4-1.1-0.8
		c-0.8-0.4-2.2-0.9-4.5-0.9c-1.8,0-2.8,0.6-3.4,1.2c-0.7,0.6-1.1,1.4-1.1,2.3v0.1c0,0.1,0,0.9,0.6,1.9c0.4,0.6,0.8,1.1,1.5,1.5
		c0.8,0.5,1.9,1,3.2,1.3c3.1,0.6,5.3,1.6,6.8,3.1c1.4,1.3,2.1,3.1,2.1,5.1c0,1.7-0.7,3.2-1.9,4.4
		C1092.7,1036,1090.4,1036.7,1087.4,1036.7z"/>
	<path class="st2" d="M847.9,1054.3c0,0.5-0.4,1-1,1h-8.1v4.8h6.9c0.5,0,1,0.4,1,1c0,0.5-0.4,1-1,1h-6.9v5.5c0,0.5-0.4,1-1,1
		c-0.5,0-1-0.4-1-1v-13.2c0-0.5,0.4-1,1-1h9.1C847.5,1053.3,847.9,1053.8,847.9,1054.3z"/>
	<path class="st2" d="M860.8,1068.8c-1.1,0-2.1-0.2-3.1-0.6c-0.9-0.4-1.8-1-2.5-1.7c-0.7-0.7-1.3-1.6-1.7-2.5c-0.4-1-0.6-2-0.6-3
		c0-1.1,0.2-2.1,0.6-3c0.4-0.9,1-1.8,1.7-2.5c0.7-0.7,1.6-1.3,2.5-1.7c1-0.4,2-0.6,3.1-0.6c2.1,0,4.1,0.8,5.5,2.3
		c0.7,0.7,1.3,1.6,1.6,2.5c0.4,1,0.6,2,0.6,3c0,1.1-0.2,2.1-0.6,3c-0.4,0.9-0.9,1.8-1.7,2.5C864.8,1068,862.9,1068.8,860.8,1068.8z
		 M860.8,1055c-0.8,0-1.6,0.2-2.4,0.5c-0.7,0.3-1.4,0.7-1.9,1.3c-0.6,0.5-1,1.2-1.3,1.9c-0.3,0.7-0.5,1.5-0.5,2.3s0.2,1.5,0.5,2.3
		c0.3,0.7,0.7,1.3,1.3,1.9c1.1,1.1,2.6,1.8,4.2,1.8s3.1-0.6,4.2-1.8c0.5-0.5,0.9-1.2,1.3-1.9c0.3-0.7,0.4-1.5,0.4-2.3
		c0-1.6-0.6-3.1-1.7-4.2C863.9,1055.6,862.4,1055,860.8,1055z"/>
	<path class="st2" d="M879.9,1068.7c-1.4,0-2.6-0.3-3.6-0.9c-0.8-0.5-1.5-1.2-2-2c-0.8-1.5-0.8-3-0.8-3.5v-8c0-0.5,0.4-1,1-1
		c0.5,0,1,0.4,1,1v8c0,0.4,0,1.5,0.6,2.6c0.3,0.6,0.7,1,1.3,1.3c0.7,0.4,1.6,0.6,2.6,0.6s2-0.2,2.6-0.6c0.5-0.3,0.9-0.7,1.2-1.3
		c0.6-1,0.6-2.2,0.6-2.6v-8c0-0.5,0.4-1,1-1c0.5,0,1,0.4,1,1v8c0,0.5,0,2-0.8,3.5C884.7,1067.1,883.2,1068.7,879.9,1068.7z"/>
	<path class="st2" d="M903.2,1068.5c-0.3,0-0.6-0.1-0.8-0.3l-9.3-11.2v10.6c0,0.5-0.4,1-1,1c-0.5,0-1-0.4-1-1v-13.2
		c0-0.4,0.2-0.8,0.6-0.9c0.4-0.1,0.8,0,1.1,0.3l9.3,11.2v-10.5c0-0.5,0.4-1,1-1c0.5,0,1,0.4,1,1v13.2c0,0.4-0.3,0.8-0.6,0.9
		C903.5,1068.5,903.3,1068.5,903.2,1068.5z"/>
	<path class="st2" d="M914.9,1068.5L914.9,1068.5h-4.7c-0.5,0-1-0.4-1-1v-13.2c0-0.2,0.1-0.5,0.3-0.7c0.2-0.2,0.4-0.3,0.7-0.3h4.8
		c1.1,0,2.1,0.2,3,0.6c0.9,0.4,1.8,0.9,2.5,1.6c0.7,0.7,1.3,1.5,1.7,2.4c0.4,0.9,0.6,1.9,0.6,2.9c0,1-0.2,2-0.6,2.9
		c-0.4,0.9-1,1.7-1.7,2.4c-0.7,0.7-1.6,1.2-2.5,1.6C917,1068.3,916,1068.5,914.9,1068.5z M911.1,1066.5h3.8c0.8,0,1.5-0.2,2.3-0.5
		c0.7-0.3,1.3-0.7,1.9-1.2c0.5-0.5,1-1.1,1.3-1.8c0.3-0.7,0.5-1.4,0.5-2.1c0-0.8-0.2-1.5-0.5-2.2c-0.3-0.7-0.7-1.3-1.3-1.8
		c-1.1-1.1-2.6-1.7-4.2-1.7h-3.8V1066.5z"/>
	<path class="st2" d="M927.7,1068.5c-0.2,0-0.4-0.1-0.6-0.2c-0.4-0.3-0.5-0.8-0.3-1.2l6.4-13.2c0.2-0.3,0.5-0.5,0.9-0.5
		s0.7,0.2,0.9,0.5l6.5,13.2c0.2,0.5,0,1-0.4,1.3c-0.5,0.2-1.1,0-1.3-0.4l-1.5-3.1c-1-0.3-2.1-0.3-3.2-0.1c-1.1,0.2-2.2,0.6-3.3,1.2
		c-2,1-3.3,2.3-3.4,2.3C928.2,1068.4,927.9,1068.5,927.7,1068.5z M934.1,1056.5l-3.9,8c0.2-0.1,0.3-0.2,0.5-0.3
		c1.3-0.7,2.6-1.2,3.9-1.4c0.9-0.2,1.7-0.2,2.5-0.1L934.1,1056.5z"/>
	<path class="st2" d="M956.1,1054.3c0,0.5-0.4,1-1,1h-4.2v12.3c0,0.5-0.4,1-1,1c-0.5,0-1-0.4-1-1v-12.3h-4.2c-0.5,0-1-0.4-1-1
		c0-0.5,0.4-1,1-1h10.4C955.6,1053.3,956.1,1053.7,956.1,1054.3z"/>
	<path class="st2" d="M962,1068.5c-0.5,0-1-0.4-1-1v-13.2c0-0.5,0.4-1,1-1c0.5,0,1,0.4,1,1v13.2C963,1068,962.6,1068.5,962,1068.5z"
		/>
	<path class="st2" d="M975.8,1068.8c-1.1,0-2.1-0.2-3.1-0.6c-0.9-0.4-1.8-1-2.5-1.7c-0.7-0.7-1.3-1.6-1.7-2.5c-0.4-1-0.6-2-0.6-3
		c0-1.1,0.2-2.1,0.6-3c0.4-0.9,1-1.8,1.7-2.5c0.7-0.7,1.6-1.3,2.5-1.7c1-0.4,2-0.6,3.1-0.6c2.1,0,4.1,0.8,5.5,2.3
		c0.7,0.7,1.3,1.6,1.6,2.5c0.4,1,0.6,2,0.6,3c0,1.1-0.2,2.1-0.6,3c-0.4,0.9-0.9,1.8-1.7,2.5C979.9,1068,978,1068.8,975.8,1068.8z
		 M975.9,1055c-0.8,0-1.6,0.2-2.4,0.5c-0.7,0.3-1.4,0.7-1.9,1.3c-0.6,0.5-1,1.2-1.3,1.9c-0.3,0.7-0.5,1.5-0.5,2.3s0.2,1.5,0.5,2.3
		c0.3,0.7,0.7,1.3,1.3,1.9c1.1,1.1,2.6,1.8,4.2,1.8s3.1-0.6,4.2-1.8c0.5-0.5,0.9-1.2,1.3-1.9c0.3-0.7,0.4-1.5,0.4-2.3
		c0-1.6-0.6-3.1-1.7-4.2C979,1055.6,977.5,1055,975.9,1055z"/>
	<path class="st2" d="M1000.6,1068.5c-0.3,0-0.6-0.1-0.8-0.3l-9.3-11.2v10.6c0,0.5-0.4,1-1,1c-0.5,0-1-0.4-1-1v-13.2
		c0-0.4,0.2-0.8,0.6-0.9c0.4-0.1,0.8,0,1.1,0.3l9.3,11.2v-10.5c0-0.5,0.4-1,1-1c0.5,0,1,0.4,1,1v13.2c0,0.4-0.3,0.8-0.6,0.9
		C1000.8,1068.5,1000.7,1068.5,1000.6,1068.5z"/>
</g>
<g>
	<path class="st2" d="M940.1,780.8l-10.2-5.9l-10.2-5.9l-10.3,5.9l-10.2,5.9l-63.9,36.9v97.4l9.2,5.3l10.2,5.9l65,37.5l65-37.5
		l10.2-5.9l9.2-5.3v-97.4L940.1,780.8z M991.5,907.9l-5.7,3.3c-4.6-4.2-9.6-7.9-14.9-11.1c-4-2.5-8.2-4.7-12.6-6.5
		c-11.8-5.1-24.9-7.9-38.6-7.9c-13.7,0-26.7,2.8-38.6,7.9c-4.4,1.9-8.6,4-12.6,6.5l11.6,6.7l39.6,22.8l39.6-22.8
		c5.7,2.9,11.1,6.5,16,10.5l-55.6,32.1l-55.6-32.1l-10.6-6.1l-5.7-3.3v-5.6c6-2,11.7-4.5,17.1-7.6c4.2-2.4,8.2-5,12-7.9
		c20.5-15.9,34.7-39.7,37.8-66.8c0.4-3.7,0.6-7.5,0.6-11.3c0-1,0-1.9-0.1-2.9l-11.6,6.7L865,834.8v46.3c-5.3,3.6-11.1,6.5-17.1,8.9
		v-65.1l54.6-31.5l10.6-6.1l6.7-3.8l6.7,3.9c-0.9,4.5-1.6,9.1-1.9,13.8c-0.1,1.6-0.2,3.2-0.2,4.8c-0.1,4.8,0.2,9.6,0.8,14.2
		c2.5,19.3,10.6,37.5,23.8,52.4c4.1,4.7,8.6,9,13.5,12.7c3.8,3,7.8,5.7,12,8v-58.6l-38.3-22.1c-0.2-3.6-0.2-7.2,0-10.8
		c0.2-2.8,0.5-5.7,0.9-8.4l54.5,31.4V907.9z M945.3,901l-25.6,14.7L894.2,901c8.1-2.5,16.7-3.8,25.6-3.8
		C928.6,897.2,937.2,898.5,945.3,901z M877,871.5v-29.8l24.8-14.3C898,844.5,889.2,859.8,877,871.5z M938.3,827.8l24.2,14v28.3
		c-1.7-1.6-3.3-3.3-4.8-5C948.1,854.2,941.5,841.4,938.3,827.8z"/>
</g>
<g>
	<path d="M145.6,2261.5v22c0,0.9-0.7,1.6-1.6,1.6c-0.9,0-1.6-0.7-1.6-1.6v-9.6h-13.9v9.6c0,0.9-0.7,1.6-1.6,1.6
		c-0.9,0-1.6-0.7-1.6-1.6v-22c0-0.9,0.7-1.6,1.6-1.6c0.9,0,1.6,0.7,1.6,1.6v9.2h13.9v-9.2c0-0.9,0.7-1.6,1.6-1.6
		C144.9,2259.9,145.6,2260.6,145.6,2261.5z"/>
	<path d="M161.4,2285.6c-2.3,0-4.4-0.5-6-1.4c-1.4-0.8-2.5-1.9-3.3-3.4c-1.3-2.4-1.3-5-1.3-5.8v-13.4c0-0.9,0.7-1.6,1.6-1.6
		c0.9,0,1.6,0.7,1.6,1.6v13.4c0,0.6,0,2.6,0.9,4.3c0.5,0.9,1.2,1.6,2.1,2.2c1.1,0.6,2.6,1,4.4,1c1.8,0,3.3-0.4,4.4-1
		c0.9-0.5,1.6-1.2,2.1-2.1c0.9-1.7,0.9-3.7,0.9-4.3v-13.4c0-0.9,0.7-1.6,1.6-1.6c0.9,0,1.6,0.7,1.6,1.6v13.4c0,0.8,0,3.4-1.3,5.8
		C169.5,2283,166.9,2285.6,161.4,2285.6z"/>
	<path d="M200.4,2285.1c-0.9,0-1.6-0.7-1.6-1.6v-17.1l-7.9,10.8c-0.3,0.4-0.8,0.6-1.3,0.6s-1-0.2-1.3-0.6l-7.9-10.8v17.1
		c0,0.9-0.7,1.6-1.6,1.6c-0.9,0-1.6-0.7-1.6-1.6v-22c0-0.7,0.4-1.3,1.1-1.5c0.6-0.2,1.4,0,1.8,0.6l9.5,13l9.5-13
		c0.4-0.5,1.1-0.8,1.8-0.6c0.6,0.2,1.1,0.8,1.1,1.5v22C202,2284.4,201.3,2285.1,200.4,2285.1z"/>
	<path d="M208.5,2285.2c-0.3,0-0.7-0.1-1-0.3c-0.6-0.5-0.8-1.3-0.5-2l10.7-22c0.3-0.5,0.8-0.9,1.4-0.9c0.6,0,1.2,0.4,1.4,0.9
		l10.8,22c0.4,0.8,0.1,1.7-0.7,2.1c-0.8,0.4-1.8,0.1-2.2-0.7l-2.5-5.2c-1.7-0.5-3.4-0.5-5.3-0.2c-1.8,0.3-3.6,1-5.5,2
		c-3.3,1.7-5.6,3.9-5.6,3.9C209.3,2285.1,208.9,2285.2,208.5,2285.2z M219.2,2265.2l-6.5,13.3c0.3-0.2,0.6-0.3,0.9-0.5
		c2.2-1.2,4.3-1.9,6.4-2.3c1.4-0.3,2.8-0.4,4.2-0.2L219.2,2265.2z"/>
	<path d="M255.3,2285.3c-0.5,0-0.9-0.2-1.3-0.6l-15.5-18.7v17.6c0,0.9-0.7,1.6-1.6,1.6c-0.9,0-1.6-0.7-1.6-1.6v-22
		c0-0.7,0.4-1.3,1.1-1.5c0.6-0.2,1.3,0,1.8,0.5l15.6,18.6v-17.6c0-0.9,0.7-1.6,1.6-1.6c0.9,0,1.6,0.7,1.6,1.6v22
		c0,0.7-0.4,1.3-1.1,1.5C255.6,2285.3,255.5,2285.3,255.3,2285.3z"/>
	<path d="M289.7,2285.7c-1.8,0-3.5-0.4-5.2-1.1c-1.5-0.7-3-1.6-4.2-2.8c-1.2-1.2-2.2-2.6-2.8-4.2c-0.7-1.6-1-3.3-1-5
		c0-1.8,0.4-3.5,1-5.1c0.7-1.5,1.6-3,2.9-4.1c1.2-1.2,2.7-2.2,4.2-2.8c1.6-0.7,3.4-1,5.1-1c2.9,0,5.6,0.9,7.8,2.6
		c0.7,0.5,0.8,1.5,0.3,2.2c-0.5,0.7-1.6,0.8-2.2,0.3c-1.7-1.3-3.7-2-5.9-2c-1.4,0-2.7,0.3-3.9,0.8c-1.2,0.5-2.3,1.2-3.2,2.2
		c-0.9,0.9-1.6,2-2.2,3.1c-0.5,1.2-0.8,2.5-0.8,3.8s0.3,2.6,0.8,3.8c0.5,1.2,1.2,2.2,2.2,3.1c1.9,1.9,4.4,3,7.1,3
		c1.2,0,2.3-0.2,3.4-0.6c1.1-0.4,2-1,2.9-1.7c0.7-0.6,1.7-0.5,2.2,0.2s0.5,1.7-0.2,2.2c-1.2,1-2.4,1.7-3.8,2.2
		C292.8,2285.4,291.2,2285.7,289.7,2285.7z"/>
	<path d="M316.8,2285.8c-1.8,0-3.5-0.4-5.1-1.1c-1.6-0.7-3-1.6-4.2-2.8c-1.2-1.2-2.2-2.6-2.8-4.2c-0.7-1.6-1-3.3-1-5
		c0-1.8,0.4-3.5,1.1-5.1c0.7-1.5,1.6-3,2.9-4.1c1.2-1.2,2.6-2.2,4.2-2.8c1.6-0.7,3.4-1,5.2-1c3.5,0,6.8,1.4,9.2,3.9
		c1.2,1.2,2.1,2.6,2.7,4.1c0.7,1.6,1,3.3,1,5c0,1.8-0.3,3.5-1,5c-0.6,1.6-1.6,3-2.8,4.2C323.6,2284.4,320.3,2285.8,316.8,2285.8z
		 M316.9,2262.8c-1.3,0-2.7,0.3-3.9,0.8c-1.2,0.5-2.3,1.2-3.2,2.2c-0.9,0.9-1.7,2-2.2,3.1c-0.5,1.2-0.8,2.5-0.8,3.8
		c0,1.3,0.3,2.6,0.8,3.8c0.5,1.2,1.2,2.2,2.2,3.1c1.9,1.9,4.4,3,7.1,3c2.7,0,5.1-1.1,7-2.9c0.9-0.9,1.6-2,2.1-3.1
		c0.5-1.2,0.7-2.5,0.7-3.8c0-2.6-1-5.1-2.8-6.9C322,2263.8,319.5,2262.8,316.9,2262.8z"/>
	<path d="M350.5,2285.2h-14c-0.9,0-1.6-0.7-1.6-1.6v-22c0-0.9,0.7-1.6,1.6-1.6c0.9,0,1.6,0.7,1.6,1.6v20.4h12.4
		c0.9,0,1.6,0.7,1.6,1.6C352.1,2284.5,351.4,2285.2,350.5,2285.2z"/>
	<path d="M370.2,2285.8c-1.8,0-3.5-0.4-5.1-1.1c-1.6-0.7-3-1.6-4.2-2.8c-1.2-1.2-2.2-2.6-2.8-4.2c-0.7-1.6-1-3.3-1-5
		c0-1.8,0.4-3.5,1.1-5.1c0.7-1.5,1.6-3,2.9-4.1c1.2-1.2,2.6-2.2,4.2-2.8c1.6-0.7,3.4-1,5.2-1c3.5,0,6.8,1.4,9.2,3.9
		c1.2,1.2,2.1,2.6,2.7,4.1c0.7,1.6,1,3.3,1,5c0,1.8-0.3,3.5-1,5c-0.6,1.6-1.6,3-2.8,4.2C377.1,2284.4,373.8,2285.8,370.2,2285.8z
		 M370.3,2262.8c-1.3,0-2.7,0.3-3.9,0.8c-1.2,0.5-2.3,1.2-3.2,2.2c-0.9,0.9-1.7,2-2.2,3.1c-0.5,1.2-0.8,2.5-0.8,3.8
		c0,1.3,0.3,2.6,0.8,3.8c0.5,1.2,1.2,2.2,2.2,3.1c1.9,1.9,4.4,3,7.1,3c2.7,0,5.1-1.1,7-2.9c0.9-0.9,1.6-2,2.1-3.1
		c0.5-1.2,0.7-2.5,0.7-3.8c0-2.6-1-5.1-2.8-6.9C375.4,2263.8,373,2262.8,370.3,2262.8z"/>
	<path d="M397.6,2285.6c-7,0-8.9-3.3-9.2-3.7c-0.4-0.8-0.1-1.8,0.6-2.2c0.8-0.4,1.7-0.1,2.2,0.6c0.1,0.1,0.4,0.5,1.2,1
		c1.6,0.9,3.7,1.1,5.1,1.1c2.1,0,3.7-0.4,4.6-1.3c0.7-0.6,0.9-1.4,0.9-2c0-1.2-0.4-2.1-1.1-2.8c-1-1-2.7-1.7-5.2-2.2
		c-1.8-0.4-3.3-1-4.5-1.8c-1-0.7-1.8-1.6-2.4-2.6c-0.9-1.6-0.9-3.1-0.9-3.4c0-1.7,0.8-3.4,2.2-4.6c0.7-0.6,1.5-1.1,2.4-1.4
		c1-0.4,2-0.5,3.1-0.5c6.3,0,8.1,3,8.3,3.3c0.4,0.8,0.2,1.8-0.6,2.2c-0.8,0.4-1.7,0.2-2.2-0.6c-0.1-0.1-0.4-0.4-1.1-0.8
		c-0.8-0.4-2.2-0.9-4.5-0.9c-1.8,0-2.8,0.6-3.4,1.2c-0.7,0.6-1.1,1.4-1.1,2.3v0.1c0,0.1,0,0.9,0.6,1.9c0.4,0.6,0.8,1.1,1.5,1.5
		c0.8,0.5,1.9,1,3.2,1.3c3.1,0.6,5.3,1.6,6.8,3.1c1.4,1.3,2.1,3.1,2.1,5.1c0,1.7-0.7,3.2-1.9,4.4
		C402.9,2284.9,400.6,2285.6,397.6,2285.6z"/>
	<path d="M420.8,2285.6c-7,0-8.9-3.3-9.2-3.7c-0.4-0.8-0.1-1.8,0.6-2.2c0.8-0.4,1.7-0.1,2.2,0.6c0.1,0.1,0.4,0.5,1.2,1
		c1.6,0.9,3.7,1.1,5.1,1.1c2.1,0,3.7-0.4,4.6-1.3c0.7-0.6,0.9-1.4,0.9-2c0-1.2-0.4-2.1-1.1-2.8c-1-1-2.7-1.7-5.2-2.2
		c-1.8-0.4-3.3-1-4.5-1.8c-1-0.7-1.8-1.6-2.4-2.6c-0.9-1.6-0.9-3.1-0.9-3.4c0-1.7,0.8-3.4,2.2-4.6c0.7-0.6,1.5-1.1,2.4-1.4
		c1-0.4,2-0.5,3.1-0.5c6.3,0,8.1,3,8.3,3.3c0.4,0.8,0.2,1.8-0.6,2.2c-0.8,0.4-1.7,0.2-2.2-0.6c-0.1-0.1-0.4-0.4-1.1-0.8
		c-0.8-0.4-2.2-0.9-4.5-0.9c-1.8,0-2.8,0.6-3.4,1.2c-0.7,0.6-1.1,1.4-1.1,2.3v0.1c0,0.1,0,0.9,0.6,1.9c0.4,0.6,0.8,1.1,1.5,1.5
		c0.8,0.5,1.9,1,3.2,1.3c3.1,0.6,5.3,1.6,6.8,3.1c1.4,1.3,2.1,3.1,2.1,5.1c0,1.7-0.7,3.2-1.9,4.4
		C426.1,2284.9,423.8,2285.6,420.8,2285.6z"/>
	<path d="M445.3,2285.6c-2.3,0-4.4-0.5-6-1.4c-1.4-0.8-2.5-1.9-3.3-3.4c-1.3-2.4-1.3-5-1.3-5.8v-13.4c0-0.9,0.7-1.6,1.6-1.6
		c0.9,0,1.6,0.7,1.6,1.6v13.4c0,0.6,0,2.6,0.9,4.3c0.5,0.9,1.2,1.6,2.1,2.2c1.1,0.6,2.6,1,4.4,1c1.8,0,3.3-0.4,4.4-1
		c0.9-0.5,1.6-1.2,2.1-2.1c0.9-1.7,0.9-3.7,0.9-4.3v-13.4c0-0.9,0.7-1.6,1.6-1.6c0.9,0,1.6,0.7,1.6,1.6v13.4c0,0.8,0,3.4-1.3,5.8
		C453.4,2283,450.8,2285.6,445.3,2285.6z"/>
	<path d="M470.4,2285.6c-7,0-8.9-3.3-9.2-3.7c-0.4-0.8-0.1-1.8,0.6-2.2c0.8-0.4,1.7-0.1,2.2,0.6c0.1,0.1,0.4,0.5,1.2,1
		c1.6,0.9,3.7,1.1,5.1,1.1c2.1,0,3.7-0.4,4.6-1.3c0.7-0.6,0.9-1.4,0.9-2c0-1.2-0.4-2.1-1.1-2.8c-1-1-2.7-1.7-5.2-2.2
		c-1.8-0.4-3.3-1-4.5-1.8c-1-0.7-1.8-1.6-2.4-2.6c-0.9-1.6-0.9-3.1-0.9-3.4c0-1.7,0.8-3.4,2.2-4.6c0.7-0.6,1.5-1.1,2.4-1.4
		c1-0.4,2-0.5,3.1-0.5c6.3,0,8.1,3,8.3,3.3c0.4,0.8,0.2,1.8-0.6,2.2c-0.8,0.4-1.7,0.2-2.2-0.6c-0.1-0.1-0.4-0.4-1.1-0.8
		c-0.8-0.4-2.2-0.9-4.5-0.9c-1.8,0-2.8,0.6-3.4,1.2c-0.7,0.6-1.1,1.4-1.1,2.3v0.1c0,0.1,0,0.9,0.6,1.9c0.4,0.6,0.8,1.1,1.5,1.5
		c0.8,0.5,1.9,1,3.2,1.3c3.1,0.6,5.3,1.6,6.8,3.1c1.4,1.3,2.1,3.1,2.1,5.1c0,1.7-0.7,3.2-1.9,4.4
		C475.7,2284.9,473.4,2285.6,470.4,2285.6z"/>
	<path d="M234.7,2317.6c-1.1,0-2.1-0.2-3.1-0.6c-0.9-0.4-1.8-1-2.5-1.7c-0.7-0.7-1.3-1.6-1.7-2.5c-0.4-1-0.6-2-0.6-3
		c0-1.1,0.2-2.1,0.6-3c0.4-0.9,1-1.8,1.7-2.5c0.7-0.7,1.6-1.3,2.5-1.7c1-0.4,2-0.6,3.1-0.6c1.7,0,3.4,0.5,4.7,1.6
		c0.4,0.3,0.5,0.9,0.2,1.3c-0.3,0.4-0.9,0.5-1.3,0.2c-1-0.8-2.2-1.2-3.5-1.2c-0.8,0-1.6,0.2-2.4,0.5c-0.7,0.3-1.4,0.7-1.9,1.3
		c-0.5,0.5-1,1.2-1.3,1.9c-0.3,0.7-0.5,1.5-0.5,2.3s0.2,1.5,0.5,2.3c0.3,0.7,0.7,1.3,1.3,1.9c1.1,1.1,2.6,1.8,4.2,1.8
		c0.7,0,1.4-0.1,2-0.4c0.6-0.2,1.2-0.6,1.7-1c0.4-0.3,1-0.3,1.3,0.1c0.3,0.4,0.3,1-0.1,1.3c-0.7,0.6-1.5,1-2.3,1.3
		C236.5,2317.4,235.6,2317.6,234.7,2317.6z"/>
	<path d="M252.8,2317.7c-1.1,0-2.1-0.2-3.1-0.6c-0.9-0.4-1.8-1-2.5-1.7c-0.7-0.7-1.3-1.6-1.7-2.5c-0.4-1-0.6-2-0.6-3
		c0-1.1,0.2-2.1,0.6-3c0.4-0.9,1-1.8,1.7-2.5c0.7-0.7,1.6-1.3,2.5-1.7c1-0.4,2-0.6,3.1-0.6c2.1,0,4.1,0.8,5.5,2.3
		c0.7,0.7,1.3,1.6,1.6,2.5c0.4,1,0.6,2,0.6,3c0,1.1-0.2,2.1-0.6,3c-0.4,0.9-0.9,1.8-1.7,2.5C256.9,2316.9,255,2317.7,252.8,2317.7z
		 M252.9,2303.9c-0.8,0-1.6,0.2-2.4,0.5c-0.7,0.3-1.4,0.7-1.9,1.3c-0.6,0.5-1,1.2-1.3,1.9c-0.3,0.7-0.5,1.5-0.5,2.3s0.2,1.5,0.5,2.3
		c0.3,0.7,0.7,1.3,1.3,1.9c1.1,1.1,2.6,1.8,4.2,1.8s3.1-0.6,4.2-1.8c0.5-0.5,0.9-1.2,1.3-1.9c0.3-0.7,0.4-1.5,0.4-2.3
		c0-1.6-0.6-3.1-1.7-4.2C256,2304.5,254.5,2303.9,252.9,2303.9z"/>
	<path d="M279.5,2317.3c-0.5,0-1-0.4-1-1V2306l-4.7,6.5c-0.2,0.3-0.5,0.4-0.8,0.4c-0.3,0-0.6-0.1-0.8-0.4l-4.7-6.5v10.3
		c0,0.5-0.4,1-1,1c-0.5,0-1-0.4-1-1v-13.2c0-0.4,0.3-0.8,0.7-0.9c0.4-0.1,0.8,0,1.1,0.3l5.7,7.8l5.7-7.8c0.3-0.3,0.7-0.5,1.1-0.3
		c0.4,0.1,0.7,0.5,0.7,0.9v13.2C280.5,2316.8,280.1,2317.3,279.5,2317.3z"/>
	<path d="M299.4,2317.3c-0.5,0-1-0.4-1-1V2306l-4.7,6.5c-0.2,0.3-0.5,0.4-0.8,0.4c-0.3,0-0.6-0.1-0.8-0.4l-4.7-6.5v10.3
		c0,0.5-0.4,1-1,1c-0.5,0-1-0.4-1-1v-13.2c0-0.4,0.3-0.8,0.7-0.9c0.4-0.1,0.8,0,1.1,0.3l5.7,7.8l5.7-7.8c0.3-0.3,0.7-0.5,1.1-0.3
		c0.4,0.1,0.7,0.5,0.7,0.9v13.2C300.4,2316.8,300,2317.3,299.4,2317.3z"/>
	<path d="M311.8,2317.6c-1.4,0-2.6-0.3-3.6-0.9c-0.8-0.5-1.5-1.2-2-2c-0.8-1.5-0.8-3-0.8-3.5v-8c0-0.5,0.4-1,1-1c0.5,0,1,0.4,1,1v8
		c0,0.4,0,1.5,0.6,2.6c0.3,0.6,0.7,1,1.3,1.3c0.7,0.4,1.6,0.6,2.6,0.6c1.1,0,2-0.2,2.6-0.6c0.5-0.3,0.9-0.7,1.2-1.3
		c0.6-1,0.6-2.2,0.6-2.6v-8c0-0.5,0.4-1,1-1c0.5,0,1,0.4,1,1v8c0,0.5,0,2-0.8,3.5C316.7,2316,315.1,2317.6,311.8,2317.6z"/>
	<path d="M335.2,2317.4c-0.3,0-0.6-0.1-0.8-0.3l-9.3-11.2v10.6c0,0.5-0.4,1-1,1s-1-0.4-1-1v-13.2c0-0.4,0.3-0.8,0.6-0.9
		c0.4-0.1,0.8,0,1.1,0.3l9.3,11.2v-10.5c0-0.5,0.4-1,1-1c0.5,0,1,0.4,1,1v13.2c0,0.4-0.3,0.8-0.6,0.9
		C335.4,2317.4,335.3,2317.4,335.2,2317.4z"/>
	<path d="M342.1,2317.4c-0.5,0-1-0.4-1-1v-13.2c0-0.5,0.4-1,1-1c0.5,0,1,0.4,1,1v13.2C343.1,2316.9,342.6,2317.4,342.1,2317.4z"/>
	<path d="M360.4,2303.2c0,0.5-0.4,1-1,1h-4.2v12.3c0,0.5-0.4,1-1,1c-0.5,0-1-0.4-1-1v-12.3H349c-0.5,0-1-0.4-1-1c0-0.5,0.4-1,1-1
		h10.4C360,2302.2,360.4,2302.6,360.4,2303.2z"/>
	<path d="M377.5,2303.7l-5,7.5v5.2c0,0.5-0.4,1-1,1c-0.5,0-1-0.4-1-1v-5.2l-5-7.5c-0.3-0.4-0.2-1,0.3-1.3c0.4-0.3,1-0.2,1.3,0.3
		l4.4,6.6l4.4-6.6c0.3-0.4,0.9-0.6,1.3-0.3C377.7,2302.7,377.8,2303.3,377.5,2303.7z"/>
</g>
<g>
	<path class="st2" d="M762.6,2261.5v22c0,0.9-0.7,1.6-1.6,1.6c-0.9,0-1.6-0.7-1.6-1.6v-9.6h-13.9v9.6c0,0.9-0.7,1.6-1.6,1.6
		c-0.9,0-1.6-0.7-1.6-1.6v-22c0-0.9,0.7-1.6,1.6-1.6c0.9,0,1.6,0.7,1.6,1.6v9.2h13.9v-9.2c0-0.9,0.7-1.6,1.6-1.6
		C761.9,2259.9,762.6,2260.6,762.6,2261.5z"/>
	<path class="st2" d="M778.4,2285.6c-2.3,0-4.4-0.5-6-1.4c-1.4-0.8-2.5-1.9-3.3-3.4c-1.3-2.4-1.3-5-1.3-5.8v-13.4
		c0-0.9,0.7-1.6,1.6-1.6c0.9,0,1.6,0.7,1.6,1.6v13.4c0,0.6,0,2.6,0.9,4.3c0.5,0.9,1.2,1.6,2.1,2.2c1.1,0.6,2.6,1,4.4,1
		c1.8,0,3.3-0.4,4.4-1c0.9-0.5,1.6-1.2,2.1-2.1c0.9-1.7,0.9-3.7,0.9-4.3v-13.4c0-0.9,0.7-1.6,1.6-1.6c0.9,0,1.6,0.7,1.6,1.6v13.4
		c0,0.8,0,3.4-1.3,5.8C786.5,2283,783.9,2285.6,778.4,2285.6z"/>
	<path class="st2" d="M817.4,2285.1c-0.9,0-1.6-0.7-1.6-1.6v-17.1l-7.9,10.8c-0.3,0.4-0.8,0.6-1.3,0.6c-0.5,0-1-0.2-1.3-0.6
		l-7.9-10.8v17.1c0,0.9-0.7,1.6-1.6,1.6c-0.9,0-1.6-0.7-1.6-1.6v-22c0-0.7,0.5-1.3,1.1-1.5c0.6-0.2,1.4,0,1.8,0.6l9.5,13l9.5-13
		c0.4-0.5,1.1-0.8,1.8-0.6c0.6,0.2,1.1,0.8,1.1,1.5v22C819,2284.4,818.3,2285.1,817.4,2285.1z"/>
	<path class="st2" d="M825.6,2285.2c-0.3,0-0.7-0.1-1-0.3c-0.6-0.5-0.8-1.3-0.5-2l10.7-22c0.3-0.5,0.8-0.9,1.4-0.9s1.2,0.4,1.4,0.9
		l10.8,22c0.4,0.8,0.1,1.7-0.7,2.1c-0.8,0.4-1.8,0.1-2.2-0.7l-2.5-5.2c-1.7-0.5-3.4-0.5-5.3-0.2c-1.8,0.3-3.6,1-5.5,2
		c-3.3,1.7-5.6,3.9-5.6,3.9C826.4,2285.1,826,2285.2,825.6,2285.2z M836.3,2265.2l-6.5,13.3c0.3-0.2,0.6-0.3,0.9-0.5
		c2.2-1.2,4.3-1.9,6.4-2.3c1.4-0.3,2.8-0.4,4.2-0.2L836.3,2265.2z"/>
	<path class="st2" d="M872.3,2285.3c-0.5,0-0.9-0.2-1.3-0.6l-15.5-18.7v17.6c0,0.9-0.7,1.6-1.6,1.6c-0.9,0-1.6-0.7-1.6-1.6v-22
		c0-0.7,0.4-1.3,1.1-1.5c0.6-0.2,1.3,0,1.8,0.5l15.6,18.6v-17.6c0-0.9,0.7-1.6,1.6-1.6c0.9,0,1.6,0.7,1.6,1.6v22
		c0,0.7-0.5,1.3-1.1,1.5C872.7,2285.3,872.5,2285.3,872.3,2285.3z"/>
	<path class="st2" d="M906.7,2285.7c-1.8,0-3.5-0.4-5.2-1.1c-1.5-0.7-3-1.6-4.2-2.8c-1.2-1.2-2.2-2.6-2.8-4.2c-0.7-1.6-1-3.3-1-5
		c0-1.8,0.4-3.5,1-5.1c0.7-1.5,1.6-3,2.9-4.1c1.2-1.2,2.7-2.2,4.2-2.8c1.6-0.7,3.4-1,5.1-1c2.9,0,5.6,0.9,7.8,2.6
		c0.7,0.5,0.8,1.5,0.3,2.2c-0.5,0.7-1.6,0.8-2.2,0.3c-1.7-1.3-3.7-2-5.9-2c-1.3,0-2.7,0.3-3.9,0.8c-1.2,0.5-2.3,1.2-3.2,2.2
		c-0.9,0.9-1.6,2-2.2,3.1c-0.5,1.2-0.8,2.5-0.8,3.8s0.3,2.6,0.8,3.8c0.5,1.2,1.2,2.2,2.2,3.1c1.9,1.9,4.4,3,7.1,3
		c1.2,0,2.3-0.2,3.4-0.6c1.1-0.4,2-1,2.9-1.7c0.7-0.6,1.7-0.5,2.2,0.2s0.5,1.7-0.2,2.2c-1.2,1-2.4,1.7-3.8,2.2
		C909.8,2285.4,908.3,2285.7,906.7,2285.7z"/>
	<path class="st2" d="M933.8,2285.8c-1.8,0-3.5-0.4-5.1-1.1c-1.6-0.7-3-1.6-4.2-2.8c-1.2-1.2-2.2-2.6-2.8-4.2c-0.7-1.6-1-3.3-1-5
		c0-1.8,0.4-3.5,1.1-5.1c0.7-1.5,1.6-3,2.9-4.1c1.2-1.2,2.6-2.2,4.2-2.8c1.6-0.7,3.4-1,5.2-1c3.5,0,6.8,1.4,9.2,3.9
		c1.2,1.2,2.1,2.6,2.7,4.1c0.7,1.6,1,3.3,1,5c0,1.8-0.3,3.5-1,5c-0.6,1.6-1.6,3-2.8,4.2C940.7,2284.4,937.4,2285.8,933.8,2285.8z
		 M933.9,2262.8c-1.3,0-2.7,0.3-3.9,0.8c-1.2,0.5-2.3,1.2-3.2,2.2c-0.9,0.9-1.7,2-2.2,3.1c-0.5,1.2-0.8,2.5-0.8,3.8
		c0,1.3,0.3,2.6,0.8,3.8c0.5,1.2,1.2,2.2,2.2,3.1c1.9,1.9,4.4,3,7.1,3c2.7,0,5.1-1.1,7-2.9c0.9-0.9,1.6-2,2.1-3.1
		c0.5-1.2,0.7-2.5,0.7-3.8c0-2.6-1-5.1-2.8-6.9C939,2263.8,936.6,2262.8,933.9,2262.8z"/>
	<path class="st2" d="M967.5,2285.2h-14c-0.9,0-1.6-0.7-1.6-1.6v-22c0-0.9,0.7-1.6,1.6-1.6c0.9,0,1.6,0.7,1.6,1.6v20.4h12.4
		c0.9,0,1.6,0.7,1.6,1.6C969.1,2284.5,968.4,2285.2,967.5,2285.2z"/>
	<path class="st2" d="M987.3,2285.8c-1.8,0-3.5-0.4-5.1-1.1c-1.6-0.7-3-1.6-4.2-2.8c-1.2-1.2-2.2-2.6-2.8-4.2c-0.7-1.6-1-3.3-1-5
		c0-1.8,0.4-3.5,1.1-5.1c0.7-1.5,1.6-3,2.9-4.1c1.2-1.2,2.6-2.2,4.2-2.8c1.6-0.7,3.4-1,5.2-1c3.5,0,6.8,1.4,9.2,3.9
		c1.2,1.2,2.1,2.6,2.7,4.1c0.7,1.6,1,3.3,1,5c0,1.8-0.3,3.5-1,5c-0.6,1.6-1.6,3-2.8,4.2C994.1,2284.4,990.8,2285.8,987.3,2285.8z
		 M987.4,2262.8c-1.3,0-2.7,0.3-3.9,0.8c-1.2,0.5-2.3,1.2-3.2,2.2c-0.9,0.9-1.7,2-2.2,3.1c-0.5,1.2-0.8,2.5-0.8,3.8
		c0,1.3,0.3,2.6,0.8,3.8c0.5,1.2,1.2,2.2,2.2,3.1c1.9,1.9,4.4,3,7.1,3c2.7,0,5.1-1.1,7-2.9c0.9-0.9,1.6-2,2.1-3.1
		c0.5-1.2,0.7-2.5,0.7-3.8c0-2.6-1-5.1-2.8-6.9C992.5,2263.8,990,2262.8,987.4,2262.8z"/>
	<path class="st2" d="M1014.6,2285.6c-7,0-8.9-3.3-9.2-3.7c-0.4-0.8-0.1-1.8,0.6-2.2s1.7-0.1,2.2,0.6c0.1,0.1,0.4,0.5,1.2,1
		c1.6,0.9,3.7,1.1,5.1,1.1c2.1,0,3.7-0.4,4.6-1.3c0.7-0.6,0.9-1.4,0.9-2c0-1.2-0.4-2.1-1.1-2.8c-1-1-2.7-1.7-5.2-2.2
		c-1.8-0.4-3.3-1-4.5-1.8c-1-0.7-1.8-1.6-2.4-2.6c-0.9-1.6-0.9-3.1-0.9-3.4c0-1.7,0.8-3.4,2.2-4.6c0.7-0.6,1.5-1.1,2.4-1.4
		c1-0.4,2-0.5,3.1-0.5c6.3,0,8.1,3,8.3,3.3c0.4,0.8,0.2,1.8-0.6,2.2c-0.8,0.4-1.7,0.2-2.2-0.6c-0.1-0.1-0.4-0.4-1.1-0.8
		c-0.8-0.4-2.2-0.9-4.5-0.9c-1.8,0-2.8,0.6-3.4,1.2c-0.7,0.6-1.1,1.4-1.1,2.3v0.1c0,0.1,0,0.9,0.6,1.9c0.4,0.6,0.8,1.1,1.5,1.5
		c0.8,0.5,1.9,1,3.2,1.3c3.1,0.6,5.3,1.6,6.8,3.1c1.4,1.3,2.1,3.1,2.1,5.1c0,1.7-0.7,3.2-1.9,4.4
		C1019.9,2284.9,1017.6,2285.6,1014.6,2285.6z"/>
	<path class="st2" d="M1037.8,2285.6c-7,0-8.9-3.3-9.2-3.7c-0.4-0.8-0.1-1.8,0.6-2.2s1.7-0.1,2.2,0.6c0.1,0.1,0.4,0.5,1.2,1
		c1.6,0.9,3.7,1.1,5.1,1.1c2.1,0,3.7-0.4,4.6-1.3c0.7-0.6,0.9-1.4,0.9-2c0-1.2-0.4-2.1-1.1-2.8c-1-1-2.7-1.7-5.2-2.2
		c-1.8-0.4-3.3-1-4.5-1.8c-1-0.7-1.8-1.6-2.4-2.6c-0.9-1.6-0.9-3.1-0.9-3.4c0-1.7,0.8-3.4,2.2-4.6c0.7-0.6,1.5-1.1,2.4-1.4
		c1-0.4,2-0.5,3.1-0.5c6.3,0,8.1,3,8.3,3.3c0.4,0.8,0.2,1.8-0.6,2.2c-0.8,0.4-1.7,0.2-2.2-0.6c-0.1-0.1-0.4-0.4-1.1-0.8
		c-0.8-0.4-2.2-0.9-4.5-0.9c-1.8,0-2.8,0.6-3.4,1.2c-0.7,0.6-1.1,1.4-1.1,2.3v0.1c0,0.1,0,0.9,0.6,1.9c0.4,0.6,0.8,1.1,1.5,1.5
		c0.8,0.5,1.9,1,3.2,1.3c3.1,0.6,5.3,1.6,6.8,3.1c1.4,1.3,2.1,3.1,2.1,5.1c0,1.7-0.7,3.2-1.9,4.4
		C1043.1,2284.9,1040.8,2285.6,1037.8,2285.6z"/>
	<path class="st2" d="M1062.3,2285.6c-2.3,0-4.4-0.5-6-1.4c-1.4-0.8-2.5-1.9-3.3-3.4c-1.3-2.4-1.3-5-1.3-5.8v-13.4
		c0-0.9,0.7-1.6,1.6-1.6c0.9,0,1.6,0.7,1.6,1.6v13.4c0,0.6,0,2.6,0.9,4.3c0.5,0.9,1.2,1.6,2.1,2.2c1.1,0.6,2.6,1,4.4,1
		c1.8,0,3.3-0.4,4.4-1c0.9-0.5,1.6-1.2,2.1-2.1c0.9-1.7,0.9-3.7,0.9-4.3v-13.4c0-0.9,0.7-1.6,1.6-1.6c0.9,0,1.6,0.7,1.6,1.6v13.4
		c0,0.8,0,3.4-1.3,5.8C1070.4,2283,1067.8,2285.6,1062.3,2285.6z"/>
	<path class="st2" d="M1087.4,2285.6c-7,0-8.9-3.3-9.2-3.7c-0.4-0.8-0.1-1.8,0.6-2.2s1.7-0.1,2.2,0.6c0.1,0.1,0.4,0.5,1.2,1
		c1.6,0.9,3.7,1.1,5.1,1.1c2.1,0,3.7-0.4,4.6-1.3c0.7-0.6,0.9-1.4,0.9-2c0-1.2-0.4-2.1-1.1-2.8c-1-1-2.7-1.7-5.2-2.2
		c-1.8-0.4-3.3-1-4.5-1.8c-1-0.7-1.8-1.6-2.4-2.6c-0.9-1.6-0.9-3.1-0.9-3.4c0-1.7,0.8-3.4,2.2-4.6c0.7-0.6,1.5-1.1,2.4-1.4
		c1-0.4,2-0.5,3.1-0.5c6.3,0,8.1,3,8.3,3.3c0.4,0.8,0.2,1.8-0.6,2.2c-0.8,0.4-1.7,0.2-2.2-0.6c-0.1-0.1-0.4-0.4-1.1-0.8
		c-0.8-0.4-2.2-0.9-4.5-0.9c-1.8,0-2.8,0.6-3.4,1.2c-0.7,0.6-1.1,1.4-1.1,2.3v0.1c0,0.1,0,0.9,0.6,1.9c0.4,0.6,0.8,1.1,1.5,1.5
		c0.8,0.5,1.9,1,3.2,1.3c3.1,0.6,5.3,1.6,6.8,3.1c1.4,1.3,2.1,3.1,2.1,5.1c0,1.7-0.7,3.2-1.9,4.4
		C1092.7,2284.9,1090.4,2285.6,1087.4,2285.6z"/>
	<path class="st2" d="M851.7,2317.6c-1.1,0-2.1-0.2-3.1-0.6c-0.9-0.4-1.8-1-2.5-1.7c-0.7-0.7-1.3-1.6-1.7-2.5c-0.4-1-0.6-2-0.6-3
		c0-1.1,0.2-2.1,0.6-3c0.4-0.9,1-1.8,1.7-2.5c0.7-0.7,1.6-1.3,2.5-1.7c1-0.4,2-0.6,3.1-0.6c1.7,0,3.4,0.5,4.7,1.6
		c0.4,0.3,0.5,0.9,0.2,1.3c-0.3,0.4-0.9,0.5-1.3,0.2c-1-0.8-2.2-1.2-3.5-1.2c-0.8,0-1.6,0.2-2.4,0.5c-0.7,0.3-1.4,0.7-1.9,1.3
		c-0.5,0.5-1,1.2-1.3,1.9s-0.5,1.5-0.5,2.3s0.2,1.5,0.5,2.3c0.3,0.7,0.7,1.3,1.3,1.9c1.1,1.1,2.6,1.8,4.2,1.8c0.7,0,1.4-0.1,2-0.4
		c0.6-0.2,1.2-0.6,1.7-1c0.4-0.3,1-0.3,1.3,0.1c0.3,0.4,0.3,1-0.1,1.3c-0.7,0.6-1.5,1-2.3,1.3
		C853.5,2317.4,852.6,2317.6,851.7,2317.6z"/>
	<path class="st2" d="M869.9,2317.7c-1.1,0-2.1-0.2-3.1-0.6c-0.9-0.4-1.8-1-2.5-1.7c-0.7-0.7-1.3-1.6-1.7-2.5c-0.4-1-0.6-2-0.6-3
		c0-1.1,0.2-2.1,0.6-3c0.4-0.9,1-1.8,1.7-2.5c0.7-0.7,1.6-1.3,2.5-1.7c1-0.4,2-0.6,3.1-0.6c2.1,0,4.1,0.8,5.5,2.3
		c0.7,0.7,1.3,1.6,1.6,2.5c0.4,1,0.6,2,0.6,3c0,1.1-0.2,2.1-0.6,3c-0.4,0.9-0.9,1.8-1.7,2.5C874,2316.9,872,2317.7,869.9,2317.7z
		 M869.9,2303.9c-0.8,0-1.6,0.2-2.4,0.5c-0.7,0.3-1.4,0.7-1.9,1.3c-0.6,0.5-1,1.2-1.3,1.9c-0.3,0.7-0.5,1.5-0.5,2.3s0.2,1.5,0.5,2.3
		c0.3,0.7,0.7,1.3,1.3,1.9c1.1,1.1,2.6,1.8,4.2,1.8s3.1-0.6,4.2-1.8c0.5-0.5,0.9-1.2,1.3-1.9c0.3-0.7,0.4-1.5,0.4-2.3
		c0-1.6-0.6-3.1-1.7-4.2C873,2304.5,871.5,2303.9,869.9,2303.9z"/>
	<path class="st2" d="M896.6,2317.3c-0.5,0-1-0.4-1-1V2306l-4.7,6.5c-0.2,0.3-0.5,0.4-0.8,0.4s-0.6-0.1-0.8-0.4l-4.7-6.5v10.3
		c0,0.5-0.4,1-1,1c-0.5,0-1-0.4-1-1v-13.2c0-0.4,0.3-0.8,0.7-0.9c0.4-0.1,0.8,0,1.1,0.3l5.7,7.8l5.7-7.8c0.3-0.3,0.7-0.5,1.1-0.3
		c0.4,0.1,0.7,0.5,0.7,0.9v13.2C897.5,2316.8,897.1,2317.3,896.6,2317.3z"/>
	<path class="st2" d="M916.5,2317.3c-0.5,0-1-0.4-1-1V2306l-4.7,6.5c-0.2,0.3-0.5,0.4-0.8,0.4s-0.6-0.1-0.8-0.4l-4.7-6.5v10.3
		c0,0.5-0.4,1-1,1c-0.5,0-1-0.4-1-1v-13.2c0-0.4,0.3-0.8,0.7-0.9c0.4-0.1,0.8,0,1.1,0.3l5.7,7.8l5.7-7.8c0.3-0.3,0.7-0.5,1.1-0.3
		c0.4,0.1,0.7,0.5,0.7,0.9v13.2C917.4,2316.8,917,2317.3,916.5,2317.3z"/>
	<path class="st2" d="M928.8,2317.6c-1.4,0-2.6-0.3-3.6-0.9c-0.8-0.5-1.5-1.2-2-2c-0.8-1.5-0.8-3-0.8-3.5v-8c0-0.5,0.4-1,1-1
		c0.5,0,1,0.4,1,1v8c0,0.4,0,1.5,0.6,2.6c0.3,0.6,0.7,1,1.3,1.3c0.7,0.4,1.6,0.6,2.6,0.6s2-0.2,2.6-0.6c0.5-0.3,0.9-0.7,1.2-1.3
		c0.6-1,0.6-2.2,0.6-2.6v-8c0-0.5,0.4-1,1-1c0.5,0,1,0.4,1,1v8c0,0.5,0,2-0.8,3.5C933.7,2316,932.1,2317.6,928.8,2317.6z"/>
	<path class="st2" d="M952.2,2317.4c-0.3,0-0.6-0.1-0.8-0.3l-9.3-11.2v10.6c0,0.5-0.4,1-1,1c-0.5,0-1-0.4-1-1v-13.2
		c0-0.4,0.2-0.8,0.6-0.9c0.4-0.1,0.8,0,1.1,0.3l9.3,11.2v-10.5c0-0.5,0.4-1,1-1c0.5,0,1,0.4,1,1v13.2c0,0.4-0.3,0.8-0.6,0.9
		C952.4,2317.4,952.3,2317.4,952.2,2317.4z"/>
	<path class="st2" d="M959.1,2317.4c-0.5,0-1-0.4-1-1v-13.2c0-0.5,0.4-1,1-1c0.5,0,1,0.4,1,1v13.2
		C960.1,2316.9,959.7,2317.4,959.1,2317.4z"/>
	<path class="st2" d="M977.4,2303.2c0,0.5-0.4,1-1,1h-4.2v12.3c0,0.5-0.4,1-1,1c-0.5,0-1-0.4-1-1v-12.3h-4.2c-0.5,0-1-0.4-1-1
		c0-0.5,0.4-1,1-1h10.4C977,2302.2,977.4,2302.6,977.4,2303.2z"/>
	<path class="st2" d="M994.6,2303.7l-5,7.5v5.2c0,0.5-0.4,1-1,1c-0.5,0-1-0.4-1-1v-5.2l-5-7.5c-0.3-0.4-0.2-1,0.3-1.3
		c0.4-0.3,1-0.2,1.3,0.3l4.4,6.6l4.4-6.6c0.3-0.4,0.9-0.6,1.3-0.3C994.7,2302.7,994.8,2303.3,994.6,2303.7z"/>
</g>
<g>
	<path d="M316.3,2029.7l-10.2-5.9l-10.2-5.9l-10.3,5.9l-10.2,5.9l-63.9,36.9v97.4l9.2,5.3l10.2,5.9l65,37.5l65-37.5l10.2-5.9
		l9.2-5.3v-97.4L316.3,2029.7z M367.7,2156.8l-5.7,3.3c-4.6-4.2-9.6-7.9-14.9-11.1c-4-2.5-8.2-4.7-12.6-6.5
		c-11.8-5.1-24.9-7.9-38.6-7.9c-13.7,0-26.7,2.8-38.6,7.9c-4.4,1.9-8.6,4-12.6,6.5l11.6,6.7l39.6,22.8l39.6-22.8
		c5.7,2.9,11.1,6.5,16,10.5l-55.6,32.1l-55.6-32.1l-10.6-6.1l-5.7-3.3v-5.6c6-2,11.7-4.5,17.1-7.6c4.2-2.4,8.2-5,12-7.9
		c20.5-15.9,34.7-39.7,37.8-66.8c0.4-3.7,0.6-7.5,0.6-11.3c0-1,0-1.9-0.1-2.9l-11.6,6.7l-38.7,22.4v46.3c-5.3,3.6-11.1,6.5-17.1,8.9
		v-65.1l54.6-31.5l10.6-6.1l6.7-3.8l6.7,3.9c-0.9,4.5-1.6,9.1-1.9,13.8c-0.1,1.6-0.2,3.2-0.2,4.8c-0.1,4.8,0.2,9.6,0.8,14.2
		c2.5,19.3,10.6,37.5,23.8,52.4c4.1,4.7,8.6,9,13.5,12.7c3.8,3,7.8,5.7,12,8v-58.6l-38.3-22.1c-0.2-3.6-0.2-7.2,0-10.8
		c0.2-2.8,0.5-5.7,0.9-8.4l54.5,31.4V2156.8z M321.4,2149.9l-25.6,14.7l-25.6-14.8c8.1-2.5,16.7-3.8,25.6-3.8
		C304.8,2146.1,313.3,2147.4,321.4,2149.9z M253.1,2120.4v-29.8l24.8-14.3C274.2,2093.4,265.4,2108.7,253.1,2120.4z M314.5,2076.7
		l24.2,14v28.3c-1.7-1.6-3.3-3.3-4.8-5C324.3,2103.1,317.7,2090.3,314.5,2076.7z"/>
</g>
<g>
	<path d="M145.6,1632.6v22c0,0.9-0.7,1.6-1.6,1.6c-0.9,0-1.6-0.7-1.6-1.6v-9.6h-13.9v9.6c0,0.9-0.7,1.6-1.6,1.6
		c-0.9,0-1.6-0.7-1.6-1.6v-22c0-0.9,0.7-1.6,1.6-1.6c0.9,0,1.6,0.7,1.6,1.6v9.2h13.9v-9.2c0-0.9,0.7-1.6,1.6-1.6
		C144.9,1631,145.6,1631.7,145.6,1632.6z"/>
	<path d="M161.4,1656.7c-2.3,0-4.4-0.5-6-1.4c-1.4-0.8-2.5-1.9-3.3-3.4c-1.3-2.4-1.3-5-1.3-5.8v-13.4c0-0.9,0.7-1.6,1.6-1.6
		c0.9,0,1.6,0.7,1.6,1.6v13.4c0,0.6,0,2.6,0.9,4.3c0.5,0.9,1.2,1.6,2.1,2.2c1.1,0.6,2.6,1,4.4,1c1.8,0,3.3-0.4,4.4-1
		c0.9-0.5,1.6-1.2,2.1-2.1c0.9-1.7,0.9-3.7,0.9-4.3v-13.4c0-0.9,0.7-1.6,1.6-1.6c0.9,0,1.6,0.7,1.6,1.6v13.4c0,0.8,0,3.4-1.3,5.8
		C169.5,1654.1,166.9,1656.7,161.4,1656.7z"/>
	<path d="M200.4,1656.2c-0.9,0-1.6-0.7-1.6-1.6v-17.1l-7.9,10.8c-0.3,0.4-0.8,0.6-1.3,0.6s-1-0.2-1.3-0.6l-7.9-10.8v17.1
		c0,0.9-0.7,1.6-1.6,1.6c-0.9,0-1.6-0.7-1.6-1.6v-22c0-0.7,0.4-1.3,1.1-1.5c0.6-0.2,1.4,0,1.8,0.6l9.5,13l9.5-13
		c0.4-0.5,1.1-0.8,1.8-0.6c0.6,0.2,1.1,0.8,1.1,1.5v22C202,1655.5,201.3,1656.2,200.4,1656.2z"/>
	<path d="M208.5,1656.3c-0.3,0-0.7-0.1-1-0.3c-0.6-0.5-0.8-1.3-0.5-2l10.7-22c0.3-0.5,0.8-0.9,1.4-0.9c0.6,0,1.2,0.4,1.4,0.9
		l10.8,22c0.4,0.8,0.1,1.7-0.7,2.1c-0.8,0.4-1.8,0.1-2.2-0.7l-2.5-5.2c-1.7-0.5-3.4-0.5-5.3-0.2c-1.8,0.3-3.6,1-5.5,2
		c-3.3,1.7-5.6,3.9-5.6,3.9C209.3,1656.2,208.9,1656.3,208.5,1656.3z M219.2,1636.4l-6.5,13.3c0.3-0.2,0.6-0.3,0.9-0.5
		c2.2-1.2,4.3-1.9,6.4-2.3c1.4-0.3,2.8-0.4,4.2-0.2L219.2,1636.4z"/>
	<path d="M255.3,1656.4c-0.5,0-0.9-0.2-1.3-0.6l-15.5-18.7v17.6c0,0.9-0.7,1.6-1.6,1.6c-0.9,0-1.6-0.7-1.6-1.6v-22
		c0-0.7,0.4-1.3,1.1-1.5c0.6-0.2,1.3,0,1.8,0.5l15.6,18.6v-17.6c0-0.9,0.7-1.6,1.6-1.6c0.9,0,1.6,0.7,1.6,1.6v22
		c0,0.7-0.4,1.3-1.1,1.5C255.6,1656.4,255.5,1656.4,255.3,1656.4z"/>
	<path d="M289.7,1656.8c-1.8,0-3.5-0.4-5.2-1.1c-1.5-0.7-3-1.6-4.2-2.8c-1.2-1.2-2.2-2.6-2.8-4.2c-0.7-1.6-1-3.3-1-5
		c0-1.8,0.4-3.5,1-5.1c0.7-1.5,1.6-3,2.9-4.1c1.2-1.2,2.7-2.2,4.2-2.8c1.6-0.7,3.4-1,5.1-1c2.9,0,5.6,0.9,7.8,2.6
		c0.7,0.5,0.8,1.5,0.3,2.2c-0.5,0.7-1.6,0.8-2.2,0.3c-1.7-1.3-3.7-2-5.9-2c-1.4,0-2.7,0.3-3.9,0.8c-1.2,0.5-2.3,1.2-3.2,2.2
		c-0.9,0.9-1.6,2-2.2,3.2s-0.8,2.5-0.8,3.8c0,1.3,0.3,2.6,0.8,3.8c0.5,1.2,1.2,2.2,2.2,3.1c1.9,1.9,4.4,3,7.1,3
		c1.2,0,2.3-0.2,3.4-0.6c1.1-0.4,2-1,2.9-1.7c0.7-0.6,1.7-0.5,2.2,0.2c0.6,0.7,0.5,1.7-0.2,2.2c-1.2,1-2.4,1.7-3.8,2.2
		C292.8,1656.5,291.2,1656.8,289.7,1656.8z"/>
	<path d="M316.8,1656.9c-1.8,0-3.5-0.4-5.1-1.1c-1.6-0.7-3-1.6-4.2-2.8c-1.2-1.2-2.2-2.6-2.8-4.2c-0.7-1.6-1-3.3-1-5
		c0-1.8,0.4-3.5,1.1-5.1c0.7-1.5,1.6-3,2.9-4.1c1.2-1.2,2.6-2.2,4.2-2.8c1.6-0.7,3.4-1,5.2-1c3.5,0,6.8,1.4,9.2,3.9
		c1.2,1.2,2.1,2.6,2.7,4.1c0.7,1.6,1,3.3,1,5c0,1.8-0.3,3.5-1,5c-0.6,1.6-1.6,3-2.8,4.2C323.6,1655.5,320.3,1656.9,316.8,1656.9z
		 M316.9,1633.9c-1.3,0-2.7,0.3-3.9,0.8c-1.2,0.5-2.3,1.2-3.2,2.2c-0.9,0.9-1.7,2-2.2,3.2c-0.5,1.2-0.8,2.5-0.8,3.8s0.3,2.6,0.8,3.8
		c0.5,1.2,1.2,2.2,2.2,3.1c1.9,1.9,4.4,3,7.1,3c2.7,0,5.1-1.1,7-2.9c0.9-0.9,1.6-2,2.1-3.1c0.5-1.2,0.7-2.5,0.7-3.8
		c0-2.6-1-5.1-2.8-6.9C322,1634.9,319.5,1633.9,316.9,1633.9z"/>
	<path d="M350.5,1656.3h-14c-0.9,0-1.6-0.7-1.6-1.6v-22c0-0.9,0.7-1.6,1.6-1.6c0.9,0,1.6,0.7,1.6,1.6v20.4h12.4
		c0.9,0,1.6,0.7,1.6,1.6C352.1,1655.6,351.4,1656.3,350.5,1656.3z"/>
	<path d="M370.2,1656.9c-1.8,0-3.5-0.4-5.1-1.1c-1.6-0.7-3-1.6-4.2-2.8c-1.2-1.2-2.2-2.6-2.8-4.2c-0.7-1.6-1-3.3-1-5
		c0-1.8,0.4-3.5,1.1-5.1c0.7-1.5,1.6-3,2.9-4.1c1.2-1.2,2.6-2.2,4.2-2.8c1.6-0.7,3.4-1,5.2-1c3.5,0,6.8,1.4,9.2,3.9
		c1.2,1.2,2.1,2.6,2.7,4.1c0.7,1.6,1,3.3,1,5c0,1.8-0.3,3.5-1,5c-0.6,1.6-1.6,3-2.8,4.2C377.1,1655.5,373.8,1656.9,370.2,1656.9z
		 M370.3,1633.9c-1.3,0-2.7,0.3-3.9,0.8c-1.2,0.5-2.3,1.2-3.2,2.2c-0.9,0.9-1.7,2-2.2,3.2c-0.5,1.2-0.8,2.5-0.8,3.8s0.3,2.6,0.8,3.8
		c0.5,1.2,1.2,2.2,2.2,3.1c1.9,1.9,4.4,3,7.1,3c2.7,0,5.1-1.1,7-2.9c0.9-0.9,1.6-2,2.1-3.1c0.5-1.2,0.7-2.5,0.7-3.8
		c0-2.6-1-5.1-2.8-6.9C375.4,1634.9,373,1633.9,370.3,1633.9z"/>
	<path d="M397.6,1656.7c-7,0-8.9-3.3-9.2-3.7c-0.4-0.8-0.1-1.8,0.6-2.2c0.8-0.4,1.7-0.1,2.2,0.6c0.1,0.1,0.4,0.5,1.2,1
		c1.6,0.9,3.7,1.1,5.1,1.1c2.1,0,3.7-0.4,4.6-1.3c0.7-0.6,0.9-1.4,0.9-2c0-1.2-0.4-2.1-1.1-2.8c-1-1-2.7-1.7-5.2-2.2
		c-1.8-0.4-3.3-1-4.5-1.8c-1-0.7-1.8-1.6-2.4-2.6c-0.9-1.6-0.9-3.1-0.9-3.4c0-1.7,0.8-3.4,2.2-4.6c0.7-0.6,1.5-1.1,2.4-1.4
		c1-0.4,2-0.5,3.1-0.5c6.3,0,8.1,3,8.3,3.3c0.4,0.8,0.2,1.8-0.6,2.2c-0.8,0.4-1.7,0.2-2.2-0.6c-0.1-0.1-0.4-0.4-1.1-0.8
		c-0.8-0.4-2.2-0.9-4.5-0.9c-1.8,0-2.8,0.6-3.4,1.2c-0.7,0.6-1.1,1.4-1.1,2.3v0.1c0,0.1,0,0.9,0.6,1.9c0.4,0.6,0.8,1.1,1.5,1.5
		c0.8,0.5,1.9,1,3.2,1.3c3.1,0.6,5.3,1.6,6.8,3.1c1.4,1.3,2.1,3.1,2.1,5.1c0,1.7-0.7,3.2-1.9,4.4
		C402.9,1656,400.6,1656.7,397.6,1656.7z"/>
	<path d="M420.8,1656.7c-7,0-8.9-3.3-9.2-3.7c-0.4-0.8-0.1-1.8,0.6-2.2c0.8-0.4,1.7-0.1,2.2,0.6c0.1,0.1,0.4,0.5,1.2,1
		c1.6,0.9,3.7,1.1,5.1,1.1c2.1,0,3.7-0.4,4.6-1.3c0.7-0.6,0.9-1.4,0.9-2c0-1.2-0.4-2.1-1.1-2.8c-1-1-2.7-1.7-5.2-2.2
		c-1.8-0.4-3.3-1-4.5-1.8c-1-0.7-1.8-1.6-2.4-2.6c-0.9-1.6-0.9-3.1-0.9-3.4c0-1.7,0.8-3.4,2.2-4.6c0.7-0.6,1.5-1.1,2.4-1.4
		c1-0.4,2-0.5,3.1-0.5c6.3,0,8.1,3,8.3,3.3c0.4,0.8,0.2,1.8-0.6,2.2c-0.8,0.4-1.7,0.2-2.2-0.6c-0.1-0.1-0.4-0.4-1.1-0.8
		c-0.8-0.4-2.2-0.9-4.5-0.9c-1.8,0-2.8,0.6-3.4,1.2c-0.7,0.6-1.1,1.4-1.1,2.3v0.1c0,0.1,0,0.9,0.6,1.9c0.4,0.6,0.8,1.1,1.5,1.5
		c0.8,0.5,1.9,1,3.2,1.3c3.1,0.6,5.3,1.6,6.8,3.1c1.4,1.3,2.1,3.1,2.1,5.1c0,1.7-0.7,3.2-1.9,4.4
		C426.1,1656,423.8,1656.7,420.8,1656.7z"/>
	<path d="M445.3,1656.7c-2.3,0-4.4-0.5-6-1.4c-1.4-0.8-2.5-1.9-3.3-3.4c-1.3-2.4-1.3-5-1.3-5.8v-13.4c0-0.9,0.7-1.6,1.6-1.6
		c0.9,0,1.6,0.7,1.6,1.6v13.4c0,0.6,0,2.6,0.9,4.3c0.5,0.9,1.2,1.6,2.1,2.2c1.1,0.6,2.6,1,4.4,1c1.8,0,3.3-0.4,4.4-1
		c0.9-0.5,1.6-1.2,2.1-2.1c0.9-1.7,0.9-3.7,0.9-4.3v-13.4c0-0.9,0.7-1.6,1.6-1.6c0.9,0,1.6,0.7,1.6,1.6v13.4c0,0.8,0,3.4-1.3,5.8
		C453.4,1654.1,450.8,1656.7,445.3,1656.7z"/>
	<path d="M470.4,1656.7c-7,0-8.9-3.3-9.2-3.7c-0.4-0.8-0.1-1.8,0.6-2.2c0.8-0.4,1.7-0.1,2.2,0.6c0.1,0.1,0.4,0.5,1.2,1
		c1.6,0.9,3.7,1.1,5.1,1.1c2.1,0,3.7-0.4,4.6-1.3c0.7-0.6,0.9-1.4,0.9-2c0-1.2-0.4-2.1-1.1-2.8c-1-1-2.7-1.7-5.2-2.2
		c-1.8-0.4-3.3-1-4.5-1.8c-1-0.7-1.8-1.6-2.4-2.6c-0.9-1.6-0.9-3.1-0.9-3.4c0-1.7,0.8-3.4,2.2-4.6c0.7-0.6,1.5-1.1,2.4-1.4
		c1-0.4,2-0.5,3.1-0.5c6.3,0,8.1,3,8.3,3.3c0.4,0.8,0.2,1.8-0.6,2.2c-0.8,0.4-1.7,0.2-2.2-0.6c-0.1-0.1-0.4-0.4-1.1-0.8
		c-0.8-0.4-2.2-0.9-4.5-0.9c-1.8,0-2.8,0.6-3.4,1.2c-0.7,0.6-1.1,1.4-1.1,2.3v0.1c0,0.1,0,0.9,0.6,1.9c0.4,0.6,0.8,1.1,1.5,1.5
		c0.8,0.5,1.9,1,3.2,1.3c3.1,0.6,5.3,1.6,6.8,3.1c1.4,1.3,2.1,3.1,2.1,5.1c0,1.7-0.7,3.2-1.9,4.4
		C475.7,1656,473.4,1656.7,470.4,1656.7z"/>
	<path d="M234.7,1688.7c-1.1,0-2.1-0.2-3.1-0.6c-0.9-0.4-1.8-1-2.5-1.7c-0.7-0.7-1.3-1.6-1.7-2.5c-0.4-1-0.6-2-0.6-3
		c0-1.1,0.2-2.1,0.6-3c0.4-0.9,1-1.8,1.7-2.5c0.7-0.7,1.6-1.3,2.5-1.7c1-0.4,2-0.6,3.1-0.6c1.7,0,3.4,0.5,4.7,1.6
		c0.4,0.3,0.5,0.9,0.2,1.3c-0.3,0.4-0.9,0.5-1.3,0.2c-1-0.8-2.2-1.2-3.5-1.2c-0.8,0-1.6,0.2-2.4,0.5c-0.7,0.3-1.4,0.7-1.9,1.3
		c-0.5,0.5-1,1.2-1.3,1.9c-0.3,0.7-0.5,1.5-0.5,2.3c0,0.8,0.2,1.5,0.5,2.3c0.3,0.7,0.7,1.3,1.3,1.9c1.1,1.1,2.6,1.8,4.2,1.8
		c0.7,0,1.4-0.1,2-0.4c0.6-0.2,1.2-0.6,1.7-1c0.4-0.3,1-0.3,1.3,0.1c0.3,0.4,0.3,1-0.1,1.3c-0.7,0.6-1.5,1-2.3,1.3
		C236.5,1688.5,235.6,1688.7,234.7,1688.7z"/>
	<path d="M252.8,1688.8c-1.1,0-2.1-0.2-3.1-0.6c-0.9-0.4-1.8-1-2.5-1.7c-0.7-0.7-1.3-1.6-1.7-2.5c-0.4-1-0.6-2-0.6-3
		c0-1.1,0.2-2.1,0.6-3c0.4-0.9,1-1.8,1.7-2.5c0.7-0.7,1.6-1.3,2.5-1.7c1-0.4,2-0.6,3.1-0.6c2.1,0,4.1,0.8,5.5,2.3
		c0.7,0.7,1.3,1.6,1.6,2.5c0.4,1,0.6,2,0.6,3c0,1.1-0.2,2.1-0.6,3c-0.4,0.9-0.9,1.8-1.7,2.5C256.9,1688,255,1688.8,252.8,1688.8z
		 M252.9,1675c-0.8,0-1.6,0.2-2.4,0.5c-0.7,0.3-1.4,0.7-1.9,1.3c-0.6,0.5-1,1.2-1.3,1.9c-0.3,0.7-0.5,1.5-0.5,2.3
		c0,0.8,0.2,1.5,0.5,2.3c0.3,0.7,0.7,1.3,1.3,1.9c1.1,1.1,2.6,1.8,4.2,1.8s3.1-0.6,4.2-1.8c0.5-0.5,0.9-1.2,1.3-1.9
		c0.3-0.7,0.4-1.5,0.4-2.3c0-1.6-0.6-3.1-1.7-4.2C256,1675.6,254.5,1675,252.9,1675z"/>
	<path d="M279.5,1688.4c-0.5,0-1-0.4-1-1v-10.3l-4.7,6.5c-0.2,0.2-0.5,0.4-0.8,0.4c-0.3,0-0.6-0.1-0.8-0.4l-4.7-6.5v10.3
		c0,0.5-0.4,1-1,1c-0.5,0-1-0.4-1-1v-13.2c0-0.4,0.3-0.8,0.7-0.9c0.4-0.1,0.8,0,1.1,0.3l5.7,7.8l5.7-7.8c0.3-0.3,0.7-0.5,1.1-0.3
		c0.4,0.1,0.7,0.5,0.7,0.9v13.2C280.5,1688,280.1,1688.4,279.5,1688.4z"/>
	<path d="M299.4,1688.4c-0.5,0-1-0.4-1-1v-10.3l-4.7,6.5c-0.2,0.2-0.5,0.4-0.8,0.4c-0.3,0-0.6-0.1-0.8-0.4l-4.7-6.5v10.3
		c0,0.5-0.4,1-1,1c-0.5,0-1-0.4-1-1v-13.2c0-0.4,0.3-0.8,0.7-0.9c0.4-0.1,0.8,0,1.1,0.3l5.7,7.8l5.7-7.8c0.3-0.3,0.7-0.5,1.1-0.3
		c0.4,0.1,0.7,0.5,0.7,0.9v13.2C300.4,1688,300,1688.4,299.4,1688.4z"/>
	<path d="M311.8,1688.7c-1.4,0-2.6-0.3-3.6-0.9c-0.8-0.5-1.5-1.2-2-2c-0.8-1.5-0.8-3-0.8-3.5v-8c0-0.5,0.4-1,1-1c0.5,0,1,0.4,1,1v8
		c0,0.4,0,1.5,0.6,2.6c0.3,0.6,0.7,1,1.3,1.3c0.7,0.4,1.6,0.6,2.6,0.6c1.1,0,2-0.2,2.6-0.6c0.5-0.3,0.9-0.7,1.2-1.3
		c0.6-1,0.6-2.2,0.6-2.6v-8c0-0.5,0.4-1,1-1c0.5,0,1,0.4,1,1v8c0,0.5,0,2-0.8,3.5C316.7,1687.1,315.1,1688.7,311.8,1688.7z"/>
	<path d="M335.2,1688.5c-0.3,0-0.6-0.1-0.8-0.3l-9.3-11.2v10.6c0,0.5-0.4,1-1,1s-1-0.4-1-1v-13.2c0-0.4,0.3-0.8,0.6-0.9
		c0.4-0.1,0.8,0,1.1,0.3l9.3,11.2v-10.5c0-0.5,0.4-1,1-1c0.5,0,1,0.4,1,1v13.2c0,0.4-0.3,0.8-0.6,0.9
		C335.4,1688.5,335.3,1688.5,335.2,1688.5z"/>
	<path d="M342.1,1688.5c-0.5,0-1-0.4-1-1v-13.2c0-0.5,0.4-1,1-1c0.5,0,1,0.4,1,1v13.2C343.1,1688,342.6,1688.5,342.1,1688.5z"/>
	<path d="M360.4,1674.3c0,0.5-0.4,1-1,1h-4.2v12.3c0,0.5-0.4,1-1,1c-0.5,0-1-0.4-1-1v-12.3H349c-0.5,0-1-0.4-1-1c0-0.5,0.4-1,1-1
		h10.4C360,1673.3,360.4,1673.7,360.4,1674.3z"/>
	<path d="M377.5,1674.8l-5,7.5v5.2c0,0.5-0.4,1-1,1c-0.5,0-1-0.4-1-1v-5.2l-5-7.5c-0.3-0.4-0.2-1,0.3-1.3c0.4-0.3,1-0.2,1.3,0.3
		l4.4,6.6l4.4-6.6c0.3-0.4,0.9-0.6,1.3-0.3C377.7,1673.8,377.8,1674.4,377.5,1674.8z"/>
</g>
<g>
	<path class="st0" d="M316.3,1400.8l-10.2-5.9l-10.2-5.9l-10.3,5.9l-10.2,5.9l-63.9,36.9v97.4l9.2,5.3l10.2,5.9l65,37.5l65-37.5
		l10.2-5.9l9.2-5.3v-97.4L316.3,1400.8z M367.7,1527.9l-5.7,3.3c-4.6-4.2-9.6-7.9-14.9-11.1c-4-2.5-8.2-4.7-12.6-6.5
		c-11.8-5.1-24.9-7.9-38.6-7.9c-13.7,0-26.7,2.8-38.6,7.9c-4.4,1.9-8.6,4-12.6,6.5l11.6,6.7l39.6,22.8l39.6-22.8
		c5.7,2.9,11.1,6.5,16,10.5l-55.6,32.1l-55.6-32.1l-10.6-6.1l-5.7-3.3v-5.6c6-2,11.7-4.5,17.1-7.6c4.2-2.4,8.2-5,12-7.9
		c20.5-15.9,34.7-39.7,37.8-66.8c0.4-3.7,0.6-7.5,0.6-11.3c0-1,0-1.9-0.1-2.9l-11.6,6.7l-38.7,22.4v46.3c-5.3,3.6-11.1,6.5-17.1,8.9
		v-65.1l54.6-31.5l10.6-6.1l6.7-3.8l6.7,3.9c-0.9,4.5-1.6,9.1-1.9,13.8c-0.1,1.6-0.2,3.2-0.2,4.8c-0.1,4.8,0.2,9.6,0.8,14.2
		c2.5,19.3,10.6,37.5,23.8,52.4c4.1,4.7,8.6,9,13.5,12.7c3.8,3,7.8,5.7,12,8v-58.6l-38.3-22.1c-0.2-3.6-0.2-7.2,0-10.8
		c0.2-2.8,0.5-5.7,0.9-8.4l54.5,31.4V1527.9z M321.4,1521l-25.6,14.7l-25.6-14.8c8.1-2.5,16.7-3.8,25.6-3.8
		C304.8,1517.2,313.3,1518.5,321.4,1521z M253.1,1491.5v-29.8l24.8-14.3C274.2,1464.5,265.4,1479.8,253.1,1491.5z M314.5,1447.8
		l24.2,14v28.3c-1.7-1.6-3.3-3.3-4.8-5C324.3,1474.2,317.7,1461.4,314.5,1447.8z"/>
</g>
<g>
	<path class="st2" d="M940.1,2029.7l-10.2-5.9l-10.2-5.9l-10.3,5.9l-10.2,5.9l-63.9,36.9v97.4l9.2,5.3l10.2,5.9l65,37.5l65-37.5
		l10.2-5.9l9.2-5.3v-97.4L940.1,2029.7z M991.5,2156.8l-5.7,3.3c-4.6-4.2-9.6-7.9-14.9-11.1c-4-2.5-8.2-4.7-12.6-6.5
		c-11.8-5.1-24.9-7.9-38.6-7.9c-13.7,0-26.7,2.8-38.6,7.9c-4.4,1.9-8.6,4-12.6,6.5l11.6,6.7l39.6,22.8l39.6-22.8
		c5.7,2.9,11.1,6.5,16,10.5l-55.6,32.1l-55.6-32.1l-10.6-6.1l-5.7-3.3v-5.6c6-2,11.7-4.5,17.1-7.6c4.2-2.4,8.2-5,12-7.9
		c20.5-15.9,34.7-39.7,37.8-66.8c0.4-3.7,0.6-7.5,0.6-11.3c0-1,0-1.9-0.1-2.9l-11.6,6.7l-38.7,22.4v46.3c-5.3,3.6-11.1,6.5-17.1,8.9
		v-65.1l54.6-31.5l10.6-6.1l6.7-3.8l6.7,3.9c-0.9,4.5-1.6,9.1-1.9,13.8c-0.1,1.6-0.2,3.2-0.2,4.8c-0.1,4.8,0.2,9.6,0.8,14.2
		c2.5,19.3,10.6,37.5,23.8,52.4c4.1,4.7,8.6,9,13.5,12.7c3.8,3,7.8,5.7,12,8v-58.6l-38.3-22.1c-0.2-3.6-0.2-7.2,0-10.8
		c0.2-2.8,0.5-5.7,0.9-8.4l54.5,31.4V2156.8z M945.3,2149.9l-25.6,14.7l-25.6-14.8c8.1-2.5,16.7-3.8,25.6-3.8
		C928.6,2146.1,937.2,2147.4,945.3,2149.9z M877,2120.4v-29.8l24.8-14.3C898,2093.4,889.2,2108.7,877,2120.4z M938.3,2076.7l24.2,14
		v28.3c-1.7-1.6-3.3-3.3-4.8-5C948.1,2103.1,941.5,2090.3,938.3,2076.7z"/>
</g>
<g>
	<path d="M762.6,1632.6v22c0,0.9-0.7,1.6-1.6,1.6c-0.9,0-1.6-0.7-1.6-1.6v-9.6h-13.9v9.6c0,0.9-0.7,1.6-1.6,1.6
		c-0.9,0-1.6-0.7-1.6-1.6v-22c0-0.9,0.7-1.6,1.6-1.6c0.9,0,1.6,0.7,1.6,1.6v9.2h13.9v-9.2c0-0.9,0.7-1.6,1.6-1.6
		C761.9,1631,762.6,1631.7,762.6,1632.6z"/>
	<path d="M778.4,1656.7c-2.3,0-4.4-0.5-6-1.4c-1.4-0.8-2.5-1.9-3.3-3.4c-1.3-2.4-1.3-5-1.3-5.8v-13.4c0-0.9,0.7-1.6,1.6-1.6
		c0.9,0,1.6,0.7,1.6,1.6v13.4c0,0.6,0,2.6,0.9,4.3c0.5,0.9,1.2,1.6,2.1,2.2c1.1,0.6,2.6,1,4.4,1c1.8,0,3.3-0.4,4.4-1
		c0.9-0.5,1.6-1.2,2.1-2.1c0.9-1.7,0.9-3.7,0.9-4.3v-13.4c0-0.9,0.7-1.6,1.6-1.6c0.9,0,1.6,0.7,1.6,1.6v13.4c0,0.8,0,3.4-1.3,5.8
		C786.5,1654.1,783.9,1656.7,778.4,1656.7z"/>
	<path d="M817.4,1656.2c-0.9,0-1.6-0.7-1.6-1.6v-17.1l-7.9,10.8c-0.3,0.4-0.8,0.6-1.3,0.6c-0.5,0-1-0.2-1.3-0.6l-7.9-10.8v17.1
		c0,0.9-0.7,1.6-1.6,1.6c-0.9,0-1.6-0.7-1.6-1.6v-22c0-0.7,0.5-1.3,1.1-1.5c0.6-0.2,1.4,0,1.8,0.6l9.5,13l9.5-13
		c0.4-0.5,1.1-0.8,1.8-0.6c0.6,0.2,1.1,0.8,1.1,1.5v22C819,1655.5,818.3,1656.2,817.4,1656.2z"/>
	<path d="M825.6,1656.3c-0.3,0-0.7-0.1-1-0.3c-0.6-0.4-0.8-1.3-0.5-2l10.7-22c0.3-0.5,0.8-0.9,1.4-0.9s1.2,0.4,1.4,0.9l10.8,22
		c0.4,0.8,0.1,1.7-0.7,2.1c-0.8,0.4-1.8,0.1-2.2-0.7l-2.5-5.2c-1.7-0.5-3.4-0.5-5.3-0.2c-1.8,0.3-3.6,1-5.5,2
		c-3.3,1.7-5.6,3.9-5.6,3.9C826.4,1656.2,826,1656.3,825.6,1656.3z M836.3,1636.4l-6.5,13.3c0.3-0.2,0.6-0.3,0.9-0.5
		c2.2-1.2,4.3-1.9,6.4-2.3c1.4-0.3,2.8-0.4,4.2-0.2L836.3,1636.4z"/>
	<path d="M872.3,1656.4c-0.5,0-0.9-0.2-1.3-0.6l-15.5-18.7v17.6c0,0.9-0.7,1.6-1.6,1.6c-0.9,0-1.6-0.7-1.6-1.6v-22
		c0-0.7,0.4-1.3,1.1-1.5c0.6-0.2,1.3,0,1.8,0.5l15.6,18.6v-17.6c0-0.9,0.7-1.6,1.6-1.6c0.9,0,1.6,0.7,1.6,1.6v22
		c0,0.7-0.5,1.3-1.1,1.5C872.7,1656.4,872.5,1656.4,872.3,1656.4z"/>
	<path d="M906.7,1656.8c-1.8,0-3.5-0.4-5.2-1.1c-1.5-0.7-3-1.6-4.2-2.8c-1.2-1.2-2.2-2.6-2.8-4.2c-0.7-1.6-1-3.3-1-5
		c0-1.8,0.4-3.5,1-5.1c0.7-1.5,1.6-3,2.9-4.1c1.2-1.2,2.7-2.2,4.2-2.8c1.6-0.7,3.4-1,5.1-1c2.9,0,5.6,0.9,7.8,2.6
		c0.7,0.5,0.8,1.5,0.3,2.2c-0.5,0.7-1.6,0.8-2.2,0.3c-1.7-1.3-3.7-2-5.9-2c-1.3,0-2.7,0.3-3.9,0.8c-1.2,0.5-2.3,1.2-3.2,2.2
		c-0.9,0.9-1.6,2-2.2,3.1c-0.5,1.2-0.8,2.5-0.8,3.8c0,1.3,0.3,2.6,0.8,3.8c0.5,1.2,1.2,2.2,2.2,3.2c1.9,1.9,4.4,3,7.1,3
		c1.2,0,2.3-0.2,3.4-0.6c1.1-0.4,2-1,2.9-1.7c0.7-0.6,1.7-0.5,2.2,0.2c0.6,0.7,0.5,1.7-0.2,2.2c-1.2,1-2.4,1.7-3.8,2.2
		C909.8,1656.5,908.3,1656.8,906.7,1656.8z"/>
	<path d="M933.8,1656.9c-1.8,0-3.5-0.4-5.1-1.1c-1.6-0.7-3-1.6-4.2-2.8c-1.2-1.2-2.2-2.6-2.8-4.2c-0.7-1.6-1-3.3-1-5
		c0-1.8,0.4-3.5,1.1-5.1c0.7-1.5,1.6-3,2.9-4.1c1.2-1.2,2.6-2.2,4.2-2.8c1.6-0.7,3.4-1,5.2-1c3.5,0,6.8,1.4,9.2,3.9
		c1.2,1.2,2.1,2.6,2.7,4.1c0.7,1.6,1,3.3,1,5c0,1.8-0.3,3.5-1,5c-0.6,1.6-1.6,3-2.8,4.2C940.7,1655.5,937.4,1656.9,933.8,1656.9z
		 M933.9,1633.9c-1.3,0-2.7,0.3-3.9,0.8c-1.2,0.5-2.3,1.2-3.2,2.2c-0.9,0.9-1.7,2-2.2,3.1c-0.5,1.2-0.8,2.5-0.8,3.8
		c0,1.3,0.3,2.6,0.8,3.8c0.5,1.2,1.2,2.2,2.2,3.1c1.9,1.9,4.4,3,7.1,3c2.7,0,5.1-1.1,7-2.9c0.9-0.9,1.6-2,2.1-3.1
		c0.5-1.2,0.7-2.5,0.7-3.8c0-2.6-1-5.1-2.8-6.9C939,1634.9,936.6,1633.9,933.9,1633.9z"/>
	<path d="M967.5,1656.3h-14c-0.9,0-1.6-0.7-1.6-1.6v-22c0-0.9,0.7-1.6,1.6-1.6c0.9,0,1.6,0.7,1.6,1.6v20.4h12.4
		c0.9,0,1.6,0.7,1.6,1.6S968.4,1656.3,967.5,1656.3z"/>
	<path d="M987.3,1656.9c-1.8,0-3.5-0.4-5.1-1.1c-1.6-0.7-3-1.6-4.2-2.8c-1.2-1.2-2.2-2.6-2.8-4.2c-0.7-1.6-1-3.3-1-5
		c0-1.8,0.4-3.5,1.1-5.1c0.7-1.5,1.6-3,2.9-4.1c1.2-1.2,2.6-2.2,4.2-2.8c1.6-0.7,3.4-1,5.2-1c3.5,0,6.8,1.4,9.2,3.9
		c1.2,1.2,2.1,2.6,2.7,4.1c0.7,1.6,1,3.3,1,5c0,1.8-0.3,3.5-1,5c-0.6,1.6-1.6,3-2.8,4.2C994.1,1655.5,990.8,1656.9,987.3,1656.9z
		 M987.4,1633.9c-1.3,0-2.7,0.3-3.9,0.8c-1.2,0.5-2.3,1.2-3.2,2.2c-0.9,0.9-1.7,2-2.2,3.1c-0.5,1.2-0.8,2.5-0.8,3.8
		c0,1.3,0.3,2.6,0.8,3.8c0.5,1.2,1.2,2.2,2.2,3.1c1.9,1.9,4.4,3,7.1,3c2.7,0,5.1-1.1,7-2.9c0.9-0.9,1.6-2,2.1-3.1
		c0.5-1.2,0.7-2.5,0.7-3.8c0-2.6-1-5.1-2.8-6.9C992.5,1634.9,990,1633.9,987.4,1633.9z"/>
	<path d="M1014.6,1656.7c-7,0-8.9-3.3-9.2-3.7c-0.4-0.8-0.1-1.8,0.6-2.2s1.7-0.1,2.2,0.6c0.1,0.1,0.4,0.5,1.2,1
		c1.6,0.9,3.7,1.1,5.1,1.1c2.1,0,3.7-0.4,4.6-1.3c0.7-0.6,0.9-1.4,0.9-2c0-1.2-0.4-2.1-1.1-2.8c-1-1-2.7-1.7-5.2-2.2
		c-1.8-0.4-3.3-1-4.5-1.8c-1-0.7-1.8-1.6-2.4-2.6c-0.9-1.6-0.9-3.1-0.9-3.4c0-1.7,0.8-3.4,2.2-4.6c0.7-0.6,1.5-1.1,2.4-1.4
		c1-0.4,2-0.5,3.1-0.5c6.3,0,8.1,3,8.3,3.3c0.4,0.8,0.2,1.8-0.6,2.2c-0.8,0.4-1.7,0.2-2.2-0.6c-0.1-0.1-0.4-0.4-1.1-0.8
		c-0.8-0.4-2.2-0.9-4.5-0.9c-1.8,0-2.8,0.6-3.4,1.2c-0.7,0.6-1.1,1.4-1.1,2.3v0.1c0,0.1,0,0.9,0.6,1.9c0.4,0.6,0.8,1.1,1.5,1.5
		c0.8,0.5,1.9,1,3.2,1.3c3.1,0.6,5.3,1.6,6.8,3.1c1.4,1.3,2.1,3.1,2.1,5.1c0,1.7-0.7,3.2-1.9,4.4
		C1019.9,1656,1017.6,1656.7,1014.6,1656.7z"/>
	<path d="M1037.8,1656.7c-7,0-8.9-3.3-9.2-3.7c-0.4-0.8-0.1-1.8,0.6-2.2s1.7-0.1,2.2,0.6c0.1,0.1,0.4,0.5,1.2,1
		c1.6,0.9,3.7,1.1,5.1,1.1c2.1,0,3.7-0.4,4.6-1.3c0.7-0.6,0.9-1.4,0.9-2c0-1.2-0.4-2.1-1.1-2.8c-1-1-2.7-1.7-5.2-2.2
		c-1.8-0.4-3.3-1-4.5-1.8c-1-0.7-1.8-1.6-2.4-2.6c-0.9-1.6-0.9-3.1-0.9-3.4c0-1.7,0.8-3.4,2.2-4.6c0.7-0.6,1.5-1.1,2.4-1.4
		c1-0.4,2-0.5,3.1-0.5c6.3,0,8.1,3,8.3,3.3c0.4,0.8,0.2,1.8-0.6,2.2c-0.8,0.4-1.7,0.2-2.2-0.6c-0.1-0.1-0.4-0.4-1.1-0.8
		c-0.8-0.4-2.2-0.9-4.5-0.9c-1.8,0-2.8,0.6-3.4,1.2c-0.7,0.6-1.1,1.4-1.1,2.3v0.1c0,0.1,0,0.9,0.6,1.9c0.4,0.6,0.8,1.1,1.5,1.5
		c0.8,0.5,1.9,1,3.2,1.3c3.1,0.6,5.3,1.6,6.8,3.1c1.4,1.3,2.1,3.1,2.1,5.1c0,1.7-0.7,3.2-1.9,4.4
		C1043.1,1656,1040.8,1656.7,1037.8,1656.7z"/>
	<path d="M1062.3,1656.7c-2.3,0-4.4-0.5-6-1.4c-1.4-0.8-2.5-1.9-3.3-3.4c-1.3-2.4-1.3-5-1.3-5.8v-13.4c0-0.9,0.7-1.6,1.6-1.6
		c0.9,0,1.6,0.7,1.6,1.6v13.4c0,0.6,0,2.6,0.9,4.3c0.5,0.9,1.2,1.6,2.1,2.2c1.1,0.6,2.6,1,4.4,1c1.8,0,3.3-0.4,4.4-1
		c0.9-0.5,1.6-1.2,2.1-2.1c0.9-1.7,0.9-3.7,0.9-4.3v-13.4c0-0.9,0.7-1.6,1.6-1.6c0.9,0,1.6,0.7,1.6,1.6v13.4c0,0.8,0,3.4-1.3,5.8
		C1070.4,1654.1,1067.8,1656.7,1062.3,1656.7z"/>
	<path d="M1087.4,1656.7c-7,0-8.9-3.3-9.2-3.7c-0.4-0.8-0.1-1.8,0.6-2.2s1.7-0.1,2.2,0.6c0.1,0.1,0.4,0.5,1.2,1
		c1.6,0.9,3.7,1.1,5.1,1.1c2.1,0,3.7-0.4,4.6-1.3c0.7-0.6,0.9-1.4,0.9-2c0-1.2-0.4-2.1-1.1-2.8c-1-1-2.7-1.7-5.2-2.2
		c-1.8-0.4-3.3-1-4.5-1.8c-1-0.7-1.8-1.6-2.4-2.6c-0.9-1.6-0.9-3.1-0.9-3.4c0-1.7,0.8-3.4,2.2-4.6c0.7-0.6,1.5-1.1,2.4-1.4
		c1-0.4,2-0.5,3.1-0.5c6.3,0,8.1,3,8.3,3.3c0.4,0.8,0.2,1.8-0.6,2.2c-0.8,0.4-1.7,0.2-2.2-0.6c-0.1-0.1-0.4-0.4-1.1-0.8
		c-0.8-0.4-2.2-0.9-4.5-0.9c-1.8,0-2.8,0.6-3.4,1.2c-0.7,0.6-1.1,1.4-1.1,2.3v0.1c0,0.1,0,0.9,0.6,1.9c0.4,0.6,0.8,1.1,1.5,1.5
		c0.8,0.5,1.9,1,3.2,1.3c3.1,0.6,5.3,1.6,6.8,3.1c1.4,1.3,2.1,3.1,2.1,5.1c0,1.7-0.7,3.2-1.9,4.4
		C1092.7,1656,1090.4,1656.7,1087.4,1656.7z"/>
	<path d="M851.7,1688.7c-1.1,0-2.1-0.2-3.1-0.6c-0.9-0.4-1.8-1-2.5-1.7c-0.7-0.7-1.3-1.6-1.7-2.5c-0.4-1-0.6-2-0.6-3
		c0-1.1,0.2-2.1,0.6-3c0.4-0.9,1-1.8,1.7-2.5c0.7-0.7,1.6-1.3,2.5-1.7c1-0.4,2-0.6,3.1-0.6c1.7,0,3.4,0.5,4.7,1.6
		c0.4,0.3,0.5,0.9,0.2,1.3c-0.3,0.4-0.9,0.5-1.3,0.2c-1-0.8-2.2-1.2-3.5-1.2c-0.8,0-1.6,0.2-2.4,0.5c-0.7,0.3-1.4,0.7-1.9,1.3
		c-0.5,0.5-1,1.2-1.3,1.9s-0.5,1.5-0.5,2.3c0,0.8,0.2,1.5,0.5,2.3c0.3,0.7,0.7,1.3,1.3,1.9c1.1,1.1,2.6,1.8,4.2,1.8
		c0.7,0,1.4-0.1,2-0.4c0.6-0.2,1.2-0.6,1.7-1c0.4-0.3,1-0.3,1.3,0.1c0.3,0.4,0.3,1-0.1,1.3c-0.7,0.6-1.5,1-2.3,1.3
		C853.5,1688.5,852.6,1688.7,851.7,1688.7z"/>
	<path d="M869.9,1688.8c-1.1,0-2.1-0.2-3.1-0.6c-0.9-0.4-1.8-1-2.5-1.7c-0.7-0.7-1.3-1.6-1.7-2.5c-0.4-1-0.6-2-0.6-3
		c0-1.1,0.2-2.1,0.6-3c0.4-0.9,1-1.8,1.7-2.5c0.7-0.7,1.6-1.3,2.5-1.7c1-0.4,2-0.6,3.1-0.6c2.1,0,4.1,0.8,5.5,2.3
		c0.7,0.7,1.3,1.6,1.6,2.5c0.4,1,0.6,2,0.6,3c0,1.1-0.2,2.1-0.6,3c-0.4,0.9-0.9,1.8-1.7,2.5C874,1688,872,1688.8,869.9,1688.8z
		 M869.9,1675c-0.8,0-1.6,0.2-2.4,0.5c-0.7,0.3-1.4,0.7-1.9,1.3c-0.6,0.5-1,1.2-1.3,1.9c-0.3,0.7-0.5,1.5-0.5,2.3
		c0,0.8,0.2,1.5,0.5,2.3c0.3,0.7,0.7,1.3,1.3,1.9c1.1,1.1,2.6,1.8,4.2,1.8s3.1-0.6,4.2-1.8c0.5-0.5,0.9-1.2,1.3-1.9
		c0.3-0.7,0.4-1.5,0.4-2.3c0-1.6-0.6-3.1-1.7-4.2C873,1675.6,871.5,1675,869.9,1675z"/>
	<path d="M896.6,1688.4c-0.5,0-1-0.4-1-1v-10.3l-4.7,6.5c-0.2,0.3-0.5,0.4-0.8,0.4s-0.6-0.1-0.8-0.4l-4.7-6.5v10.3c0,0.5-0.4,1-1,1
		c-0.5,0-1-0.4-1-1v-13.2c0-0.4,0.3-0.8,0.7-0.9c0.4-0.1,0.8,0,1.1,0.3l5.7,7.8l5.7-7.8c0.3-0.3,0.7-0.5,1.1-0.3
		c0.4,0.1,0.7,0.5,0.7,0.9v13.2C897.5,1688,897.1,1688.4,896.6,1688.4z"/>
	<path d="M916.5,1688.4c-0.5,0-1-0.4-1-1v-10.3l-4.7,6.5c-0.2,0.3-0.5,0.4-0.8,0.4s-0.6-0.1-0.8-0.4l-4.7-6.5v10.3c0,0.5-0.4,1-1,1
		c-0.5,0-1-0.4-1-1v-13.2c0-0.4,0.3-0.8,0.7-0.9c0.4-0.1,0.8,0,1.1,0.3l5.7,7.8l5.7-7.8c0.3-0.3,0.7-0.5,1.1-0.3
		c0.4,0.1,0.7,0.5,0.7,0.9v13.2C917.4,1688,917,1688.4,916.5,1688.4z"/>
	<path d="M928.8,1688.7c-1.4,0-2.6-0.3-3.6-0.9c-0.8-0.5-1.5-1.2-2-2c-0.8-1.5-0.8-3-0.8-3.5v-8c0-0.5,0.4-1,1-1c0.5,0,1,0.4,1,1v8
		c0,0.4,0,1.5,0.6,2.6c0.3,0.6,0.7,1,1.3,1.3c0.7,0.4,1.6,0.6,2.6,0.6s2-0.2,2.6-0.6c0.5-0.3,0.9-0.7,1.2-1.3c0.6-1,0.6-2.2,0.6-2.6
		v-8c0-0.5,0.4-1,1-1c0.5,0,1,0.4,1,1v8c0,0.5,0,2-0.8,3.5C933.7,1687.1,932.1,1688.7,928.8,1688.7z"/>
	<path d="M952.2,1688.5c-0.3,0-0.6-0.1-0.8-0.3l-9.3-11.2v10.6c0,0.5-0.4,1-1,1c-0.5,0-1-0.4-1-1v-13.2c0-0.4,0.2-0.8,0.6-0.9
		s0.8,0,1.1,0.3l9.3,11.2v-10.5c0-0.5,0.4-1,1-1c0.5,0,1,0.4,1,1v13.2c0,0.4-0.3,0.8-0.6,0.9
		C952.4,1688.5,952.3,1688.5,952.2,1688.5z"/>
	<path d="M959.1,1688.5c-0.5,0-1-0.4-1-1v-13.2c0-0.5,0.4-1,1-1c0.5,0,1,0.4,1,1v13.2C960.1,1688,959.7,1688.5,959.1,1688.5z"/>
	<path d="M977.4,1674.3c0,0.5-0.4,1-1,1h-4.2v12.3c0,0.5-0.4,1-1,1c-0.5,0-1-0.4-1-1v-12.3h-4.2c-0.5,0-1-0.4-1-1s0.4-1,1-1h10.4
		C977,1673.3,977.4,1673.7,977.4,1674.3z"/>
	<path d="M994.6,1674.8l-5,7.5v5.2c0,0.5-0.4,1-1,1c-0.5,0-1-0.4-1-1v-5.2l-5-7.5c-0.3-0.4-0.2-1,0.3-1.3c0.4-0.3,1-0.2,1.3,0.3
		l4.4,6.6l4.4-6.6c0.3-0.4,0.9-0.6,1.3-0.3C994.7,1673.8,994.8,1674.4,994.6,1674.8z"/>
</g>
<g>
	
		<radialGradient id="SVGID_2_" cx="919.7005" cy="1486.4105" r="91.1293" gradientTransform="matrix(6.123234e-17 -1 1 6.123234e-17 -566.7098 2406.1111)" gradientUnits="userSpaceOnUse">
		<stop  offset="6.385220e-03" style="stop-color:#00E7D6"/>
		<stop  offset="0.3649" style="stop-color:#07C9BE"/>
		<stop  offset="0.5239" style="stop-color:#05B0B4"/>
		<stop  offset="1" style="stop-color:#016A97"/>
	</radialGradient>
	<path class="st3" d="M940.1,1400.8l-10.2-5.9l-10.2-5.9l-10.3,5.9l-10.2,5.9l-63.9,36.9v97.4l9.2,5.3l10.2,5.9l65,37.5l65-37.5
		l10.2-5.9l9.2-5.3v-97.4L940.1,1400.8z M991.5,1527.9l-5.7,3.3c-4.6-4.2-9.6-7.9-14.9-11.1c-4-2.5-8.2-4.7-12.6-6.5
		c-11.8-5.1-24.9-7.9-38.6-7.9c-13.7,0-26.7,2.8-38.6,7.9c-4.4,1.9-8.6,4-12.6,6.5l11.6,6.7l39.6,22.8l39.6-22.8
		c5.7,2.9,11.1,6.5,16,10.5l-55.6,32.1l-55.6-32.1l-10.6-6.1l-5.7-3.3v-5.6c6-2,11.7-4.5,17.1-7.6c4.2-2.4,8.2-5,12-7.9
		c20.5-15.9,34.7-39.7,37.8-66.8c0.4-3.7,0.6-7.5,0.6-11.3c0-1,0-1.9-0.1-2.9l-11.6,6.7l-38.7,22.4v46.3c-5.3,3.6-11.1,6.5-17.1,8.9
		v-65.1l54.6-31.5l10.6-6.1l6.7-3.8l6.7,3.9c-0.9,4.5-1.6,9.1-1.9,13.8c-0.1,1.6-0.2,3.2-0.2,4.8c-0.1,4.8,0.2,9.6,0.8,14.2
		c2.5,19.3,10.6,37.5,23.8,52.4c4.1,4.7,8.6,9,13.5,12.7c3.8,3,7.8,5.7,12,8v-58.6l-38.3-22.1c-0.2-3.6-0.2-7.2,0-10.8
		c0.2-2.8,0.5-5.7,0.9-8.4l54.5,31.4V1527.9z M945.3,1521l-25.6,14.7l-25.6-14.8c8.1-2.5,16.7-3.8,25.6-3.8
		C928.6,1517.2,937.2,1518.5,945.3,1521z M877,1491.5v-29.8l24.8-14.3C898,1464.5,889.2,1479.8,877,1491.5z M938.3,1447.8l24.2,14
		v28.3c-1.7-1.6-3.3-3.3-4.8-5C948.1,1474.2,941.5,1461.4,938.3,1447.8z"/>
</g>
</svg>
