<?xml version="1.0" encoding="utf-8"?>
<!-- Generator: Adobe Illustrator 24.1.0, SVG Export Plug-In . SVG Version: 6.00 Build 0)  -->
<svg version="1.1" id="Warstwa_1" xmlns="http://www.w3.org/2000/svg" xmlns:xlink="http://www.w3.org/1999/xlink" x="0px" y="0px"
	 viewBox="0 0 600 250" style="enable-background:new 0 0 600 250;" xml:space="preserve">
<style type="text/css">
	.st0{fill:#1EA2C1;}
	.st1{fill:url(#SVGID_1_);}
	.st2{fill:url(#SVGID_2_);}
	.st3{fill:#FFFFFF;}
	.st4{fill:url(#SVGID_3_);}
</style>
<g>
	<path d="M225.7,107.9v17c0,0.7-0.5,1.2-1.2,1.2c-0.7,0-1.2-0.6-1.2-1.2v-7.4h-10.7v7.4c0,0.7-0.5,1.2-1.2,1.2
		c-0.7,0-1.2-0.6-1.2-1.2v-17c0-0.7,0.5-1.2,1.2-1.2c0.7,0,1.2,0.5,1.2,1.2v7.1h10.7v-7.1c0-0.7,0.6-1.2,1.2-1.2
		C225.1,106.7,225.7,107.2,225.7,107.9z"/>
	<path d="M237.8,126.4c-1.8,0-3.4-0.4-4.6-1.1c-1.1-0.6-1.9-1.5-2.5-2.6c-1-1.9-1-3.8-1-4.5v-10.3c0-0.7,0.6-1.2,1.2-1.2
		c0.7,0,1.2,0.6,1.2,1.2v10.3c0,0.5,0,2,0.7,3.3c0.4,0.7,0.9,1.3,1.6,1.7c0.9,0.5,2,0.8,3.4,0.8c1.4,0,2.5-0.3,3.4-0.8
		c0.7-0.4,1.2-0.9,1.6-1.6c0.7-1.3,0.7-2.8,0.7-3.3v-10.3c0-0.7,0.6-1.2,1.2-1.2c0.7,0,1.2,0.6,1.2,1.2v10.3c0,0.6,0,2.6-1,4.5
		C244.1,124.4,242.1,126.4,237.8,126.4z"/>
	<path d="M267.8,126c-0.7,0-1.2-0.6-1.2-1.2v-13.2l-6.1,8.3c-0.2,0.3-0.6,0.5-1,0.5c-0.4,0-0.8-0.2-1-0.5l-6.1-8.3v13.2
		c0,0.7-0.5,1.2-1.2,1.2c-0.7,0-1.2-0.6-1.2-1.2v-17c0-0.5,0.3-1,0.9-1.2c0.5-0.2,1.1,0,1.4,0.4l7.3,10l7.3-10
		c0.3-0.4,0.9-0.6,1.4-0.4c0.5,0.2,0.8,0.6,0.8,1.2v17C269.1,125.5,268.5,126,267.8,126z"/>
	<path d="M274.1,126.1c-0.2,0-0.5-0.1-0.7-0.2c-0.5-0.3-0.6-1-0.4-1.5l8.2-17c0.2-0.4,0.6-0.7,1.1-0.7c0.5,0,0.9,0.3,1.1,0.7
		l8.3,16.9c0.3,0.6,0,1.3-0.6,1.6c-0.6,0.3-1.4,0-1.7-0.5l-1.9-4c-1.3-0.4-2.6-0.4-4.1-0.1c-1.4,0.2-2.8,0.7-4.2,1.5
		c-2.5,1.3-4.3,3-4.3,3C274.8,126,274.4,126.1,274.1,126.1z M282.4,110.8l-5,10.3c0.2-0.1,0.4-0.2,0.7-0.4c1.7-0.9,3.3-1.5,4.9-1.8
		c1.1-0.2,2.2-0.3,3.2-0.2L282.4,110.8z"/>
	<path d="M310.1,126.2c-0.4,0-0.7-0.2-1-0.4l-11.9-14.4V125c0,0.7-0.5,1.2-1.2,1.2c-0.7,0-1.2-0.5-1.2-1.2v-17c0-0.5,0.3-1,0.8-1.2
		c0.5-0.2,1,0,1.4,0.4l12,14.3V108c0-0.7,0.5-1.2,1.2-1.2c0.7,0,1.2,0.5,1.2,1.2v17c0,0.5-0.3,1-0.8,1.2
		C310.4,126.2,310.2,126.2,310.1,126.2z"/>
	<path d="M336.6,126.5c-1.4,0-2.7-0.3-4-0.8c-1.2-0.5-2.3-1.2-3.2-2.2c-0.9-0.9-1.7-2-2.2-3.2c-0.5-1.2-0.8-2.5-0.8-3.9
		c0-1.4,0.3-2.7,0.8-3.9c0.5-1.2,1.3-2.3,2.2-3.2c0.9-0.9,2.1-1.7,3.3-2.2c1.3-0.5,2.6-0.8,4-0.8c2.2,0,4.3,0.7,6,2
		c0.5,0.4,0.6,1.2,0.2,1.7c-0.4,0.5-1.2,0.6-1.7,0.2c-1.3-1-2.9-1.5-4.6-1.5c-1,0-2.1,0.2-3,0.6c-0.9,0.4-1.8,0.9-2.5,1.7
		c-0.7,0.7-1.3,1.5-1.7,2.4c-0.4,0.9-0.6,1.9-0.6,2.9s0.2,2,0.6,2.9c0.4,0.9,0.9,1.7,1.7,2.4c1.5,1.5,3.4,2.3,5.4,2.3
		c0.9,0,1.8-0.2,2.6-0.5c0.8-0.3,1.6-0.7,2.2-1.3c0.5-0.4,1.3-0.4,1.7,0.1s0.4,1.3-0.1,1.7c-0.9,0.7-1.9,1.3-2.9,1.7
		C339,126.2,337.8,126.5,336.6,126.5z"/>
	<path d="M357.5,126.6c-1.4,0-2.7-0.3-4-0.8c-1.2-0.5-2.3-1.2-3.2-2.2c-0.9-0.9-1.7-2-2.2-3.2c-0.5-1.2-0.8-2.5-0.8-3.9
		c0-1.4,0.3-2.7,0.8-3.9c0.5-1.2,1.3-2.3,2.2-3.2c0.9-0.9,2-1.7,3.2-2.2c1.3-0.5,2.6-0.8,4-0.8c2.7,0,5.2,1.1,7.1,3
		c0.9,0.9,1.6,2,2.1,3.2c0.5,1.2,0.8,2.5,0.8,3.9c0,1.4-0.2,2.7-0.8,3.9c-0.5,1.2-1.2,2.3-2.1,3.2
		C362.7,125.5,360.2,126.6,357.5,126.6z M357.6,108.9c-1,0-2.1,0.2-3,0.6c-0.9,0.4-1.8,0.9-2.5,1.7c-0.7,0.7-1.3,1.5-1.7,2.4
		c-0.4,0.9-0.6,1.9-0.6,2.9c0,1,0.2,2,0.6,2.9c0.4,0.9,0.9,1.7,1.7,2.4c1.5,1.5,3.4,2.3,5.4,2.3c2.1,0,4-0.8,5.4-2.3
		c0.7-0.7,1.2-1.5,1.6-2.4c0.4-0.9,0.6-1.9,0.6-2.9c0-2-0.8-3.9-2.2-5.3C361.5,109.7,359.6,108.9,357.6,108.9z"/>
	<path d="M383.4,126.1h-10.8c-0.7,0-1.2-0.5-1.2-1.2v-17c0-0.7,0.6-1.2,1.2-1.2c0.7,0,1.2,0.5,1.2,1.2v15.7h9.5
		c0.7,0,1.2,0.5,1.2,1.2C384.6,125.6,384.1,126.1,383.4,126.1z"/>
	<path d="M398.6,126.6c-1.4,0-2.7-0.3-4-0.8c-1.2-0.5-2.3-1.2-3.2-2.2c-0.9-0.9-1.7-2-2.2-3.2c-0.5-1.2-0.8-2.5-0.8-3.9
		c0-1.4,0.3-2.7,0.8-3.9c0.5-1.2,1.3-2.3,2.2-3.2c0.9-0.9,2-1.7,3.2-2.2c1.3-0.5,2.6-0.8,4-0.8c2.7,0,5.2,1.1,7.1,3
		c0.9,0.9,1.6,2,2.1,3.2c0.5,1.2,0.8,2.5,0.8,3.9c0,1.4-0.2,2.7-0.8,3.9c-0.5,1.2-1.2,2.3-2.1,3.2
		C403.9,125.5,401.3,126.6,398.6,126.6z M398.7,108.9c-1,0-2.1,0.2-3,0.6c-0.9,0.4-1.8,0.9-2.5,1.7c-0.7,0.7-1.3,1.5-1.7,2.4
		c-0.4,0.9-0.6,1.9-0.6,2.9c0,1,0.2,2,0.6,2.9c0.4,0.9,0.9,1.7,1.7,2.4c1.5,1.5,3.4,2.3,5.4,2.3c2.1,0,4-0.8,5.4-2.3
		c0.7-0.7,1.2-1.5,1.6-2.4c0.4-0.9,0.6-1.9,0.6-2.9c0-2-0.8-3.9-2.2-5.3C402.6,109.7,400.7,108.9,398.7,108.9z"/>
	<path d="M419.7,126.4c-5.4,0-6.9-2.5-7-2.8c-0.3-0.6-0.1-1.4,0.5-1.7c0.6-0.3,1.3-0.1,1.7,0.5c0,0,0.3,0.4,0.9,0.7
		c1.2,0.7,2.8,0.8,4,0.8c1.6,0,2.9-0.3,3.6-1c0.5-0.5,0.7-1.1,0.7-1.5c0-0.9-0.3-1.6-0.9-2.2c-0.8-0.8-2.1-1.3-4-1.7
		c-1.4-0.3-2.5-0.8-3.5-1.4c-0.8-0.5-1.4-1.2-1.9-2c-0.7-1.2-0.7-2.4-0.7-2.6c0-1.3,0.6-2.6,1.7-3.6c0.5-0.5,1.2-0.8,1.9-1.1
		c0.7-0.3,1.6-0.4,2.4-0.4c4.8,0,6.2,2.3,6.4,2.5c0.3,0.6,0.1,1.4-0.5,1.7c-0.6,0.3-1.3,0.1-1.7-0.4c0,0-0.3-0.3-0.8-0.6
		c-0.6-0.3-1.7-0.7-3.4-0.7c-1.4,0-2.2,0.5-2.6,0.9c-0.5,0.5-0.8,1.1-0.8,1.8v0c0,0.1,0,0.7,0.4,1.4c0.3,0.4,0.6,0.8,1.1,1.1
		c0.6,0.4,1.5,0.7,2.5,1c2.4,0.5,4.1,1.2,5.2,2.3c1.1,1,1.6,2.4,1.6,4c0,1.3-0.5,2.5-1.5,3.4C423.8,125.9,422,126.4,419.7,126.4z"/>
	<path d="M437.6,126.4c-5.4,0-6.9-2.5-7-2.8c-0.3-0.6-0.1-1.4,0.5-1.7c0.6-0.3,1.3-0.1,1.7,0.5c0,0,0.3,0.4,0.9,0.7
		c1.2,0.7,2.8,0.8,4,0.8c1.6,0,2.9-0.3,3.6-1c0.5-0.5,0.7-1.1,0.7-1.5c0-0.9-0.3-1.6-0.9-2.2c-0.8-0.8-2.1-1.3-4-1.7
		c-1.4-0.3-2.5-0.8-3.5-1.4c-0.8-0.5-1.4-1.2-1.9-2c-0.7-1.2-0.7-2.4-0.7-2.6c0-1.3,0.6-2.6,1.7-3.6c0.5-0.5,1.2-0.8,1.9-1.1
		c0.7-0.3,1.6-0.4,2.4-0.4c4.8,0,6.2,2.3,6.4,2.5c0.3,0.6,0.1,1.4-0.5,1.7c-0.6,0.3-1.3,0.1-1.7-0.4c0,0-0.3-0.3-0.8-0.6
		c-0.6-0.3-1.7-0.7-3.4-0.7c-1.4,0-2.2,0.5-2.6,0.9c-0.5,0.5-0.8,1.1-0.8,1.8v0c0,0.1,0,0.7,0.4,1.4c0.3,0.4,0.6,0.8,1.1,1.1
		c0.6,0.4,1.5,0.7,2.5,1c2.4,0.5,4.1,1.2,5.2,2.3c1.1,1,1.6,2.4,1.6,4c0,1.3-0.5,2.5-1.5,3.4C441.6,125.9,439.9,126.4,437.6,126.4z"
		/>
	<path d="M456.4,126.4c-1.8,0-3.4-0.4-4.6-1.1c-1.1-0.6-1.9-1.5-2.5-2.6c-1-1.9-1-3.8-1-4.5v-10.3c0-0.7,0.6-1.2,1.2-1.2
		c0.7,0,1.2,0.6,1.2,1.2v10.3c0,0.5,0,2,0.7,3.3c0.4,0.7,0.9,1.3,1.6,1.7c0.9,0.5,2,0.8,3.4,0.8c1.4,0,2.5-0.3,3.4-0.8
		c0.7-0.4,1.2-0.9,1.6-1.6c0.7-1.3,0.7-2.8,0.7-3.3v-10.3c0-0.7,0.6-1.2,1.2-1.2c0.7,0,1.2,0.6,1.2,1.2v10.3c0,0.6,0,2.6-1,4.5
		C462.6,124.4,460.7,126.4,456.4,126.4z"/>
	<path d="M475.7,126.4c-5.4,0-6.9-2.5-7-2.8c-0.3-0.6-0.1-1.4,0.5-1.7c0.6-0.3,1.3-0.1,1.7,0.5c0,0,0.3,0.4,0.9,0.7
		c1.2,0.7,2.8,0.8,4,0.8c1.6,0,2.9-0.3,3.6-1c0.5-0.5,0.7-1.1,0.7-1.5c0-0.9-0.3-1.6-0.9-2.2c-0.8-0.8-2.1-1.3-4-1.7
		c-1.4-0.3-2.5-0.8-3.5-1.4c-0.8-0.5-1.4-1.2-1.9-2c-0.7-1.2-0.7-2.4-0.7-2.6c0-1.3,0.6-2.6,1.7-3.6c0.5-0.5,1.2-0.8,1.9-1.1
		c0.7-0.3,1.6-0.4,2.4-0.4c4.8,0,6.2,2.3,6.4,2.5c0.3,0.6,0.1,1.4-0.5,1.7c-0.6,0.3-1.3,0.1-1.7-0.4c0,0-0.3-0.3-0.8-0.6
		c-0.6-0.3-1.7-0.7-3.4-0.7c-1.4,0-2.2,0.5-2.6,0.9c-0.5,0.5-0.8,1.1-0.8,1.8v0c0,0.1,0,0.7,0.4,1.4c0.3,0.4,0.6,0.8,1.1,1.1
		c0.6,0.4,1.5,0.7,2.5,1c2.4,0.5,4.1,1.2,5.2,2.3c1.1,1,1.6,2.4,1.6,4c0,1.3-0.5,2.5-1.5,3.4C479.8,125.9,478,126.4,475.7,126.4z"/>
	<path d="M217.7,140c0,0.4-0.3,0.7-0.7,0.7h-6.2v3.7h5.3c0.4,0,0.7,0.3,0.7,0.7c0,0.4-0.3,0.7-0.7,0.7h-5.3v4.2
		c0,0.4-0.3,0.7-0.7,0.7c-0.4,0-0.7-0.3-0.7-0.7V140c0-0.4,0.3-0.7,0.7-0.7h7C217.4,139.2,217.7,139.6,217.7,140z"/>
	<path d="M227.6,151.1c-0.8,0-1.6-0.2-2.4-0.5c-0.7-0.3-1.4-0.7-1.9-1.3c-0.5-0.6-1-1.2-1.3-1.9c-0.3-0.7-0.5-1.5-0.5-2.3
		c0-0.8,0.2-1.6,0.5-2.3c0.3-0.7,0.8-1.4,1.3-1.9c0.6-0.6,1.2-1,1.9-1.3c0.8-0.3,1.6-0.5,2.4-0.5c1.6,0,3.1,0.6,4.3,1.8
		c0.5,0.5,1,1.2,1.3,1.9c0.3,0.7,0.5,1.5,0.5,2.3c0,0.8-0.1,1.6-0.5,2.3c-0.3,0.7-0.7,1.4-1.3,1.9
		C230.8,150.5,229.3,151.1,227.6,151.1z M227.7,140.5c-0.6,0-1.2,0.1-1.8,0.4c-0.6,0.2-1.1,0.6-1.5,1c-0.4,0.4-0.8,0.9-1,1.5
		c-0.3,0.5-0.4,1.1-0.4,1.8s0.1,1.2,0.4,1.8c0.2,0.5,0.6,1,1,1.5c0.9,0.9,2,1.4,3.3,1.4c1.2,0,2.4-0.5,3.2-1.4
		c0.4-0.4,0.7-0.9,1-1.5c0.2-0.6,0.3-1.2,0.3-1.8c0-1.2-0.5-2.4-1.3-3.2C230,141,228.9,140.5,227.7,140.5z"/>
	<path d="M242.3,151.1c-1.1,0-2-0.2-2.8-0.7c-0.7-0.4-1.2-0.9-1.5-1.6c-0.6-1.1-0.6-2.3-0.6-2.7V140c0-0.4,0.3-0.7,0.7-0.7
		c0.4,0,0.7,0.3,0.7,0.7v6.2c0,0.3,0,1.2,0.4,2c0.2,0.4,0.5,0.8,1,1c0.5,0.3,1.2,0.5,2,0.5s1.5-0.2,2-0.5c0.4-0.2,0.7-0.6,1-1
		c0.4-0.8,0.4-1.7,0.4-2V140c0-0.4,0.3-0.7,0.7-0.7c0.4,0,0.7,0.3,0.7,0.7v6.2c0,0.4,0,1.6-0.6,2.7
		C246.1,149.9,244.9,151.1,242.3,151.1z"/>
	<path d="M260.3,150.9c-0.2,0-0.4-0.1-0.6-0.3l-7.2-8.6v8.1c0,0.4-0.3,0.7-0.7,0.7c-0.4,0-0.7-0.3-0.7-0.7V140
		c0-0.3,0.2-0.6,0.5-0.7s0.6,0,0.8,0.2l7.2,8.6V140c0-0.4,0.3-0.7,0.7-0.7c0.4,0,0.7,0.3,0.7,0.7v10.2c0,0.3-0.2,0.6-0.5,0.7
		C260.5,150.9,260.4,150.9,260.3,150.9z"/>
	<path d="M269.3,150.9L269.3,150.9h-3.7c-0.4,0-0.7-0.3-0.7-0.7V140c0-0.2,0.1-0.4,0.2-0.5c0.1-0.1,0.3-0.2,0.5-0.2h3.7
		c0.8,0,1.6,0.2,2.3,0.5c0.7,0.3,1.4,0.7,1.9,1.3c0.5,0.5,1,1.2,1.3,1.9c0.3,0.7,0.5,1.5,0.5,2.3c0,0.8-0.2,1.5-0.5,2.3
		c-0.3,0.7-0.7,1.3-1.3,1.9c-0.5,0.5-1.2,1-1.9,1.2C270.9,150.7,270.1,150.9,269.3,150.9z M266.4,149.4h2.9c0.6,0,1.2-0.1,1.7-0.4
		s1-0.5,1.5-0.9s0.7-0.9,1-1.4c0.2-0.5,0.4-1.1,0.4-1.6c0-0.6-0.1-1.1-0.4-1.7c-0.2-0.5-0.5-1-1-1.4c-0.9-0.8-2-1.3-3.2-1.3h-2.9
		V149.4z"/>
	<path d="M279.2,150.9c-0.1,0-0.3,0-0.4-0.1c-0.3-0.2-0.4-0.6-0.2-0.9l4.9-10.2c0.1-0.3,0.4-0.4,0.7-0.4s0.5,0.2,0.7,0.4l5,10.2
		c0.2,0.4,0,0.8-0.3,1c-0.4,0.2-0.8,0-1-0.3l-1.2-2.4c-0.8-0.2-1.6-0.3-2.5-0.1c-0.8,0.1-1.7,0.4-2.5,0.9c-1.5,0.8-2.6,1.8-2.6,1.8
		C279.5,150.8,279.3,150.9,279.2,150.9z M284.1,141.6l-3,6.2c0.1-0.1,0.3-0.1,0.4-0.2c1-0.5,2-0.9,3-1.1c0.7-0.1,1.3-0.2,1.9-0.1
		L284.1,141.6z"/>
	<path d="M301,140c0,0.4-0.3,0.7-0.7,0.7H297v9.4c0,0.4-0.3,0.7-0.7,0.7c-0.4,0-0.7-0.3-0.7-0.7v-9.4h-3.3c-0.4,0-0.7-0.3-0.7-0.7
		s0.3-0.7,0.7-0.7h8C300.7,139.2,301,139.5,301,140z"/>
	<path d="M305.6,150.9c-0.4,0-0.7-0.3-0.7-0.7V140c0-0.4,0.3-0.7,0.7-0.7c0.4,0,0.7,0.3,0.7,0.7v10.2
		C306.3,150.6,306,150.9,305.6,150.9z"/>
	<path d="M316.2,151.1c-0.8,0-1.6-0.2-2.4-0.5c-0.7-0.3-1.4-0.7-1.9-1.3c-0.5-0.6-1-1.2-1.3-1.9c-0.3-0.7-0.5-1.5-0.5-2.3
		c0-0.8,0.2-1.6,0.5-2.3c0.3-0.7,0.8-1.4,1.3-1.9c0.6-0.6,1.2-1,1.9-1.3c0.8-0.3,1.6-0.5,2.4-0.5c1.6,0,3.1,0.6,4.3,1.8
		c0.5,0.5,1,1.2,1.3,1.9c0.3,0.7,0.5,1.5,0.5,2.3c0,0.8-0.1,1.6-0.5,2.3c-0.3,0.7-0.7,1.4-1.3,1.9
		C319.4,150.5,317.9,151.1,316.2,151.1z M316.3,140.5c-0.6,0-1.2,0.1-1.8,0.4c-0.6,0.2-1.1,0.6-1.5,1c-0.4,0.4-0.8,0.9-1,1.5
		c-0.3,0.5-0.4,1.1-0.4,1.8s0.1,1.2,0.4,1.8c0.2,0.5,0.6,1,1,1.5c0.9,0.9,2,1.4,3.3,1.4c1.2,0,2.4-0.5,3.2-1.4
		c0.4-0.4,0.7-0.9,1-1.5c0.2-0.6,0.3-1.2,0.3-1.8c0-1.2-0.5-2.4-1.3-3.2C318.6,141,317.5,140.5,316.3,140.5z"/>
	<path d="M335.3,150.9c-0.2,0-0.4-0.1-0.6-0.3l-7.2-8.6v8.1c0,0.4-0.3,0.7-0.7,0.7c-0.4,0-0.7-0.3-0.7-0.7V140
		c0-0.3,0.2-0.6,0.5-0.7s0.6,0,0.8,0.2l7.2,8.6V140c0-0.4,0.3-0.7,0.7-0.7c0.4,0,0.7,0.3,0.7,0.7v10.2c0,0.3-0.2,0.6-0.5,0.7
		C335.4,150.9,335.3,150.9,335.3,150.9z"/>
</g>
<g>
	<path d="M145,77.2l-6.1-3.5l-6.1-3.6l-6.2,3.6l-6.1,3.5L82,99.4V158l5.6,3.2l6.1,3.5l39.1,22.6l39.1-22.6l6.1-3.5l5.6-3.2V99.4
		L145,77.2z M176,153.7l-3.4,2c-2.8-2.5-5.8-4.8-9-6.7c-2.4-1.5-5-2.8-7.6-3.9c-7.1-3-15-4.7-23.2-4.7c-8.2,0-16.1,1.7-23.2,4.7
		c-2.6,1.1-5.2,2.4-7.6,3.9l7,4l23.8,13.7l23.8-13.7c3.5,1.8,6.7,3.9,9.6,6.3l-33.4,19.3l-33.4-19.3l-6.4-3.7l-3.4-2v-3.4
		c3.6-1.2,7.1-2.7,10.3-4.6c2.5-1.4,4.9-3,7.2-4.8c12.4-9.5,20.9-23.9,22.7-40.2c0.3-2.2,0.4-4.5,0.4-6.8c0-0.6,0-1.2,0-1.7l-7,4
		l-23.3,13.4v27.9c-3.2,2.1-6.7,3.9-10.3,5.3v-39.2l32.9-19l6.4-3.7l4-2.3l4.1,2.3c-0.6,2.7-0.9,5.5-1.1,8.3c-0.1,1-0.1,1.9-0.1,2.9
		c-0.1,2.9,0.1,5.7,0.5,8.6c1.5,11.6,6.4,22.5,14.3,31.5c2.5,2.8,5.2,5.4,8.1,7.7c2.3,1.8,4.7,3.4,7.2,4.8v-35.2l-23-13.3
		c-0.1-2.2-0.1-4.3,0-6.5c0.1-1.7,0.3-3.4,0.6-5.1l32.8,18.9V153.7z M148.1,149.5l-15.4,8.9l-15.4-8.9c4.9-1.5,10-2.3,15.4-2.3
		C138.1,147.2,143.3,148,148.1,149.5z M107,131.8v-17.9l14.9-8.6C119.7,115.5,114.4,124.7,107,131.8z M143.9,105.5l14.5,8.4v17
		c-1-1-2-2-2.9-3C149.8,121.3,145.9,113.7,143.9,105.5z"/>
</g>
</svg>
